<svg width="100%" height="100%" viewBox="0 0 439 207" fill="none" xmlns="http://www.w3.org/2000/svg">
<path d="M128.215 15.3811V17.2658H142.993V15.3811H128.215ZM134.38 16.5965V22.5853H136.705V16.5965H134.38ZM135.56 6.80296C132.09 6.80296 129.677 8.24733 129.677 10.4843C129.677 12.7037 132.09 14.1305 135.56 14.1305C139.048 14.1305 141.461 12.7037 141.461 10.4843C141.461 8.24733 139.048 6.80296 135.56 6.80296ZM135.56 8.67007C137.709 8.67007 139.048 9.30418 139.048 10.4843C139.048 11.6469 137.709 12.281 135.56 12.281C133.429 12.281 132.072 11.6469 132.072 10.4843C132.072 9.30418 133.429 8.67007 135.56 8.67007ZM155.656 6.23931V22.6029H157.999V6.23931H155.656ZM145.299 16.8959V18.7982H146.744C149.72 18.7982 152.116 18.7102 154.758 18.2346L154.529 16.3499C151.94 16.7902 149.632 16.8959 146.744 16.8959H145.299ZM145.282 7.63083V9.49793H150.584V12.0872H145.299V17.6005H147.677V13.9367H152.979V7.63083H145.282ZM160.64 12.5804V14.4299H175.401V12.5804H160.64ZM162.454 9.86783V11.6997H173.657V9.86783H162.454ZM162.454 6.55636V11.4531H164.779V8.42347H173.516V6.55636H162.454ZM162.313 15.3458V17.1073H171.279V18.0056H162.331V21.0705H164.638V19.6613H173.586V15.3458H162.313ZM162.331 20.6477V22.4444H174.009V20.6477H162.331ZM182.075 7.33139C179.521 7.33139 177.566 9.00473 177.566 11.3474C177.566 13.7077 179.521 15.3811 182.075 15.3811C184.647 15.3811 186.567 13.7077 186.567 11.3474C186.567 9.00473 184.647 7.33139 182.075 7.33139ZM182.075 9.3394C183.326 9.3394 184.277 10.0792 184.277 11.3474C184.277 12.6333 183.326 13.3731 182.075 13.3731C180.824 13.3731 179.873 12.6333 179.873 11.3474C179.873 10.0792 180.824 9.3394 182.075 9.3394ZM188.099 6.23931V22.6029H190.442V6.23931H188.099ZM177.178 19.2914C179.997 19.2914 183.836 19.2562 187.377 18.5516L187.201 16.8607C183.766 17.3715 179.768 17.4067 176.896 17.4067L177.178 19.2914ZM198.306 6.69728V8.44108H210.46V6.69728H198.306ZM198.43 10.5196V12.2634H210.337V10.5196H198.43ZM200.385 7.38423V11.6469H202.727V7.38423H200.385ZM206.039 7.38423V11.6469H208.382V7.38423H206.039ZM197.02 13.1088V14.9407H211.763V13.1088H197.02ZM198.711 15.839V17.5124H207.677V18.3226H198.729V21.4051H201.036V19.8903H209.984V15.839H198.711ZM198.729 20.7534V22.462H210.407V20.7534H198.729ZM213.664 16.8431V18.763H214.827C216.87 18.763 218.667 18.7102 220.763 18.3226L220.569 16.4379C218.544 16.7902 216.8 16.8431 214.827 16.8431H213.664ZM213.647 7.85981V9.7093H217.152V12.2634H213.664V17.5828H215.937V14.0952H219.407V7.85981H213.647ZM225.008 6.25692V22.5677H227.227V6.25692H225.008ZM220.076 11.8054V13.7253H222.612V11.8054H220.076ZM221.696 6.55636V21.7926H223.863V6.55636H221.696ZM240.613 6.23931V22.6029H242.973V6.23931H240.613ZM234.184 7.38423C231.718 7.38423 229.903 9.63885 229.903 13.1969C229.903 16.7902 231.718 19.0448 234.184 19.0448C236.65 19.0448 238.464 16.7902 238.464 13.1969C238.464 9.63885 236.65 7.38423 234.184 7.38423ZM234.184 9.51555C235.399 9.51555 236.209 10.8014 236.209 13.1969C236.209 15.6277 235.399 16.9311 234.184 16.9311C232.968 16.9311 232.14 15.6277 232.14 13.1969C232.14 10.8014 232.968 9.51555 234.184 9.51555ZM247.146 7.75413V9.60362H257.486V7.75413H247.146ZM245.649 18.534V20.4363H260.392V18.534H245.649ZM256.253 7.75413V9.69169C256.253 11.8935 256.253 14.2185 255.654 17.3539L257.997 17.5476C258.578 14.2009 258.578 11.9815 258.578 9.69169V7.75413H256.253ZM272.298 6.23931V22.6029H274.623V6.23931H272.298ZM274.095 12.4043V14.3418H276.983V12.4043H274.095ZM262.504 16.8959V18.8158H263.878C266.714 18.8158 268.951 18.7102 271.417 18.2698L271.188 16.3851C268.793 16.8078 266.644 16.8959 263.878 16.8959H262.504ZM262.487 7.63083V9.49793H267.665V12.0872H262.504V17.6181H264.83V13.9543H269.99V7.63083H262.487ZM278.039 14.1833V16.0328H292.817V14.1833H278.039ZM284.362 15.3987V18.8335H286.74V15.3987H284.362ZM279.765 20.4011V22.2858H291.197V20.4011H279.765ZM279.765 17.4067V20.8767H282.125V17.4067H279.765ZM285.419 6.55636C281.896 6.55636 279.554 7.87743 279.554 9.93829C279.554 12.0168 281.896 13.3202 285.419 13.3202C288.924 13.3202 291.285 12.0168 291.285 9.93829C291.285 7.87743 288.924 6.55636 285.419 6.55636ZM285.419 8.40585C287.48 8.40585 288.766 8.93428 288.766 9.93829C288.766 10.9423 287.48 11.4531 285.419 11.4531C283.358 11.4531 282.072 10.9423 282.072 9.93829C282.072 8.93428 283.358 8.40585 285.419 8.40585ZM295.969 13.7782V15.6453H307.435V13.7782H295.969ZM294.26 18.6925V20.6125H309.021V18.6925H294.26ZM295.969 7.5956V14.5532H298.294V9.49793H307.312V7.5956H295.969Z" fill="#CCCCCC"/>
<path d="M92.4479 114.632C92.5756 117.76 93.2779 120.473 94.5548 122.772C95.8956 125.007 97.6513 126.826 99.8221 128.231C101.993 129.571 104.419 130.529 107.1 131.104C109.782 131.742 112.655 132.061 115.72 132.061C118.72 132.061 121.53 131.742 124.147 131.104C126.829 130.529 129.223 129.571 131.33 128.231C133.501 126.89 135.193 125.102 136.406 122.868C137.683 120.633 138.321 117.952 138.321 114.823C138.321 112.652 137.906 110.769 137.076 109.173C136.246 107.577 135.097 106.268 133.628 105.246C132.16 104.225 130.532 103.395 128.744 102.756C126.957 102.054 124.913 101.447 122.615 100.937C121.913 100.745 120.668 100.458 118.88 100.075C114.922 99.2448 111.985 98.4148 110.069 97.5848C108.154 96.7548 107.196 95.414 107.196 93.5625C107.196 91.7748 107.93 90.5618 109.399 89.9233C110.867 89.2848 112.655 88.9656 114.762 88.9656C117.507 88.9656 119.678 89.4764 121.274 90.4979C122.934 91.4556 123.86 93.1794 124.052 95.6694H136.98C136.725 92.7325 135.959 90.2425 134.682 88.1995C133.469 86.1564 131.841 84.5283 129.798 83.3153C127.818 82.1022 125.584 81.2403 123.094 80.7295C120.668 80.1549 118.018 79.8676 115.145 79.8676C112.272 79.8676 109.559 80.123 107.005 80.6338C104.515 81.1445 102.248 82.0064 100.205 83.2195C98.1621 84.3687 96.534 85.9968 95.321 88.1037C94.1717 90.2106 93.5971 92.7644 93.5971 95.7652C93.5971 97.8721 94.0121 99.6917 94.8421 101.224C95.736 102.692 96.9171 103.937 98.3856 104.959C99.854 105.917 101.45 106.715 103.174 107.353C104.962 107.928 107.005 108.47 109.303 108.981C114.985 110.194 118.976 111.312 121.274 112.333C123.573 113.291 124.722 114.727 124.722 116.643C124.722 118.813 123.828 120.41 122.04 121.431C120.253 122.453 118.178 122.963 115.815 122.963C112.879 122.963 110.42 122.293 108.441 120.952C106.462 119.548 105.441 117.441 105.377 114.632H92.4479ZM189.951 110.609C189.951 110.37 189.951 109.981 189.951 109.442C190.011 108.963 190.041 108.604 190.041 108.365C190.041 104.953 189.532 101.721 188.514 98.6682C187.557 95.6155 186.12 92.9221 184.205 90.5877C182.349 88.2533 179.985 86.4277 177.112 85.1109C174.299 83.7343 171.066 83.0459 167.415 83.0459C163.944 83.0459 160.741 83.6744 157.808 84.9314C154.876 86.1285 152.362 87.8344 150.267 90.049C148.172 92.2636 146.556 94.8674 145.418 97.8601C144.281 100.853 143.713 104.085 143.713 107.557C143.713 111.088 144.251 114.38 145.329 117.433C146.466 120.426 148.052 123.029 150.087 125.244C152.182 127.399 154.696 129.075 157.629 130.272C160.562 131.409 163.824 131.978 167.415 131.978C172.802 131.978 177.321 130.721 180.972 128.207C184.683 125.633 187.407 121.683 189.143 116.355H177.92C177.501 117.912 176.334 119.318 174.418 120.575C172.503 121.772 170.318 122.371 167.864 122.371C164.273 122.371 161.519 121.413 159.604 119.498C157.689 117.582 156.641 114.62 156.462 110.609H189.951ZM156.462 102.529C156.522 101.511 156.731 100.464 157.09 99.3864C157.449 98.2492 158.048 97.1718 158.886 96.1542C159.724 95.1367 160.801 94.2987 162.118 93.6403C163.495 92.9819 165.141 92.6527 167.056 92.6527C170.049 92.6527 172.323 93.4608 173.88 95.0768C175.496 96.6929 176.603 99.1769 177.202 102.529H156.462ZM241.506 110.609C241.506 110.37 241.506 109.981 241.506 109.442C241.566 108.963 241.596 108.604 241.596 108.365C241.596 104.953 241.087 101.721 240.069 98.6682C239.112 95.6155 237.675 92.9221 235.76 90.5877C233.904 88.2533 231.54 86.4277 228.667 85.1109C225.854 83.7343 222.621 83.0459 218.97 83.0459C215.499 83.0459 212.296 83.6744 209.364 84.9314C206.431 86.1285 203.917 87.8344 201.822 90.049C199.727 92.2636 198.111 94.8674 196.973 97.8601C195.836 100.853 195.268 104.085 195.268 107.557C195.268 111.088 195.806 114.38 196.884 117.433C198.021 120.426 199.607 123.029 201.642 125.244C203.737 127.399 206.251 129.075 209.184 130.272C212.117 131.409 215.379 131.978 218.97 131.978C224.357 131.978 228.876 130.721 232.528 128.207C236.239 125.633 238.962 121.683 240.698 116.355H229.475C229.056 117.912 227.889 119.318 225.973 120.575C224.058 121.772 221.873 122.371 219.419 122.371C215.828 122.371 213.075 121.413 211.159 119.498C209.244 117.582 208.196 114.62 208.017 110.609H241.506ZM208.017 102.529C208.077 101.511 208.286 100.464 208.645 99.3864C209.004 98.2492 209.603 97.1718 210.441 96.1542C211.279 95.1367 212.356 94.2987 213.673 93.6403C215.05 92.9819 216.696 92.6527 218.611 92.6527C221.604 92.6527 223.878 93.4608 225.435 95.0768C227.051 96.6929 228.158 99.1769 228.757 102.529H208.017ZM246.823 115.637C246.942 118.57 247.601 121.114 248.798 123.269C250.055 125.364 251.701 127.07 253.736 128.386C255.771 129.643 258.046 130.541 260.559 131.08C263.073 131.678 265.767 131.978 268.64 131.978C271.453 131.978 274.087 131.678 276.541 131.08C279.055 130.541 281.299 129.643 283.275 128.386C285.31 127.129 286.896 125.453 288.033 123.358C289.23 121.264 289.829 118.75 289.829 115.817C289.829 113.782 289.44 112.016 288.662 110.52C287.883 109.023 286.806 107.796 285.429 106.838C284.053 105.881 282.526 105.103 280.85 104.504C279.175 103.846 277.259 103.277 275.104 102.798C274.446 102.619 273.279 102.349 271.603 101.99C267.892 101.212 265.138 100.434 263.343 99.6558C261.547 98.8777 260.649 97.6207 260.649 95.8849C260.649 94.2089 261.338 93.0717 262.714 92.4731C264.091 91.8746 265.767 91.5753 267.742 91.5753C270.316 91.5753 272.351 92.0542 273.847 93.0118C275.404 93.9097 276.272 95.5258 276.451 97.8601H288.572C288.332 95.1068 287.614 92.7724 286.417 90.857C285.28 88.9417 283.753 87.4154 281.838 86.2781C279.983 85.1409 277.888 84.3328 275.553 83.854C273.279 83.3153 270.795 83.0459 268.101 83.0459C265.408 83.0459 262.864 83.2853 260.47 83.7642C258.135 84.243 256.01 85.0511 254.095 86.1883C252.18 87.2657 250.653 88.792 249.516 90.7673C248.439 92.7425 247.9 95.1367 247.9 97.9499C247.9 99.9251 248.289 101.631 249.067 103.068C249.905 104.444 251.013 105.611 252.389 106.569C253.766 107.467 255.262 108.215 256.878 108.814C258.554 109.352 260.47 109.861 262.624 110.34C267.952 111.477 271.693 112.525 273.847 113.482C276.002 114.38 277.08 115.727 277.08 117.523C277.08 119.558 276.242 121.054 274.566 122.012C272.89 122.969 270.944 123.448 268.73 123.448C265.976 123.448 263.672 122.82 261.816 121.563C259.961 120.246 259.003 118.271 258.943 115.637H246.823ZM295.854 107.557C295.854 114.919 298.039 120.845 302.408 125.334C306.778 129.763 312.584 131.978 319.826 131.978C327.128 131.978 332.964 129.763 337.334 125.334C341.703 120.845 343.888 114.919 343.888 107.557C343.888 100.135 341.703 94.2089 337.334 89.7796C332.964 85.2905 327.128 83.0459 319.826 83.0459C312.584 83.0459 306.778 85.2905 302.408 89.7796C298.039 94.2089 295.854 100.135 295.854 107.557ZM308.603 107.557C308.603 105.581 308.783 103.726 309.142 101.99C309.561 100.194 310.189 98.6083 311.027 97.2316C311.925 95.7951 313.092 94.6878 314.529 93.9097C316.025 93.0717 317.791 92.6527 319.826 92.6527C321.921 92.6527 323.687 93.0717 325.123 93.9097C326.62 94.6878 327.787 95.7951 328.625 97.2316C329.523 98.6083 330.151 100.194 330.51 101.99C330.929 103.726 331.139 105.581 331.139 107.557C331.139 109.532 330.929 111.387 330.51 113.123C330.151 114.859 329.523 116.445 328.625 117.882C327.787 119.258 326.62 120.366 325.123 121.204C323.687 121.982 321.921 122.371 319.826 122.371C317.791 122.371 316.025 121.982 314.529 121.204C313.092 120.366 311.925 119.258 311.027 117.882C310.189 116.445 309.561 114.859 309.142 113.123C308.783 111.387 308.603 109.532 308.603 107.557Z" fill="#CCCCCC"/>
<rect x="53.7339" y="49.9068" width="329.532" height="109.265" rx="54.6323" stroke="#CCCCCC" stroke-width="1.46785"/>
<path d="M6.885 195.279V196.741H9.69V195.279H6.885ZM3.808 191.284V194.089C3.808 196.741 2.737 199.512 0.544 200.838L1.632 202.181C3.995 200.736 5.185 197.455 5.185 194.089V191.284H3.808ZM4.182 191.284V194.021C4.182 197.183 5.219 200.396 7.548 201.841L8.551 200.447C6.477 199.138 5.525 196.52 5.525 194.021V191.284H4.182ZM12.342 189.873V205.411H14.042V189.873H12.342ZM9.18 190.162V204.663H10.846V190.162H9.18ZM27.9637 189.873V205.411H29.6637V189.873H27.9637ZM25.5837 195.993V197.438H28.3887V195.993H25.5837ZM24.4617 190.179V204.646H26.1107V190.179H24.4617ZM16.9137 200.243V201.722H17.9677C20.1437 201.722 21.7417 201.654 23.6117 201.28L23.4587 199.818C21.6397 200.175 20.0757 200.243 17.9677 200.243H16.9137ZM16.9137 191.726V200.94H18.6817V193.171H22.6767V191.726H16.9137ZM39.4543 191.964V193.324H43.5683V191.964H39.4543ZM39.4543 194.803V196.163H43.5683V194.803H39.4543ZM43.1433 189.873V197.914H44.9113V189.873H43.1433ZM34.7963 198.611V200.005H43.1603V201.195H34.8303V204.697H36.5813V202.504H44.9113V198.611H34.7963ZM34.8303 203.813V205.224H45.4383V203.813H34.8303ZM32.7563 190.553V197.387H39.9303V190.553H38.1793V192.593H34.5243V190.553H32.7563ZM34.5243 193.953H38.1793V195.976H34.5243V193.953ZM62.5324 189.89V201.246H64.3174V189.89H62.5324ZM54.1684 203.66V205.105H64.7594V203.66H54.1684ZM54.1684 200.175V204.374H55.9534V200.175H54.1684ZM55.3754 190.74V192.287C55.3754 194.531 54.0324 196.758 51.5674 197.659L52.4854 199.087C55.2734 198.033 56.8544 195.313 56.8544 192.287V190.74H55.3754ZM55.7154 190.74V192.287C55.7154 195.262 57.2794 197.812 60.0164 198.798L60.9344 197.387C58.5204 196.554 57.1774 194.48 57.1774 192.287V190.74H55.7154ZM67.155 202.045V203.507H81.231V202.045H67.155ZM73.292 198.424V202.487H75.06V198.424H73.292ZM73.241 191.862V192.644C73.241 194.973 70.793 197.132 67.767 197.625L68.481 199.036C71.932 198.356 74.754 195.874 74.754 192.644V191.862H73.241ZM73.598 191.862V192.644C73.598 195.874 76.42 198.305 79.939 198.968L80.636 197.557C77.559 197.081 75.094 194.973 75.094 192.644V191.862H73.598ZM68.311 191.182V192.627H80.024V191.182H68.311ZM86.9757 191.012C84.6807 191.012 83.0487 193.137 83.0487 196.486C83.0487 199.835 84.6807 201.977 86.9757 201.977C89.2707 201.977 90.9027 199.835 90.9027 196.486C90.9027 193.137 89.2707 191.012 86.9757 191.012ZM86.9757 192.627C88.3187 192.627 89.2197 194.072 89.2197 196.486C89.2197 198.917 88.3187 200.379 86.9757 200.379C85.6497 200.379 84.7487 198.917 84.7487 196.486C84.7487 194.072 85.6497 192.627 86.9757 192.627ZM93.9117 189.856V205.428H95.6797V189.856H93.9117ZM90.3587 195.653V197.081H94.6767V195.653H90.3587ZM100.149 196.979V198.424H110.927V196.979H100.149ZM98.4324 202.079V203.558H112.508V202.079H98.4324ZM104.552 197.625V202.606H106.32V197.625H104.552ZM100.149 191.029V197.608H101.917V192.474H110.791V191.029H100.149ZM118.382 191.301V201.62H124.4V191.301H122.751V194.956H120.065V191.301H118.382ZM120.065 196.367H122.751V200.175H120.065V196.367ZM129.449 189.873V205.411H131.149V189.873H129.449ZM127.205 195.925V197.37H130.01V195.925H127.205ZM126.015 190.162V204.663H127.698V190.162H126.015ZM133.511 198.679V200.124H147.587V198.679H133.511ZM139.614 199.597V205.411H141.382V199.597H139.614ZM140.515 190.451C137.251 190.451 135.007 191.794 135.007 193.902C135.007 195.993 137.251 197.336 140.515 197.336C143.796 197.336 146.023 195.993 146.023 193.902C146.023 191.794 143.796 190.451 140.515 190.451ZM140.515 191.879C142.742 191.879 144.204 192.644 144.204 193.902C144.204 195.16 142.742 195.908 140.515 195.908C138.288 195.908 136.826 195.16 136.826 193.902C136.826 192.644 138.288 191.879 140.515 191.879ZM150.629 191.318V192.763H160.557V191.318H150.629ZM149.167 201.909V203.371H163.209V201.909H149.167ZM154.403 196.452V202.64H156.188V196.452H154.403ZM159.894 191.318V192.831C159.894 194.701 159.894 196.911 159.299 199.937L161.084 200.141C161.679 196.928 161.679 194.769 161.679 192.831V191.318H159.894ZM180.133 189.873V205.411H181.833V189.873H180.133ZM177.787 196.044V197.489H180.592V196.044H177.787ZM176.631 190.179V204.646H178.297V190.179H176.631ZM169.304 191.675V200.651H171.089V191.675H169.304ZM169.304 199.954V201.484H170.324C171.956 201.484 173.741 201.416 175.815 201.025L175.628 199.478C173.639 199.869 171.888 199.954 170.324 199.954H169.304ZM189.543 191.318V192.763H199.471V191.318H189.543ZM188.081 201.909V203.371H202.123V201.909H188.081ZM193.317 196.452V202.64H195.102V196.452H193.317ZM198.808 191.318V192.831C198.808 194.701 198.808 196.911 198.213 199.937L199.998 200.141C200.593 196.928 200.593 194.769 200.593 192.831V191.318H198.808ZM204.519 191.165V198.526H211.88V191.165H204.519ZM210.146 192.593V197.098H206.253V192.593H210.146ZM214.736 189.89V200.991H216.521V189.89H214.736ZM206.372 203.541V204.986H216.963V203.541H206.372ZM206.372 199.954V204.153H208.157V199.954H206.372ZM223.143 192.389V193.817H230.725V192.389H223.143ZM226.951 194.701C225.013 194.701 223.585 196.197 223.585 198.322C223.585 200.447 225.013 201.926 226.951 201.926C228.906 201.926 230.317 200.447 230.317 198.322C230.317 196.197 228.906 194.701 226.951 194.701ZM226.951 196.197C227.988 196.197 228.736 197.047 228.736 198.322C228.736 199.614 227.988 200.43 226.951 200.43C225.914 200.43 225.166 199.614 225.166 198.322C225.166 197.047 225.914 196.197 226.951 196.197ZM234.703 189.873V205.411H236.403V189.873H234.703ZM232.493 196.316V197.761H235.264V196.316H232.493ZM231.405 190.196V204.697H233.071V190.196H231.405ZM226.084 190.315V193.273H227.835V190.315H226.084ZM249.899 189.873V197.744H251.684V189.873H249.899ZM244.867 190.553V191.488C244.867 193.902 242.98 195.789 239.019 196.656L239.631 198.101C244.238 197.03 246.805 194.565 246.805 190.553H244.867ZM239.869 190.553V191.998H245.632V190.553H239.869ZM246.227 191.981V193.358H250.154V191.981H246.227ZM246.108 194.973V196.333H250.069V194.973H246.108ZM241.569 198.39V199.801H249.899V201.076H241.603V204.646H243.371V202.419H251.684V198.39H241.569ZM241.603 203.847V205.258H252.109V203.847H241.603ZM257.48 192.814V193.307C257.48 195.143 256.46 196.894 254.505 197.659L255.338 198.985C257.684 198.05 258.823 195.806 258.823 193.307V192.814H257.48ZM257.837 192.814V193.307C257.837 195.687 258.976 197.846 261.339 198.713L262.138 197.387C260.2 196.673 259.163 195.024 259.163 193.307V192.814H257.837ZM254.862 191.794V193.205H261.73V191.794H254.862ZM257.48 190.043V192.406H259.163V190.043H257.48ZM265.912 189.89V199.41H267.595V189.89H265.912ZM263.685 193.902V195.347H266.405V193.902H263.685ZM262.631 190.145V199.325H264.297V190.145H262.631ZM257.072 200.158V201.586H265.827V205.411H267.595V200.158H257.072ZM277.097 190.111C273.612 190.111 271.572 191.063 271.572 192.797C271.572 194.514 273.612 195.466 277.097 195.466C280.582 195.466 282.639 194.514 282.639 192.797C282.639 191.063 280.582 190.111 277.097 190.111ZM277.097 191.437C279.511 191.437 280.786 191.913 280.786 192.797C280.786 193.681 279.511 194.14 277.097 194.14C274.7 194.14 273.408 193.681 273.408 192.797C273.408 191.913 274.7 191.437 277.097 191.437ZM270.076 196.367V197.778H284.118V196.367H270.076ZM271.742 198.917V200.243H280.616V201.365H271.759V204.289H273.527V202.623H282.367V198.917H271.742ZM271.759 203.898V205.275H282.809V203.898H271.759ZM295.653 195.279V196.741H298.458V195.279H295.653ZM292.576 191.284V194.089C292.576 196.741 291.505 199.512 289.312 200.838L290.4 202.181C292.763 200.736 293.953 197.455 293.953 194.089V191.284H292.576ZM292.95 191.284V194.021C292.95 197.183 293.987 200.396 296.316 201.841L297.319 200.447C295.245 199.138 294.293 196.52 294.293 194.021V191.284H292.95ZM301.11 189.873V205.411H302.81V189.873H301.11ZM297.948 190.162V204.663H299.614V190.162H297.948ZM316.731 189.873V205.411H318.431V189.873H316.731ZM314.351 195.993V197.438H317.156V195.993H314.351ZM313.229 190.179V204.646H314.878V190.179H313.229ZM305.681 200.243V201.722H306.735C308.911 201.722 310.509 201.654 312.379 201.28L312.226 199.818C310.407 200.175 308.843 200.243 306.735 200.243H305.681ZM305.681 191.726V200.94H307.449V193.171H311.444V191.726H305.681ZM328.222 191.964V193.324H332.336V191.964H328.222ZM328.222 194.803V196.163H332.336V194.803H328.222ZM331.911 189.873V197.914H333.679V189.873H331.911ZM323.564 198.611V200.005H331.928V201.195H323.598V204.697H325.349V202.504H333.679V198.611H323.564ZM323.598 203.813V205.224H334.206V203.813H323.598ZM321.524 190.553V197.387H328.698V190.553H326.947V192.593H323.292V190.553H321.524ZM323.292 193.953H326.947V195.976H323.292V193.953ZM336.466 202.13V203.592H350.542V202.13H336.466ZM342.586 198.968V202.725H344.354V198.968H342.586ZM338.115 190.961V192.389H347.091V194.463H338.149V198.764H339.917V195.874H348.859V190.961H338.115ZM338.149 198.033V199.478H349.216V198.033H338.149ZM358.592 199.546V204.561H360.36V200.974H368.877V199.546H358.592ZM358.592 203.796V205.224H369.115V203.796H358.592ZM367.007 189.873V198.747H368.792V189.873H367.007ZM363.522 193.647V195.109H367.432V193.647H363.522ZM360.173 190.672C357.861 190.672 356.127 192.236 356.127 194.429C356.127 196.605 357.861 198.169 360.173 198.169C362.468 198.169 364.219 196.605 364.219 194.429C364.219 192.236 362.468 190.672 360.173 190.672ZM360.173 192.185C361.516 192.185 362.502 193.069 362.502 194.429C362.502 195.772 361.516 196.656 360.173 196.656C358.83 196.656 357.827 195.772 357.827 194.429C357.827 193.069 358.83 192.185 360.173 192.185ZM375.743 191.012C373.448 191.012 371.816 193.137 371.816 196.486C371.816 199.835 373.448 201.977 375.743 201.977C378.038 201.977 379.67 199.835 379.67 196.486C379.67 193.137 378.038 191.012 375.743 191.012ZM375.743 192.627C377.086 192.627 377.987 194.072 377.987 196.486C377.987 198.917 377.086 200.379 375.743 200.379C374.417 200.379 373.516 198.917 373.516 196.486C373.516 194.072 374.417 192.627 375.743 192.627ZM382.679 189.856V205.428H384.447V189.856H382.679ZM379.126 195.653V197.081H383.444V195.653H379.126ZM387.2 202.045V203.507H401.276V202.045H387.2ZM393.32 198.509V202.436H395.088V198.509H393.32ZM388.764 190.927V198.934H399.644V190.927H397.876V193.528H390.549V190.927H388.764ZM390.549 194.939H397.876V197.489H390.549V194.939ZM408.942 195.279V196.741H411.747V195.279H408.942ZM405.865 191.284V194.089C405.865 196.741 404.794 199.512 402.601 200.838L403.689 202.181C406.052 200.736 407.242 197.455 407.242 194.089V191.284H405.865ZM406.239 191.284V194.021C406.239 197.183 407.276 200.396 409.605 201.841L410.608 200.447C408.534 199.138 407.582 196.52 407.582 194.021V191.284H406.239ZM414.399 189.873V205.411H416.099V189.873H414.399ZM411.237 190.162V204.663H412.903V190.162H411.237ZM421.758 197.829V202.334H423.526V197.829H421.758ZM427.453 197.829V202.334H429.238V197.829H427.453ZM418.477 202.045V203.507H432.553V202.045H418.477ZM425.481 190.757C422.166 190.757 419.769 192.355 419.769 194.837C419.769 197.302 422.166 198.9 425.481 198.9C428.796 198.9 431.193 197.302 431.193 194.837C431.193 192.355 428.796 190.757 425.481 190.757ZM425.481 192.151C427.827 192.151 429.459 193.188 429.459 194.837C429.459 196.469 427.827 197.506 425.481 197.506C423.135 197.506 421.503 196.469 421.503 194.837C421.503 193.188 423.135 192.151 425.481 192.151ZM435.867 204.238C436.598 204.238 437.176 203.66 437.176 202.861C437.176 202.045 436.598 201.484 435.867 201.484C435.119 201.484 434.558 202.045 434.558 202.861C434.558 203.66 435.119 204.238 435.867 204.238Z" fill="#CCCCCC"/>
</svg>
