<svg width="100%" height="100%" viewBox="0 0 420 649" fill="none" xmlns="http://www.w3.org/2000/svg">
<path d="M177.332 395.498C177.332 409.958 165.466 421.806 150.674 421.806C135.881 421.806 124.015 409.958 124.015 395.498C124.015 381.038 135.881 369.191 150.674 369.191C165.466 369.191 177.332 381.038 177.332 395.498Z" stroke="#FF0000" stroke-width="14.0307"/>
<path d="M252.397 395.498C252.397 409.958 240.531 421.806 225.738 421.806C210.946 421.806 199.08 409.958 199.08 395.498C199.08 381.038 210.946 369.191 225.738 369.191C240.531 369.191 252.397 381.038 252.397 395.498Z" stroke="#FF0000" stroke-width="14.0307"/>
<line x1="7.01536" y1="-7.01536" x2="39.4361" y2="-7.01536" transform="matrix(0.857501 0.514482 -0.520402 0.853921 136.239 341.845)" stroke="#FF0000" stroke-width="14.0307" stroke-linecap="round"/>
<line x1="7.01536" y1="-7.01536" x2="39.4425" y2="-7.01536" transform="matrix(-0.867709 0.497073 -0.502933 -0.864326 232.026 330)" stroke="#FF0000" stroke-width="14.0307" stroke-linecap="round"/>
</svg>
