<svg width="100%" height="100%" viewBox="0 0 420 649" fill="none" xmlns="http://www.w3.org/2000/svg">
<path d="M176.978 395.686C176.978 410.146 165.112 421.993 150.32 421.993C135.527 421.993 123.661 410.146 123.661 395.686C123.661 381.225 135.527 369.378 150.32 369.378C165.112 369.378 176.978 381.225 176.978 395.686Z" stroke="black" stroke-width="14.0307"/>
<path d="M252.043 395.686C252.043 410.146 240.177 421.993 225.384 421.993C210.592 421.993 198.726 410.146 198.726 395.686C198.726 381.225 210.592 369.378 225.384 369.378C240.177 369.378 252.043 381.225 252.043 395.686Z" stroke="black" stroke-width="14.0307"/>
<line x1="7.01536" y1="-7.01536" x2="39.4361" y2="-7.01536" transform="matrix(0.857501 0.514482 -0.520402 0.853921 135.885 342.033)" stroke="black" stroke-width="14.0307" stroke-linecap="round"/>
<line x1="7.01536" y1="-7.01536" x2="39.4425" y2="-7.01536" transform="matrix(-0.867709 0.497073 -0.502933 -0.864326 231.672 330.188)" stroke="black" stroke-width="14.0307" stroke-linecap="round"/>
</svg>
