<svg width="20" height="18" viewBox="0 0 20 18" fill="none" xmlns="http://www.w3.org/2000/svg">
<path d="M16.5312 0.0625H3.46875C2.64852 0.0634099 1.86214 0.38965 1.28214 0.969643C0.70215 1.54964 0.37591 2.33602 0.375 3.15625V11.4062C0.37591 12.2265 0.70215 13.0129 1.28214 13.5929C1.86214 14.1729 2.64852 14.4991 3.46875 14.5H4.5V17.25C4.49996 17.3807 4.5372 17.5087 4.60733 17.6191C4.67747 17.7294 4.7776 17.8174 4.89599 17.8728C5.01437 17.9283 5.14611 17.9488 5.27575 17.932C5.40539 17.9152 5.52756 17.8618 5.62793 17.7781L9.55914 14.5H16.5312C17.3515 14.4991 18.1379 14.1729 18.7179 13.5929C19.2979 13.0129 19.6241 12.2265 19.625 11.4062V3.15625C19.6241 2.33602 19.2979 1.54964 18.7179 0.969643C18.1379 0.38965 17.3515 0.0634099 16.5312 0.0625V0.0625ZM5.875 8.65625C5.60305 8.65625 5.33721 8.57561 5.11109 8.42452C4.88497 8.27343 4.70874 8.05869 4.60467 7.80744C4.5006 7.55619 4.47337 7.27972 4.52642 7.013C4.57947 6.74628 4.71043 6.50128 4.90273 6.30898C5.09503 6.11668 5.34003 5.98572 5.60675 5.93267C5.87347 5.87962 6.14994 5.90685 6.40119 6.01092C6.65244 6.11499 6.86718 6.29122 7.01827 6.51734C7.16936 6.74346 7.25 7.0093 7.25 7.28125C7.25 7.64592 7.10513 7.99566 6.84727 8.25352C6.58941 8.51138 6.23967 8.65625 5.875 8.65625ZM10 8.65625C9.72805 8.65625 9.46221 8.57561 9.23609 8.42452C9.00997 8.27343 8.83374 8.05869 8.72967 7.80744C8.6256 7.55619 8.59837 7.27972 8.65142 7.013C8.70447 6.74628 8.83543 6.50128 9.02773 6.30898C9.22003 6.11668 9.46503 5.98572 9.73175 5.93267C9.99847 5.87962 10.2749 5.90685 10.5262 6.01092C10.7774 6.11499 10.9922 6.29122 11.1433 6.51734C11.2944 6.74346 11.375 7.0093 11.375 7.28125C11.375 7.64592 11.2301 7.99566 10.9723 8.25352C10.7144 8.51138 10.3647 8.65625 10 8.65625V8.65625ZM14.125 8.65625C13.8531 8.65625 13.5872 8.57561 13.3611 8.42452C13.135 8.27343 12.9587 8.05869 12.8547 7.80744C12.7506 7.55619 12.7234 7.27972 12.7764 7.013C12.8295 6.74628 12.9604 6.50128 13.1527 6.30898C13.345 6.11668 13.59 5.98572 13.8568 5.93267C14.1235 5.87962 14.3999 5.90685 14.6512 6.01092C14.9024 6.11499 15.1172 6.29122 15.2683 6.51734C15.4194 6.74346 15.5 7.0093 15.5 7.28125C15.5 7.64592 15.3551 7.99566 15.0973 8.25352C14.8394 8.51138 14.4897 8.65625 14.125 8.65625Z" fill="#222222"/>
</svg>
