<svg width="305" height="321" viewBox="0 0 305 321" fill="none" xmlns="http://www.w3.org/2000/svg">
<path d="M254.259 176.089C314.631 176.533 292.708 218.183 239.854 254.411C187 290.639 114.785 277.161 78.5567 224.306C42.3289 171.452 40.3785 61.8199 103.259 42.0896C166.139 22.3593 169.055 175.462 254.259 176.089Z" fill="#C2E3E8"/>
<ellipse opacity="0.3" cx="193.347" cy="228.595" rx="53.4561" ry="12.0003" fill="#222222"/>
<path d="M177.548 183.371C181.828 179.09 181.828 172.151 177.548 167.871C173.268 163.59 166.328 163.59 162.048 167.871L145.242 184.677C140.961 188.957 140.961 195.897 145.242 200.177C149.522 204.457 156.461 204.457 160.742 200.177L177.548 183.371Z" fill="white" stroke="#1D1D1B" stroke-width="1.63641" stroke-miterlimit="10"/>
<path d="M258.324 138.39C258.324 138.39 258.421 138.321 258.476 138.28C264.735 133.027 265.548 123.707 260.295 117.462C259.772 116.828 259.193 116.277 258.586 115.753C258.614 115.698 258.655 115.656 258.682 115.601C262.763 108.529 260.337 99.4986 253.278 95.4178C252.561 95.0042 251.831 94.6733 251.086 94.3976C251.086 94.3425 251.114 94.2735 251.128 94.2184C252.548 86.1809 247.171 78.5157 239.133 77.0957C238.32 76.9579 237.52 76.9027 236.721 76.8889C236.721 76.8338 236.721 76.7648 236.693 76.7097C235.273 68.6722 227.608 63.3094 219.571 64.7156C218.757 64.8534 217.985 65.074 217.241 65.3497C217.213 65.2946 217.186 65.2394 217.158 65.1843C213.077 58.1119 204.033 55.6993 196.975 59.78C196.258 60.1936 195.61 60.6624 195.003 61.1725C194.962 61.1311 194.921 61.0897 194.865 61.0484C188.606 55.7958 179.287 56.623 174.048 62.8682C173.524 63.5024 173.069 64.1641 172.669 64.8534C172.614 64.8259 172.559 64.7983 172.504 64.7845C164.839 61.9996 156.346 65.9425 153.561 73.6216C153.286 74.3936 153.093 75.1794 152.941 75.9514C152.886 75.9514 152.817 75.9514 152.762 75.9514C144.6 75.9514 137.983 82.5689 137.983 90.7304C137.983 91.5576 138.066 92.3572 138.19 93.143C138.134 93.1568 138.079 93.1706 138.01 93.1982C130.345 95.983 126.389 104.475 129.173 112.141C129.449 112.913 129.808 113.63 130.194 114.333C130.152 114.374 130.097 114.402 130.042 114.443C123.783 119.696 122.969 129.015 128.222 135.26C128.746 135.895 129.325 136.446 129.932 136.97C129.904 137.025 129.863 137.066 129.835 137.122C125.754 144.194 128.181 153.224 135.239 157.305C135.956 157.718 136.687 158.049 137.431 158.325C137.431 158.38 137.404 158.449 137.39 158.504C135.97 166.542 141.347 174.207 149.384 175.627C150.198 175.765 150.997 175.82 151.797 175.834C151.797 175.889 151.797 175.958 151.824 176.013C153.244 184.05 160.91 189.413 168.947 188.007C169.76 187.869 170.532 187.649 171.277 187.373C171.304 187.428 171.332 187.483 171.36 187.538C175.44 194.611 184.484 197.023 191.543 192.943C192.26 192.529 192.908 192.06 193.514 191.55C193.556 191.591 193.597 191.633 193.652 191.674C199.911 196.927 209.231 196.1 214.47 189.854C214.993 189.22 215.448 188.558 215.848 187.869C215.903 187.897 215.959 187.924 216.014 187.938C223.679 190.723 232.171 186.78 234.956 179.101C235.232 178.329 235.425 177.543 235.577 176.771C235.632 176.771 235.701 176.771 235.756 176.771C243.917 176.771 250.535 170.154 250.535 161.992C250.535 161.165 250.452 160.365 250.328 159.58C250.383 159.566 250.438 159.552 250.507 159.524C258.172 156.74 262.129 148.247 259.344 140.582C259.069 139.81 258.71 139.093 258.324 138.39Z" fill="#24DDF7" stroke="#1D1D1B" stroke-width="1.63641" stroke-miterlimit="10"/>
<path d="M182.472 112.237C182.472 106.253 177.62 101.401 171.636 101.401C165.651 101.401 160.8 106.253 160.8 112.237V133.234C160.8 139.218 165.651 144.07 171.636 144.07C177.62 144.07 182.472 139.218 182.472 133.234V112.237Z" fill="white" stroke="#1D1D1B" stroke-width="1.63641" stroke-miterlimit="10"/>
<path d="M208.404 112.237C208.404 106.253 203.552 101.401 197.568 101.401C191.583 101.401 186.731 106.253 186.731 112.237V133.234C186.731 139.218 191.583 144.07 197.568 144.07C203.552 144.07 208.404 139.218 208.404 133.234V112.237Z" fill="white" stroke="#1D1D1B" stroke-width="1.63641" stroke-miterlimit="10"/>
<path d="M182.472 110.541C182.472 105.957 178.759 102.242 174.179 102.242C169.599 102.242 165.887 105.957 165.887 110.541V132.255C165.887 136.838 169.599 140.554 174.179 140.554C178.759 140.554 182.472 136.838 182.472 132.255V110.541Z" fill="#1D1D1B"/>
<path d="M208.403 110.541C208.403 105.957 204.691 102.242 200.111 102.242C195.531 102.242 191.818 105.957 191.818 110.541V132.255C191.818 136.838 195.531 140.554 200.111 140.554C204.691 140.554 208.403 136.838 208.403 132.255V110.541Z" fill="#1D1D1B"/>
<path d="M214.237 190.751C218.518 186.471 218.518 179.531 214.237 175.251C209.957 170.971 203.018 170.971 198.737 175.251L184.222 189.766C179.942 194.047 179.942 200.986 184.222 205.266C188.502 209.547 195.442 209.547 199.722 205.266L214.237 190.751Z" fill="white" stroke="#1D1D1B" stroke-width="1.63641" stroke-miterlimit="10"/>
<path d="M193.377 210.299H193.391C199.878 210.299 205.137 205.04 205.137 198.553V181.651C205.137 175.164 199.878 169.905 193.391 169.905H193.377C186.89 169.905 181.631 175.164 181.631 181.651V198.553C181.631 205.04 186.89 210.299 193.377 210.299Z" fill="#FF4E4E" stroke="#1D1D1B" stroke-width="1.63641" stroke-miterlimit="10"/>
<path d="M190.357 210.961H190.371C196.736 210.961 201.896 205.801 201.896 199.436V182.092C201.896 175.727 196.736 170.567 190.371 170.567H190.357C183.992 170.567 178.832 175.727 178.832 182.092V199.436C178.832 205.801 183.992 210.961 190.357 210.961Z" fill="white" stroke="#1D1D1B" stroke-width="1.63641" stroke-miterlimit="10"/>
<path d="M151.521 206.522H151.534C158.021 206.522 163.28 201.263 163.28 194.776V177.874C163.28 171.387 158.021 166.128 151.534 166.128H151.521C145.033 166.128 139.775 171.387 139.775 177.874V194.776C139.775 201.263 145.033 206.522 151.521 206.522Z" fill="#FF4E4E" stroke="#1D1D1B" stroke-width="1.63641" stroke-miterlimit="10"/>
<path d="M148.516 207.184H148.53C154.896 207.184 160.056 202.023 160.056 195.658V178.315C160.056 171.95 154.896 166.79 148.53 166.79H148.516C142.151 166.79 136.991 171.95 136.991 178.315V195.658C136.991 202.023 142.151 207.184 148.516 207.184Z" fill="white" stroke="#1D1D1B" stroke-width="1.63641" stroke-miterlimit="10"/>
<path d="M148.516 207.17C142.147 207.17 136.991 202 136.991 195.645V193.246H160.056V195.645C160.056 202.014 154.886 207.17 148.53 207.17H148.516Z" fill="white" stroke="#1D1D1B" stroke-width="1.63641" stroke-miterlimit="10"/>
<path d="M190.357 210.961C183.988 210.961 178.832 205.791 178.832 199.436V197.037H201.896V199.436C201.896 205.805 196.727 210.961 190.371 210.961H190.357Z" fill="white" stroke="#1D1D1B" stroke-width="1.63641" stroke-miterlimit="10"/>
<path d="M202.559 111.617C203.982 111.617 205.137 110.462 205.137 109.039C205.137 107.615 203.982 106.46 202.559 106.46C201.135 106.46 199.98 107.615 199.98 109.039C199.98 110.462 201.135 111.617 202.559 111.617Z" fill="white" stroke="#1D1D1B" stroke-width="1.63641" stroke-miterlimit="10"/>
<path d="M176.088 111.617C177.512 111.617 178.666 110.462 178.666 109.039C178.666 107.615 177.512 106.46 176.088 106.46C174.664 106.46 173.51 107.615 173.51 109.039C173.51 110.462 174.664 111.617 176.088 111.617Z" fill="white" stroke="#1D1D1B" stroke-width="1.63641" stroke-miterlimit="10"/>
<path d="M258.632 138L248.493 154.713" stroke="black" stroke-width="1.41528" stroke-linecap="round"/>
<line x1="128.981" y1="142.985" x2="208.913" y2="164.213" stroke="black" stroke-width="1.37361" stroke-linecap="round"/>
<rect x="207.13" y="158.11" width="42.4918" height="29.7443" rx="4.6741" transform="rotate(-10.8045 207.13 158.11)" fill="#DFDFDF" stroke="#222222" stroke-width="1.41639"/>
<rect x="207.13" y="158.11" width="42.4918" height="12.181" rx="4.6741" transform="rotate(-10.8045 207.13 158.11)" fill="white" stroke="black" stroke-width="1.41639"/>
<rect x="227.976" y="163.072" width="5.09902" height="12.181" rx="2.54951" transform="rotate(-10.8045 227.976 163.072)" fill="#FF4E4E" stroke="black" stroke-width="1.41639"/>
</svg>
