<svg width="100%" height="123" viewBox="0 0 339 123" fill="none" xmlns="http://www.w3.org/2000/svg">
<path d="M83.5088 99.596V102.02H84.7688V99.596H83.5088ZM88.3448 94.028V102.356H89.6048V94.028H88.3448ZM81.9368 103.76V104.78H89.8568V103.76H81.9368ZM81.9368 101.552V104.036H83.1968V101.552H81.9368ZM80.6288 100.016C82.6088 100.016 85.2248 99.968 87.5768 99.584L87.4928 98.672C85.1768 98.972 82.4768 98.996 80.4608 98.996L80.6288 100.016ZM86.1848 100.46V101.348H88.6448V100.46H86.1848ZM84.0128 94.448C82.4048 94.448 81.3008 95.216 81.3008 96.38C81.3008 97.544 82.4048 98.3 84.0128 98.3C85.6088 98.3 86.7248 97.544 86.7248 96.38C86.7248 95.216 85.6088 94.448 84.0128 94.448ZM84.0128 95.372C84.9008 95.372 85.5248 95.744 85.5248 96.38C85.5248 97.004 84.9008 97.376 84.0128 97.376C83.1128 97.376 82.4888 97.004 82.4888 96.38C82.4888 95.744 83.1128 95.372 84.0128 95.372ZM98.8078 94.028V104.996H100.056V94.028H98.8078ZM99.7678 98.432V99.476H101.76V98.432H99.7678ZM91.4998 95.72V96.728H97.9318V95.72H91.4998ZM94.7518 97.52C93.1798 97.52 92.0278 98.576 92.0278 100.076C92.0278 101.588 93.1798 102.644 94.7518 102.644C96.3118 102.644 97.4638 101.588 97.4638 100.076C97.4638 98.576 96.3118 97.52 94.7518 97.52ZM94.7518 98.552C95.6278 98.552 96.2638 99.152 96.2638 100.076C96.2638 101 95.6278 101.612 94.7518 101.612C93.8638 101.612 93.2278 101 93.2278 100.076C93.2278 99.152 93.8638 98.552 94.7518 98.552ZM94.1038 94.184V96.14H95.3638V94.184H94.1038ZM103.883 97.172V98.18H111.395V97.172H103.883ZM102.587 99.5V100.52H112.523V99.5H102.587ZM103.883 94.424V97.676H105.131V94.424H103.883ZM103.799 103.724V104.744H111.455V103.724H103.799ZM103.799 101.516V104H105.047V101.516H103.799ZM124.097 94.016V105.008H125.357V94.016H124.097ZM119.513 94.832C117.881 94.832 116.693 96.332 116.693 98.696C116.693 101.06 117.881 102.572 119.513 102.572C121.157 102.572 122.345 101.06 122.345 98.696C122.345 96.332 121.157 94.832 119.513 94.832ZM119.513 95.972C120.473 95.972 121.133 96.992 121.133 98.696C121.133 100.412 120.473 101.444 119.513 101.444C118.553 101.444 117.893 100.412 117.893 98.696C117.893 96.992 118.553 95.972 119.513 95.972ZM127.948 95.06V102.308H133.096V95.06H127.948ZM131.872 96.056V101.3H129.184V96.056H131.872ZM135.136 94.016V105.008H136.396V94.016H135.136ZM141.195 95.672V97.208C141.195 99.08 140.055 101.132 138.363 101.912L139.083 102.908C140.967 102.008 142.203 99.62 142.203 97.208V95.672H141.195ZM141.459 95.672V97.208C141.459 99.56 142.695 101.78 144.603 102.632L145.299 101.636C143.583 100.916 142.455 99.02 142.455 97.208V95.672H141.459ZM138.759 95.12V96.164H144.891V95.12H138.759ZM146.175 94.028V104.996H147.435V94.028H146.175ZM149.438 99.044V99.98H159.374V99.044H149.438ZM150.59 100.712V101.588H156.926V102.344H150.614V104.3H151.862V103.172H158.162V100.712H150.59ZM150.614 104V104.876H158.498V104H150.614ZM150.686 94.292V95.156H156.89V95.888H150.698V97.76H151.946V96.704H158.126V94.292H150.686ZM150.698 97.484V98.36H158.33V97.484H150.698ZM170.949 94.016V105.008H172.209V94.016H170.949ZM166.365 94.832C164.733 94.832 163.545 96.332 163.545 98.696C163.545 101.06 164.733 102.572 166.365 102.572C168.009 102.572 169.197 101.06 169.197 98.696C169.197 96.332 168.009 94.832 166.365 94.832ZM166.365 95.972C167.325 95.972 167.985 96.992 167.985 98.696C167.985 100.412 167.325 101.444 166.365 101.444C165.405 101.444 164.745 100.412 164.745 98.696C164.745 96.992 165.405 95.972 166.365 95.972ZM175.376 94.544V95.54H182.384V94.544H175.376ZM174.236 99.08V100.088H184.112V99.08H174.236ZM178.112 96.956V99.236H179.36V96.956H178.112ZM181.652 94.544V95.348C181.652 96.164 181.652 97.04 181.388 98.264L182.624 98.396C182.9 97.148 182.9 96.188 182.9 95.348V94.544H181.652ZM178.496 100.856V101.276C178.496 102.56 177.068 103.688 174.872 103.976L175.34 104.96C177.824 104.588 179.576 103.196 179.576 101.276V100.856H178.496ZM178.676 100.856V101.276C178.676 103.196 180.428 104.588 182.924 104.96L183.38 103.976C181.184 103.688 179.756 102.56 179.756 101.276V100.856H178.676ZM189.679 98.192V99.212H191.623V98.192H189.679ZM193.423 94.028V104.996H194.623V94.028H193.423ZM191.215 94.232V104.468H192.403V94.232H191.215ZM187.723 94.88C186.295 94.88 185.371 96.368 185.371 98.768C185.371 101.18 186.295 102.668 187.723 102.668C189.163 102.668 190.087 101.18 190.087 98.768C190.087 96.368 189.163 94.88 187.723 94.88ZM187.723 96.056C188.479 96.056 188.935 97.04 188.935 98.768C188.935 100.496 188.479 101.48 187.723 101.48C186.979 101.48 186.523 100.496 186.523 98.768C186.523 97.04 186.979 96.056 187.723 96.056ZM198.985 97.988V98.996H208.921V97.988H198.985ZM199.849 94.412V95.408H202.609V94.412H199.849ZM202.225 94.412V94.952C202.225 95.672 202.225 96.668 201.733 98.204L202.945 98.468C203.449 96.896 203.449 95.684 203.449 94.952V94.412H202.225ZM204.133 94.412V95.408H207.037V94.412H204.133ZM206.485 94.412V94.904C206.485 95.6 206.485 96.68 206.029 98.252L207.253 98.432C207.697 96.824 207.697 95.624 207.697 94.904V94.412H206.485ZM200.149 99.956V100.928H206.413V101.876H200.173V104.204H201.421V102.8H207.661V99.956H200.149ZM200.173 103.868V104.864H207.985V103.868H200.173ZM212.988 94.832C211.368 94.832 210.216 96.332 210.216 98.696C210.216 101.06 211.368 102.572 212.988 102.572C214.608 102.572 215.76 101.06 215.76 98.696C215.76 96.332 214.608 94.832 212.988 94.832ZM212.988 95.972C213.936 95.972 214.572 96.992 214.572 98.696C214.572 100.412 213.936 101.444 212.988 101.444C212.052 101.444 211.416 100.412 211.416 98.696C211.416 96.992 212.052 95.972 212.988 95.972ZM217.884 94.016V105.008H219.132V94.016H217.884ZM215.376 98.108V99.116H218.424V98.108H215.376ZM224.671 100.628V101.588H232.759V100.628H224.671ZM225.079 96.416V97.4H232.603V96.416H225.079ZM223.759 98.36V99.356H233.695V98.36H223.759ZM225.079 94.196V96.992H226.327V94.196H225.079ZM228.139 96.8V98.828H229.387V96.8H228.139ZM228.703 102.008C226.603 102.008 225.391 102.524 225.391 103.496C225.391 104.468 226.603 104.984 228.703 104.984C230.815 104.984 232.027 104.468 232.027 103.496C232.027 102.524 230.815 102.008 228.703 102.008ZM228.703 102.872C229.999 102.872 230.707 103.064 230.707 103.496C230.707 103.928 229.999 104.12 228.703 104.12C227.419 104.12 226.711 103.928 226.711 103.496C226.711 103.064 227.419 102.872 228.703 102.872ZM228.091 99.74V101.228H229.339V99.74H228.091ZM239.754 94.664C237.474 94.664 235.722 95.888 235.722 97.748C235.722 99.62 237.474 100.844 239.754 100.844C242.046 100.844 243.786 99.62 243.786 97.748C243.786 95.888 242.046 94.664 239.754 94.664ZM239.754 95.684C241.386 95.684 242.574 96.488 242.574 97.748C242.574 98.996 241.386 99.812 239.754 99.812C238.134 99.812 236.946 98.996 236.946 97.748C236.946 96.488 238.134 95.684 239.754 95.684ZM234.81 102.56V103.604H244.746V102.56H234.81ZM251.117 95.864V96.884H254.045V95.864H251.117ZM251.117 98.216V99.236H254.081V98.216H251.117ZM246.317 94.952V100.184H251.405V94.952H246.317ZM250.169 95.948V99.188H247.553V95.948H250.169ZM253.673 94.04V102.032H254.933V94.04H253.673ZM247.793 103.76V104.78H255.185V103.76H247.793ZM247.793 101.3V104.264H249.053V101.3H247.793ZM109.395 111.028V121.996H110.655V111.028H109.395ZM110.367 115.24V116.296H112.359V115.24H110.367ZM102.543 111.928V119.404H107.751V111.928H106.503V114.724H103.791V111.928H102.543ZM103.791 115.708H106.503V118.384H103.791V115.708ZM113.198 119.68V120.712H123.134V119.68H113.198ZM117.518 117.448V120.1H118.766V117.448H117.518ZM114.362 111.796V112.804H120.698V114.268H114.386V117.304H115.634V115.264H121.946V111.796H114.362ZM114.386 116.788V117.808H122.198V116.788H114.386ZM129.513 111.928V113.728C129.513 115.756 128.445 117.856 126.741 118.684L127.509 119.692C129.393 118.732 130.533 116.284 130.533 113.728V111.928H129.513ZM129.753 111.928V113.728C129.753 116.2 130.845 118.54 132.669 119.488L133.437 118.492C131.793 117.676 130.761 115.684 130.761 113.728V111.928H129.753ZM134.169 111.028V121.996H135.429V111.028H134.169ZM135.141 115.372V116.416H137.133V115.372H135.141ZM140.768 112.24V113.272C140.768 114.748 139.796 116.176 138.068 116.764L138.716 117.748C140.672 117.076 141.812 115.312 141.812 113.272V112.24H140.768ZM141.02 112.24V113.272C141.02 115.228 142.16 116.908 144.092 117.544L144.728 116.56C143.036 116.008 142.052 114.676 142.052 113.272V112.24H141.02ZM138.404 111.88V112.888H144.392V111.88H138.404ZM145.748 111.04V119.008H147.008V111.04H145.748ZM139.844 120.76V121.78H147.32V120.76H139.844ZM139.844 118.276V121.24H141.104V118.276H139.844ZM153.955 111.196C151.495 111.196 150.055 111.868 150.055 113.092C150.055 114.304 151.495 114.976 153.955 114.976C156.415 114.976 157.867 114.304 157.867 113.092C157.867 111.868 156.415 111.196 153.955 111.196ZM153.955 112.132C155.659 112.132 156.559 112.468 156.559 113.092C156.559 113.716 155.659 114.04 153.955 114.04C152.263 114.04 151.351 113.716 151.351 113.092C151.351 112.468 152.263 112.132 153.955 112.132ZM148.999 115.612V116.608H158.911V115.612H148.999ZM150.175 117.412V118.348H156.439V119.14H150.187V121.204H151.435V120.028H157.675V117.412H150.175ZM150.187 120.928V121.9H157.987V120.928H150.187ZM167.053 114.58V116.056H168.301V114.58H167.053ZM167.689 111.148C165.229 111.148 163.789 111.808 163.789 113.032C163.789 114.244 165.229 114.916 167.689 114.916C170.149 114.916 171.601 114.244 171.601 113.032C171.601 111.808 170.149 111.148 167.689 111.148ZM167.689 112.084C169.393 112.084 170.293 112.408 170.293 113.032C170.293 113.656 169.393 113.98 167.689 113.98C165.997 113.98 165.085 113.656 165.085 113.032C165.085 112.408 165.997 112.084 167.689 112.084ZM162.733 115.636V116.644H172.645V115.636H162.733ZM163.909 117.412V118.36H170.173V119.14H163.921V121.216H165.169V120.04H171.409V117.412H163.909ZM163.921 120.928V121.9H171.721V120.928H163.921ZM174.324 115.456V116.44H175.236C177.528 116.44 178.908 116.392 180.54 116.128L180.42 115.168C178.824 115.42 177.492 115.456 175.236 115.456H174.324ZM174.3 111.544V112.504H178.128V113.488H174.324V115.924H175.56V114.388H179.364V111.544H174.3ZM175.632 117.22V118.18H181.536V119.056H175.656V121.336H176.916V119.956H182.82V117.22H175.632ZM175.656 120.928V121.9H183.144V120.928H175.656ZM181.56 111.028V116.764H182.82V111.028H181.56ZM191.815 111.388V111.952C191.815 113.392 190.183 114.76 187.963 115.072L188.455 116.092C190.987 115.684 192.919 114.052 192.919 111.952V111.388H191.815ZM192.043 111.388V111.952C192.043 114.04 193.975 115.684 196.507 116.092L196.999 115.072C194.779 114.76 193.135 113.368 193.135 111.952V111.388H192.043ZM191.815 117.892V121.996H193.063V117.892H191.815ZM187.519 117.1V118.132H197.431V117.1H187.519ZM203.857 117.736V118.228C203.857 119.284 203.137 120.424 201.733 120.916L202.345 121.84C203.989 121.24 204.817 119.764 204.817 118.228V117.736H203.857ZM204.157 117.736V118.228C204.157 119.752 204.829 121.312 206.485 121.948L207.001 121C205.681 120.46 205.069 119.308 205.069 118.228V117.736H204.157ZM207.889 117.736V118.228C207.889 119.188 207.277 120.412 205.969 121L206.485 121.948C208.105 121.276 208.801 119.62 208.801 118.228V117.736H207.889ZM208.165 117.736V118.228C208.165 119.836 208.969 121.264 210.637 121.84L211.249 120.916C209.833 120.46 209.125 119.356 209.125 118.228V117.736H208.165ZM209.029 111.04V117.268H210.289V111.04H209.029ZM204.373 111.64C202.693 111.64 201.457 112.696 201.457 114.232C201.457 115.744 202.693 116.812 204.373 116.812C206.053 116.812 207.277 115.744 207.277 114.232C207.277 112.696 206.053 111.64 204.373 111.64ZM204.373 112.684C205.345 112.684 206.053 113.296 206.053 114.232C206.053 115.168 205.345 115.768 204.373 115.768C203.401 115.768 202.681 115.168 202.681 114.232C202.681 113.296 203.401 112.684 204.373 112.684ZM215.244 111.832C213.624 111.832 212.472 113.332 212.472 115.696C212.472 118.06 213.624 119.572 215.244 119.572C216.864 119.572 218.016 118.06 218.016 115.696C218.016 113.332 216.864 111.832 215.244 111.832ZM215.244 112.972C216.192 112.972 216.828 113.992 216.828 115.696C216.828 117.412 216.192 118.444 215.244 118.444C214.308 118.444 213.672 117.412 213.672 115.696C213.672 113.992 214.308 112.972 215.244 112.972ZM220.14 111.016V122.008H221.388V111.016H220.14ZM217.632 115.108V116.116H220.68V115.108H217.632ZM225.647 116.644V119.824H226.895V116.644H225.647ZM229.667 116.644V119.824H230.927V116.644H229.667ZM223.331 119.62V120.652H233.267V119.62H223.331ZM228.275 111.652C225.935 111.652 224.243 112.78 224.243 114.532C224.243 116.272 225.935 117.4 228.275 117.4C230.615 117.4 232.307 116.272 232.307 114.532C232.307 112.78 230.615 111.652 228.275 111.652ZM228.275 112.636C229.931 112.636 231.083 113.368 231.083 114.532C231.083 115.684 229.931 116.416 228.275 116.416C226.619 116.416 225.467 115.684 225.467 114.532C225.467 113.368 226.619 112.636 228.275 112.636ZM235.606 121.168C236.122 121.168 236.53 120.76 236.53 120.196C236.53 119.62 236.122 119.224 235.606 119.224C235.078 119.224 234.682 119.62 234.682 120.196C234.682 120.76 235.078 121.168 235.606 121.168Z" fill="#AAAAAA"/>
<path d="M106.133 70.8625H110.278V69.7285H104.743V77.842H105.701C107.969 77.842 109.454 77.761 111.142 77.437L111.007 76.3165C109.454 76.6 108.118 76.6675 106.133 76.681V70.8625ZM112.883 68.5945V72.928H109.616V74.0755H112.883V80.8255H114.274V68.5945H112.883ZM122.076 69.9715C123.885 69.9715 124.978 70.4305 124.978 71.254C124.978 72.0775 123.885 72.5365 122.076 72.5365C120.253 72.5365 119.16 72.0775 119.16 71.254C119.16 70.4305 120.253 69.9715 122.076 69.9715ZM122.076 73.63C124.722 73.63 126.423 72.739 126.423 71.254C126.423 69.769 124.722 68.878 122.076 68.878C119.416 68.878 117.729 69.769 117.729 71.254C117.729 72.739 119.416 73.63 122.076 73.63ZM127.584 75.5605V74.4535H116.554V75.5605H121.36V76.8295H117.783V77.95H124.843V80.7985H126.234V76.8295H122.751V75.5605H127.584ZM134.476 76.789H133.342V73.819H134.476V76.789ZM134.476 72.712H133.342V69.7285H132.181V77.9095H135.624V69.7285H134.476V72.712ZM138.472 76.789H137.352V73.819H138.472V76.789ZM138.472 72.712H137.352V69.7285H136.204V77.9095H139.62V69.7285H138.472V72.712ZM143.305 73.2655H141.861V68.608H140.497V80.812H141.861V74.413H143.305V73.2655ZM152.795 72.2395H145.775V76.1815H154.442V75.0475H147.138V73.3465H154.172V69.4855H145.748V70.6195H152.795V72.2395ZM144.438 78.193V79.3405H155.481V78.193H144.438ZM163.391 73.4545H161.595C161.946 72.415 162.108 71.2945 162.108 70.1065H157.37V71.227H160.731C160.529 73.7245 159.327 75.7225 156.789 77.2345L157.586 78.22C159.273 77.2075 160.434 75.979 161.15 74.575H163.391V80.218H164.7V68.905H163.391V73.4545ZM165.942 68.608V80.7985H167.279V68.608H165.942ZM176.574 69.6205H175.184V71.6185C175.184 73.873 173.996 76.1815 172.092 77.113L172.943 78.2335C174.333 77.518 175.359 76.1005 175.886 74.413C176.412 76.006 177.384 77.329 178.694 78.004L179.544 76.897C177.708 75.9925 176.574 73.792 176.574 71.6185V69.6205ZM183.648 73.441H181.745V68.608H180.354V80.7985H181.745V74.5885H183.648V73.441ZM194.771 68.6215H193.381V77.491H194.771V68.6215ZM192.247 74.764C190.37 74.1565 189.263 72.6715 189.263 71.119V70.6735H191.869V69.553H185.2V70.6735H187.846V71.119C187.846 72.766 186.752 74.3455 184.822 74.9935L185.551 76.0735C187.009 75.5875 188.035 74.548 188.575 73.252C189.115 74.4535 190.141 75.3985 191.545 75.8575L192.247 74.764ZM188.21 79.435V76.681H186.806V80.569H195.122V79.435H188.21ZM202.878 78.625H209.817V75.6955H201.474V76.7485H208.454V77.6395H201.501V80.6905H210.168V79.624H202.878V78.625ZM202.784 70.8355C202.784 70.1335 203.796 69.769 205.686 69.769C207.576 69.769 208.589 70.1335 208.589 70.8355C208.589 71.5375 207.576 71.902 205.686 71.902C203.796 71.902 202.784 71.5375 202.784 70.8355ZM206.361 73.738V72.928C208.67 72.8065 210.033 72.0775 210.033 70.8355C210.033 69.472 208.413 68.7295 205.686 68.7295C202.946 68.7295 201.339 69.472 201.339 70.8355C201.339 72.0775 202.676 72.793 204.971 72.928V73.738H200.165V74.8585H211.194V73.738H206.361ZM214.69 74.2105H218.942V69.688H213.259V70.822H217.538V73.09H213.286V77.923H214.325C216.472 77.923 218.294 77.8555 220.387 77.491L220.238 76.357C218.308 76.6675 216.62 76.762 214.69 76.7755V74.2105ZM221.251 68.581V80.8255H222.655V68.581H221.251ZM225.705 69.8905V71.0245H230.052C229.809 73.8325 228.297 75.979 225.097 77.518L225.84 78.625C230.025 76.6 231.483 73.522 231.483 69.8905H225.705ZM233.683 68.608V80.7985H235.074V68.608H233.683Z" fill="#999999"/>
<rect x="141.452" y="14.9883" width="40.6783" height="40.8663" rx="6.371" fill="#C1C1C1" stroke="#EDEFF2" stroke-width="0.62755"/>
<rect x="157.32" y="0.313775" width="40.6783" height="40.8663" rx="6.371" fill="#C1C1C1" stroke="#EDEFF2" stroke-width="0.62755"/>
<rect x="176.565" y="12.2063" width="1.63966" height="16.322" fill="white"/>
<rect x="185.583" y="19.551" width="1.6322" height="16.3966" transform="rotate(90 185.583 19.551)" fill="white"/>
</svg>
