<svg width="100%" height="100%" viewBox="0 0 339 106" fill="none" xmlns="http://www.w3.org/2000/svg">
<path d="M7.26511 100.448V101.312H9.38911V102.32H10.6251V94.076H9.38911V100.448H7.26511ZM5.10511 95.408C5.99311 95.408 6.60511 95.792 6.60511 96.404C6.60511 97.016 5.99311 97.4 5.10511 97.4C4.20511 97.4 3.59311 97.016 3.59311 96.404C3.59311 95.792 4.20511 95.408 5.10511 95.408ZM5.10511 98.312C6.68911 98.312 7.78111 97.556 7.78111 96.404C7.78111 95.252 6.68911 94.496 5.10511 94.496C3.50911 94.496 2.41711 95.252 2.41711 96.404C2.41711 97.556 3.50911 98.312 5.10511 98.312ZM4.61311 101.972H5.84911V99.884C6.77311 99.824 7.72111 99.728 8.63311 99.572L8.53711 98.684C6.24511 98.972 3.58111 98.996 1.58911 99.008L1.74511 100.016C2.60911 100.016 3.58111 100.004 4.61311 99.956V101.972ZM4.28911 103.712V101.516H3.05311V104.72H10.8771V103.712H4.28911ZM15.8442 101.576C14.9682 101.576 14.3322 100.976 14.3322 100.064C14.3322 99.152 14.9682 98.552 15.8442 98.552C16.7202 98.552 17.3562 99.152 17.3562 100.064C17.3562 100.976 16.7202 101.576 15.8442 101.576ZM15.8442 97.532C14.2842 97.532 13.1562 98.588 13.1562 100.064C13.1562 101.552 14.2842 102.596 15.8442 102.596C17.3922 102.596 18.5322 101.552 18.5322 100.064C18.5322 98.588 17.3922 97.532 15.8442 97.532ZM16.4442 94.256H15.2082V95.756H12.6282V96.764H18.9762V95.756H16.4442V94.256ZM22.7682 98.444H21.1002V94.088H19.8522V104.936H21.1002V99.476H22.7682V98.444ZM32.4272 97.196H26.2232V94.472H24.9872V98.204H32.4272V97.196ZM26.1512 101.492H24.9152V104.684H32.4872V103.688H26.1512V101.492ZM23.7152 99.5V100.496H33.5552V99.5H23.7152ZM45.1296 94.076V104.948H46.3776V94.076H45.1296ZM40.6056 94.88C38.9976 94.88 37.8216 96.368 37.8216 98.696C37.8216 101.048 38.9976 102.524 40.6056 102.524C42.2256 102.524 43.4016 101.048 43.4016 98.696C43.4016 96.368 42.2256 94.88 40.6056 94.88ZM40.6056 95.996C41.5536 95.996 42.2136 97.016 42.2136 98.696C42.2136 100.4 41.5536 101.42 40.6056 101.42C39.6696 101.42 39.0096 100.4 39.0096 98.696C39.0096 97.016 39.6696 95.996 40.6056 95.996ZM49.0767 95.108V102.272H54.1647V95.108H49.0767ZM52.9527 96.092V101.276H50.2887V96.092H52.9527ZM56.1687 94.076V104.948H57.4167V94.076H56.1687ZM63.5357 96.188H65.9477V95.168H59.8757V96.188H62.2877V97.22C62.2877 99.08 61.1717 101.096 59.4917 101.876L60.1997 102.86C61.4717 102.248 62.4437 100.964 62.9237 99.452C63.4277 100.856 64.3997 102.032 65.6597 102.584L66.3437 101.612C64.6517 100.892 63.5357 99.02 63.5357 97.22V96.188ZM67.2077 94.088V104.924H68.4557V94.088H67.2077ZM77.9348 95.936H71.8268V98.372H79.3508V97.508H73.0388V96.74H79.1588V94.352H71.8028V95.204H77.9348V95.936ZM72.9548 103.124H79.1948V100.7H71.7068V101.552H77.9708V102.32H71.7308V104.804H79.5188V103.952H72.9548V103.124ZM70.5668 99.056V99.968H80.3948V99.056H70.5668ZM91.9812 94.076V104.948H93.2292V94.076H91.9812ZM87.4572 94.88C85.8492 94.88 84.6732 96.368 84.6732 98.696C84.6732 101.048 85.8492 102.524 87.4572 102.524C89.0772 102.524 90.2532 101.048 90.2532 98.696C90.2532 96.368 89.0772 94.88 87.4572 94.88ZM87.4572 95.996C88.4052 95.996 89.0652 97.016 89.0652 98.696C89.0652 100.4 88.4052 101.42 87.4572 101.42C86.5212 101.42 85.8612 100.4 85.8612 98.696C85.8612 97.016 86.5212 95.996 87.4572 95.996ZM103.668 98.396C103.932 97.172 103.932 96.224 103.932 95.408V94.592H96.4922V95.576H102.708C102.708 96.32 102.684 97.16 102.444 98.276L103.668 98.396ZM100.824 100.832H99.5762V101.252C99.5762 102.524 98.1602 103.64 95.9882 103.928L96.4562 104.876C98.1722 104.624 99.5402 103.88 100.2 102.812C100.872 103.88 102.24 104.624 103.968 104.876L104.412 103.928C102.24 103.64 100.824 102.524 100.824 101.252V100.832ZM100.452 99.08V96.98H99.2042V99.08H95.3642V100.076H105.144V99.08H100.452ZM108.827 101.456C108.083 101.456 107.627 100.484 107.627 98.768C107.627 97.052 108.083 96.092 108.827 96.092C109.571 96.092 110.027 97.052 110.027 98.768C110.027 100.484 109.571 101.456 108.827 101.456ZM112.295 98.192H111.131C110.999 96.164 110.123 94.928 108.827 94.928C107.423 94.928 106.499 96.392 106.499 98.768C106.499 101.144 107.423 102.62 108.827 102.62C110.147 102.62 111.035 101.324 111.143 99.212H112.295V104.408H113.447V94.292H112.295V98.192ZM114.467 94.088V104.912H115.643V94.088H114.467ZM119.098 96.116H122.902V95.108H117.862V102.272H118.75C120.706 102.272 122.17 102.212 123.814 101.912L123.682 100.892C122.17 101.156 120.85 101.228 119.098 101.24V96.116ZM127.51 98.252H125.818V94.076H124.582V104.936H125.818V99.272H127.51V98.252ZM133.565 102.752H139.745V99.944H132.305V100.916H138.509V101.852H132.329V104.792H140.057V103.808H133.565V102.752ZM139.445 98C139.769 96.632 139.769 95.588 139.769 94.952V94.46H136.253V95.444H138.569C138.545 96.068 138.485 96.908 138.185 98H135.197C135.569 96.68 135.569 95.624 135.569 94.976V94.46H132.017V95.444H134.369C134.345 96.08 134.273 96.896 133.949 98H131.153V98.996H140.981V98H139.445ZM145.12 101.42C144.196 101.42 143.56 100.412 143.56 98.696C143.56 97.016 144.196 95.996 145.12 95.996C146.056 95.996 146.692 97.016 146.692 98.696C146.692 100.412 146.056 101.42 145.12 101.42ZM149.956 94.076V98.12H147.844C147.676 96.128 146.572 94.88 145.12 94.88C143.524 94.88 142.384 96.368 142.384 98.696C142.384 101.048 143.524 102.524 145.12 102.524C146.608 102.524 147.712 101.228 147.856 99.128H149.956V104.948H151.204V94.076H149.956ZM154.911 96.116H158.715V95.108H153.675V102.272H154.563C156.519 102.272 157.983 102.212 159.627 101.912L159.495 100.892C157.983 101.156 156.663 101.228 154.911 101.24V96.116ZM163.323 98.252H161.631V94.076H160.395V104.936H161.631V99.272H163.323V98.252ZM171.861 104.072C170.589 104.072 169.881 103.88 169.881 103.448C169.881 103.016 170.589 102.824 171.861 102.824C173.145 102.824 173.841 103.016 173.841 103.448C173.841 103.88 173.145 104.072 171.861 104.072ZM171.861 101.972C169.773 101.972 168.573 102.488 168.573 103.448C168.573 104.42 169.773 104.924 171.861 104.924C173.949 104.924 175.137 104.42 175.137 103.448C175.137 102.488 173.949 101.972 171.861 101.972ZM172.485 99.728H171.237V100.604H167.865V101.552H175.869V100.604H172.485V99.728ZM172.533 98.36V97.424H175.701V96.452H169.497V94.256H168.261V97.424H171.297V98.36H166.953V99.356H176.793V98.36H172.533ZM182.912 94.7C180.644 94.7 178.928 95.924 178.928 97.76C178.928 99.608 180.644 100.82 182.912 100.82C185.168 100.82 186.896 99.608 186.896 97.76C186.896 95.924 185.168 94.7 182.912 94.7ZM182.912 95.72C184.508 95.72 185.696 96.512 185.696 97.76C185.696 99.008 184.508 99.8 182.912 99.8C181.304 99.8 180.128 99.008 180.128 97.76C180.128 96.512 181.304 95.72 182.912 95.72ZM178.016 102.536V103.556H187.832V102.536H178.016ZM193.339 99.188H190.735V95.972H193.339V99.188ZM196.795 96.908V98.228H194.539V96.908H196.795ZM194.539 99.224H196.795V101.996H198.031V94.088H196.795V95.9H194.539V94.988H189.523V100.172H194.539V99.224ZM192.223 103.712V101.276H190.975V104.72H198.283V103.712H192.223ZM207.086 101.372H204.398V98.72H207.086V101.372ZM207.086 97.736H204.398V94.976H203.162V102.368H208.31V94.976H207.086V97.736ZM212.87 98.252H211.178V94.088H209.942V104.936H211.178V99.284H212.87V98.252ZM219.337 102.632V100.784H222.721V99.788H216.229V98.276H222.481V94.844H214.993V95.84H221.257V97.292H215.017V100.784H218.101V102.632H213.829V103.652H223.645V102.632H219.337ZM231.355 94.988H230.119V96.764C230.119 98.768 229.063 100.82 227.371 101.648L228.127 102.644C229.363 102.008 230.275 100.748 230.743 99.248C231.211 100.664 232.075 101.84 233.239 102.44L233.995 101.456C232.363 100.652 231.355 98.696 231.355 96.764V94.988ZM237.643 98.384H235.951V94.088H234.715V104.924H235.951V99.404H237.643V98.384ZM247.53 94.1H246.294V101.984H247.53V94.1ZM245.286 99.56C243.618 99.02 242.634 97.7 242.634 96.32V95.924H244.95V94.928H239.022V95.924H241.374V96.32C241.374 97.784 240.402 99.188 238.686 99.764L239.334 100.724C240.63 100.292 241.542 99.368 242.022 98.216C242.502 99.284 243.414 100.124 244.662 100.532L245.286 99.56ZM241.698 103.712V101.264H240.45V104.72H247.842V103.712H241.698ZM254.537 95.18C256.217 95.18 257.117 95.504 257.117 96.128C257.117 96.74 256.217 97.064 254.537 97.064C252.857 97.064 251.957 96.74 251.957 96.128C251.957 95.504 252.857 95.18 254.537 95.18ZM254.537 97.988C256.961 97.988 258.401 97.328 258.401 96.128C258.401 94.916 256.961 94.256 254.537 94.256C252.101 94.256 250.673 94.916 250.673 96.128C250.673 97.328 252.101 97.988 254.537 97.988ZM252.041 102.98H258.209V100.388H250.793V101.324H256.997V102.104H250.817V104.828H258.521V103.88H252.041V102.98ZM249.629 98.624V99.608H259.445V98.624H249.629ZM265.776 102.992H271.944V100.388H264.528V101.324H270.732V102.116H264.552V104.828H272.256V103.88H265.776V102.992ZM265.692 96.068C265.692 95.444 266.592 95.12 268.272 95.12C269.952 95.12 270.852 95.444 270.852 96.068C270.852 96.692 269.952 97.016 268.272 97.016C266.592 97.016 265.692 96.692 265.692 96.068ZM268.872 98.648V97.928C270.924 97.82 272.136 97.172 272.136 96.068C272.136 94.856 270.696 94.196 268.272 94.196C265.836 94.196 264.408 94.856 264.408 96.068C264.408 97.172 265.596 97.808 267.636 97.928V98.648H263.364V99.644H273.168V98.648H268.872ZM283.343 94.088H282.107V99.764H283.343V94.088ZM280.979 98.18C279.479 98.42 278.207 98.48 276.167 98.48V97.4H279.935V94.592H274.931V95.54H278.711V96.512H274.943V99.44H275.855C278.111 99.44 279.479 99.392 281.099 99.14L280.979 98.18ZM277.511 103.868V102.908H283.343V100.22H276.239V101.156H282.083V102.02H276.263V104.828H283.667V103.868H277.511ZM297.521 98.084C295.337 97.772 293.705 96.416 293.705 95.012V94.436H292.397V95.012C292.397 96.44 290.789 97.772 288.581 98.084L289.061 99.08C290.861 98.792 292.361 97.892 293.057 96.632C293.765 97.88 295.241 98.792 297.041 99.08L297.521 98.084ZM297.941 100.1H288.149V101.108H292.397V104.936H293.633V101.108H297.941V100.1ZM310.811 94.1H309.575V100.256H310.811V94.1ZM304.967 95.708C305.927 95.708 306.635 96.32 306.635 97.244C306.635 98.18 305.927 98.78 304.967 98.78C304.007 98.78 303.299 98.18 303.299 97.244C303.299 96.32 304.007 95.708 304.967 95.708ZM304.967 99.8C306.623 99.8 307.835 98.756 307.835 97.244C307.835 95.732 306.623 94.688 304.967 94.688C303.311 94.688 302.087 95.732 302.087 97.244C302.087 98.756 303.311 99.8 304.967 99.8ZM309.659 100.724H308.447V101.204C308.447 102.02 307.991 103.04 307.031 103.688C306.083 103.088 305.663 102.116 305.663 101.204V100.724H304.463V101.204C304.463 102.26 303.743 103.376 302.363 103.868L302.963 104.78C303.971 104.408 304.667 103.712 305.063 102.86C305.399 103.736 306.035 104.48 307.055 104.876C308.039 104.468 308.687 103.688 309.035 102.836C309.407 103.712 310.115 104.408 311.159 104.78L311.771 103.868C310.367 103.412 309.659 102.32 309.659 101.204V100.724ZM315.839 101.42C314.915 101.42 314.279 100.412 314.279 98.696C314.279 97.016 314.915 95.996 315.839 95.996C316.775 95.996 317.411 97.016 317.411 98.696C317.411 100.412 316.775 101.42 315.839 101.42ZM320.675 94.076V98.12H318.563C318.395 96.128 317.291 94.88 315.839 94.88C314.243 94.88 313.103 96.368 313.103 98.696C313.103 101.048 314.243 102.524 315.839 102.524C317.327 102.524 318.431 101.228 318.575 99.128H320.675V104.948H321.923V94.076H320.675ZM327.49 100.232C327.91 100.328 328.378 100.376 328.858 100.376C329.338 100.376 329.806 100.328 330.226 100.22V102.584H327.49V100.232ZM328.858 95.684C330.49 95.684 331.63 96.404 331.63 97.544C331.63 98.696 330.49 99.416 328.858 99.416C327.214 99.416 326.074 98.696 326.074 97.544C326.074 96.404 327.214 95.684 328.858 95.684ZM331.462 102.584V99.764C332.326 99.272 332.842 98.504 332.842 97.544C332.842 95.816 331.162 94.712 328.858 94.712C326.542 94.712 324.874 95.816 324.874 97.544C324.874 98.504 325.39 99.284 326.254 99.764V102.584H323.962V103.592H333.778V102.584H331.462ZM336.177 104.156C336.693 104.156 337.101 103.76 337.101 103.196C337.101 102.62 336.693 102.212 336.177 102.212C335.661 102.212 335.253 102.62 335.253 103.196C335.253 103.76 335.661 104.156 336.177 104.156Z" fill="#AAAAAA"/>
<path d="M106.133 70.8625H110.278V69.7285H104.743V77.842H105.701C107.969 77.842 109.454 77.761 111.142 77.437L111.007 76.3165C109.454 76.6 108.118 76.6675 106.133 76.681V70.8625ZM112.883 68.5945V72.928H109.616V74.0755H112.883V80.8255H114.274V68.5945H112.883ZM122.076 69.9715C123.885 69.9715 124.978 70.4305 124.978 71.254C124.978 72.0775 123.885 72.5365 122.076 72.5365C120.253 72.5365 119.16 72.0775 119.16 71.254C119.16 70.4305 120.253 69.9715 122.076 69.9715ZM122.076 73.63C124.722 73.63 126.423 72.739 126.423 71.254C126.423 69.769 124.722 68.878 122.076 68.878C119.416 68.878 117.729 69.769 117.729 71.254C117.729 72.739 119.416 73.63 122.076 73.63ZM127.584 75.5605V74.4535H116.554V75.5605H121.36V76.8295H117.783V77.95H124.843V80.7985H126.234V76.8295H122.751V75.5605H127.584ZM134.476 76.789H133.342V73.819H134.476V76.789ZM134.476 72.712H133.342V69.7285H132.181V77.9095H135.624V69.7285H134.476V72.712ZM138.472 76.789H137.352V73.819H138.472V76.789ZM138.472 72.712H137.352V69.7285H136.204V77.9095H139.62V69.7285H138.472V72.712ZM143.305 73.2655H141.861V68.608H140.497V80.812H141.861V74.413H143.305V73.2655ZM152.795 72.2395H145.775V76.1815H154.442V75.0475H147.138V73.3465H154.172V69.4855H145.748V70.6195H152.795V72.2395ZM144.438 78.193V79.3405H155.481V78.193H144.438ZM163.391 73.4545H161.595C161.946 72.415 162.108 71.2945 162.108 70.1065H157.37V71.227H160.731C160.529 73.7245 159.327 75.7225 156.789 77.2345L157.586 78.22C159.273 77.2075 160.434 75.979 161.15 74.575H163.391V80.218H164.7V68.905H163.391V73.4545ZM165.942 68.608V80.7985H167.279V68.608H165.942ZM176.574 69.6205H175.184V71.6185C175.184 73.873 173.996 76.1815 172.092 77.113L172.943 78.2335C174.333 77.518 175.359 76.1005 175.886 74.413C176.412 76.006 177.384 77.329 178.694 78.004L179.544 76.897C177.708 75.9925 176.574 73.792 176.574 71.6185V69.6205ZM183.648 73.441H181.745V68.608H180.354V80.7985H181.745V74.5885H183.648V73.441ZM194.771 68.6215H193.381V77.491H194.771V68.6215ZM192.247 74.764C190.37 74.1565 189.263 72.6715 189.263 71.119V70.6735H191.869V69.553H185.2V70.6735H187.846V71.119C187.846 72.766 186.752 74.3455 184.822 74.9935L185.551 76.0735C187.009 75.5875 188.035 74.548 188.575 73.252C189.115 74.4535 190.141 75.3985 191.545 75.8575L192.247 74.764ZM188.21 79.435V76.681H186.806V80.569H195.122V79.435H188.21ZM202.878 78.625H209.817V75.6955H201.474V76.7485H208.454V77.6395H201.501V80.6905H210.168V79.624H202.878V78.625ZM202.784 70.8355C202.784 70.1335 203.796 69.769 205.686 69.769C207.576 69.769 208.589 70.1335 208.589 70.8355C208.589 71.5375 207.576 71.902 205.686 71.902C203.796 71.902 202.784 71.5375 202.784 70.8355ZM206.361 73.738V72.928C208.67 72.8065 210.033 72.0775 210.033 70.8355C210.033 69.472 208.413 68.7295 205.686 68.7295C202.946 68.7295 201.339 69.472 201.339 70.8355C201.339 72.0775 202.676 72.793 204.971 72.928V73.738H200.165V74.8585H211.194V73.738H206.361ZM214.69 74.2105H218.942V69.688H213.259V70.822H217.538V73.09H213.286V77.923H214.325C216.472 77.923 218.294 77.8555 220.387 77.491L220.238 76.357C218.308 76.6675 216.62 76.762 214.69 76.7755V74.2105ZM221.251 68.581V80.8255H222.655V68.581H221.251ZM225.705 69.8905V71.0245H230.052C229.809 73.8325 228.297 75.979 225.097 77.518L225.84 78.625C230.025 76.6 231.483 73.522 231.483 69.8905H225.705ZM233.683 68.608V80.7985H235.074V68.608H233.683Z" fill="#999999"/>
<rect x="141.452" y="14.9883" width="40.6783" height="40.8663" rx="6.371" fill="#C1C1C1" stroke="#EDEFF2" stroke-width="0.62755"/>
<rect x="157.32" y="0.313775" width="40.6783" height="40.8663" rx="6.371" fill="#C1C1C1" stroke="#EDEFF2" stroke-width="0.62755"/>
</svg>
