<svg width="137" height="178" viewBox="0 0 137 178" fill="none" xmlns="http://www.w3.org/2000/svg">
<ellipse opacity="0.3" cx="67.327" cy="166.367" rx="51.6937" ry="11.6047" fill="#222222"/>
<path d="M52.0482 122.634C56.1873 118.495 56.1873 111.784 52.0482 107.645C47.9091 103.506 41.1983 103.506 37.0592 107.645L20.807 123.897C16.6679 128.036 16.6679 134.747 20.807 138.886C24.9461 143.025 31.6569 143.025 35.796 138.886L52.0482 122.634Z" fill="white" stroke="#1D1D1B" stroke-width="1.58246" stroke-miterlimit="10"/>
<path d="M130.162 79.1364C130.162 79.1364 130.255 79.0697 130.308 79.0297C136.361 73.9503 137.148 64.938 132.068 58.8987C131.562 58.2854 131.002 57.7521 130.415 57.2455C130.442 57.1922 130.482 57.1522 130.508 57.0989C134.455 50.2596 132.108 41.5273 125.282 37.581C124.589 37.1811 123.882 36.8611 123.163 36.5945C123.163 36.5412 123.189 36.4745 123.203 36.4212C124.576 28.6487 119.376 21.2362 111.604 19.863C110.817 19.7297 110.044 19.6764 109.271 19.663C109.271 19.6097 109.271 19.5431 109.244 19.4897C107.871 11.7173 100.458 6.53118 92.6859 7.89103C91.8993 8.02434 91.1528 8.23765 90.4328 8.50429C90.4062 8.45096 90.3795 8.39764 90.3528 8.34431C86.4066 1.50507 77.6609 -0.827999 70.835 3.11823C70.1418 3.51818 69.5152 3.97146 68.9286 4.46474C68.8886 4.42475 68.8486 4.38475 68.7953 4.34476C62.7426 -0.734676 53.7303 0.0652348 48.6642 6.10456C48.1576 6.71782 47.7176 7.35775 47.331 8.02435C47.2777 7.99768 47.2243 7.97102 47.171 7.95769C39.7585 5.26465 31.5461 9.07756 28.8531 16.5034C28.5864 17.25 28.3998 18.0099 28.2531 18.7565C28.1998 18.7565 28.1331 18.7565 28.0798 18.7565C20.1874 18.7565 13.7881 25.1558 13.7881 33.0482C13.7881 33.8481 13.8681 34.6214 13.988 35.3813C13.9347 35.3946 13.8814 35.4079 13.8147 35.4346C6.40223 38.1276 2.57599 46.3401 5.26902 53.7526C5.53566 54.4992 5.88229 55.1924 6.25558 55.8723C6.21558 55.9123 6.16226 55.939 6.10893 55.979C0.0562727 61.0584 -0.730306 70.0707 4.34913 76.1101C4.85574 76.7233 5.41567 77.2566 6.00228 77.7632C5.97561 77.8165 5.93562 77.8565 5.90895 77.9099C1.96273 84.7491 4.30913 93.4814 11.135 97.4277C11.8283 97.8276 12.5349 98.1476 13.2548 98.4142C13.2548 98.4676 13.2281 98.5342 13.2148 98.5875C11.8416 106.36 17.041 113.773 24.8135 115.146C25.6001 115.279 26.3733 115.332 27.1466 115.346C27.1466 115.399 27.1466 115.466 27.1732 115.519C28.5464 123.291 35.9589 128.478 43.7314 127.118C44.518 126.984 45.2646 126.771 45.9845 126.504C46.0111 126.558 46.0378 126.611 46.0645 126.664C50.0107 133.504 58.7564 135.837 65.5823 131.89C66.2755 131.491 66.9021 131.037 67.4887 130.544C67.5287 130.584 67.5687 130.624 67.6221 130.664C73.6747 135.743 82.687 134.943 87.7531 128.904C88.2598 128.291 88.6997 127.651 89.0863 126.984C89.1397 127.011 89.193 127.038 89.2463 127.051C96.6588 129.744 104.871 125.931 107.564 118.505C107.831 117.759 108.018 116.999 108.164 116.252C108.218 116.252 108.284 116.252 108.338 116.252C116.23 116.252 122.629 109.853 122.629 101.961C122.629 101.161 122.549 100.387 122.429 99.6274C122.483 99.6141 122.536 99.6008 122.603 99.5741C130.015 96.8811 133.841 88.6687 131.148 81.2562C130.882 80.5096 130.535 79.8163 130.162 79.1364V79.1364Z" fill="#17A249" stroke="#1D1D1B" stroke-width="1.58246" stroke-miterlimit="10"/>
<path d="M56.8092 53.846C56.8092 48.0587 52.1177 43.3672 46.3304 43.3672C40.5431 43.3672 35.8516 48.0587 35.8516 53.846V74.1504C35.8516 79.9377 40.5431 84.6292 46.3304 84.6292C52.1177 84.6292 56.8092 79.9377 56.8092 74.1504V53.846Z" fill="white" stroke="#1D1D1B" stroke-width="1.58246" stroke-miterlimit="10"/>
<path d="M81.8873 53.846C81.8873 48.0587 77.1958 43.3672 71.4085 43.3672C65.6212 43.3672 60.9297 48.0587 60.9297 53.846V74.1504C60.9297 79.9377 65.6212 84.6292 71.4085 84.6292C77.1958 84.6292 81.8873 79.9377 81.8873 74.1504V53.846Z" fill="white" stroke="#1D1D1B" stroke-width="1.58246" stroke-miterlimit="10"/>
<path d="M56.8107 52.2059C56.8107 47.7734 53.2204 44.1802 48.7916 44.1802C44.3627 44.1802 40.7725 47.7734 40.7725 52.2059V73.2036C40.7725 77.6361 44.3627 81.2294 48.7916 81.2294C53.2204 81.2294 56.8107 77.6361 56.8107 73.2036V52.2059Z" fill="#1D1D1B"/>
<path d="M81.8873 52.2059C81.8873 47.7734 78.2971 44.1802 73.8682 44.1802C69.4394 44.1802 65.8491 47.7734 65.8491 52.2059V73.2036C65.8491 77.6361 69.4394 81.2294 73.8682 81.2294C78.2971 81.2294 81.8873 77.6361 81.8873 73.2036V52.2059Z" fill="#1D1D1B"/>
<path d="M87.5287 129.772C91.6678 125.632 91.6678 118.922 87.5287 114.783C83.3896 110.643 76.6788 110.643 72.5397 114.783L58.5028 128.819C54.3637 132.959 54.3637 139.669 58.5028 143.808C62.6419 147.948 69.3527 147.948 73.4918 143.808L87.5287 129.772Z" fill="white" stroke="#1D1D1B" stroke-width="1.58246" stroke-miterlimit="10"/>
<path d="M67.3555 148.675H67.3688C73.6421 148.675 78.7275 143.59 78.7275 137.317V120.972C78.7275 114.698 73.6421 109.613 67.3688 109.613H67.3555C61.0822 109.613 55.9967 114.698 55.9967 120.972V137.317C55.9967 143.59 61.0822 148.675 67.3555 148.675Z" fill="white" stroke="#1D1D1B" stroke-width="1.58246" stroke-miterlimit="10"/>
<path d="M64.4355 149.315H64.4488C70.6043 149.315 75.5942 144.325 75.5942 138.17V121.399C75.5942 115.243 70.6043 110.253 64.4488 110.253H64.4355C58.28 110.253 53.2901 115.243 53.2901 121.399V138.17C53.2901 144.325 58.28 149.315 64.4355 149.315Z" fill="white" stroke="#1D1D1B" stroke-width="1.58246" stroke-miterlimit="10"/>
<path d="M26.8789 145.022H26.8922C33.1655 145.022 38.251 139.937 38.251 133.664V117.319C38.251 111.046 33.1655 105.96 26.8922 105.96H26.8789C20.6057 105.96 15.5202 111.046 15.5202 117.319L15.5202 133.664C15.5202 139.937 20.6057 145.022 26.8789 145.022Z" fill="white" stroke="#1D1D1B" stroke-width="1.58246" stroke-miterlimit="10"/>
<path d="M23.9731 145.662H23.9864C30.1419 145.662 35.1318 140.672 35.1318 134.517V117.745C35.1318 111.59 30.1419 106.6 23.9864 106.6H23.9731C17.8176 106.6 12.8277 111.59 12.8277 117.745L12.8277 134.517C12.8277 140.672 17.8176 145.662 23.9731 145.662Z" fill="white" stroke="#1D1D1B" stroke-width="1.58246" stroke-miterlimit="10"/>
<path d="M23.9731 145.649C17.8138 145.649 12.8277 140.649 12.8277 134.504V132.184H35.1318V134.504C35.1318 140.663 30.1324 145.649 23.9864 145.649H23.9731Z" fill="white" stroke="#1D1D1B" stroke-width="1.58246" stroke-miterlimit="10"/>
<path d="M64.4355 149.315C58.2762 149.315 53.2901 144.316 53.2901 138.17V135.85H75.5942V138.17C75.5942 144.329 70.5948 149.315 64.4488 149.315H64.4355Z" fill="white" stroke="#1D1D1B" stroke-width="1.58246" stroke-miterlimit="10"/>
<path d="M76.2348 53.2459C77.6116 53.2459 78.7278 52.1297 78.7278 50.7528C78.7278 49.3759 77.6116 48.2598 76.2348 48.2598C74.8579 48.2598 73.7417 49.3759 73.7417 50.7528C73.7417 52.1297 74.8579 53.2459 76.2348 53.2459Z" fill="white" stroke="#1D1D1B" stroke-width="1.58246" stroke-miterlimit="10"/>
<path d="M50.6381 53.2459C52.0149 53.2459 53.1311 52.1297 53.1311 50.7528C53.1311 49.3759 52.0149 48.2598 50.6381 48.2598C49.2612 48.2598 48.145 49.3759 48.145 50.7528C48.145 52.1297 49.2612 53.2459 50.6381 53.2459Z" fill="white" stroke="#1D1D1B" stroke-width="1.58246" stroke-miterlimit="10"/>
</svg>
