<svg width="135" height="156" viewBox="0 0 135 156" fill="none" xmlns="http://www.w3.org/2000/svg">
<ellipse opacity="0.3" cx="59.366" cy="137.278" rx="53.2761" ry="17.8027" fill="#222222"/>
<path d="M51.8627 121.634C56.0018 117.495 56.0018 110.784 51.8627 106.645C47.7236 102.506 41.0128 102.506 36.8737 106.645L20.6215 122.897C16.4824 127.036 16.4824 133.747 20.6215 137.886C24.7606 142.025 31.4714 142.025 35.6105 137.886L51.8627 121.634Z" fill="white" stroke="#1D1D1B" stroke-width="1.58246" stroke-miterlimit="10"/>
<path d="M24.8605 123.163L24.8604 123.163L1.90743 52.4778C1.90741 52.4777 1.9074 52.4777 1.90738 52.4776C1.0867 49.9484 1.9781 47.2038 4.12433 45.6456L4.12474 45.6453L64.216 1.95845L64.2161 1.95836C65.2678 1.19347 66.5059 0.79123 67.8069 0.79123C69.1079 0.79123 70.3461 1.19347 71.3978 1.95836L71.3979 1.95843L131.486 45.6451C133.633 47.2071 134.524 49.9522 133.703 52.4775L133.703 52.4777L110.753 123.163L110.753 123.163C109.933 125.692 107.598 127.388 104.945 127.388H30.6687C28.0126 127.388 25.6811 125.692 24.8605 123.163Z" fill="#17A249" stroke="black" stroke-width="1.58246"/>
<path d="M56.6237 52.846C56.6237 47.0587 51.9321 42.3672 46.1448 42.3672C40.3575 42.3672 35.666 47.0587 35.666 52.846V73.1504C35.666 78.9377 40.3575 83.6292 46.1448 83.6292C51.9321 83.6292 56.6237 78.9377 56.6237 73.1504V52.846Z" fill="white" stroke="#1D1D1B" stroke-width="1.58246" stroke-miterlimit="10"/>
<path d="M81.7018 52.846C81.7018 47.0587 77.0103 42.3672 71.223 42.3672C65.4357 42.3672 60.7441 47.0587 60.7441 52.846V73.1504C60.7441 78.9377 65.4357 83.6292 71.223 83.6292C77.0103 83.6292 81.7018 78.9377 81.7018 73.1504V52.846Z" fill="white" stroke="#1D1D1B" stroke-width="1.58246" stroke-miterlimit="10"/>
<path d="M56.6251 51.2059C56.6251 46.7734 53.0348 43.1802 48.606 43.1802C44.1772 43.1802 40.5869 46.7734 40.5869 51.2059V72.2036C40.5869 76.6361 44.1772 80.2294 48.606 80.2294C53.0348 80.2294 56.6251 76.6361 56.6251 72.2036V51.2059Z" fill="#1D1D1B"/>
<path d="M81.7018 51.2059C81.7018 46.7734 78.1115 43.1802 73.6827 43.1802C69.2538 43.1802 65.6636 46.7734 65.6636 51.2059V72.2036C65.6636 76.6361 69.2538 80.2294 73.6827 80.2294C78.1115 80.2294 81.7018 76.6361 81.7018 72.2036V51.2059Z" fill="#1D1D1B"/>
<path d="M87.3431 128.771C91.4822 124.632 91.4822 117.921 87.3431 113.782C83.204 109.643 76.4932 109.643 72.3541 113.782L58.3173 127.819C54.1782 131.958 54.1782 138.669 58.3173 142.808C62.4564 146.947 69.1672 146.947 73.3063 142.808L87.3431 128.771Z" fill="white" stroke="#1D1D1B" stroke-width="1.58246" stroke-miterlimit="10"/>
<path d="M67.1699 147.675H67.1833C73.4565 147.675 78.542 142.59 78.542 136.317V119.972C78.542 113.698 73.4565 108.613 67.1833 108.613H67.1699C60.8967 108.613 55.8112 113.698 55.8112 119.972V136.317C55.8112 142.59 60.8967 147.675 67.1699 147.675Z" fill="white" stroke="#1D1D1B" stroke-width="1.58246" stroke-miterlimit="10"/>
<path d="M64.2499 148.315H64.2633C70.4187 148.315 75.4087 143.325 75.4087 137.17V120.398C75.4087 114.243 70.4187 109.253 64.2633 109.253H64.2499C58.0945 109.253 53.1045 114.243 53.1045 120.398V137.17C53.1045 143.325 58.0945 148.315 64.2499 148.315Z" fill="white" stroke="#1D1D1B" stroke-width="1.58246" stroke-miterlimit="10"/>
<path d="M26.6943 144.022H26.7077C32.9809 144.022 38.0664 138.937 38.0664 132.664V116.319C38.0664 110.046 32.9809 104.96 26.7077 104.96H26.6943C20.4211 104.96 15.3356 110.046 15.3356 116.319L15.3356 132.664C15.3356 138.937 20.4211 144.022 26.6943 144.022Z" fill="white" stroke="#1D1D1B" stroke-width="1.58246" stroke-miterlimit="10"/>
<path d="M23.7875 144.662H23.8009C29.9563 144.662 34.9463 139.672 34.9463 133.517V116.745C34.9463 110.59 29.9563 105.6 23.8009 105.6H23.7875C17.6321 105.6 12.6421 110.59 12.6421 116.745L12.6421 133.517C12.6421 139.672 17.6321 144.662 23.7875 144.662Z" fill="white" stroke="#1D1D1B" stroke-width="1.58246" stroke-miterlimit="10"/>
<path d="M23.7875 144.649C17.6282 144.649 12.6421 139.649 12.6421 133.503V131.184H34.9463V133.503C34.9463 139.663 29.9468 144.649 23.8009 144.649H23.7875Z" fill="white" stroke="#1D1D1B" stroke-width="1.58246" stroke-miterlimit="10"/>
<path d="M64.2499 148.315C58.0906 148.315 53.1045 143.316 53.1045 137.17V134.85H75.4087V137.17C75.4087 143.329 70.4092 148.315 64.2633 148.315H64.2499Z" fill="white" stroke="#1D1D1B" stroke-width="1.58246" stroke-miterlimit="10"/>
<path d="M76.0492 52.2459C77.4261 52.2459 78.5423 51.1297 78.5423 49.7528C78.5423 48.3759 77.4261 47.2598 76.0492 47.2598C74.6723 47.2598 73.5562 48.3759 73.5562 49.7528C73.5562 51.1297 74.6723 52.2459 76.0492 52.2459Z" fill="white" stroke="#1D1D1B" stroke-width="1.58246" stroke-miterlimit="10"/>
<path d="M50.4525 52.2459C51.8294 52.2459 52.9456 51.1297 52.9456 49.7528C52.9456 48.3759 51.8294 47.2598 50.4525 47.2598C49.0756 47.2598 47.9595 48.3759 47.9595 49.7528C47.9595 51.1297 49.0756 52.2459 50.4525 52.2459Z" fill="white" stroke="#1D1D1B" stroke-width="1.58246" stroke-miterlimit="10"/>
</svg>
