<svg width="100%" height="100%" viewBox="0 0 846 420" fill="none" xmlns="http://www.w3.org/2000/svg">
<g clip-path="url(#clip0_1065_16281)">
<rect width="846" height="900" fill="#FFC438"/>
<g filter="url(#filter0_f_1065_16281)">
<path d="M364.294 304.664C659.096 137.225 956.752 -179.68 1076.83 -194.184C1291.82 -220.152 1260.38 380.645 1033.01 595.345C819.661 796.81 -661.284 1003.06 -297.871 595.345C-104.528 378.433 113.404 447.163 364.294 304.664Z" fill="#FF4E4E"/>
</g>
<g filter="url(#filter1_f_1065_16281)">
<path d="M696.75 594.558C1013.11 418.881 1332.54 86.3865 1461.4 71.1689C1692.11 43.9228 1658.37 674.276 1414.38 899.538C1185.42 1110.91 -403.839 1327.31 -13.8456 899.538C193.638 671.955 427.509 744.067 696.75 594.558Z" fill="#FFC438"/>
</g>
<g filter="url(#filter2_f_1065_16281)">
<path d="M392.765 1051.48C319.909 982.277 872.384 428.02 1209.39 208.925C1546.4 -10.1689 1471.65 433.368 1180.37 684.522C937.932 893.562 465.622 1120.69 392.765 1051.48Z" fill="#FFC438"/>
</g>
</g>
<defs>
<filter id="filter0_f_1065_16281" x="-899.922" y="-739.922" width="2666.84" height="2114.84" filterUnits="userSpaceOnUse" color-interpolation-filters="sRGB">
<feFlood flood-opacity="0" result="BackgroundImageFix"/>
<feBlend mode="normal" in="SourceGraphic" in2="BackgroundImageFix" result="shape"/>
<feGaussianBlur stdDeviation="272.461" result="effect1_foregroundBlur_1065_16281"/>
</filter>
<filter id="filter1_f_1065_16281" x="-444.294" y="-298.828" width="2430.62" height="1813.71" filterUnits="userSpaceOnUse" color-interpolation-filters="sRGB">
<feFlood flood-opacity="0" result="BackgroundImageFix"/>
<feBlend mode="normal" in="SourceGraphic" in2="BackgroundImageFix" result="shape"/>
<feGaussianBlur stdDeviation="184.57" result="effect1_foregroundBlur_1065_16281"/>
</filter>
<filter id="filter2_f_1065_16281" x="104.972" y="-131.315" width="1608.36" height="1476.72" filterUnits="userSpaceOnUse" color-interpolation-filters="sRGB">
<feFlood flood-opacity="0" result="BackgroundImageFix"/>
<feBlend mode="normal" in="SourceGraphic" in2="BackgroundImageFix" result="shape"/>
<feGaussianBlur stdDeviation="140.625" result="effect1_foregroundBlur_1065_16281"/>
</filter>
<clipPath id="clip0_1065_16281">
<rect width="846" height="900" fill="white"/>
</clipPath>
</defs>
</svg>
