<svg width="290" height="413" viewBox="0 0 290 413" fill="none" xmlns="http://www.w3.org/2000/svg">
<ellipse opacity="0.3" cx="140.201" cy="387.657" rx="109.884" ry="24.6678" fill="#222222"/>
<path d="M125.419 235.167C115.784 230.605 104.505 234.204 100.226 243.215L75.4291 295.416L62.6481 289.352C53.0128 284.789 41.7338 288.388 37.4546 297.4C33.1754 306.412 37.5113 317.436 47.1466 321.998L82.2588 338.69C89.1736 341.977 97.2786 339.398 100.368 332.909L107.679 317.492L110.286 311.995L135.083 259.794C139.362 250.782 135.026 239.758 125.391 235.195L125.419 235.167Z" fill="white" stroke="#1D1D1B" stroke-width="3.36379" stroke-miterlimit="10"/>
<path d="M91.0592 338.618L36.357 312.632C34.7171 311.853 32.7562 312.551 31.9771 314.191L31.7826 314.6C31.0035 316.24 31.7014 318.201 33.3413 318.98L88.0435 344.966C89.6834 345.745 91.6443 345.047 92.4233 343.407L92.6179 342.998C93.3969 341.358 92.6991 339.397 91.0592 338.618Z" fill="white" stroke="#1D1D1B" stroke-width="3.36379" stroke-miterlimit="10"/>
<path d="M165.831 226.495C156.763 232.078 153.617 243.499 158.86 252L189.126 301.226L177.082 308.622C168.013 314.205 164.868 325.626 170.11 334.127C175.325 342.629 186.944 344.981 196.012 339.398L229.141 319.023C235.659 314.998 237.926 306.808 234.157 300.687L225.23 286.149L222.028 280.963L191.762 231.738C186.547 223.236 174.928 220.884 165.86 226.467L165.831 226.495Z" fill="white" stroke="#1D1D1B" stroke-width="3.36379" stroke-miterlimit="10"/>
<path d="M233.868 311.641L182.282 343.365C180.735 344.316 180.252 346.341 181.203 347.888L181.441 348.274C182.392 349.82 184.417 350.303 185.963 349.352L237.55 317.628C239.097 316.677 239.579 314.652 238.628 313.106L238.391 312.72C237.44 311.173 235.415 310.69 233.868 311.641Z" fill="white" stroke="#1D1D1B" stroke-width="3.36379" stroke-miterlimit="10"/>
<path d="M276.281 168.595C276.281 168.595 276.48 168.454 276.593 168.369C289.459 157.571 291.131 138.414 280.334 125.577C279.257 124.273 278.067 123.139 276.82 122.063C276.876 121.949 276.961 121.864 277.018 121.751C285.406 107.213 280.419 88.6507 265.909 80.2623C264.435 79.4121 262.934 78.732 261.403 78.1652C261.403 78.0518 261.46 77.9101 261.488 77.7968C264.407 61.275 253.355 45.5185 236.833 42.5996C235.161 42.3162 233.517 42.2028 231.874 42.1745C231.874 42.0611 231.874 41.9194 231.817 41.8061C228.898 25.2843 213.142 14.2604 196.62 17.151C194.948 17.4344 193.361 17.8878 191.831 18.4546C191.774 18.3412 191.717 18.2279 191.661 18.1145C183.272 3.57655 164.682 -1.3828 150.172 7.00559C148.698 7.85576 147.366 8.81929 146.12 9.86784C146.035 9.78282 145.95 9.69781 145.836 9.61279C132.97 -1.18442 113.813 0.515924 103.044 13.3536C101.967 14.6572 101.032 16.0174 100.21 17.4344C100.097 17.3777 99.9834 17.321 99.8701 17.2927C84.1135 11.5682 66.6566 19.6732 60.9321 35.4581C60.3653 37.0451 59.9685 38.6604 59.6568 40.2474C59.5435 40.2474 59.4018 40.2474 59.2884 40.2474C42.5117 40.2474 28.9089 53.8502 28.9089 70.627C28.9089 72.3273 29.0789 73.971 29.3339 75.5863C29.2206 75.6146 29.1072 75.643 28.9655 75.6997C13.2089 81.4242 5.07564 98.8811 10.8002 114.638C11.3669 116.225 12.1037 117.698 12.8972 119.144C12.8122 119.229 12.6988 119.285 12.5855 119.37C-0.280483 130.168 -1.95247 149.325 8.84474 162.162C9.92163 163.466 11.1118 164.6 12.3588 165.676C12.3021 165.79 12.2171 165.875 12.1604 165.988C3.77203 180.526 8.75972 199.088 23.2694 207.477C24.743 208.327 26.245 209.007 27.7753 209.574C27.7753 209.687 27.7186 209.829 27.6903 209.942C24.7713 226.464 35.8236 242.22 52.3453 245.139C54.0173 245.423 55.661 245.536 57.3047 245.564C57.3047 245.678 57.3047 245.82 57.3613 245.933C60.2803 262.455 76.0368 273.479 92.5586 270.588C94.2306 270.305 95.8176 269.851 97.3479 269.284C97.4046 269.398 97.4612 269.511 97.5179 269.624C105.906 284.162 124.497 289.122 139.006 280.733C140.48 279.883 141.812 278.92 143.059 277.871C143.144 277.956 143.229 278.041 143.342 278.126C156.208 288.923 175.366 287.223 186.134 274.385C187.211 273.082 188.147 271.722 188.968 270.305C189.082 270.361 189.195 270.418 189.308 270.446C205.065 276.171 222.522 268.066 228.246 252.281C228.813 250.694 229.21 249.079 229.522 247.492C229.635 247.492 229.777 247.492 229.89 247.492C246.667 247.492 260.27 233.889 260.27 217.112C260.27 215.412 260.1 213.768 259.845 212.153C259.958 212.124 260.071 212.096 260.213 212.039C275.97 206.315 284.103 188.858 278.378 173.101C277.812 171.514 277.075 170.041 276.281 168.595Z" fill="#17A249" stroke="#1D1D1B" stroke-width="3.36379" stroke-miterlimit="10"/>
<path d="M121.481 116.285C121.481 103.983 111.508 94.0103 99.2062 94.0103C86.9043 94.0103 76.9316 103.983 76.9316 116.285V159.445C76.9316 171.747 86.9043 181.72 99.2062 181.72C111.508 181.72 121.481 171.747 121.481 159.445V116.285Z" fill="white" stroke="#1D1D1B" stroke-width="3.36379" stroke-miterlimit="10"/>
<path d="M174.785 116.285C174.785 103.983 164.813 94.0103 152.511 94.0103C140.209 94.0103 130.236 103.983 130.236 116.285V159.445C130.236 171.747 140.209 181.72 152.511 181.72C164.813 181.72 174.785 171.747 174.785 159.445V116.285Z" fill="white" stroke="#1D1D1B" stroke-width="3.36379" stroke-miterlimit="10"/>
<path d="M111.049 114.318C111.049 105.511 103.394 98.3711 93.9499 98.3711C84.5062 98.3711 76.8506 105.511 76.8506 114.318V161.177C76.8506 169.984 84.5062 177.123 93.9499 177.123C103.394 177.123 111.049 169.984 111.049 161.177V114.318Z" fill="#1D1D1B"/>
<path d="M164.309 114.318C164.309 105.511 156.653 98.3711 147.21 98.3711C137.766 98.3711 130.11 105.511 130.11 114.318V161.177C130.11 169.984 137.766 177.123 147.21 177.123C156.653 177.123 164.309 169.984 164.309 161.177V114.318Z" fill="#1D1D1B"/>
<path d="M152.315 117.812C155.242 117.812 157.614 115.44 157.614 112.513C157.614 109.586 155.242 107.214 152.315 107.214C149.388 107.214 147.016 109.586 147.016 112.513C147.016 115.44 149.388 117.812 152.315 117.812Z" fill="white" stroke="#1D1D1B" stroke-width="3.36379" stroke-miterlimit="10"/>
<path d="M97.903 117.812C100.83 117.812 103.202 115.44 103.202 112.513C103.202 109.586 100.83 107.214 97.903 107.214C94.9762 107.214 92.6035 109.586 92.6035 112.513C92.6035 115.44 94.9762 117.812 97.903 117.812Z" fill="white" stroke="#1D1D1B" stroke-width="3.36379" stroke-miterlimit="10"/>
</svg>
