<svg width="100%" height="100%" viewBox="0 0 92 36" fill="none" xmlns="http://www.w3.org/2000/svg">
<path d="M12.1161 20.7184C12.1501 21.5509 12.337 22.2731 12.6768 22.8847C13.0336 23.4794 13.5009 23.9637 14.0786 24.3375C14.6563 24.6943 15.3019 24.9491 16.0156 25.1021C16.7292 25.272 17.4938 25.3569 18.3093 25.3569C19.1079 25.3569 19.8555 25.272 20.5522 25.1021C21.2658 24.9491 21.9029 24.6943 22.4637 24.3375C23.0413 23.9807 23.4916 23.5049 23.8144 22.9102C24.1543 22.3155 24.3242 21.6019 24.3242 20.7694C24.3242 20.1917 24.2137 19.6904 23.9928 19.2657C23.772 18.8409 23.4661 18.4926 23.0753 18.2207C22.6845 17.9489 22.2513 17.728 21.7755 17.5581C21.2998 17.3712 20.7561 17.2097 20.1444 17.0738C19.9575 17.0228 19.6262 16.9464 19.1504 16.8444C18.097 16.6236 17.3154 16.4027 16.8056 16.1818C16.2959 15.9609 16.041 15.6041 16.041 15.1114C16.041 14.6356 16.2364 14.3128 16.6272 14.1429C17.018 13.973 17.4938 13.888 18.0545 13.888C18.7851 13.888 19.3628 14.0239 19.7876 14.2958C20.2293 14.5506 20.4757 15.0094 20.5267 15.6721H23.9674C23.8994 14.8905 23.6955 14.2278 23.3557 13.6841C23.0329 13.1404 22.5996 12.7071 22.0559 12.3843C21.5291 12.0615 20.9345 11.8321 20.2718 11.6962C19.6262 11.5432 18.921 11.4668 18.1564 11.4668C17.3918 11.4668 16.6697 11.5347 15.9901 11.6707C15.3274 11.8066 14.7242 12.036 14.1805 12.3588C13.6368 12.6646 13.2035 13.0979 12.8807 13.6586C12.5749 14.2193 12.422 14.899 12.422 15.6975C12.422 16.2582 12.5324 16.7425 12.7533 17.1503C12.9912 17.5411 13.3055 17.8724 13.6963 18.1442C14.0871 18.3991 14.5119 18.6115 14.9706 18.7814C15.4464 18.9343 15.9901 19.0788 16.6018 19.2147C18.114 19.5375 19.1759 19.8349 19.7876 20.1067C20.3992 20.3616 20.7051 20.7439 20.7051 21.2536C20.7051 21.8313 20.4672 22.2561 19.9915 22.5279C19.5157 22.7998 18.9635 22.9357 18.3348 22.9357C17.5532 22.9357 16.8991 22.7573 16.3724 22.4005C15.8457 22.0267 15.5738 21.466 15.5568 20.7184H12.1161ZM38.0642 19.648C38.0642 19.5842 38.0642 19.4807 38.0642 19.3373C38.0801 19.2099 38.0881 19.1143 38.0881 19.0506C38.0881 18.1427 37.9527 17.2825 37.6819 16.4701C37.427 15.6577 37.0447 14.9409 36.535 14.3197C36.0412 13.6984 35.412 13.2126 34.6474 12.8622C33.8987 12.4958 33.0386 12.3126 32.0669 12.3126C31.143 12.3126 30.2908 12.4799 29.5103 12.8144C28.7298 13.133 28.0607 13.5869 27.5032 14.1763C26.9457 14.7657 26.5156 15.4586 26.213 16.2551C25.9103 17.0515 25.759 17.9117 25.759 18.8356C25.759 19.7754 25.9023 20.6515 26.1891 21.4639C26.4917 22.2603 26.9138 22.9532 27.4554 23.5426C28.0129 24.1161 28.682 24.5621 29.4625 24.8807C30.243 25.1833 31.1111 25.3346 32.0669 25.3346C33.5005 25.3346 34.7032 25.0001 35.6748 24.3311C36.6624 23.6462 37.3872 22.5948 37.8491 21.1771H34.8624C34.7509 21.5913 34.4403 21.9656 33.9306 22.3001C33.4209 22.6187 32.8395 22.778 32.1864 22.778C31.2306 22.778 30.4979 22.5232 29.9881 22.0134C29.4784 21.5037 29.1997 20.7152 29.1519 19.648H38.0642ZM29.1519 17.4975C29.1678 17.2267 29.2236 16.948 29.3191 16.6613C29.4147 16.3586 29.574 16.0719 29.797 15.8011C30.02 15.5303 30.3067 15.3073 30.6572 15.1321C31.0235 14.9568 31.4616 14.8692 31.9713 14.8692C32.7678 14.8692 33.3731 15.0843 33.7872 15.5144C34.2173 15.9444 34.512 16.6055 34.6713 17.4975H29.1519ZM51.7844 19.648C51.7844 19.5842 51.7844 19.4807 51.7844 19.3373C51.8003 19.2099 51.8082 19.1143 51.8082 19.0506C51.8082 18.1427 51.6728 17.2825 51.4021 16.4701C51.1472 15.6577 50.7649 14.9409 50.2552 14.3197C49.7614 13.6984 49.1322 13.2126 48.3676 12.8622C47.6189 12.4958 46.7587 12.3126 45.7871 12.3126C44.8632 12.3126 44.011 12.4799 43.2304 12.8144C42.4499 13.133 41.7809 13.5869 41.2234 14.1763C40.6659 14.7657 40.2358 15.4586 39.9331 16.2551C39.6305 17.0515 39.4791 17.9117 39.4791 18.8356C39.4791 19.7754 39.6225 20.6515 39.9092 21.4639C40.2119 22.2603 40.634 22.9532 41.1756 23.5426C41.7331 24.1161 42.4021 24.5621 43.1827 24.8807C43.9632 25.1833 44.8313 25.3346 45.7871 25.3346C47.2207 25.3346 48.4233 25.0001 49.395 24.3311C50.3826 23.6462 51.1074 22.5948 51.5693 21.1771H48.5826C48.4711 21.5913 48.1605 21.9656 47.6508 22.3001C47.141 22.6187 46.5596 22.778 45.9065 22.778C44.9508 22.778 44.218 22.5232 43.7083 22.0134C43.1986 21.5037 42.9198 20.7152 42.872 19.648H51.7844ZM42.872 17.4975C42.888 17.2267 42.9437 16.948 43.0393 16.6613C43.1349 16.3586 43.2942 16.0719 43.5172 15.8011C43.7402 15.5303 44.0269 15.3073 44.3773 15.1321C44.7437 14.9568 45.1817 14.8692 45.6915 14.8692C46.4879 14.8692 47.0932 15.0843 47.5074 15.5144C47.9375 15.9444 48.2322 16.6055 48.3915 17.4975H42.872ZM53.1993 20.986C53.2312 21.7665 53.4064 22.4435 53.725 23.017C54.0595 23.5745 54.4975 24.0284 55.0391 24.3789C55.5807 24.7134 56.186 24.9523 56.855 25.0957C57.524 25.255 58.2409 25.3346 59.0054 25.3346C59.7541 25.3346 60.455 25.255 61.1081 25.0957C61.7771 24.9523 62.3744 24.7134 62.9001 24.3789C63.4417 24.0444 63.8638 23.5984 64.1665 23.0408C64.4851 22.4833 64.6443 21.8143 64.6443 21.0338C64.6443 20.4922 64.5408 20.0223 64.3337 19.6241C64.1266 19.2258 63.8399 18.8993 63.4736 18.6444C63.1072 18.3896 62.701 18.1825 62.255 18.0232C61.809 17.848 61.2992 17.6966 60.7258 17.5692C60.5506 17.5214 60.24 17.4497 59.7939 17.3542C58.8063 17.1471 58.0736 16.94 57.5957 16.7329C57.1179 16.5259 56.8789 16.1913 56.8789 15.7294C56.8789 15.2834 57.0621 14.9807 57.4285 14.8214C57.7948 14.6622 58.2409 14.5825 58.7665 14.5825C59.4515 14.5825 59.9931 14.7099 60.3913 14.9648C60.8054 15.2037 61.0364 15.6338 61.0842 16.2551H64.3098C64.2461 15.5223 64.055 14.9011 63.7364 14.3914C63.4337 13.8816 63.0275 13.4754 62.5178 13.1728C62.024 12.8701 61.4665 12.6551 60.8453 12.5277C60.24 12.3843 59.5789 12.3126 58.8621 12.3126C58.1453 12.3126 57.4683 12.3763 56.8311 12.5038C56.2099 12.6312 55.6444 12.8462 55.1347 13.1489C54.625 13.4356 54.2188 13.8418 53.9161 14.3675C53.6294 14.8931 53.486 15.5303 53.486 16.279C53.486 16.8046 53.5896 17.2586 53.7966 17.6409C54.0196 18.0073 54.3143 18.3179 54.6807 18.5727C55.0471 18.8117 55.4453 19.0108 55.8754 19.1701C56.3214 19.3134 56.8311 19.4488 57.4046 19.5763C58.8223 19.8789 59.8178 20.1577 60.3913 20.4125C60.9647 20.6515 61.2514 21.0099 61.2514 21.4878C61.2514 22.0293 61.0284 22.4276 60.5824 22.6824C60.1364 22.9373 59.6187 23.0647 59.0293 23.0647C58.2966 23.0647 57.6833 22.8975 57.1895 22.563C56.6957 22.2125 56.4409 21.6869 56.4249 20.986H53.1993ZM66.2478 18.8356C66.2478 20.7948 66.8292 22.3718 67.9921 23.5665C69.1549 24.7453 70.7 25.3346 72.6274 25.3346C74.5708 25.3346 76.1239 24.7453 77.2867 23.5665C78.4495 22.3718 79.0309 20.7948 79.0309 18.8356C79.0309 16.8604 78.4495 15.2834 77.2867 14.1046C76.1239 12.91 74.5708 12.3126 72.6274 12.3126C70.7 12.3126 69.1549 12.91 67.9921 14.1046C66.8292 15.2834 66.2478 16.8604 66.2478 18.8356ZM69.6407 18.8356C69.6407 18.3099 69.6885 17.8161 69.7841 17.3542C69.8956 16.8763 70.0628 16.4542 70.2859 16.0878C70.5248 15.7055 70.8354 15.4108 71.2177 15.2037C71.6159 14.9807 72.0858 14.8692 72.6274 14.8692C73.1849 14.8692 73.6549 14.9807 74.0372 15.2037C74.4354 15.4108 74.746 15.7055 74.969 16.0878C75.2079 16.4542 75.3752 16.8763 75.4708 17.3542C75.5823 17.8161 75.638 18.3099 75.638 18.8356C75.638 19.3612 75.5823 19.855 75.4708 20.317C75.3752 20.7789 75.2079 21.201 74.969 21.5833C74.746 21.9497 74.4354 22.2444 74.0372 22.4674C73.6549 22.6745 73.1849 22.778 72.6274 22.778C72.0858 22.778 71.6159 22.6745 71.2177 22.4674C70.8354 22.2444 70.5248 21.9497 70.2859 21.5833C70.0628 21.201 69.8956 20.7789 69.7841 20.317C69.6885 19.855 69.6407 19.3612 69.6407 18.8356Z" fill="white"/>
<rect x="0.75" y="0.75" width="89.8237" height="34.5" rx="17.25" stroke="white" stroke-width="1.5"/>
</svg>
