<svg width="100%" height="100%" viewBox="0 0 780 770" fill="none" xmlns="http://www.w3.org/2000/svg">
<rect width="780" height="770" fill="#FFC438"/>
<ellipse opacity="0.3" cx="120.645" cy="487.103" rx="37.9125" ry="8.51098" fill="#222222"/>
<path d="M109.439 455.029C112.475 451.993 112.475 447.072 109.439 444.036C106.404 441 101.482 441 98.4461 444.036L86.5266 455.956C83.491 458.991 83.491 463.913 86.5266 466.949C89.5623 469.984 94.484 469.984 97.5197 466.949L109.439 455.029Z" fill="white" stroke="#1D1D1B" stroke-width="1.16059" stroke-miterlimit="10"/>
<path d="M166.728 423.127C166.728 423.127 166.797 423.078 166.836 423.049C171.275 419.324 171.852 412.714 168.126 408.285C167.755 407.835 167.344 407.444 166.914 407.072C166.934 407.033 166.963 407.004 166.982 406.965C169.877 401.949 168.156 395.544 163.15 392.65C162.641 392.357 162.123 392.122 161.595 391.927C161.595 391.887 161.614 391.839 161.624 391.799C162.631 386.099 158.818 380.663 153.118 379.656C152.541 379.558 151.974 379.519 151.407 379.509C151.407 379.47 151.407 379.421 151.387 379.382C150.38 373.681 144.944 369.878 139.243 370.875C138.666 370.973 138.119 371.129 137.591 371.325C137.571 371.286 137.552 371.247 137.532 371.208C134.638 366.192 128.224 364.481 123.218 367.375C122.709 367.668 122.25 368.001 121.819 368.362C121.79 368.333 121.761 368.304 121.722 368.274C117.282 364.549 110.673 365.136 106.957 369.565C106.586 370.015 106.263 370.484 105.979 370.973C105.94 370.953 105.901 370.934 105.862 370.924C100.426 368.949 94.4027 371.745 92.4276 377.192C92.2321 377.739 92.0952 378.296 91.9876 378.844C91.9485 378.844 91.8996 378.844 91.8605 378.844C86.0722 378.844 81.3789 383.537 81.3789 389.326C81.3789 389.912 81.4375 390.479 81.5255 391.037C81.4864 391.047 81.4473 391.056 81.3984 391.076C75.962 393.051 73.1558 399.074 75.1309 404.51C75.3265 405.058 75.5807 405.566 75.8545 406.065C75.8251 406.094 75.786 406.114 75.7469 406.143C71.3079 409.869 70.731 416.478 74.4563 420.908C74.8278 421.357 75.2385 421.748 75.6687 422.12C75.6492 422.159 75.6198 422.188 75.6003 422.228C72.7061 427.244 74.4269 433.648 79.4331 436.542C79.9416 436.835 80.4598 437.07 80.9878 437.266C80.9878 437.305 80.9682 437.354 80.9584 437.393C79.9513 443.093 83.7646 448.53 89.465 449.537C90.0419 449.634 90.609 449.673 91.1761 449.683C91.1761 449.722 91.1761 449.771 91.1957 449.81C92.2028 455.511 97.6391 459.314 103.34 458.317C103.916 458.219 104.464 458.063 104.992 457.867C105.012 457.906 105.031 457.945 105.051 457.985C107.945 463 114.359 464.712 119.365 461.817C119.874 461.524 120.333 461.192 120.763 460.83C120.793 460.859 120.822 460.888 120.861 460.918C125.3 464.643 131.91 464.056 135.625 459.627C135.997 459.177 136.32 458.708 136.603 458.219C136.642 458.239 136.681 458.258 136.721 458.268C142.157 460.243 148.18 457.447 150.155 452.001C150.351 451.453 150.487 450.896 150.595 450.348C150.634 450.348 150.683 450.348 150.722 450.348C156.511 450.348 161.204 445.655 161.204 439.866C161.204 439.28 161.145 438.713 161.057 438.155C161.096 438.146 161.135 438.136 161.184 438.116C166.621 436.141 169.427 430.118 167.452 424.682C167.256 424.134 167.002 423.626 166.728 423.127Z" fill="#17A249" stroke="#1D1D1B" stroke-width="1.16059" stroke-miterlimit="10"/>
<path d="M112.931 404.579C112.931 400.335 109.49 396.894 105.246 396.894C101.002 396.894 97.5608 400.335 97.5608 404.579V419.471C97.5608 423.715 101.002 427.156 105.246 427.156C109.49 427.156 112.931 423.715 112.931 419.471V404.579Z" fill="white" stroke="#1D1D1B" stroke-width="1.16059" stroke-miterlimit="10"/>
<path d="M131.324 404.579C131.324 400.335 127.883 396.894 123.638 396.894C119.394 396.894 115.953 400.335 115.953 404.579V419.471C115.953 423.715 119.394 427.156 123.638 427.156C127.883 427.156 131.324 423.715 131.324 419.471V404.579Z" fill="white" stroke="#1D1D1B" stroke-width="1.16059" stroke-miterlimit="10"/>
<path d="M112.932 403.377C112.932 400.126 110.299 397.49 107.051 397.49C103.803 397.49 101.169 400.126 101.169 403.377V418.776C101.169 422.027 103.803 424.663 107.051 424.663C110.299 424.663 112.932 422.027 112.932 418.776V403.377Z" fill="#1D1D1B"/>
<path d="M131.324 403.377C131.324 400.126 128.69 397.49 125.442 397.49C122.194 397.49 119.561 400.126 119.561 403.377V418.776C119.561 422.027 122.194 424.663 125.442 424.663C128.69 424.663 131.324 422.027 131.324 418.776V403.377Z" fill="#1D1D1B"/>
<path d="M135.461 460.263C138.497 457.228 138.497 452.306 135.461 449.27C132.425 446.235 127.503 446.235 124.468 449.27L114.173 459.565C111.137 462.601 111.137 467.523 114.173 470.558C117.209 473.594 122.13 473.594 125.166 470.558L135.461 460.263Z" fill="white" stroke="#1D1D1B" stroke-width="1.16059" stroke-miterlimit="10"/>
<path d="M120.666 474.128H120.676C125.276 474.128 129.006 470.398 129.006 465.797V453.81C129.006 449.209 125.276 445.479 120.676 445.479H120.666C116.065 445.479 112.335 449.209 112.335 453.81V465.797C112.335 470.398 116.065 474.128 120.666 474.128Z" fill="white" stroke="#1D1D1B" stroke-width="1.16059" stroke-miterlimit="10"/>
<path d="M118.524 474.597H118.534C123.048 474.597 126.708 470.937 126.708 466.423V454.123C126.708 449.608 123.048 445.949 118.534 445.949H118.524C114.01 445.949 110.35 449.608 110.35 454.123V466.423C110.35 470.937 114.01 474.597 118.524 474.597Z" fill="white" stroke="#1D1D1B" stroke-width="1.16059" stroke-miterlimit="10"/>
<path d="M90.9797 471.449H90.9895C95.5903 471.449 99.3201 467.719 99.3201 463.118V451.131C99.3201 446.53 95.5903 442.8 90.9895 442.8H90.9797C86.3789 442.8 82.6491 446.53 82.6491 451.131V463.118C82.6491 467.719 86.3789 471.449 90.9797 471.449Z" fill="white" stroke="#1D1D1B" stroke-width="1.16059" stroke-miterlimit="10"/>
<path d="M88.8488 471.918H88.8586C93.373 471.918 97.0327 468.259 97.0327 463.744V451.444C97.0327 446.929 93.373 443.27 88.8586 443.27H88.8488C84.3344 443.27 80.6747 446.929 80.6747 451.444V463.744C80.6747 468.259 84.3344 471.918 88.8488 471.918Z" fill="white" stroke="#1D1D1B" stroke-width="1.16059" stroke-miterlimit="10"/>
<path d="M88.8488 471.908C84.3315 471.908 80.6747 468.242 80.6747 463.734V462.033H97.0327V463.734C97.0327 468.251 93.3661 471.908 88.8586 471.908H88.8488Z" fill="white" stroke="#1D1D1B" stroke-width="1.16059" stroke-miterlimit="10"/>
<path d="M118.524 474.597C114.007 474.597 110.35 470.931 110.35 466.423V464.722H126.708V466.423C126.708 470.94 123.041 474.597 118.534 474.597H118.524Z" fill="white" stroke="#1D1D1B" stroke-width="1.16059" stroke-miterlimit="10"/>
<path d="M127.178 404.139C128.187 404.139 129.006 403.32 129.006 402.311C129.006 401.301 128.187 400.482 127.178 400.482C126.168 400.482 125.349 401.301 125.349 402.311C125.349 403.32 126.168 404.139 127.178 404.139Z" fill="white" stroke="#1D1D1B" stroke-width="1.16059" stroke-miterlimit="10"/>
<path d="M108.405 404.139C109.415 404.139 110.234 403.32 110.234 402.311C110.234 401.301 109.415 400.482 108.405 400.482C107.395 400.482 106.577 401.301 106.577 402.311C106.577 403.32 107.395 404.139 108.405 404.139Z" fill="white" stroke="#1D1D1B" stroke-width="1.16059" stroke-miterlimit="10"/>
<ellipse opacity="0.3" cx="224.084" cy="466.503" rx="39.0731" ry="13.0566" fill="#222222"/>
<path d="M218.581 455.029C221.617 451.993 221.617 447.071 218.581 444.036C215.545 441 210.624 441 207.588 444.036L195.668 455.955C192.633 458.991 192.633 463.912 195.668 466.948C198.704 469.984 203.626 469.984 206.662 466.948L218.581 455.029Z" fill="white" stroke="#1D1D1B" stroke-width="1.16059" stroke-miterlimit="10"/>
<path d="M198.777 456.15L198.777 456.15L181.943 404.309C181.943 404.309 181.943 404.309 181.943 404.309C181.342 402.454 181.995 400.441 183.569 399.298L183.57 399.298L227.641 367.258L227.641 367.258C228.412 366.697 229.32 366.402 230.275 366.402C231.229 366.402 232.137 366.697 232.908 367.258L232.908 367.258L276.977 399.298C276.977 399.298 276.977 399.298 276.977 399.298C278.552 400.443 279.205 402.457 278.603 404.309L278.603 404.309L261.772 456.15L261.772 456.15C261.17 458.005 259.458 459.249 257.512 459.249H203.037C201.089 459.249 199.379 458.005 198.777 456.15Z" fill="#17A249" stroke="black" stroke-width="1.16059"/>
<path d="M222.073 404.579C222.073 400.335 218.632 396.894 214.388 396.894C210.143 396.894 206.702 400.335 206.702 404.579V419.471C206.702 423.715 210.143 427.156 214.388 427.156C218.632 427.156 222.073 423.715 222.073 419.471V404.579Z" fill="white" stroke="#1D1D1B" stroke-width="1.16059" stroke-miterlimit="10"/>
<path d="M240.465 404.579C240.465 400.335 237.024 396.894 232.78 396.894C228.535 396.894 225.094 400.335 225.094 404.579V419.471C225.094 423.715 228.535 427.156 232.78 427.156C237.024 427.156 240.465 423.715 240.465 419.471V404.579Z" fill="white" stroke="#1D1D1B" stroke-width="1.16059" stroke-miterlimit="10"/>
<path d="M222.074 403.377C222.074 400.126 219.441 397.49 216.193 397.49C212.944 397.49 210.311 400.126 210.311 403.377V418.776C210.311 422.027 212.944 424.663 216.193 424.663C219.441 424.663 222.074 422.027 222.074 418.776V403.377Z" fill="#1D1D1B"/>
<path d="M240.465 403.377C240.465 400.126 237.832 397.49 234.584 397.49C231.336 397.49 228.703 400.126 228.703 403.377V418.776C228.703 422.027 231.336 424.663 234.584 424.663C237.832 424.663 240.465 422.027 240.465 418.776V403.377Z" fill="#1D1D1B"/>
<path d="M244.602 460.263C247.638 457.228 247.638 452.306 244.602 449.27C241.567 446.235 236.645 446.235 233.609 449.27L223.315 459.565C220.279 462.601 220.279 467.523 223.315 470.558C226.35 473.594 231.272 473.594 234.308 470.558L244.602 460.263Z" fill="white" stroke="#1D1D1B" stroke-width="1.16059" stroke-miterlimit="10"/>
<path d="M229.808 474.128H229.817C234.418 474.128 238.148 470.398 238.148 465.797V453.81C238.148 449.209 234.418 445.479 229.817 445.479H229.808C225.207 445.479 221.477 449.209 221.477 453.81V465.797C221.477 470.398 225.207 474.128 229.808 474.128Z" fill="white" stroke="#1D1D1B" stroke-width="1.16059" stroke-miterlimit="10"/>
<path d="M227.666 474.597H227.675C232.19 474.597 235.85 470.937 235.85 466.423V454.123C235.85 449.608 232.19 445.949 227.675 445.949H227.666C223.151 445.949 219.492 449.608 219.492 454.123V466.423C219.492 470.937 223.151 474.597 227.666 474.597Z" fill="white" stroke="#1D1D1B" stroke-width="1.16059" stroke-miterlimit="10"/>
<path d="M200.122 471.449H200.132C204.733 471.449 208.463 467.719 208.463 463.118V451.131C208.463 446.53 204.733 442.8 200.132 442.8H200.122C195.521 442.8 191.792 446.53 191.792 451.131V463.118C191.792 467.719 195.521 471.449 200.122 471.449Z" fill="white" stroke="#1D1D1B" stroke-width="1.16059" stroke-miterlimit="10"/>
<path d="M197.991 471.918H198C202.515 471.918 206.175 468.258 206.175 463.744V451.444C206.175 446.929 202.515 443.269 198 443.269H197.991C193.476 443.269 189.817 446.929 189.817 451.444V463.744C189.817 468.258 193.476 471.918 197.991 471.918Z" fill="white" stroke="#1D1D1B" stroke-width="1.16059" stroke-miterlimit="10"/>
<path d="M197.991 471.908C193.473 471.908 189.817 468.242 189.817 463.734V462.033H206.175V463.734C206.175 468.251 202.508 471.908 198 471.908H197.991Z" fill="white" stroke="#1D1D1B" stroke-width="1.16059" stroke-miterlimit="10"/>
<path d="M227.666 474.597C223.148 474.597 219.492 470.931 219.492 466.423V464.722H235.85V466.423C235.85 470.94 232.183 474.597 227.675 474.597H227.666Z" fill="white" stroke="#1D1D1B" stroke-width="1.16059" stroke-miterlimit="10"/>
<path d="M236.319 404.139C237.329 404.139 238.148 403.32 238.148 402.311C238.148 401.301 237.329 400.482 236.319 400.482C235.31 400.482 234.491 401.301 234.491 402.311C234.491 403.32 235.31 404.139 236.319 404.139Z" fill="white" stroke="#1D1D1B" stroke-width="1.16059" stroke-miterlimit="10"/>
<path d="M217.547 404.139C218.556 404.139 219.375 403.32 219.375 402.311C219.375 401.301 218.556 400.482 217.547 400.482C216.537 400.482 215.718 401.301 215.718 402.311C215.718 403.32 216.537 404.139 217.547 404.139Z" fill="white" stroke="#1D1D1B" stroke-width="1.16059" stroke-miterlimit="10"/>
<ellipse opacity="0.3" cx="667.162" cy="202.962" rx="39.0731" ry="13.0566" fill="#222222"/>
<path d="M663.291 166.775C659.966 165.2 656.075 166.442 654.598 169.551L646.043 187.562L641.633 185.47C638.309 183.895 634.417 185.137 632.941 188.246C631.464 191.356 632.96 195.159 636.285 196.733L648.399 202.492C650.785 203.627 653.581 202.737 654.647 200.498L657.17 195.179L658.069 193.282L666.625 175.271C668.101 172.162 666.605 168.359 663.281 166.784L663.291 166.775Z" fill="white" stroke="#1D1D1B" stroke-width="1.16059" stroke-miterlimit="10"/>
<path d="M651.435 202.468L632.561 193.502C631.996 193.234 631.319 193.474 631.05 194.04L630.983 194.181C630.714 194.747 630.955 195.424 631.521 195.693L650.394 204.658C650.96 204.927 651.637 204.686 651.906 204.121L651.973 203.979C652.241 203.414 652.001 202.737 651.435 202.468Z" fill="white" stroke="#1D1D1B" stroke-width="1.16059" stroke-miterlimit="10"/>
<path d="M677.233 163.783C674.104 165.709 673.019 169.65 674.827 172.583L685.27 189.567L681.114 192.119C677.986 194.045 676.9 197.985 678.709 200.919C680.508 203.852 684.517 204.663 687.646 202.737L699.076 195.707C701.325 194.319 702.107 191.493 700.807 189.381L697.727 184.365L696.622 182.576L686.179 165.592C684.38 162.659 680.371 161.847 677.242 163.773L677.233 163.783Z" fill="white" stroke="#1D1D1B" stroke-width="1.16059" stroke-miterlimit="10"/>
<path d="M700.707 193.16L682.909 204.106C682.375 204.434 682.209 205.133 682.537 205.666L682.619 205.799C682.947 206.333 683.645 206.499 684.179 206.171L701.978 195.226C702.511 194.898 702.678 194.199 702.35 193.666L702.268 193.532C701.939 192.999 701.241 192.832 700.707 193.16Z" fill="white" stroke="#1D1D1B" stroke-width="1.16059" stroke-miterlimit="10"/>
<path d="M715.728 144.306C715.728 144.306 715.797 144.257 715.836 144.228C720.275 140.502 720.852 133.893 717.126 129.463C716.755 129.014 716.344 128.622 715.914 128.251C715.934 128.212 715.963 128.182 715.982 128.143C718.877 123.127 717.156 116.723 712.15 113.829C711.641 113.535 711.123 113.301 710.595 113.105C710.595 113.066 710.614 113.017 710.624 112.978C711.631 107.278 707.818 101.841 702.118 100.834C701.541 100.737 700.974 100.697 700.407 100.688C700.407 100.649 700.407 100.6 700.387 100.561C699.38 94.8601 693.944 91.0566 688.243 92.0539C687.666 92.1517 687.119 92.3082 686.591 92.5037C686.571 92.4646 686.552 92.4255 686.532 92.3864C683.638 87.3704 677.224 85.6593 672.218 88.5535C671.709 88.8469 671.25 89.1793 670.819 89.5411C670.79 89.5117 670.761 89.4824 670.722 89.4531C666.282 85.7278 659.673 86.3144 655.957 90.7437C655.586 91.1935 655.263 91.6628 654.979 92.1517C654.94 92.1322 654.901 92.1126 654.862 92.1028C649.426 90.1277 643.403 92.9241 641.428 98.3703C641.232 98.9179 641.095 99.4752 640.988 100.023C640.949 100.023 640.9 100.023 640.861 100.023C635.072 100.023 630.379 104.716 630.379 110.504C630.379 111.091 630.438 111.658 630.526 112.215C630.486 112.225 630.447 112.235 630.398 112.255C624.962 114.23 622.156 120.253 624.131 125.689C624.326 126.237 624.581 126.745 624.854 127.244C624.825 127.273 624.786 127.293 624.747 127.322C620.308 131.047 619.731 137.657 623.456 142.086C623.828 142.536 624.238 142.927 624.669 143.299C624.649 143.338 624.62 143.367 624.6 143.406C621.706 148.422 623.427 154.827 628.433 157.721C628.942 158.014 629.46 158.249 629.988 158.444C629.988 158.483 629.968 158.532 629.958 158.571C628.951 164.272 632.765 169.708 638.465 170.715C639.042 170.813 639.609 170.852 640.176 170.862C640.176 170.901 640.176 170.95 640.196 170.989C641.203 176.689 646.639 180.493 652.34 179.496C652.916 179.398 653.464 179.241 653.992 179.046C654.012 179.085 654.031 179.124 654.051 179.163C656.945 184.179 663.359 185.89 668.365 182.996C668.874 182.703 669.333 182.37 669.763 182.009C669.793 182.038 669.822 182.067 669.861 182.097C674.3 185.822 680.91 185.235 684.625 180.806C684.997 180.356 685.32 179.887 685.603 179.398C685.642 179.417 685.681 179.437 685.721 179.447C691.157 181.422 697.18 178.625 699.155 173.179C699.351 172.632 699.487 172.074 699.595 171.527C699.634 171.527 699.683 171.527 699.722 171.527C705.511 171.527 710.204 166.834 710.204 161.045C710.204 160.459 710.145 159.891 710.057 159.334C710.096 159.324 710.135 159.315 710.184 159.295C715.621 157.32 718.427 151.297 716.452 145.86C716.256 145.313 716.002 144.804 715.728 144.306Z" fill="#FFC438" stroke="#1D1D1B" stroke-width="1.16059" stroke-miterlimit="10"/>
<path d="M661.931 125.758C661.931 121.513 658.49 118.073 654.246 118.073C650.001 118.073 646.561 121.513 646.561 125.758V140.649C646.561 144.894 650.001 148.334 654.246 148.334C658.49 148.334 661.931 144.894 661.931 140.649V125.758Z" fill="white" stroke="#1D1D1B" stroke-width="1.16059" stroke-miterlimit="10"/>
<path d="M680.322 125.758C680.322 121.513 676.881 118.073 672.637 118.073C668.392 118.073 664.952 121.513 664.952 125.758V140.649C664.952 144.894 668.392 148.334 672.637 148.334C676.881 148.334 680.322 144.894 680.322 140.649V125.758Z" fill="white" stroke="#1D1D1B" stroke-width="1.16059" stroke-miterlimit="10"/>
<path d="M658.264 125.192C658.264 122.153 655.622 119.69 652.364 119.69C649.106 119.69 646.464 122.153 646.464 125.192V141.359C646.464 144.398 649.106 146.861 652.364 146.861C655.622 146.861 658.264 144.398 658.264 141.359V125.192Z" fill="#1D1D1B"/>
<path d="M676.641 125.192C676.641 122.153 673.999 119.69 670.741 119.69C667.483 119.69 664.841 122.153 664.841 125.192V141.359C664.841 144.398 667.483 146.861 670.741 146.861C673.999 146.861 676.641 144.398 676.641 141.359V125.192Z" fill="#1D1D1B"/>
<path d="M672.502 126.398C673.512 126.398 674.331 125.579 674.331 124.569C674.331 123.559 673.512 122.741 672.502 122.741C671.492 122.741 670.674 123.559 670.674 124.569C670.674 125.579 671.492 126.398 672.502 126.398Z" fill="white" stroke="#1D1D1B" stroke-width="1.16059" stroke-miterlimit="10"/>
<path d="M653.728 126.398C654.738 126.398 655.557 125.579 655.557 124.569C655.557 123.559 654.738 122.741 653.728 122.741C652.718 122.741 651.9 123.559 651.9 124.569C651.9 125.579 652.718 126.398 653.728 126.398Z" fill="white" stroke="#1D1D1B" stroke-width="1.16059" stroke-miterlimit="10"/>
<ellipse opacity="0.3" cx="534.39" cy="703.887" rx="37.9125" ry="8.51098" fill="#222222"/>
<path d="M529.29 651.274C525.966 649.7 522.074 650.942 520.598 654.051L512.042 672.062L507.633 669.969C504.308 668.395 500.417 669.637 498.94 672.746C497.464 675.855 498.96 679.659 502.284 681.233L514.399 686.992C516.785 688.126 519.581 687.237 520.647 684.998L523.169 679.679L524.069 677.782L532.624 659.771C534.101 656.662 532.605 652.858 529.281 651.284L529.29 651.274Z" fill="white" stroke="#1D1D1B" stroke-width="1.16059" stroke-miterlimit="10"/>
<path d="M517.435 686.967L498.561 678.001C497.995 677.732 497.319 677.973 497.05 678.539L496.983 678.68C496.714 679.246 496.955 679.923 497.521 680.191L516.394 689.157C516.96 689.426 517.637 689.185 517.905 688.619L517.972 688.478C518.241 687.912 518 687.236 517.435 686.967Z" fill="white" stroke="#1D1D1B" stroke-width="1.16059" stroke-miterlimit="10"/>
<path d="M543.232 648.282C540.104 650.208 539.018 654.149 540.827 657.082L551.27 674.066L547.114 676.618C543.985 678.544 542.9 682.485 544.709 685.418C546.508 688.351 550.517 689.163 553.646 687.237L565.076 680.206C567.325 678.818 568.107 675.992 566.806 673.88L563.726 668.864L562.622 667.075L552.179 650.091C550.38 647.158 546.371 646.346 543.242 648.273L543.232 648.282Z" fill="white" stroke="#1D1D1B" stroke-width="1.16059" stroke-miterlimit="10"/>
<path d="M566.707 677.66L548.908 688.605C548.375 688.933 548.208 689.632 548.536 690.165L548.618 690.299C548.946 690.832 549.645 690.999 550.179 690.671L567.977 679.725C568.511 679.397 568.677 678.698 568.349 678.165L568.267 678.032C567.939 677.498 567.241 677.331 566.707 677.66Z" fill="white" stroke="#1D1D1B" stroke-width="1.16059" stroke-miterlimit="10"/>
<path d="M504.636 661.329L504.635 661.329L487.802 609.488C487.802 609.488 487.802 609.488 487.802 609.488C487.2 607.633 487.853 605.62 489.427 604.477L489.428 604.477L533.499 572.436L533.499 572.436C534.271 571.875 535.179 571.58 536.133 571.58C537.087 571.58 537.995 571.875 538.766 572.436L538.766 572.436L582.835 604.476C582.835 604.477 582.835 604.477 582.835 604.477C584.41 605.622 585.063 607.635 584.462 609.487L584.462 609.488L567.63 661.329L567.63 661.329C567.028 663.183 565.316 664.427 563.37 664.427H508.895C506.947 664.427 505.237 663.183 504.636 661.329Z" fill="#FFC438" stroke="black" stroke-width="1.16059"/>
<path d="M527.931 610.257C527.931 606.012 524.49 602.572 520.246 602.572C516.001 602.572 512.56 606.012 512.56 610.257V625.148C512.56 629.393 516.001 632.833 520.246 632.833C524.49 632.833 527.931 629.393 527.931 625.148V610.257Z" fill="white" stroke="#1D1D1B" stroke-width="1.16059" stroke-miterlimit="10"/>
<path d="M546.322 610.257C546.322 606.012 542.881 602.572 538.637 602.572C534.392 602.572 530.951 606.012 530.951 610.257V625.148C530.951 629.393 534.392 632.833 538.637 632.833C542.881 632.833 546.322 629.393 546.322 625.148V610.257Z" fill="white" stroke="#1D1D1B" stroke-width="1.16059" stroke-miterlimit="10"/>
<path d="M524.332 609.578C524.332 606.539 521.69 604.076 518.432 604.076C515.174 604.076 512.532 606.539 512.532 609.578V625.746C512.532 628.784 515.174 631.247 518.432 631.247C521.69 631.247 524.332 628.784 524.332 625.746V609.578Z" fill="#1D1D1B"/>
<path d="M542.708 609.578C542.708 606.539 540.067 604.076 536.808 604.076C533.55 604.076 530.909 606.539 530.909 609.578V625.746C530.909 628.784 533.55 631.247 536.808 631.247C540.067 631.247 542.708 628.784 542.708 625.746V609.578Z" fill="#1D1D1B"/>
<path d="M538.569 610.784C539.579 610.784 540.398 609.965 540.398 608.955C540.398 607.946 539.579 607.127 538.569 607.127C537.559 607.127 536.741 607.946 536.741 608.955C536.741 609.965 537.559 610.784 538.569 610.784Z" fill="white" stroke="#1D1D1B" stroke-width="1.16059" stroke-miterlimit="10"/>
<path d="M519.795 610.784C520.805 610.784 521.624 609.965 521.624 608.955C521.624 607.946 520.805 607.127 519.795 607.127C518.785 607.127 517.967 607.946 517.967 608.955C517.967 609.965 518.785 610.784 519.795 610.784Z" fill="white" stroke="#1D1D1B" stroke-width="1.16059" stroke-miterlimit="10"/>
</svg>
