<svg width="451" height="151" viewBox="0 0 451 151" fill="none" xmlns="http://www.w3.org/2000/svg">
<path d="M53.7494 88.4378C53.9234 92.7005 54.8803 96.3976 56.6202 99.5293C58.447 102.574 60.8393 105.053 63.797 106.967C66.7548 108.794 70.0605 110.099 73.7141 110.882C77.3678 111.752 81.2825 112.187 85.4581 112.187C89.5467 112.187 93.3744 111.752 96.9411 110.882C100.595 110.099 103.857 108.794 106.728 106.967C109.685 105.14 111.991 102.705 113.644 99.6598C115.383 96.6151 116.253 92.9614 116.253 88.6988C116.253 85.7411 115.688 83.1748 114.557 81C113.426 78.8252 111.86 77.0419 109.859 75.65C107.859 74.2581 105.64 73.1272 103.204 72.2573C100.769 71.3004 97.985 70.474 94.8532 69.778C93.8963 69.517 92.2 69.1256 89.7642 68.6036C84.3707 67.4727 80.3691 66.3418 77.7593 65.2109C75.1495 64.08 73.8446 62.2532 73.8446 59.7304C73.8446 57.2946 74.845 55.6418 76.8459 54.7719C78.8467 53.9019 81.2825 53.467 84.1532 53.467C87.8939 53.467 90.8516 54.1629 93.0264 55.5548C95.2882 56.8597 96.5496 59.2085 96.8106 62.6012H114.426C114.079 58.5995 113.035 55.2068 111.295 52.4231C109.642 49.6393 107.424 47.421 104.64 45.7682C101.943 44.1153 98.8984 42.9409 95.5057 42.245C92.2 41.4621 88.5898 41.0706 84.6752 41.0706C80.7605 41.0706 77.0633 41.4186 73.5837 42.1145C70.191 42.8104 67.1027 43.9848 64.319 45.6377C61.5352 47.2035 59.3169 49.4218 57.6641 52.2926C56.0982 55.1633 55.3153 58.643 55.3153 62.7317C55.3153 65.6024 55.8808 68.0817 57.0117 70.1695C58.2295 72.1703 59.8389 73.8666 61.8397 75.2585C63.8405 76.5634 66.0153 77.6508 68.3641 78.5207C70.7999 79.3037 73.5837 80.0431 76.7154 80.739C84.4577 82.3919 89.8947 83.9142 93.0264 85.3061C96.1581 86.611 97.724 88.5683 97.724 91.1781C97.724 94.1358 96.5061 96.3106 94.0703 97.7025C91.6345 99.0944 88.8073 99.7903 85.5886 99.7903C81.5869 99.7903 78.2377 98.8769 75.541 97.0501C72.8442 95.1362 71.4524 92.2655 71.3654 88.4378H53.7494ZM186.601 82.9573C186.601 82.6311 186.601 82.101 186.601 81.367C186.682 80.7146 186.723 80.2252 186.723 79.899C186.723 75.2504 186.03 70.8464 184.643 66.6871C183.339 62.5278 181.381 58.8578 178.771 55.6771C176.243 52.4965 173.022 50.009 169.107 48.2148C165.274 46.3391 160.87 45.4012 155.895 45.4012C151.165 45.4012 146.802 46.2575 142.806 47.9702C138.809 49.6013 135.384 51.9256 132.53 54.9431C129.675 57.9607 127.473 61.5083 125.924 65.5861C124.374 69.6638 123.599 74.0678 123.599 78.798C123.599 83.6098 124.333 88.0953 125.801 92.2546C127.351 96.3324 129.512 99.88 132.285 102.898C135.139 105.834 138.565 108.117 142.561 109.748C146.557 111.298 151.002 112.073 155.895 112.073C163.235 112.073 169.393 110.36 174.367 106.935C179.424 103.428 183.135 98.045 185.5 90.7866H170.208C169.637 92.9071 168.047 94.8236 165.437 96.5363C162.827 98.1674 159.851 98.9829 156.507 98.9829C151.614 98.9829 147.862 97.678 145.252 95.0683C142.643 92.4585 141.215 88.4215 140.971 82.9573H186.601ZM140.971 71.9474C141.052 70.5609 141.338 69.1337 141.827 67.6657C142.316 66.1162 143.132 64.6482 144.274 63.2618C145.415 61.8753 146.883 60.7335 148.678 59.8364C150.553 58.9393 152.796 58.4908 155.406 58.4908C159.484 58.4908 162.583 59.5918 164.703 61.7938C166.905 63.9958 168.414 67.3803 169.23 71.9474H140.971ZM256.847 82.9573C256.847 82.6311 256.847 82.101 256.847 81.367C256.928 80.7146 256.969 80.2252 256.969 79.899C256.969 75.2504 256.276 70.8464 254.889 66.6871C253.584 62.5278 251.627 58.8578 249.017 55.6771C246.489 52.4965 243.268 50.009 239.353 48.2148C235.52 46.3391 231.116 45.4012 226.141 45.4012C221.411 45.4012 217.048 46.2575 213.051 47.9702C209.055 49.6013 205.63 51.9256 202.775 54.9431C199.921 57.9607 197.719 61.5083 196.169 65.5861C194.62 69.6638 193.845 74.0678 193.845 78.798C193.845 83.6098 194.579 88.0953 196.047 92.2546C197.597 96.3324 199.758 99.88 202.531 102.898C205.385 105.834 208.811 108.117 212.807 109.748C216.803 111.298 221.248 112.073 226.141 112.073C233.481 112.073 239.638 110.36 244.613 106.935C249.67 103.428 253.38 98.045 255.746 90.7866H240.454C239.883 92.9071 238.293 94.8236 235.683 96.5363C233.073 98.1674 230.096 98.9829 226.753 98.9829C221.859 98.9829 218.108 97.678 215.498 95.0683C212.888 92.4585 211.461 88.4215 211.216 82.9573H256.847ZM211.216 71.9474C211.298 70.5609 211.583 69.1337 212.073 67.6657C212.562 66.1162 213.378 64.6482 214.519 63.2618C215.661 61.8753 217.129 60.7335 218.923 59.8364C220.799 58.9393 223.042 58.4908 225.652 58.4908C229.729 58.4908 232.829 59.5918 234.949 61.7938C237.151 63.9958 238.66 67.3803 239.475 71.9474H211.216ZM264.091 89.808C264.254 93.8042 265.151 97.2703 266.782 100.206C268.495 103.061 270.738 105.385 273.511 107.179C276.283 108.892 279.383 110.115 282.808 110.849C286.233 111.665 289.903 112.073 293.818 112.073C297.651 112.073 301.239 111.665 304.583 110.849C308.008 110.115 311.067 108.892 313.758 107.179C316.531 105.467 318.692 103.183 320.242 100.329C321.873 97.4741 322.688 94.0488 322.688 90.0526C322.688 87.2798 322.158 84.8739 321.098 82.835C320.038 80.7961 318.57 79.1242 316.694 77.8194C314.818 76.5145 312.739 75.4543 310.455 74.6387C308.171 73.7416 305.562 72.9668 302.626 72.3144C301.729 72.0697 300.138 71.7027 297.855 71.2134C292.798 70.1532 289.047 69.093 286.6 68.0327C284.153 66.9725 282.93 65.2599 282.93 62.8948C282.93 60.6112 283.868 59.0617 285.744 58.2461C287.62 57.4306 289.903 57.0228 292.594 57.0228C296.101 57.0228 298.874 57.6752 300.913 58.9801C303.033 60.2034 304.216 62.4054 304.461 65.5861H320.976C320.649 61.8345 319.671 58.6539 318.04 56.0441C316.49 53.4344 314.41 51.3547 311.801 49.8052C309.272 48.2556 306.418 47.1546 303.237 46.5022C300.138 45.7682 296.754 45.4012 293.084 45.4012C289.414 45.4012 285.948 45.7274 282.685 46.3798C279.505 47.0323 276.61 48.1333 274 49.6828C271.39 51.1508 269.31 53.2305 267.761 55.9218C266.293 58.6131 265.559 61.8753 265.559 65.7084C265.559 68.3997 266.089 70.7241 267.149 72.6814C268.291 74.5571 269.8 76.1475 271.676 77.4524C273.551 78.6757 275.59 79.6951 277.792 80.5107C280.076 81.2447 282.685 81.9379 285.621 82.5903C292.88 84.1399 297.977 85.5671 300.913 86.872C303.849 88.0953 305.317 89.9303 305.317 92.377C305.317 95.1498 304.175 97.1887 301.892 98.4936C299.608 99.7985 296.958 100.451 293.94 100.451C290.189 100.451 287.049 99.5946 284.52 97.8819C281.992 96.0877 280.687 93.3964 280.606 89.808H264.091ZM330.898 78.798C330.898 88.8293 333.875 96.9033 339.828 103.02C345.782 109.055 353.693 112.073 363.561 112.073C373.511 112.073 381.462 109.055 387.416 103.02C393.369 96.9033 396.346 88.8293 396.346 78.798C396.346 68.6852 393.369 60.6112 387.416 54.5761C381.462 48.4595 373.511 45.4012 363.561 45.4012C353.693 45.4012 345.782 48.4595 339.828 54.5761C333.875 60.6112 330.898 68.6852 330.898 78.798ZM348.269 78.798C348.269 76.1067 348.514 73.5785 349.003 71.2134C349.574 68.7667 350.43 66.6055 351.572 64.7297C352.796 62.7724 354.386 61.2637 356.343 60.2034C358.382 59.0617 360.788 58.4908 363.561 58.4908C366.415 58.4908 368.821 59.0617 370.778 60.2034C372.817 61.2637 374.408 62.7724 375.549 64.7297C376.773 66.6055 377.629 68.7667 378.118 71.2134C378.689 73.5785 378.975 76.1067 378.975 78.798C378.975 81.4893 378.689 84.0175 378.118 86.3826C377.629 88.7477 376.773 90.909 375.549 92.8663C374.408 94.742 372.817 96.2508 370.778 97.3926C368.821 98.4528 366.415 98.9829 363.561 98.9829C360.788 98.9829 358.382 98.4528 356.343 97.3926C354.386 96.2508 352.796 94.742 351.572 92.8663C350.43 90.909 349.574 88.7477 349.003 86.3826C348.514 84.0175 348.269 81.4893 348.269 78.798Z" fill="#222222"/>
<rect x="1" y="1" width="449" height="148.877" rx="74.4385" stroke="#222222" stroke-width="2"/>
</svg>
