<svg width="100%" height="100%" viewBox="0 0 1440 824" fill="none" xmlns="http://www.w3.org/2000/svg">
<rect width="1440" height="780" fill="#FFC438"/>
<ellipse opacity="0.3" cx="194.327" cy="601.367" rx="51.6937" ry="11.6047" fill="#222222"/>
<path d="M179.048 557.634C183.187 553.495 183.187 546.784 179.048 542.645C174.909 538.506 168.198 538.506 164.059 542.645L147.807 558.897C143.668 563.036 143.668 569.747 147.807 573.886C151.946 578.025 158.657 578.025 162.796 573.886L179.048 557.634Z" fill="white" stroke="#1D1D1B" stroke-width="1.58246" stroke-miterlimit="10"/>
<path d="M257.162 514.136C257.162 514.136 257.255 514.07 257.308 514.03C263.361 508.95 264.148 499.938 259.068 493.899C258.562 493.285 258.002 492.752 257.415 492.246C257.442 492.192 257.482 492.152 257.508 492.099C261.455 485.26 259.108 476.527 252.282 472.581C251.589 472.181 250.882 471.861 250.163 471.594C250.163 471.541 250.189 471.474 250.203 471.421C251.576 463.649 246.376 456.236 238.604 454.863C237.817 454.73 237.044 454.676 236.271 454.663C236.271 454.61 236.271 454.543 236.244 454.49C234.871 446.717 227.458 441.531 219.686 442.891C218.899 443.024 218.153 443.238 217.433 443.504C217.406 443.451 217.38 443.398 217.353 443.344C213.407 436.505 204.661 434.172 197.835 438.118C197.142 438.518 196.515 438.971 195.929 439.465C195.889 439.425 195.849 439.385 195.795 439.345C189.743 434.265 180.73 435.065 175.664 441.105C175.158 441.718 174.718 442.358 174.331 443.024C174.278 442.998 174.224 442.971 174.171 442.958C166.759 440.265 158.546 444.078 155.853 451.503C155.586 452.25 155.4 453.01 155.253 453.756C155.2 453.756 155.133 453.756 155.08 453.756C147.187 453.756 140.788 460.156 140.788 468.048C140.788 468.848 140.868 469.621 140.988 470.381C140.935 470.395 140.881 470.408 140.815 470.435C133.402 473.128 129.576 481.34 132.269 488.753C132.536 489.499 132.882 490.192 133.256 490.872C133.216 490.912 133.162 490.939 133.109 490.979C127.056 496.058 126.27 505.071 131.349 511.11C131.856 511.723 132.416 512.257 133.002 512.763C132.976 512.817 132.936 512.857 132.909 512.91C128.963 519.749 131.309 528.481 138.135 532.428C138.828 532.828 139.535 533.148 140.255 533.414C140.255 533.468 140.228 533.534 140.215 533.588C138.842 541.36 144.041 548.773 151.814 550.146C152.6 550.279 153.373 550.332 154.147 550.346C154.147 550.399 154.147 550.466 154.173 550.519C155.546 558.291 162.959 563.478 170.731 562.118C171.518 561.984 172.265 561.771 172.984 561.504C173.011 561.558 173.038 561.611 173.064 561.664C177.011 568.504 185.756 570.837 192.582 566.89C193.276 566.491 193.902 566.037 194.489 565.544C194.529 565.584 194.569 565.624 194.622 565.664C200.675 570.743 209.687 569.943 214.753 563.904C215.26 563.291 215.7 562.651 216.086 561.984C216.14 562.011 216.193 562.038 216.246 562.051C223.659 564.744 231.871 560.931 234.564 553.505C234.831 552.759 235.018 551.999 235.164 551.252C235.218 551.252 235.284 551.252 235.338 551.252C243.23 551.252 249.629 544.853 249.629 536.961C249.629 536.161 249.549 535.387 249.429 534.627C249.483 534.614 249.536 534.601 249.603 534.574C257.015 531.881 260.841 523.669 258.148 516.256C257.882 515.51 257.535 514.816 257.162 514.136Z" fill="#17A249" stroke="#1D1D1B" stroke-width="1.58246" stroke-miterlimit="10"/>
<path d="M183.809 488.846C183.809 483.059 179.118 478.367 173.33 478.367C167.543 478.367 162.852 483.059 162.852 488.846V509.15C162.852 514.938 167.543 519.629 173.33 519.629C179.118 519.629 183.809 514.938 183.809 509.15V488.846Z" fill="white" stroke="#1D1D1B" stroke-width="1.58246" stroke-miterlimit="10"/>
<path d="M208.887 488.846C208.887 483.059 204.196 478.367 198.409 478.367C192.621 478.367 187.93 483.059 187.93 488.846V509.15C187.93 514.938 192.621 519.629 198.409 519.629C204.196 519.629 208.887 514.938 208.887 509.15V488.846Z" fill="white" stroke="#1D1D1B" stroke-width="1.58246" stroke-miterlimit="10"/>
<path d="M183.811 487.206C183.811 482.773 180.22 479.18 175.792 479.18C171.363 479.18 167.772 482.773 167.772 487.206V508.204C167.772 512.636 171.363 516.229 175.792 516.229C180.22 516.229 183.811 512.636 183.811 508.204V487.206Z" fill="#1D1D1B"/>
<path d="M208.887 487.206C208.887 482.773 205.297 479.18 200.868 479.18C196.439 479.18 192.849 482.773 192.849 487.206V508.204C192.849 512.636 196.439 516.229 200.868 516.229C205.297 516.229 208.887 512.636 208.887 508.204V487.206Z" fill="#1D1D1B"/>
<path d="M214.529 564.772C218.668 560.632 218.668 553.922 214.529 549.783C210.39 545.643 203.679 545.643 199.54 549.783L185.503 563.819C181.364 567.959 181.364 574.669 185.503 578.808C189.642 582.948 196.353 582.948 200.492 578.808L214.529 564.772Z" fill="white" stroke="#1D1D1B" stroke-width="1.58246" stroke-miterlimit="10"/>
<path d="M194.355 583.675H194.369C200.642 583.675 205.728 578.59 205.728 572.317V555.972C205.728 549.698 200.642 544.613 194.369 544.613H194.355C188.082 544.613 182.997 549.698 182.997 555.972V572.317C182.997 578.59 188.082 583.675 194.355 583.675Z" fill="white" stroke="#1D1D1B" stroke-width="1.58246" stroke-miterlimit="10"/>
<path d="M191.435 584.315H191.449C197.604 584.315 202.594 579.325 202.594 573.17V556.399C202.594 550.243 197.604 545.253 191.449 545.253H191.435C185.28 545.253 180.29 550.243 180.29 556.399V573.17C180.29 579.325 185.28 584.315 191.435 584.315Z" fill="white" stroke="#1D1D1B" stroke-width="1.58246" stroke-miterlimit="10"/>
<path d="M153.879 580.022H153.892C160.166 580.022 165.251 574.937 165.251 568.664V552.319C165.251 546.046 160.166 540.96 153.892 540.96H153.879C147.606 540.96 142.52 546.046 142.52 552.319V568.664C142.52 574.937 147.606 580.022 153.879 580.022Z" fill="white" stroke="#1D1D1B" stroke-width="1.58246" stroke-miterlimit="10"/>
<path d="M150.973 580.662H150.986C157.142 580.662 162.132 575.672 162.132 569.517V552.745C162.132 546.59 157.142 541.6 150.986 541.6H150.973C144.818 541.6 139.828 546.59 139.828 552.745V569.517C139.828 575.672 144.818 580.662 150.973 580.662Z" fill="white" stroke="#1D1D1B" stroke-width="1.58246" stroke-miterlimit="10"/>
<path d="M150.973 580.649C144.814 580.649 139.828 575.649 139.828 569.504V567.184H162.132V569.504C162.132 575.663 157.132 580.649 150.986 580.649H150.973Z" fill="white" stroke="#1D1D1B" stroke-width="1.58246" stroke-miterlimit="10"/>
<path d="M191.435 584.315C185.276 584.315 180.29 579.316 180.29 573.17V570.85H202.594V573.17C202.594 579.329 197.595 584.315 191.449 584.315H191.435Z" fill="white" stroke="#1D1D1B" stroke-width="1.58246" stroke-miterlimit="10"/>
<path d="M203.235 488.246C204.612 488.246 205.728 487.13 205.728 485.753C205.728 484.376 204.612 483.26 203.235 483.26C201.858 483.26 200.742 484.376 200.742 485.753C200.742 487.13 201.858 488.246 203.235 488.246Z" fill="white" stroke="#1D1D1B" stroke-width="1.58246" stroke-miterlimit="10"/>
<path d="M177.638 488.246C179.015 488.246 180.131 487.13 180.131 485.753C180.131 484.376 179.015 483.26 177.638 483.26C176.261 483.26 175.145 484.376 175.145 485.753C175.145 487.13 176.261 488.246 177.638 488.246Z" fill="white" stroke="#1D1D1B" stroke-width="1.58246" stroke-miterlimit="10"/>
<ellipse opacity="0.3" cx="1318.94" cy="450.676" rx="53.2761" ry="17.8027" fill="#222222"/>
<path d="M1313.66 401.335C1309.13 399.188 1303.82 400.881 1301.81 405.121L1290.15 429.678L1284.13 426.825C1279.6 424.679 1274.29 426.372 1272.28 430.611C1270.27 434.851 1272.31 440.037 1276.84 442.183L1293.36 450.036C1296.61 451.582 1300.42 450.369 1301.88 447.316L1305.32 440.064L1306.54 437.477L1318.21 412.92C1320.22 408.681 1318.18 403.494 1313.65 401.348L1313.66 401.335Z" fill="white" stroke="#1D1D1B" stroke-width="1.58246" stroke-miterlimit="10"/>
<path d="M1297.5 450.002L1271.76 437.777C1270.99 437.411 1270.07 437.739 1269.7 438.51L1269.61 438.703C1269.25 439.475 1269.57 440.397 1270.34 440.764L1296.08 452.988C1296.85 453.355 1297.77 453.027 1298.14 452.255L1298.23 452.063C1298.6 451.291 1298.27 450.369 1297.5 450.002Z" fill="white" stroke="#1D1D1B" stroke-width="1.58246" stroke-miterlimit="10"/>
<path d="M1332.67 397.255C1328.41 399.882 1326.93 405.254 1329.39 409.254L1343.63 432.411L1337.97 435.891C1333.7 438.517 1332.22 443.89 1334.69 447.89C1337.14 451.889 1342.61 452.996 1346.87 450.369L1362.46 440.784C1365.52 438.891 1366.59 435.038 1364.82 432.158L1360.62 425.319L1359.11 422.879L1344.87 399.722C1342.42 395.722 1336.95 394.616 1332.69 397.242L1332.67 397.255Z" fill="white" stroke="#1D1D1B" stroke-width="1.58246" stroke-miterlimit="10"/>
<path d="M1364.68 437.311L1340.41 452.236C1339.69 452.683 1339.46 453.635 1339.91 454.363L1340.02 454.545C1340.46 455.272 1341.42 455.499 1342.14 455.052L1366.41 440.128C1367.14 439.68 1367.37 438.728 1366.92 438L1366.81 437.819C1366.36 437.091 1365.41 436.864 1364.68 437.311Z" fill="white" stroke="#1D1D1B" stroke-width="1.58246" stroke-miterlimit="10"/>
<path d="M1385.16 370.698C1385.16 370.698 1385.26 370.632 1385.31 370.592C1391.36 365.512 1392.15 356.5 1387.07 350.461C1386.56 349.847 1386 349.314 1385.42 348.808C1385.44 348.754 1385.48 348.714 1385.51 348.661C1389.45 341.822 1387.11 333.089 1380.28 329.143C1379.59 328.743 1378.88 328.423 1378.16 328.156C1378.16 328.103 1378.19 328.037 1378.2 327.983C1379.58 320.211 1374.38 312.798 1366.6 311.425C1365.82 311.292 1365.04 311.238 1364.27 311.225C1364.27 311.172 1364.27 311.105 1364.24 311.052C1362.87 303.279 1355.46 298.093 1347.69 299.453C1346.9 299.586 1346.15 299.8 1345.43 300.066C1345.41 300.013 1345.38 299.96 1345.35 299.906C1341.41 293.067 1332.66 290.734 1325.84 294.68C1325.14 295.08 1324.52 295.533 1323.93 296.027C1323.89 295.987 1323.85 295.947 1323.8 295.907C1317.74 290.827 1308.73 291.627 1303.66 297.667C1303.16 298.28 1302.72 298.92 1302.33 299.586C1302.28 299.56 1302.22 299.533 1302.17 299.52C1294.76 296.827 1286.55 300.64 1283.85 308.065C1283.59 308.812 1283.4 309.572 1283.25 310.318C1283.2 310.318 1283.13 310.318 1283.08 310.318C1275.19 310.318 1268.79 316.718 1268.79 324.61C1268.79 325.41 1268.87 326.183 1268.99 326.943C1268.93 326.957 1268.88 326.97 1268.81 326.997C1261.4 329.69 1257.58 337.902 1260.27 345.315C1260.54 346.061 1260.88 346.754 1261.26 347.434C1261.22 347.474 1261.16 347.501 1261.11 347.541C1255.06 352.62 1254.27 361.633 1259.35 367.672C1259.86 368.285 1260.42 368.819 1261 369.325C1260.98 369.379 1260.94 369.419 1260.91 369.472C1256.96 376.311 1259.31 385.043 1266.14 388.99C1266.83 389.39 1267.53 389.71 1268.25 389.976C1268.25 390.03 1268.23 390.096 1268.21 390.15C1266.84 397.922 1272.04 405.335 1279.81 406.708C1280.6 406.841 1281.37 406.894 1282.15 406.908C1282.15 406.961 1282.15 407.028 1282.17 407.081C1283.55 414.853 1290.96 420.04 1298.73 418.68C1299.52 418.546 1300.26 418.333 1300.98 418.066C1301.01 418.12 1301.04 418.173 1301.06 418.226C1305.01 425.066 1313.76 427.399 1320.58 423.452C1321.28 423.053 1321.9 422.599 1322.49 422.106C1322.53 422.146 1322.57 422.186 1322.62 422.226C1328.67 427.305 1337.69 426.505 1342.75 420.466C1343.26 419.853 1343.7 419.213 1344.09 418.546C1344.14 418.573 1344.19 418.6 1344.25 418.613C1351.66 421.306 1359.87 417.493 1362.56 410.067C1362.83 409.321 1363.02 408.561 1363.16 407.814C1363.22 407.814 1363.28 407.814 1363.34 407.814C1371.23 407.814 1377.63 401.415 1377.63 393.523C1377.63 392.723 1377.55 391.949 1377.43 391.189C1377.48 391.176 1377.54 391.163 1377.6 391.136C1385.02 388.443 1388.84 380.231 1386.15 372.818C1385.88 372.072 1385.54 371.378 1385.16 370.698Z" fill="#FFC438" stroke="#1D1D1B" stroke-width="1.58246" stroke-miterlimit="10"/>
<path d="M1311.81 345.408C1311.81 339.621 1307.12 334.929 1301.33 334.929C1295.54 334.929 1290.85 339.621 1290.85 345.408V365.712C1290.85 371.5 1295.54 376.191 1301.33 376.191C1307.12 376.191 1311.81 371.5 1311.81 365.712V345.408Z" fill="white" stroke="#1D1D1B" stroke-width="1.58246" stroke-miterlimit="10"/>
<path d="M1336.89 345.408C1336.89 339.621 1332.19 334.929 1326.41 334.929C1320.62 334.929 1315.93 339.621 1315.93 345.408V365.712C1315.93 371.5 1320.62 376.191 1326.41 376.191C1332.19 376.191 1336.89 371.5 1336.89 365.712V345.408Z" fill="white" stroke="#1D1D1B" stroke-width="1.58246" stroke-miterlimit="10"/>
<path d="M1306.81 344.636C1306.81 340.493 1303.21 337.135 1298.76 337.135C1294.32 337.135 1290.72 340.493 1290.72 344.636V366.681C1290.72 370.824 1294.32 374.183 1298.76 374.183C1303.21 374.183 1306.81 370.824 1306.81 366.681V344.636Z" fill="#1D1D1B"/>
<path d="M1331.87 344.636C1331.87 340.493 1328.26 337.135 1323.82 337.135C1319.38 337.135 1315.78 340.493 1315.78 344.636V366.681C1315.78 370.824 1319.38 374.183 1323.82 374.183C1328.26 374.183 1331.87 370.824 1331.87 366.681V344.636Z" fill="#1D1D1B"/>
<path d="M1326.22 346.281C1327.6 346.281 1328.72 345.164 1328.72 343.787C1328.72 342.411 1327.6 341.294 1326.22 341.294C1324.85 341.294 1323.73 342.411 1323.73 343.787C1323.73 345.164 1324.85 346.281 1326.22 346.281Z" fill="white" stroke="#1D1D1B" stroke-width="1.58246" stroke-miterlimit="10"/>
<path d="M1300.62 346.281C1302 346.281 1303.12 345.164 1303.12 343.787C1303.12 342.411 1302 341.294 1300.62 341.294C1299.25 341.294 1298.13 342.411 1298.13 343.787C1298.13 345.164 1299.25 346.281 1300.62 346.281Z" fill="white" stroke="#1D1D1B" stroke-width="1.58246" stroke-miterlimit="10"/>
<ellipse opacity="0.3" cx="1103.62" cy="812.192" rx="51.6937" ry="11.6047" fill="#222222"/>
<path d="M1096.66 740.454C1092.13 738.308 1086.82 740.001 1084.81 744.241L1073.15 768.798L1067.13 765.945C1062.6 763.798 1057.29 765.492 1055.28 769.731C1053.27 773.971 1055.31 779.157 1059.84 781.303L1076.36 789.156C1079.61 790.702 1083.42 789.489 1084.88 786.436L1088.32 779.183L1089.54 776.597L1101.21 752.04C1103.22 747.8 1101.18 742.614 1096.65 740.468L1096.66 740.454Z" fill="white" stroke="#1D1D1B" stroke-width="1.58246" stroke-miterlimit="10"/>
<path d="M1080.5 789.121L1054.76 776.897C1053.99 776.53 1053.07 776.858 1052.7 777.63L1052.61 777.822C1052.25 778.594 1052.57 779.516 1053.34 779.883L1079.08 792.108C1079.85 792.474 1080.77 792.146 1081.14 791.375L1081.23 791.182C1081.6 790.41 1081.27 789.488 1080.5 789.121Z" fill="white" stroke="#1D1D1B" stroke-width="1.58246" stroke-miterlimit="10"/>
<path d="M1115.67 736.375C1111.41 739.001 1109.93 744.374 1112.39 748.373L1126.63 771.531L1120.97 775.01C1116.7 777.637 1115.22 783.009 1117.69 787.009C1120.14 791.009 1125.61 792.115 1129.87 789.489L1145.46 779.903C1148.52 778.01 1149.59 774.157 1147.82 771.277L1143.62 764.438L1142.11 761.998L1127.87 738.841C1125.42 734.841 1119.95 733.735 1115.69 736.361L1115.67 736.375Z" fill="white" stroke="#1D1D1B" stroke-width="1.58246" stroke-miterlimit="10"/>
<path d="M1147.68 776.431L1123.41 791.355C1122.68 791.802 1122.46 792.755 1122.9 793.482L1123.02 793.664C1123.46 794.392 1124.42 794.619 1125.14 794.171L1149.41 779.247C1150.14 778.8 1150.37 777.847 1149.92 777.12L1149.81 776.938C1149.36 776.21 1148.41 775.983 1147.68 776.431Z" fill="white" stroke="#1D1D1B" stroke-width="1.58246" stroke-miterlimit="10"/>
<path d="M1063.05 754.163L1063.05 754.163L1040.09 683.478C1040.09 683.478 1040.09 683.478 1040.09 683.478C1039.27 680.948 1040.16 678.204 1042.31 676.646L1042.31 676.645L1102.4 632.958L1102.4 632.958C1103.45 632.193 1104.69 631.791 1105.99 631.791C1107.29 631.791 1108.53 632.193 1109.58 632.958L1109.58 632.958L1169.67 676.645C1171.82 678.207 1172.71 680.952 1171.89 683.478L1171.89 683.478L1148.94 754.163L1148.94 754.163C1148.12 756.692 1145.78 758.388 1143.13 758.388H1068.85C1066.2 758.388 1063.87 756.692 1063.05 754.163Z" fill="#FFC438" stroke="black" stroke-width="1.58246"/>
<path d="M1094.81 684.527C1094.81 678.74 1090.12 674.049 1084.33 674.049C1078.54 674.049 1073.85 678.74 1073.85 684.527V704.832C1073.85 710.619 1078.54 715.311 1084.33 715.311C1090.12 715.311 1094.81 710.619 1094.81 704.832V684.527Z" fill="white" stroke="#1D1D1B" stroke-width="1.58246" stroke-miterlimit="10"/>
<path d="M1119.89 684.527C1119.89 678.74 1115.19 674.049 1109.41 674.049C1103.62 674.049 1098.93 678.74 1098.93 684.527V704.832C1098.93 710.619 1103.62 715.311 1109.41 715.311C1115.19 715.311 1119.89 710.619 1119.89 704.832V684.527Z" fill="white" stroke="#1D1D1B" stroke-width="1.58246" stroke-miterlimit="10"/>
<path d="M1089.9 683.602C1089.9 679.459 1086.3 676.1 1081.86 676.1C1077.41 676.1 1073.81 679.459 1073.81 683.602V705.646C1073.81 709.789 1077.41 713.148 1081.86 713.148C1086.3 713.148 1089.9 709.789 1089.9 705.646V683.602Z" fill="#1D1D1B"/>
<path d="M1114.96 683.602C1114.96 679.459 1111.36 676.1 1106.91 676.1C1102.47 676.1 1098.87 679.459 1098.87 683.602V705.646C1098.87 709.789 1102.47 713.148 1106.91 713.148C1111.36 713.148 1114.96 709.789 1114.96 705.646V683.602Z" fill="#1D1D1B"/>
<path d="M1109.31 685.246C1110.69 685.246 1111.81 684.13 1111.81 682.753C1111.81 681.376 1110.69 680.26 1109.31 680.26C1107.94 680.26 1106.82 681.376 1106.82 682.753C1106.82 684.13 1107.94 685.246 1109.31 685.246Z" fill="white" stroke="#1D1D1B" stroke-width="1.58246" stroke-miterlimit="10"/>
<path d="M1083.72 685.246C1085.09 685.246 1086.21 684.13 1086.21 682.753C1086.21 681.376 1085.09 680.26 1083.72 680.26C1082.34 680.26 1081.22 681.376 1081.22 682.753C1081.22 684.13 1082.34 685.246 1083.72 685.246Z" fill="white" stroke="#1D1D1B" stroke-width="1.58246" stroke-miterlimit="10"/>
<ellipse opacity="0.3" cx="335.366" cy="573.278" rx="53.2761" ry="17.8027" fill="#222222"/>
<path d="M327.863 557.634C332.002 553.495 332.002 546.784 327.863 542.645C323.724 538.506 317.013 538.506 312.874 542.645L296.621 558.897C292.482 563.036 292.482 569.747 296.621 573.886C300.761 578.025 307.471 578.025 311.61 573.886L327.863 557.634Z" fill="white" stroke="#1D1D1B" stroke-width="1.58246" stroke-miterlimit="10"/>
<path d="M300.86 559.163L300.86 559.163L277.907 488.478C277.907 488.478 277.907 488.478 277.907 488.478C277.087 485.948 277.978 483.204 280.124 481.646L280.125 481.645L340.216 437.958L340.216 437.958C341.268 437.193 342.506 436.791 343.807 436.791C345.108 436.791 346.346 437.193 347.398 437.958L347.398 437.958L407.486 481.645C409.633 483.207 410.524 485.952 409.703 488.478L409.703 488.478L386.753 559.163L386.753 559.163C385.933 561.692 383.598 563.388 380.945 563.388H306.669C304.013 563.388 301.681 561.692 300.86 559.163Z" fill="#17A249" stroke="black" stroke-width="1.58246"/>
<path d="M332.624 488.846C332.624 483.059 327.932 478.367 322.145 478.367C316.358 478.367 311.666 483.059 311.666 488.846V509.15C311.666 514.938 316.358 519.629 322.145 519.629C327.932 519.629 332.624 514.938 332.624 509.15V488.846Z" fill="white" stroke="#1D1D1B" stroke-width="1.58246" stroke-miterlimit="10"/>
<path d="M357.702 488.846C357.702 483.059 353.01 478.367 347.223 478.367C341.436 478.367 336.744 483.059 336.744 488.846V509.15C336.744 514.938 341.436 519.629 347.223 519.629C353.01 519.629 357.702 514.938 357.702 509.15V488.846Z" fill="white" stroke="#1D1D1B" stroke-width="1.58246" stroke-miterlimit="10"/>
<path d="M332.625 487.206C332.625 482.773 329.035 479.18 324.606 479.18C320.177 479.18 316.587 482.773 316.587 487.206V508.204C316.587 512.636 320.177 516.229 324.606 516.229C329.035 516.229 332.625 512.636 332.625 508.204V487.206Z" fill="#1D1D1B"/>
<path d="M357.702 487.206C357.702 482.773 354.112 479.18 349.683 479.18C345.254 479.18 341.664 482.773 341.664 487.206V508.204C341.664 512.636 345.254 516.229 349.683 516.229C354.112 516.229 357.702 512.636 357.702 508.204V487.206Z" fill="#1D1D1B"/>
<path d="M363.343 564.771C367.482 560.632 367.482 553.921 363.343 549.782C359.204 545.643 352.493 545.643 348.354 549.782L334.317 563.819C330.178 567.958 330.178 574.669 334.317 578.808C338.456 582.947 345.167 582.947 349.306 578.808L363.343 564.771Z" fill="white" stroke="#1D1D1B" stroke-width="1.58246" stroke-miterlimit="10"/>
<path d="M343.17 583.675H343.183C349.457 583.675 354.542 578.59 354.542 572.317V555.972C354.542 549.698 349.457 544.613 343.183 544.613H343.17C336.897 544.613 331.811 549.698 331.811 555.972V572.317C331.811 578.59 336.897 583.675 343.17 583.675Z" fill="white" stroke="#1D1D1B" stroke-width="1.58246" stroke-miterlimit="10"/>
<path d="M340.25 584.315H340.263C346.419 584.315 351.409 579.325 351.409 573.17V556.398C351.409 550.243 346.419 545.253 340.263 545.253H340.25C334.094 545.253 329.105 550.243 329.105 556.398V573.17C329.105 579.325 334.094 584.315 340.25 584.315Z" fill="white" stroke="#1D1D1B" stroke-width="1.58246" stroke-miterlimit="10"/>
<path d="M302.694 580.022H302.708C308.981 580.022 314.066 574.937 314.066 568.664V552.319C314.066 546.046 308.981 540.96 302.708 540.96H302.694C296.421 540.96 291.336 546.046 291.336 552.319V568.664C291.336 574.937 296.421 580.022 302.694 580.022Z" fill="white" stroke="#1D1D1B" stroke-width="1.58246" stroke-miterlimit="10"/>
<path d="M299.788 580.662H299.801C305.956 580.662 310.946 575.672 310.946 569.517V552.745C310.946 546.59 305.956 541.6 299.801 541.6H299.788C293.632 541.6 288.642 546.59 288.642 552.745V569.517C288.642 575.672 293.632 580.662 299.788 580.662Z" fill="white" stroke="#1D1D1B" stroke-width="1.58246" stroke-miterlimit="10"/>
<path d="M299.788 580.649C293.628 580.649 288.642 575.649 288.642 569.503V567.184H310.946V569.503C310.946 575.663 305.947 580.649 299.801 580.649H299.788Z" fill="white" stroke="#1D1D1B" stroke-width="1.58246" stroke-miterlimit="10"/>
<path d="M340.25 584.315C334.091 584.315 329.105 579.316 329.105 573.17V570.85H351.409V573.17C351.409 579.329 346.409 584.315 340.263 584.315H340.25Z" fill="white" stroke="#1D1D1B" stroke-width="1.58246" stroke-miterlimit="10"/>
<path d="M352.049 488.246C353.426 488.246 354.542 487.13 354.542 485.753C354.542 484.376 353.426 483.26 352.049 483.26C350.672 483.26 349.556 484.376 349.556 485.753C349.556 487.13 350.672 488.246 352.049 488.246Z" fill="white" stroke="#1D1D1B" stroke-width="1.58246" stroke-miterlimit="10"/>
<path d="M326.453 488.246C327.829 488.246 328.946 487.13 328.946 485.753C328.946 484.376 327.829 483.26 326.453 483.26C325.076 483.26 323.959 484.376 323.959 485.753C323.959 487.13 325.076 488.246 326.453 488.246Z" fill="white" stroke="#1D1D1B" stroke-width="1.58246" stroke-miterlimit="10"/>
</svg>
