<svg width="360" height="800" viewBox="0 0 360 800" fill="none" xmlns="http://www.w3.org/2000/svg">
<g clip-path="url(#clip0_1553_16196)">
<rect width="360" height="800" fill="white"/>
<rect x="-6" y="-2" width="371" height="816" fill="#8E41FF"/>
<rect x="168.829" y="655.064" width="18.6565" height="18.6565" rx="1.5547" fill="white" fill-opacity="0.05"/>
<rect x="169.046" y="655.28" width="18.2235" height="18.2235" rx="1.33823" stroke="white" stroke-opacity="0.3" stroke-width="0.432947"/>
<rect x="147.064" y="655.064" width="18.6565" height="18.6565" rx="1.5547" fill="white" fill-opacity="0.05"/>
<rect x="147.281" y="655.28" width="18.2235" height="18.2235" rx="1.33823" stroke="white" stroke-opacity="0.3" stroke-width="0.432947"/>
<rect x="125.297" y="655.064" width="18.6565" height="18.6565" rx="1.5547" fill="white" fill-opacity="0.05"/>
<rect x="125.513" y="655.28" width="18.2235" height="18.2235" rx="1.33823" stroke="white" stroke-opacity="0.3" stroke-width="0.432947"/>
<rect x="103.531" y="655.064" width="18.6565" height="18.6565" rx="1.5547" fill="white" fill-opacity="0.05"/>
<rect x="103.748" y="655.28" width="18.2235" height="18.2235" rx="1.33823" stroke="white" stroke-opacity="0.3" stroke-width="0.432947"/>
<rect x="125.608" y="633.298" width="18.6565" height="18.6565" rx="1.5547" fill="white" fill-opacity="0.05"/>
<rect x="125.825" y="633.514" width="18.2235" height="18.2235" rx="1.33823" stroke="white" stroke-opacity="0.3" stroke-width="0.432947"/>
<rect x="125.608" y="611.532" width="18.6565" height="18.6565" rx="1.5547" fill="white" fill-opacity="0.05"/>
<rect x="125.825" y="611.749" width="18.2235" height="18.2235" rx="1.33823" stroke="white" stroke-opacity="0.3" stroke-width="0.432947"/>
<rect x="147.064" y="589.766" width="18.6565" height="18.6565" rx="1.5547" fill="white" fill-opacity="0.05"/>
<rect x="147.281" y="589.982" width="18.2235" height="18.2235" rx="1.33823" stroke="white" stroke-opacity="0.3" stroke-width="0.432947"/>
<rect x="125.297" y="589.766" width="18.6565" height="18.6565" rx="1.5547" fill="white" fill-opacity="0.05"/>
<rect x="125.513" y="589.982" width="18.2235" height="18.2235" rx="1.33823" stroke="white" stroke-opacity="0.3" stroke-width="0.432947"/>
<rect x="103.531" y="589.766" width="18.6565" height="18.6565" rx="1.5547" fill="white" fill-opacity="0.05"/>
<rect x="103.748" y="589.982" width="18.2235" height="18.2235" rx="1.33823" stroke="white" stroke-opacity="0.3" stroke-width="0.432947"/>
<rect x="81.7656" y="589.766" width="18.6565" height="18.6565" rx="1.5547" fill="white" fill-opacity="0.05"/>
<rect x="81.9821" y="589.982" width="18.2235" height="18.2235" rx="1.33823" stroke="white" stroke-opacity="0.3" stroke-width="0.432947"/>
<rect x="60" y="589.766" width="18.6565" height="18.6565" rx="1.5547" fill="white" fill-opacity="0.05"/>
<rect x="60.2165" y="589.982" width="18.2235" height="18.2235" rx="1.33823" stroke="white" stroke-opacity="0.3" stroke-width="0.432947"/>
<rect x="125.608" y="568" width="18.6565" height="18.6565" rx="1.5547" fill="white" fill-opacity="0.05"/>
<rect x="125.825" y="568.216" width="18.2235" height="18.2235" rx="1.33823" stroke="white" stroke-opacity="0.3" stroke-width="0.432947"/>
<rect x="60.3105" y="568" width="18.6565" height="18.6565" rx="1.5547" fill="white" fill-opacity="0.05"/>
<rect x="60.527" y="568.216" width="18.2235" height="18.2235" rx="1.33823" stroke="white" stroke-opacity="0.3" stroke-width="0.432947"/>
<rect width="20.5199" height="20.5199" rx="1.70999" transform="matrix(2.32824e-08 -1 -1 -8.20657e-08 307.806 88.6152)" fill="white" fill-opacity="0.05"/>
<rect x="-0.238095" y="-0.238095" width="20.0437" height="20.0437" rx="1.4719" transform="matrix(2.32824e-08 -1 -1 -8.20657e-08 307.329 88.139)" stroke="white" stroke-opacity="0.3" stroke-width="0.47619"/>
<rect width="20.5199" height="20.5199" rx="1.70999" transform="matrix(2.32824e-08 -1 -1 -8.20657e-08 307.806 112.555)" fill="white" fill-opacity="0.05"/>
<rect x="-0.238095" y="-0.238095" width="20.0437" height="20.0437" rx="1.4719" transform="matrix(2.32824e-08 -1 -1 -8.20657e-08 307.329 112.079)" stroke="white" stroke-opacity="0.3" stroke-width="0.47619"/>
<rect width="20.5199" height="20.5199" rx="1.70999" transform="matrix(2.32824e-08 -1 -1 -8.20657e-08 307.806 136.495)" fill="white" fill-opacity="0.05"/>
<rect x="-0.238095" y="-0.238095" width="20.0437" height="20.0437" rx="1.4719" transform="matrix(2.32824e-08 -1 -1 -8.20657e-08 307.329 136.019)" stroke="white" stroke-opacity="0.3" stroke-width="0.47619"/>
<rect width="20.5199" height="20.5199" rx="1.70999" transform="matrix(2.32824e-08 -1 -1 -8.20657e-08 307.806 160.435)" fill="white" fill-opacity="0.05"/>
<rect x="-0.238095" y="-0.238095" width="20.0437" height="20.0437" rx="1.4719" transform="matrix(2.32824e-08 -1 -1 -8.20657e-08 307.329 159.959)" stroke="white" stroke-opacity="0.3" stroke-width="0.47619"/>
<rect width="20.5199" height="20.5199" rx="1.70999" transform="matrix(2.32824e-08 -1 -1 -8.20657e-08 331.745 136.153)" fill="white" fill-opacity="0.05"/>
<rect x="-0.238095" y="-0.238095" width="20.0437" height="20.0437" rx="1.4719" transform="matrix(2.32824e-08 -1 -1 -8.20657e-08 331.269 135.677)" stroke="white" stroke-opacity="0.3" stroke-width="0.47619"/>
<rect width="20.5199" height="20.5199" rx="1.70999" transform="matrix(2.32824e-08 -1 -1 -8.20657e-08 355.686 136.153)" fill="white" fill-opacity="0.05"/>
<rect x="-0.238095" y="-0.238095" width="20.0437" height="20.0437" rx="1.4719" transform="matrix(2.32824e-08 -1 -1 -8.20657e-08 355.209 135.677)" stroke="white" stroke-opacity="0.3" stroke-width="0.47619"/>
<rect width="20.5199" height="20.5199" rx="1.70999" transform="matrix(2.32824e-08 -1 -1 -8.20657e-08 379.626 112.555)" fill="white" fill-opacity="0.05"/>
<rect x="-0.238095" y="-0.238095" width="20.0437" height="20.0437" rx="1.4719" transform="matrix(2.32824e-08 -1 -1 -8.20657e-08 379.15 112.079)" stroke="white" stroke-opacity="0.3" stroke-width="0.47619"/>
<rect width="20.5199" height="20.5199" rx="1.70999" transform="matrix(2.32824e-08 -1 -1 -8.20657e-08 379.626 136.495)" fill="white" fill-opacity="0.05"/>
<rect x="-0.238095" y="-0.238095" width="20.0437" height="20.0437" rx="1.4719" transform="matrix(2.32824e-08 -1 -1 -8.20657e-08 379.15 136.019)" stroke="white" stroke-opacity="0.3" stroke-width="0.47619"/>
<rect width="20.5199" height="20.5199" rx="1.70999" transform="matrix(2.32824e-08 -1 -1 -8.20657e-08 379.626 160.435)" fill="white" fill-opacity="0.05"/>
<rect x="-0.238095" y="-0.238095" width="20.0437" height="20.0437" rx="1.4719" transform="matrix(2.32824e-08 -1 -1 -8.20657e-08 379.15 159.959)" stroke="white" stroke-opacity="0.3" stroke-width="0.47619"/>
<rect width="20.5199" height="20.5199" rx="1.70999" transform="matrix(2.32824e-08 -1 -1 -8.20657e-08 379.626 184.375)" fill="white" fill-opacity="0.05"/>
<rect x="-0.238095" y="-0.238095" width="20.0437" height="20.0437" rx="1.4719" transform="matrix(2.32824e-08 -1 -1 -8.20657e-08 379.15 183.898)" stroke="white" stroke-opacity="0.3" stroke-width="0.47619"/>
<rect width="20.5199" height="20.5199" rx="1.70999" transform="matrix(2.32824e-08 -1 -1 -8.20657e-08 379.626 208.314)" fill="white" fill-opacity="0.05"/>
<rect x="-0.238095" y="-0.238095" width="20.0437" height="20.0437" rx="1.4719" transform="matrix(2.32824e-08 -1 -1 -8.20657e-08 379.15 207.838)" stroke="white" stroke-opacity="0.3" stroke-width="0.47619"/>
<rect width="20.5199" height="20.5199" rx="1.70999" transform="matrix(1 6.69938e-08 1.25777e-07 -1 67.6992 156.52)" fill="white" fill-opacity="0.05"/>
<rect x="0.238095" y="-0.238095" width="20.0437" height="20.0437" rx="1.4719" transform="matrix(1 6.69938e-08 1.25777e-07 -1 67.6992 156.044)" stroke="white" stroke-opacity="0.3" stroke-width="0.47619"/>
<rect width="20.5199" height="20.5199" rx="1.70999" transform="matrix(1 6.69938e-08 1.25777e-07 -1 43.7607 156.52)" fill="white" fill-opacity="0.05"/>
<rect x="0.238095" y="-0.238095" width="20.0437" height="20.0437" rx="1.4719" transform="matrix(1 6.69938e-08 1.25777e-07 -1 43.7607 156.044)" stroke="white" stroke-opacity="0.3" stroke-width="0.47619"/>
<rect width="20.5199" height="20.5199" rx="1.70999" transform="matrix(1 6.69938e-08 1.25777e-07 -1 19.8193 156.52)" fill="white" fill-opacity="0.05"/>
<rect x="0.238095" y="-0.238095" width="20.0437" height="20.0437" rx="1.4719" transform="matrix(1 6.69938e-08 1.25777e-07 -1 19.8193 156.044)" stroke="white" stroke-opacity="0.3" stroke-width="0.47619"/>
<rect width="20.5199" height="20.5199" rx="1.70999" transform="matrix(1 6.69938e-08 1.25777e-07 -1 -4.12012 156.52)" fill="white" fill-opacity="0.05"/>
<rect x="0.238095" y="-0.238095" width="20.0437" height="20.0437" rx="1.4719" transform="matrix(1 6.69938e-08 1.25777e-07 -1 -4.12012 156.044)" stroke="white" stroke-opacity="0.3" stroke-width="0.47619"/>
<rect width="20.5199" height="20.5199" rx="1.70999" transform="matrix(1 6.69938e-08 1.25777e-07 -1 20.1621 180.46)" fill="white" fill-opacity="0.05"/>
<rect x="0.238095" y="-0.238095" width="20.0437" height="20.0437" rx="1.4719" transform="matrix(1 6.69938e-08 1.25777e-07 -1 20.1621 179.984)" stroke="white" stroke-opacity="0.3" stroke-width="0.47619"/>
<rect width="20.5199" height="20.5199" rx="1.70999" transform="matrix(1 6.69938e-08 1.25777e-07 -1 20.1621 204.399)" fill="white" fill-opacity="0.05"/>
<rect x="0.238095" y="-0.238095" width="20.0437" height="20.0437" rx="1.4719" transform="matrix(1 6.69938e-08 1.25777e-07 -1 20.1621 203.923)" stroke="white" stroke-opacity="0.3" stroke-width="0.47619"/>
<rect width="20.5199" height="20.5199" rx="1.70999" transform="matrix(1 6.69938e-08 1.25777e-07 -1 43.7607 228.34)" fill="white" fill-opacity="0.05"/>
<rect x="0.238095" y="-0.238095" width="20.0437" height="20.0437" rx="1.4719" transform="matrix(1 6.69938e-08 1.25777e-07 -1 43.7607 227.864)" stroke="white" stroke-opacity="0.3" stroke-width="0.47619"/>
<rect width="20.5199" height="20.5199" rx="1.70999" transform="matrix(1 6.69938e-08 1.25777e-07 -1 19.8193 228.34)" fill="white" fill-opacity="0.05"/>
<rect x="0.238095" y="-0.238095" width="20.0437" height="20.0437" rx="1.4719" transform="matrix(1 6.69938e-08 1.25777e-07 -1 19.8193 227.864)" stroke="white" stroke-opacity="0.3" stroke-width="0.47619"/>
<rect width="20.5199" height="20.5199" rx="1.70999" transform="matrix(1 6.69938e-08 1.25777e-07 -1 -4.12012 228.34)" fill="white" fill-opacity="0.05"/>
<rect x="0.238095" y="-0.238095" width="20.0437" height="20.0437" rx="1.4719" transform="matrix(1 6.69938e-08 1.25777e-07 -1 -4.12012 227.864)" stroke="white" stroke-opacity="0.3" stroke-width="0.47619"/>
<rect width="20.5199" height="20.5199" rx="1.70999" transform="matrix(1 6.69938e-08 1.25777e-07 -1 20.1621 252.28)" fill="white" fill-opacity="0.05"/>
<rect x="0.238095" y="-0.238095" width="20.0437" height="20.0437" rx="1.4719" transform="matrix(1 6.69938e-08 1.25777e-07 -1 20.1621 251.804)" stroke="white" stroke-opacity="0.3" stroke-width="0.47619"/>
<path d="M130.13 106.919C134.092 106.919 136.635 108.107 136.635 110.287C136.635 112.499 134.092 113.688 130.13 113.688C126.135 113.688 123.592 112.499 123.592 110.287C123.592 108.107 126.135 106.919 130.13 106.919ZM130.13 117.155C136.602 117.155 141.126 114.48 141.126 110.287C141.126 106.159 136.602 103.451 130.13 103.451C123.625 103.451 119.134 106.159 119.134 110.287C119.134 114.48 123.625 117.155 130.13 117.155ZM143.966 119.433H116.426V122.934H127.918V132.873H132.276V122.934H143.966V119.433ZM152.879 116.759H162.752V105.003H148.388V108.471H158.294V113.325H148.421V125.839H151.162C156.676 125.839 161.134 125.641 166.087 124.783L165.625 121.25C161.332 121.976 157.502 122.207 152.879 122.24V116.759ZM167.738 102.395V132.906H172.097V102.395H167.738ZM201.449 109.164H184.939V106.489H201.218V103.022H180.613V112.598H201.449V109.164ZM184.675 127.424H201.317V119.367H180.316V122.636H197.025V124.353H180.349V132.576H202.11V129.241H184.675V127.424ZM177.212 114.216V117.65H204.718V114.216H177.212ZM217.33 104.442C212.575 104.442 208.976 107.579 208.976 111.938C208.976 116.329 212.575 119.433 217.33 119.433C222.085 119.433 225.717 116.329 225.717 111.938C225.717 107.579 222.085 104.442 217.33 104.442ZM217.33 108.173C219.674 108.173 221.457 109.56 221.457 111.938C221.457 114.315 219.674 115.702 217.33 115.702C214.985 115.702 213.202 114.315 213.202 111.938C213.202 109.56 214.985 108.173 217.33 108.173ZM228.557 102.395V132.906H232.916V102.395H228.557ZM208.249 126.731C213.499 126.731 220.632 126.665 227.17 125.344L226.906 122.207C220.5 123.165 213.037 123.198 207.688 123.198L208.249 126.731ZM91.443 152.386H85.2021V148.489H91.443V152.386ZM80.8764 152.386H77.2111V155.622H99.4009V152.386H95.7687V148.489H99.6321V145.253H77.0129V148.489H80.8764V152.386ZM82.0981 169.821H98.7405V162.292H77.7394V165.429H94.4478V166.915H77.7724V174.609H99.533V171.472H82.0981V169.821ZM74.6024 157.174V160.608H102.076V157.174H74.6024ZM110.031 159.056H116.536V147.4H105.771V150.867H112.309V155.622H105.804V167.74H107.951C111.748 167.74 115.116 167.641 119.046 166.948L118.682 163.448C115.611 163.943 112.904 164.108 110.031 164.174V159.056ZM120.763 154.763H117.758V158.329H120.763V173.42H124.791V144.956H120.763V154.763ZM126.938 144.395V174.807H131.065V144.395H126.938ZM156.191 144.395V174.906H160.55V144.395H156.191ZM144.205 146.541C139.615 146.541 136.214 150.702 136.214 157.372C136.214 164.075 139.615 168.269 144.205 168.269C148.795 168.269 152.196 164.075 152.196 157.372C152.196 150.702 148.795 146.541 144.205 146.541ZM144.205 150.471C146.45 150.471 148.002 152.881 148.002 157.372C148.002 161.896 146.45 164.306 144.205 164.306C141.959 164.306 140.407 161.896 140.407 157.372C140.407 152.881 141.959 150.471 144.205 150.471ZM185.511 150.834C185.511 154.961 185.511 159.287 184.421 165.099L188.747 165.495C189.87 159.254 189.87 155.093 189.87 150.834V147.235H168.571V150.702H185.511V150.834ZM165.732 167.311V170.877H193.238V167.311H165.732ZM201.656 158.759H211.298V147.003H197.33V150.471H207.005V155.325H197.363V167.872H199.938C205.222 167.872 209.415 167.674 213.972 166.849L213.576 163.316C209.614 164.009 206.014 164.24 201.656 164.273V158.759ZM224.341 155.886H219.982V144.395H215.623V174.906H219.982V159.485H224.341V155.886ZM240.221 148.456C244.085 148.456 246.462 149.414 246.462 151.296C246.462 153.178 244.085 154.136 240.221 154.136C236.424 154.136 234.013 153.178 234.013 151.296C234.013 149.414 236.424 148.456 240.221 148.456ZM240.221 157.603C246.792 157.603 251.151 155.159 251.151 151.296C251.151 147.466 246.792 144.989 240.221 144.989C233.683 144.989 229.291 147.466 229.291 151.296C229.291 155.159 233.683 157.603 240.221 157.603ZM234.112 165.198H229.688V174.311H251.019V170.844H234.112V165.198ZM226.485 159.188V162.655H238.273V167.872H242.731V162.655H254.024V159.188H226.485ZM281.461 158.462H264.423V150.471H281.23V146.937H260.064V161.929H281.461V158.462ZM256.861 167.641V171.208H284.4V167.641H256.861Z" fill="white"/>
<path d="M139.41 226.718C144.499 226.718 147.183 223.964 147.183 220.548C147.183 216.923 144.325 215.633 141.745 214.657C139.689 213.891 137.876 213.368 137.876 211.939C137.876 210.823 138.713 210.056 140.49 210.056C141.919 210.056 143.279 210.719 144.673 211.73L146.974 208.627C145.37 207.407 143.174 206.222 140.351 206.222C135.889 206.222 133.066 208.697 133.066 212.183C133.066 215.459 135.82 216.958 138.294 217.899C140.351 218.701 142.373 219.363 142.373 220.827C142.373 222.047 141.501 222.884 139.549 222.884C137.737 222.884 136.064 222.117 134.321 220.757L131.985 223.964C133.937 225.567 136.796 226.718 139.41 226.718ZM159.596 226.718C162.001 226.718 164.475 225.881 166.393 224.557L164.65 221.42C163.256 222.291 161.861 222.779 160.258 222.779C157.365 222.779 155.273 221.106 154.855 217.899H166.881C167.02 217.446 167.125 216.505 167.125 215.529C167.125 210.161 164.336 206.222 158.968 206.222C154.332 206.222 149.871 210.161 149.871 216.47C149.871 222.918 154.123 226.718 159.596 226.718ZM154.785 214.483C155.169 211.66 156.981 210.196 159.038 210.196C161.548 210.196 162.733 211.869 162.733 214.483H154.785ZM179.849 226.718C182.254 226.718 184.729 225.881 186.646 224.557L184.903 221.42C183.509 222.291 182.115 222.779 180.511 222.779C177.618 222.779 175.527 221.106 175.109 217.899H187.134C187.273 217.446 187.378 216.505 187.378 215.529C187.378 210.161 184.589 206.222 179.222 206.222C174.586 206.222 170.124 210.161 170.124 216.47C170.124 222.918 174.377 226.718 179.849 226.718ZM175.039 214.483C175.422 211.66 177.235 210.196 179.291 210.196C181.801 210.196 182.986 211.869 182.986 214.483H175.039ZM197.174 226.718C202.263 226.718 204.947 223.964 204.947 220.548C204.947 216.923 202.089 215.633 199.51 214.657C197.453 213.891 195.641 213.368 195.641 211.939C195.641 210.823 196.477 210.056 198.255 210.056C199.684 210.056 201.043 210.719 202.438 211.73L204.738 208.627C203.135 207.407 200.939 206.222 198.116 206.222C193.654 206.222 190.831 208.697 190.831 212.183C190.831 215.459 193.584 216.958 196.059 217.899C198.116 218.701 200.137 219.363 200.137 220.827C200.137 222.047 199.266 222.884 197.314 222.884C195.501 222.884 193.828 222.117 192.085 220.757L189.75 223.964C191.702 225.567 194.56 226.718 197.174 226.718ZM217.012 226.718C221.892 226.718 226.388 222.953 226.388 216.47C226.388 209.987 221.892 206.222 217.012 206.222C212.132 206.222 207.635 209.987 207.635 216.47C207.635 222.953 212.132 226.718 217.012 226.718ZM217.012 222.535C214.363 222.535 212.864 220.165 212.864 216.47C212.864 212.81 214.363 210.405 217.012 210.405C219.661 210.405 221.16 212.81 221.16 216.47C221.16 220.165 219.661 222.535 217.012 222.535Z" fill="white"/>
<path d="M114.307 216.294C114.307 202.818 125.231 191.894 138.706 191.894H221.49C234.965 191.894 245.889 202.818 245.889 216.294C245.889 229.769 234.965 240.693 221.49 240.693H180.098H138.706C125.231 240.693 114.307 229.769 114.307 216.294Z" stroke="white" stroke-width="2.61422"/>
<rect width="20.5199" height="20.5199" rx="1.70999" transform="matrix(1 6.69938e-08 1.25777e-07 -1 337.543 18.3994)" fill="white" fill-opacity="0.05"/>
<rect x="0.238095" y="-0.238095" width="20.0437" height="20.0437" rx="1.4719" transform="matrix(1 6.69938e-08 1.25777e-07 -1 337.543 17.9232)" stroke="white" stroke-opacity="0.3" stroke-width="0.47619"/>
<rect width="20.5199" height="20.5199" rx="1.70999" transform="matrix(1 6.69938e-08 1.25777e-07 -1 337.201 42.3401)" fill="white" fill-opacity="0.05"/>
<rect x="0.238095" y="-0.238095" width="20.0437" height="20.0437" rx="1.4719" transform="matrix(1 6.69938e-08 1.25777e-07 -1 337.201 41.8639)" stroke="white" stroke-opacity="0.3" stroke-width="0.47619"/>
<rect width="20.5199" height="20.5199" rx="1.70999" transform="matrix(1 6.69938e-08 1.25777e-07 -1 313.261 42.3401)" fill="white" fill-opacity="0.05"/>
<rect x="0.238095" y="-0.238095" width="20.0437" height="20.0437" rx="1.4719" transform="matrix(1 6.69938e-08 1.25777e-07 -1 313.261 41.8639)" stroke="white" stroke-opacity="0.3" stroke-width="0.47619"/>
<rect width="20.5199" height="20.5199" rx="1.70999" transform="matrix(1 6.69938e-08 1.25777e-07 -1 289.321 42.3401)" fill="white" fill-opacity="0.05"/>
<rect x="0.238095" y="-0.238095" width="20.0437" height="20.0437" rx="1.4719" transform="matrix(1 6.69938e-08 1.25777e-07 -1 289.321 41.8639)" stroke="white" stroke-opacity="0.3" stroke-width="0.47619"/>
<rect width="20.5199" height="20.5199" rx="1.70999" transform="matrix(1 6.69938e-08 1.25777e-07 -1 265.381 42.3401)" fill="white" fill-opacity="0.05"/>
<rect x="0.238095" y="-0.238095" width="20.0437" height="20.0437" rx="1.4719" transform="matrix(1 6.69938e-08 1.25777e-07 -1 265.381 41.8639)" stroke="white" stroke-opacity="0.3" stroke-width="0.47619"/>
<rect width="20.5199" height="20.5199" rx="1.70999" transform="matrix(1 6.69938e-08 1.25777e-07 -1 337.543 66.2798)" fill="white" fill-opacity="0.05"/>
<rect x="0.238095" y="-0.238095" width="20.0437" height="20.0437" rx="1.4719" transform="matrix(1 6.69938e-08 1.25777e-07 -1 337.543 65.8036)" stroke="white" stroke-opacity="0.3" stroke-width="0.47619"/>
<rect width="20.5199" height="20.5199" rx="1.70999" transform="matrix(1 6.69938e-08 1.25777e-07 -1 265.724 66.2798)" fill="white" fill-opacity="0.05"/>
<rect x="0.238095" y="-0.238095" width="20.0437" height="20.0437" rx="1.4719" transform="matrix(1 6.69938e-08 1.25777e-07 -1 265.724 65.8036)" stroke="white" stroke-opacity="0.3" stroke-width="0.47619"/>
<rect width="20.5199" height="20.5199" rx="1.70999" transform="matrix(2.32824e-08 -1 -1 -8.20657e-08 282.425 766.615)" fill="white" fill-opacity="0.05"/>
<rect x="-0.238095" y="-0.238095" width="20.0437" height="20.0437" rx="1.4719" transform="matrix(2.32824e-08 -1 -1 -8.20657e-08 281.949 766.139)" stroke="white" stroke-opacity="0.3" stroke-width="0.47619"/>
<rect width="20.5199" height="20.5199" rx="1.70999" transform="matrix(2.32824e-08 -1 -1 -8.20657e-08 282.425 790.555)" fill="white" fill-opacity="0.05"/>
<rect x="-0.238095" y="-0.238095" width="20.0437" height="20.0437" rx="1.4719" transform="matrix(2.32824e-08 -1 -1 -8.20657e-08 281.949 790.079)" stroke="white" stroke-opacity="0.3" stroke-width="0.47619"/>
<rect width="20.5199" height="20.5199" rx="1.70999" transform="matrix(2.32824e-08 -1 -1 -8.20657e-08 282.425 814.495)" fill="white" fill-opacity="0.05"/>
<rect x="-0.238095" y="-0.238095" width="20.0437" height="20.0437" rx="1.4719" transform="matrix(2.32824e-08 -1 -1 -8.20657e-08 281.949 814.019)" stroke="white" stroke-opacity="0.3" stroke-width="0.47619"/>
<rect width="20.5199" height="20.5199" rx="1.70999" transform="matrix(2.32824e-08 -1 -1 -8.20657e-08 306.364 814.153)" fill="white" fill-opacity="0.05"/>
<rect x="-0.238095" y="-0.238095" width="20.0437" height="20.0437" rx="1.4719" transform="matrix(2.32824e-08 -1 -1 -8.20657e-08 305.888 813.677)" stroke="white" stroke-opacity="0.3" stroke-width="0.47619"/>
<rect width="20.5199" height="20.5199" rx="1.70999" transform="matrix(2.32824e-08 -1 -1 -8.20657e-08 330.305 814.153)" fill="white" fill-opacity="0.05"/>
<rect x="-0.238095" y="-0.238095" width="20.0437" height="20.0437" rx="1.4719" transform="matrix(2.32824e-08 -1 -1 -8.20657e-08 329.828 813.677)" stroke="white" stroke-opacity="0.3" stroke-width="0.47619"/>
<rect width="20.5199" height="20.5199" rx="1.70999" transform="matrix(2.32824e-08 -1 -1 -8.20657e-08 354.245 790.555)" fill="white" fill-opacity="0.05"/>
<rect x="-0.238095" y="-0.238095" width="20.0437" height="20.0437" rx="1.4719" transform="matrix(2.32824e-08 -1 -1 -8.20657e-08 353.769 790.079)" stroke="white" stroke-opacity="0.3" stroke-width="0.47619"/>
<rect width="20.5199" height="20.5199" rx="1.70999" transform="matrix(2.32824e-08 -1 -1 -8.20657e-08 354.245 814.495)" fill="white" fill-opacity="0.05"/>
<rect x="-0.238095" y="-0.238095" width="20.0437" height="20.0437" rx="1.4719" transform="matrix(2.32824e-08 -1 -1 -8.20657e-08 353.769 814.019)" stroke="white" stroke-opacity="0.3" stroke-width="0.47619"/>
<rect width="20.5199" height="20.5199" rx="1.70999" transform="matrix(2.32824e-08 -1 -1 -8.20657e-08 378.185 814.153)" fill="white" fill-opacity="0.05"/>
<rect x="-0.238095" y="-0.238095" width="20.0437" height="20.0437" rx="1.4719" transform="matrix(2.32824e-08 -1 -1 -8.20657e-08 377.708 813.677)" stroke="white" stroke-opacity="0.3" stroke-width="0.47619"/>
<rect width="20.5199" height="20.5199" rx="1.70999" transform="matrix(1 6.69938e-08 1.25777e-07 -1 359.7 648.52)" fill="white" fill-opacity="0.05"/>
<rect x="0.238095" y="-0.238095" width="20.0437" height="20.0437" rx="1.4719" transform="matrix(1 6.69938e-08 1.25777e-07 -1 359.7 648.044)" stroke="white" stroke-opacity="0.3" stroke-width="0.47619"/>
<rect width="20.5199" height="20.5199" rx="1.70999" transform="matrix(1 6.69938e-08 1.25777e-07 -1 335.761 648.52)" fill="white" fill-opacity="0.05"/>
<rect x="0.238095" y="-0.238095" width="20.0437" height="20.0437" rx="1.4719" transform="matrix(1 6.69938e-08 1.25777e-07 -1 335.761 648.044)" stroke="white" stroke-opacity="0.3" stroke-width="0.47619"/>
<rect width="20.5199" height="20.5199" rx="1.70999" transform="matrix(1 6.69938e-08 1.25777e-07 -1 311.82 648.52)" fill="white" fill-opacity="0.05"/>
<rect x="0.238095" y="-0.238095" width="20.0437" height="20.0437" rx="1.4719" transform="matrix(1 6.69938e-08 1.25777e-07 -1 311.82 648.044)" stroke="white" stroke-opacity="0.3" stroke-width="0.47619"/>
<rect width="20.5199" height="20.5199" rx="1.70999" transform="matrix(1 6.69938e-08 1.25777e-07 -1 287.88 648.52)" fill="white" fill-opacity="0.05"/>
<rect x="0.238095" y="-0.238095" width="20.0437" height="20.0437" rx="1.4719" transform="matrix(1 6.69938e-08 1.25777e-07 -1 287.88 648.044)" stroke="white" stroke-opacity="0.3" stroke-width="0.47619"/>
<rect width="20.5199" height="20.5199" rx="1.70999" transform="matrix(1 6.69938e-08 1.25777e-07 -1 312.162 672.46)" fill="white" fill-opacity="0.05"/>
<rect x="0.238095" y="-0.238095" width="20.0437" height="20.0437" rx="1.4719" transform="matrix(1 6.69938e-08 1.25777e-07 -1 312.162 671.984)" stroke="white" stroke-opacity="0.3" stroke-width="0.47619"/>
<rect width="20.5199" height="20.5199" rx="1.70999" transform="matrix(1 6.69938e-08 1.25777e-07 -1 312.162 696.399)" fill="white" fill-opacity="0.05"/>
<rect x="0.238095" y="-0.238095" width="20.0437" height="20.0437" rx="1.4719" transform="matrix(1 6.69938e-08 1.25777e-07 -1 312.162 695.923)" stroke="white" stroke-opacity="0.3" stroke-width="0.47619"/>
<rect width="20.5199" height="20.5199" rx="1.70999" transform="matrix(1 6.69938e-08 1.25777e-07 -1 335.761 720.34)" fill="white" fill-opacity="0.05"/>
<rect x="0.238095" y="-0.238095" width="20.0437" height="20.0437" rx="1.4719" transform="matrix(1 6.69938e-08 1.25777e-07 -1 335.761 719.864)" stroke="white" stroke-opacity="0.3" stroke-width="0.47619"/>
<rect width="20.5199" height="20.5199" rx="1.70999" transform="matrix(1 6.69938e-08 1.25777e-07 -1 311.82 720.34)" fill="white" fill-opacity="0.05"/>
<rect x="0.238095" y="-0.238095" width="20.0437" height="20.0437" rx="1.4719" transform="matrix(1 6.69938e-08 1.25777e-07 -1 311.82 719.864)" stroke="white" stroke-opacity="0.3" stroke-width="0.47619"/>
<rect width="20.5199" height="20.5199" rx="1.70999" transform="matrix(1 6.69938e-08 1.25777e-07 -1 287.88 720.34)" fill="white" fill-opacity="0.05"/>
<rect x="0.238095" y="-0.238095" width="20.0437" height="20.0437" rx="1.4719" transform="matrix(1 6.69938e-08 1.25777e-07 -1 287.88 719.864)" stroke="white" stroke-opacity="0.3" stroke-width="0.47619"/>
<rect width="20.5199" height="20.5199" rx="1.70999" transform="matrix(1 6.69938e-08 1.25777e-07 -1 263.94 720.34)" fill="white" fill-opacity="0.05"/>
<rect x="0.238095" y="-0.238095" width="20.0437" height="20.0437" rx="1.4719" transform="matrix(1 6.69938e-08 1.25777e-07 -1 263.94 719.864)" stroke="white" stroke-opacity="0.3" stroke-width="0.47619"/>
<rect width="20.5199" height="20.5199" rx="1.70999" transform="matrix(1 6.69938e-08 1.25777e-07 -1 240 720.34)" fill="white" fill-opacity="0.05"/>
<rect x="0.238095" y="-0.238095" width="20.0437" height="20.0437" rx="1.4719" transform="matrix(1 6.69938e-08 1.25777e-07 -1 240 719.864)" stroke="white" stroke-opacity="0.3" stroke-width="0.47619"/>
<rect width="20.5199" height="20.5199" rx="1.70999" transform="matrix(1 6.69938e-08 1.25777e-07 -1 312.162 744.28)" fill="white" fill-opacity="0.05"/>
<rect x="0.238095" y="-0.238095" width="20.0437" height="20.0437" rx="1.4719" transform="matrix(1 6.69938e-08 1.25777e-07 -1 312.162 743.803)" stroke="white" stroke-opacity="0.3" stroke-width="0.47619"/>
<rect width="20.5199" height="20.5199" rx="1.70999" transform="matrix(1 6.69938e-08 1.25777e-07 -1 240.343 744.28)" fill="white" fill-opacity="0.05"/>
<rect x="0.238095" y="-0.238095" width="20.0437" height="20.0437" rx="1.4719" transform="matrix(1 6.69938e-08 1.25777e-07 -1 240.343 743.803)" stroke="white" stroke-opacity="0.3" stroke-width="0.47619"/>
<rect width="20.5199" height="20.5199" rx="1.70999" transform="matrix(-1.10705e-07 1 1 1.69488e-07 74.6914 17.7493)" fill="white" fill-opacity="0.05"/>
<rect x="0.238095" y="0.238095" width="20.0437" height="20.0437" rx="1.4719" transform="matrix(-1.10705e-07 1 1 1.69488e-07 74.6914 17.7493)" stroke="white" stroke-opacity="0.3" stroke-width="0.47619"/>
<rect width="20.5199" height="20.5199" rx="1.70999" transform="matrix(-1.10705e-07 1 1 1.69488e-07 74.6914 -6.19043)" fill="white" fill-opacity="0.05"/>
<rect x="0.238095" y="0.238095" width="20.0437" height="20.0437" rx="1.4719" transform="matrix(-1.10705e-07 1 1 1.69488e-07 74.6914 -6.19043)" stroke="white" stroke-opacity="0.3" stroke-width="0.47619"/>
<rect width="20.5199" height="20.5199" rx="1.70999" transform="matrix(-1.10705e-07 1 1 1.69488e-07 50.751 17.7493)" fill="white" fill-opacity="0.05"/>
<rect x="0.238095" y="0.238095" width="20.0437" height="20.0437" rx="1.4719" transform="matrix(-1.10705e-07 1 1 1.69488e-07 50.751 17.7493)" stroke="white" stroke-opacity="0.3" stroke-width="0.47619"/>
<rect width="20.5199" height="20.5199" rx="1.70999" transform="matrix(-1.10705e-07 1 1 1.69488e-07 26.8115 17.7493)" fill="white" fill-opacity="0.05"/>
<rect x="0.238095" y="0.238095" width="20.0437" height="20.0437" rx="1.4719" transform="matrix(-1.10705e-07 1 1 1.69488e-07 26.8115 17.7493)" stroke="white" stroke-opacity="0.3" stroke-width="0.47619"/>
<rect width="20.5199" height="20.5199" rx="1.70999" transform="matrix(-1.10705e-07 1 1 1.69488e-07 26.8115 -6.19043)" fill="white" fill-opacity="0.05"/>
<rect x="0.238095" y="0.238095" width="20.0437" height="20.0437" rx="1.4719" transform="matrix(-1.10705e-07 1 1 1.69488e-07 26.8115 -6.19043)" stroke="white" stroke-opacity="0.3" stroke-width="0.47619"/>
<path d="M109.129 275.814H107.624V278.268C107.624 280.587 106.69 283.026 104.763 284.17L105.712 285.344C107.022 284.546 107.91 283.116 108.392 281.445C108.858 282.965 109.671 284.29 110.906 285.043L111.779 283.839C109.957 282.694 109.129 280.391 109.129 278.193V275.814ZM112.321 279.322H110.319V280.587H112.321V287.527H113.781V274.821H112.321V279.322ZM115.091 274.565V288.159H116.566V274.565H115.091ZM120.78 277.44H124.288V276.176H119.26V284.922H120.163C122.075 284.922 123.475 284.862 125.116 284.546L124.981 283.266C123.581 283.552 122.346 283.628 120.78 283.643V277.44ZM128.925 274.55V279.924H127.314V274.836H125.854V287.482H127.314V281.189H128.925V288.144H130.4V274.55H128.925ZM142.353 277.591V278.87H139.537V277.591H142.353ZM138.017 279.909H134.81V278.133H138.017V279.909ZM139.537 280.075H142.353V281.61H143.918V274.565H142.353V276.401H139.537V275.167H138.017V276.943H134.81V275.167H133.275V281.144H139.537V280.075ZM136.617 286.774V285.615H143.918V282.213H135.066V283.432H142.383V284.471H135.081V287.994H144.37V286.774H136.617ZM161.089 274.58H159.538V284.516H161.089V274.58ZM158.123 281.144C156.03 280.421 154.841 278.599 154.841 276.672V275.318H153.26V276.672C153.26 278.66 152.071 280.602 149.933 281.385L150.731 282.634C152.327 282.032 153.456 280.797 154.073 279.277C154.66 280.692 155.774 281.806 157.325 282.378L158.123 281.144ZM153.772 286.639V283.583H152.206V287.903H161.48V286.639H153.772ZM164.911 282.574C167.109 282.152 169.006 280.858 169.88 279.111C170.768 280.843 172.68 282.107 174.923 282.529L175.555 281.294C172.86 280.873 170.692 279.036 170.692 276.989V276.959H175.013V275.709H164.746V276.959H169.067V276.989C169.067 279.036 166.914 280.918 164.264 281.339L164.911 282.574ZM170.677 285.224V282.047H169.112V285.224H163.737V286.488H176.052V285.224H170.677ZM181.245 283.763C180.085 283.763 179.288 282.499 179.288 280.346C179.288 278.238 180.085 276.959 181.245 276.959C182.419 276.959 183.217 278.238 183.217 280.346C183.217 282.499 182.419 283.763 181.245 283.763ZM187.312 274.55V279.623H184.662C184.451 277.124 183.066 275.558 181.245 275.558C179.242 275.558 177.812 277.425 177.812 280.346C177.812 283.297 179.242 285.148 181.245 285.148C183.111 285.148 184.496 283.522 184.677 280.888H187.312V288.189H188.877V274.55H187.312ZM198.346 285.254V282.047H202.365V280.797H194.492V276.838H202.245V275.589H192.941V282.047H196.795V285.254H191.436V286.533H203.75V285.254H198.346ZM212.927 283.583H210.578V280.24H212.927V283.583ZM212.927 279.006H210.578V275.814H209.118V284.847H214.372V275.814H212.927V279.006ZM218.798 274.55V279.864H217.247V274.821H215.787V287.527H217.247V281.129H218.798V288.159H220.273V274.565L218.798 274.55ZM228.643 276.311C230.585 276.311 231.864 276.974 231.864 278.073C231.864 279.187 230.585 279.849 228.643 279.849C226.685 279.849 225.406 279.187 225.406 278.073C225.406 276.974 226.685 276.311 228.643 276.311ZM228.643 281.099C231.503 281.099 233.46 279.924 233.46 278.073C233.46 276.236 231.503 275.062 228.643 275.062C225.767 275.062 223.81 276.236 223.81 278.073C223.81 279.924 225.767 281.099 228.643 281.099ZM234.83 282.258H222.5V283.537H227.845V288.159H229.395V283.537H234.83V282.258ZM245.759 277.169C245.759 278.795 245.759 280.722 245.232 283.387L246.797 283.552C247.324 280.737 247.324 278.855 247.324 277.169V275.829H237.644V277.094H245.759V277.169ZM242.507 285.103V280.316H240.941V285.103H236.364V286.383H248.649V285.103H242.507ZM62.183 298.13H60.6324V306.727H61.5357C62.9508 306.727 64.5165 306.651 66.3381 306.32L66.1725 304.995C64.6972 305.266 63.3874 305.372 62.183 305.402V298.13ZM70.1169 296.565V301.969H68.506V296.836H67.0457V309.482H68.506V303.249H70.1169V310.159H71.5922V296.565H70.1169ZM86.6549 299.169C86.6549 300.795 86.6549 302.722 86.128 305.387L87.6937 305.552C88.2206 302.737 88.2206 300.855 88.2206 299.169V297.829H78.5404V299.094H86.6549V299.169ZM83.4031 307.103V302.316H81.8374V307.103H77.2608V308.383H89.5454V307.103H83.4031ZM102.311 296.58H100.76V306.29H102.311V296.58ZM96.7404 302.888H93.323V298.943H96.7404V302.888ZM98.2459 297.694H91.8025V304.137H98.2459V297.694ZM94.9941 308.533V305.402H93.4284V309.783H102.702V308.533H94.9941ZM111.653 305.823C110.734 305.823 110.087 305.086 110.087 303.957C110.087 302.828 110.734 302.075 111.653 302.075C112.571 302.075 113.218 302.828 113.218 303.957C113.218 305.086 112.571 305.823 111.653 305.823ZM111.653 300.795C109.936 300.795 108.702 302.075 108.702 303.957C108.702 305.823 109.936 307.118 111.653 307.118C113.369 307.118 114.603 305.823 114.603 303.957C114.603 302.075 113.369 300.795 111.653 300.795ZM112.42 296.956H110.885V298.778H108.31V300.027H114.965V298.778H112.42V296.956ZM118.442 296.565V302.195H116.997V296.851H115.552V309.527H116.997V303.475H118.442V310.159H119.918V296.565H118.442ZM131.9 299.621V301.021H128.573V302.225H131.9V303.46H133.451V296.565H131.9V298.417H129.085C129.16 298.025 129.19 297.604 129.19 297.167H123.108V298.417H127.474C127.263 300.313 125.592 301.804 122.37 302.496L122.912 303.761C125.908 303.083 127.911 301.698 128.754 299.621H131.9ZM126.179 308.789V307.54H133.451V304.017H124.598V305.251H131.9V306.38H124.629V310.039H133.827V308.789H126.179ZM142.768 303.144C141.067 302.526 140.179 301.096 140.179 299.576V299.47H142.407V298.236H140.179V296.7H138.689V298.236H136.4V299.47H138.689V299.576C138.689 301.172 137.815 302.707 136.084 303.385L136.822 304.544C138.116 304.017 138.99 303.038 139.456 301.834C139.953 302.948 140.811 303.821 142.061 304.303L142.768 303.144ZM138.327 306.817H145.99V310.174H147.541V305.568H138.327V306.817ZM146.065 296.58V300.103H144.665V296.806H143.205V304.83H144.665V301.367H146.065V304.905H147.541V296.58H146.065ZM156.03 297.935C158.138 297.935 159.267 298.341 159.267 299.124C159.267 299.892 158.138 300.298 156.03 300.298C153.923 300.298 152.794 299.892 152.794 299.124C152.794 298.341 153.923 297.935 156.03 297.935ZM156.03 301.458C159.071 301.458 160.878 300.63 160.878 299.124C160.878 297.604 159.071 296.776 156.03 296.776C152.974 296.776 151.183 297.604 151.183 299.124C151.183 300.63 152.974 301.458 156.03 301.458ZM152.899 307.72H160.637V304.469H151.333V305.643H159.117V306.621H151.363V310.039H161.029V308.849H152.899V307.72ZM149.873 302.255V303.49H162.188V302.255H149.873ZM171.289 297.814H169.783V300.268C169.783 302.587 168.85 305.026 166.923 306.17L167.871 307.344C169.181 306.546 170.069 305.116 170.551 303.445C171.018 304.965 171.831 306.29 173.065 307.043L173.938 305.839C172.117 304.694 171.289 302.391 171.289 300.193V297.814ZM174.48 301.322H172.478V302.587H174.48V309.527H175.941V296.821H174.48V301.322ZM177.25 296.565V310.159H178.726V296.565H177.25ZM182.94 299.44H186.448V298.176H181.419V306.922H182.323C184.235 306.922 185.635 306.862 187.276 306.546L187.14 305.266C185.74 305.552 184.506 305.628 182.94 305.643V299.44ZM191.085 296.55V301.924H189.474V296.836H188.013V309.482H189.474V303.189H191.085V310.144H192.56V296.55H191.085ZM204.512 299.591V300.87H201.697V299.591H204.512ZM200.176 301.909H196.97V300.133H200.176V301.909ZM201.697 302.075H204.512V303.61H206.078V296.565H204.512V298.401H201.697V297.167H200.176V298.943H196.97V297.167H195.434V303.144H201.697V302.075ZM198.776 308.774V307.615H206.078V304.213H197.226V305.432H204.542V306.471H197.241V309.994H206.53V308.774H198.776ZM215.576 307.284V304.965H219.822V303.716H211.677V301.819H219.521V297.513H210.126V298.763H217.985V300.584H210.157V304.965H214.026V307.284H208.666V308.563H220.981V307.284H215.576ZM227.568 300.539C227.568 299.365 228.426 298.582 229.615 298.582C230.79 298.582 231.678 299.365 231.678 300.539C231.678 301.729 230.79 302.511 229.615 302.511C228.426 302.511 227.568 301.729 227.568 300.539ZM235.607 301.141V304.318H237.158V296.565H235.607V299.877H233.093C232.777 298.326 231.392 297.272 229.615 297.272C227.598 297.272 226.077 298.627 226.077 300.539C226.077 302.466 227.598 303.821 229.615 303.821C231.422 303.821 232.822 302.737 233.093 301.141H235.607ZM229.781 308.744V306.275H237.248V305.026H228.23V309.994H237.444V308.744H229.781ZM243.404 305.763C242.245 305.763 241.447 304.499 241.447 302.346C241.447 300.238 242.245 298.959 243.404 298.959C244.578 298.959 245.376 300.238 245.376 302.346C245.376 304.499 244.578 305.763 243.404 305.763ZM249.471 296.55V301.623H246.822C246.611 299.124 245.226 297.558 243.404 297.558C241.402 297.558 239.972 299.425 239.972 302.346C239.972 305.297 241.402 307.148 243.404 307.148C245.271 307.148 246.656 305.522 246.837 302.888H249.471V310.189H251.037V296.55H249.471ZM256.516 301.006H262.959V303.234H256.516V301.006ZM260.505 307.224V304.484H264.495V297.468H262.959V299.756H256.516V297.468H254.98V304.484H258.955V307.224H253.595V308.503H265.91V307.224H260.505ZM271.614 297.814H270.109V300.268C270.109 302.587 269.176 305.026 267.249 306.17L268.197 307.344C269.507 306.546 270.395 305.116 270.877 303.445C271.343 304.965 272.156 306.29 273.391 307.043L274.264 305.839C272.442 304.694 271.614 302.391 271.614 300.193V297.814ZM274.806 301.322H272.804V302.587H274.806V309.527H276.266V296.821H274.806V301.322ZM277.576 296.565V310.159H279.051V296.565H277.576ZM285.719 304.273C286.246 304.393 286.834 304.453 287.436 304.453C288.038 304.453 288.625 304.393 289.152 304.258V307.224H285.719V304.273ZM287.436 298.567C289.483 298.567 290.913 299.47 290.913 300.901C290.913 302.346 289.483 303.249 287.436 303.249C285.373 303.249 283.943 302.346 283.943 300.901C283.943 299.47 285.373 298.567 287.436 298.567ZM290.703 307.224V303.686C291.787 303.068 292.434 302.105 292.434 300.901C292.434 298.733 290.326 297.348 287.436 297.348C284.53 297.348 282.438 298.733 282.438 300.901C282.438 302.105 283.085 303.083 284.169 303.686V307.224H281.293V308.488H293.608V307.224H290.703Z" fill="white"/>
<rect width="19.059" height="19.059" rx="1.58825" transform="matrix(1 6.69938e-08 1.25777e-07 -1 62.9414 503.059)" fill="white" fill-opacity="0.05"/>
<rect x="0.221144" y="-0.221144" width="18.6167" height="18.6167" rx="1.36711" transform="matrix(1 6.69938e-08 1.25777e-07 -1 62.9414 502.617)" stroke="white" stroke-opacity="0.3" stroke-width="0.442288"/>
<rect width="19.059" height="19.059" rx="1.58825" transform="matrix(1 6.69938e-08 1.25777e-07 -1 40.7061 503.059)" fill="white" fill-opacity="0.05"/>
<rect x="0.221144" y="-0.221144" width="18.6167" height="18.6167" rx="1.36711" transform="matrix(1 6.69938e-08 1.25777e-07 -1 40.7061 502.617)" stroke="white" stroke-opacity="0.3" stroke-width="0.442288"/>
<rect width="19.059" height="19.059" rx="1.58825" transform="matrix(1 6.69938e-08 1.25777e-07 -1 18.4707 503.059)" fill="white" fill-opacity="0.05"/>
<rect x="0.221144" y="-0.221144" width="18.6167" height="18.6167" rx="1.36711" transform="matrix(1 6.69938e-08 1.25777e-07 -1 18.4707 502.617)" stroke="white" stroke-opacity="0.3" stroke-width="0.442288"/>
<rect width="19.059" height="19.059" rx="1.58825" transform="matrix(1 6.69938e-08 1.25777e-07 -1 -3.76465 503.059)" fill="white" fill-opacity="0.05"/>
<rect x="0.221144" y="-0.221144" width="18.6167" height="18.6167" rx="1.36711" transform="matrix(1 6.69938e-08 1.25777e-07 -1 -3.76465 502.617)" stroke="white" stroke-opacity="0.3" stroke-width="0.442288"/>
<rect width="19.059" height="19.059" rx="1.58825" transform="matrix(1 6.69938e-08 1.25777e-07 -1 18.7881 525.295)" fill="white" fill-opacity="0.05"/>
<rect x="0.221144" y="-0.221144" width="18.6167" height="18.6167" rx="1.36711" transform="matrix(1 6.69938e-08 1.25777e-07 -1 18.7881 524.852)" stroke="white" stroke-opacity="0.3" stroke-width="0.442288"/>
<rect width="19.059" height="19.059" rx="1.58825" transform="matrix(1 6.69938e-08 1.25777e-07 -1 18.7881 547.53)" fill="white" fill-opacity="0.05"/>
<rect x="0.221144" y="-0.221144" width="18.6167" height="18.6167" rx="1.36711" transform="matrix(1 6.69938e-08 1.25777e-07 -1 18.7881 547.087)" stroke="white" stroke-opacity="0.3" stroke-width="0.442288"/>
<rect width="19.059" height="19.059" rx="1.58825" transform="matrix(1 6.69938e-08 1.25777e-07 -1 40.7061 569.766)" fill="white" fill-opacity="0.05"/>
<rect x="0.221144" y="-0.221144" width="18.6167" height="18.6167" rx="1.36711" transform="matrix(1 6.69938e-08 1.25777e-07 -1 40.7061 569.324)" stroke="white" stroke-opacity="0.3" stroke-width="0.442288"/>
<rect width="19.059" height="19.059" rx="1.58825" transform="matrix(1 6.69938e-08 1.25777e-07 -1 18.4707 569.766)" fill="white" fill-opacity="0.05"/>
<rect x="0.221144" y="-0.221144" width="18.6167" height="18.6167" rx="1.36711" transform="matrix(1 6.69938e-08 1.25777e-07 -1 18.4707 569.324)" stroke="white" stroke-opacity="0.3" stroke-width="0.442288"/>
<rect width="19.059" height="19.059" rx="1.58825" transform="matrix(1 6.69938e-08 1.25777e-07 -1 -3.76465 569.766)" fill="white" fill-opacity="0.05"/>
<rect x="0.221144" y="-0.221144" width="18.6167" height="18.6167" rx="1.36711" transform="matrix(1 6.69938e-08 1.25777e-07 -1 -3.76465 569.324)" stroke="white" stroke-opacity="0.3" stroke-width="0.442288"/>
<rect width="19.059" height="19.059" rx="1.58825" transform="matrix(1 6.69938e-08 1.25777e-07 -1 18.7881 592.001)" fill="white" fill-opacity="0.05"/>
<rect x="0.221144" y="-0.221144" width="18.6167" height="18.6167" rx="1.36711" transform="matrix(1 6.69938e-08 1.25777e-07 -1 18.7881 591.559)" stroke="white" stroke-opacity="0.3" stroke-width="0.442288"/>
<rect width="20.5199" height="20.5199" rx="1.70999" transform="matrix(2.32824e-08 -1 -1 -8.20657e-08 344.52 476.52)" fill="white" fill-opacity="0.05"/>
<rect x="-0.238095" y="-0.238095" width="20.0437" height="20.0437" rx="1.4719" transform="matrix(2.32824e-08 -1 -1 -8.20657e-08 344.043 476.044)" stroke="white" stroke-opacity="0.3" stroke-width="0.47619"/>
<rect width="20.5199" height="20.5199" rx="1.70999" transform="matrix(2.32824e-08 -1 -1 -8.20657e-08 344.52 500.46)" fill="white" fill-opacity="0.05"/>
<rect x="-0.238095" y="-0.238095" width="20.0437" height="20.0437" rx="1.4719" transform="matrix(2.32824e-08 -1 -1 -8.20657e-08 344.043 499.984)" stroke="white" stroke-opacity="0.3" stroke-width="0.47619"/>
<rect width="20.5199" height="20.5199" rx="1.70999" transform="matrix(2.32824e-08 -1 -1 -8.20657e-08 344.52 524.4)" fill="white" fill-opacity="0.05"/>
<rect x="-0.238095" y="-0.238095" width="20.0437" height="20.0437" rx="1.4719" transform="matrix(2.32824e-08 -1 -1 -8.20657e-08 344.043 523.923)" stroke="white" stroke-opacity="0.3" stroke-width="0.47619"/>
<rect width="20.5199" height="20.5199" rx="1.70999" transform="matrix(2.32824e-08 -1 -1 -8.20657e-08 344.52 548.34)" fill="white" fill-opacity="0.05"/>
<rect x="-0.238095" y="-0.238095" width="20.0437" height="20.0437" rx="1.4719" transform="matrix(2.32824e-08 -1 -1 -8.20657e-08 344.043 547.864)" stroke="white" stroke-opacity="0.3" stroke-width="0.47619"/>
<rect width="20.5199" height="20.5199" rx="1.70999" transform="matrix(2.32824e-08 -1 -1 -8.20657e-08 368.459 524.058)" fill="white" fill-opacity="0.05"/>
<rect x="-0.238095" y="-0.238095" width="20.0437" height="20.0437" rx="1.4719" transform="matrix(2.32824e-08 -1 -1 -8.20657e-08 367.983 523.582)" stroke="white" stroke-opacity="0.3" stroke-width="0.47619"/>
<rect x="43" y="358" width="273" height="89.3894" fill="white"/>
<path d="M45.0889 363.546L48 366.458L50.9111 363.546L48 360.635L45.0889 363.546ZM314.117 363.546L311.206 360.635L308.294 363.546L311.206 366.458L314.117 363.546ZM48 364.051H311.206V363.042H48V364.051Z" fill="#C0C4C9"/>
<path d="M45.0889 442.557L48 445.469L50.9111 442.557L48 439.646L45.0889 442.557ZM314.247 442.557L311.336 439.646L308.425 442.557L311.336 445.469L314.247 442.557ZM48 443.062H311.336V442.053H48V443.062Z" fill="#C0C4C9"/>
<path d="M86.6402 408.205L87.4816 407.222L88.323 408.205L88.8501 407.82L88.1912 406.715L89.3367 406.228L89.134 405.61L87.9175 405.894L87.806 404.626H87.1471L87.0356 405.894L85.8191 405.61L85.6164 406.228L86.7619 406.715L86.1131 407.82L86.6402 408.205ZM93.8313 405.133H92.7871V406.634C92.7871 408.398 91.8342 410.151 90.3745 410.81L90.9929 411.682C92.0978 411.145 92.9088 410.06 93.3244 408.732C93.74 409.969 94.5409 410.982 95.5951 411.479L96.2034 410.648C94.7639 409.999 93.8313 408.316 93.8313 406.634V405.133ZM96.9332 404.363V413.547H97.9875V404.363H96.9332ZM107.718 408.702C105.914 408.398 104.444 407.039 104.444 405.62V404.931H103.339V405.62C103.339 407.029 101.869 408.398 100.055 408.702L100.501 409.573C101.991 409.279 103.288 408.367 103.897 407.151C104.485 408.367 105.782 409.279 107.282 409.573L107.718 408.702ZM104.404 411.53V409.391H103.359V411.53H99.781V412.392H108.073V411.53H104.404ZM116.456 406.999H111.215V404.697H110.171V407.85H116.456V406.999ZM111.154 410.628H110.11V413.324H116.506V412.483H111.154V410.628ZM109.096 408.945V409.786H117.409V408.945H109.096ZM121.175 412.746H122.351V409.918H123.476C125.098 409.918 126.284 409.168 126.284 407.536C126.284 405.853 125.098 405.275 123.436 405.275H121.175V412.746ZM122.351 408.975V406.228H123.324C124.51 406.228 125.128 406.553 125.128 407.536C125.128 408.519 124.561 408.975 123.365 408.975H122.351ZM130.648 412.878C131.611 412.878 132.371 412.493 132.969 411.804L132.341 411.064C131.895 411.55 131.378 411.854 130.688 411.854C129.37 411.854 128.539 410.77 128.539 408.996C128.539 407.242 129.431 406.167 130.719 406.167C131.327 406.167 131.793 406.441 132.178 406.836L132.817 406.086C132.361 405.59 131.631 405.143 130.698 405.143C128.813 405.143 127.333 406.603 127.333 409.036C127.333 411.479 128.772 412.878 130.648 412.878ZM141.485 405.194H139.407V404.333H138.353V405.194H136.255V405.965H141.485V405.194ZM137.674 407.698C137.674 407.262 138.14 406.999 138.87 406.999C139.6 406.999 140.066 407.262 140.066 407.698C140.066 408.124 139.6 408.377 138.87 408.377C138.14 408.377 137.674 408.124 137.674 407.698ZM141.739 409.421C140.999 409.533 140.198 409.594 139.407 409.644V409.067C140.421 408.945 141.049 408.438 141.049 407.698C141.049 406.826 140.188 406.289 138.87 406.289C137.552 406.289 136.69 406.826 136.69 407.698C136.69 408.448 137.329 408.945 138.353 409.067V409.695C137.512 409.715 136.701 409.725 136.021 409.725L136.143 410.557C137.724 410.547 139.904 410.506 141.82 410.141L141.739 409.421ZM138.393 411.074H137.349V413.355H143.574V412.503H138.393V411.074ZM143.269 407.475V404.363H142.225V411.53H143.269V408.337H144.526V407.475H143.269ZM151.966 406.796V407.85H149.746V408.702H151.966V409.756H153.01V404.373H151.966V405.944H150.081C150.131 405.66 150.162 405.356 150.162 405.032H146.006V405.873H149.047C148.864 407.303 147.678 408.428 145.529 409.026L145.945 409.857C147.922 409.279 149.27 408.256 149.838 406.796H151.966ZM150.01 412.665C148.773 412.665 147.993 412.31 147.993 411.672C147.993 411.043 148.773 410.688 150.01 410.688C151.257 410.688 152.037 411.043 152.037 411.672C152.037 412.31 151.257 412.665 150.01 412.665ZM150.01 409.867C148.155 409.867 146.959 410.557 146.959 411.672C146.959 412.797 148.155 413.486 150.01 413.486C151.865 413.486 153.071 412.797 153.071 411.672C153.071 410.557 151.865 409.867 150.01 409.867ZM156.811 410.597C156.183 410.597 155.797 409.776 155.797 408.327C155.797 406.877 156.183 406.066 156.811 406.066C157.44 406.066 157.825 406.877 157.825 408.327C157.825 409.776 157.44 410.597 156.811 410.597ZM159.741 407.84H158.757C158.646 406.127 157.906 405.083 156.811 405.083C155.625 405.083 154.844 406.319 154.844 408.327C154.844 410.334 155.625 411.581 156.811 411.581C157.926 411.581 158.676 410.486 158.768 408.702H159.741V413.091H160.714V404.545H159.741V407.84ZM161.576 404.373V413.517H162.569V404.373H161.576ZM167.116 409.563C168.2 409.239 168.991 408.56 169.387 407.678C169.792 408.519 170.583 409.168 171.657 409.472L172.124 408.661C170.775 408.296 169.964 407.384 169.904 406.35H171.901V405.508H169.904V404.454H168.859V405.508H166.873V406.35H168.849C168.799 407.424 167.998 408.377 166.639 408.752L167.116 409.563ZM169.904 409.269H168.859V410.841C167.977 410.871 167.116 410.871 166.396 410.871L166.528 411.733C168.15 411.733 170.339 411.722 172.357 411.317L172.276 410.557C171.515 410.678 170.704 410.749 169.904 410.79V409.269ZM172.833 404.363V413.547H173.887V404.363H172.833ZM181.125 408.712C179.756 408.235 178.975 407.09 178.975 405.954V405.782H180.881V404.941H175.985V405.782H177.921V405.965C177.921 407.201 177.09 408.408 175.671 408.894L176.208 409.715C177.293 409.34 178.063 408.55 178.469 407.566C178.864 408.448 179.594 409.168 180.608 409.523L181.125 408.712ZM177.09 411.135H182.219V413.527H183.264V410.293H177.09V411.135ZM182.219 404.363V406.664H180.618V407.526H182.219V409.837H183.264V404.363H182.219ZM190.501 405.427H188.311V404.403H187.267V405.427H185.057V406.269H190.501V405.427ZM186.578 408.438C186.578 407.87 187.074 407.526 187.794 407.526C188.514 407.526 189 407.87 189 408.438C189 408.996 188.514 409.34 187.794 409.34C187.074 409.34 186.578 408.996 186.578 408.438ZM188.311 410.101C189.325 409.938 189.984 409.31 189.984 408.438C189.984 407.404 189.092 406.725 187.794 406.725C186.486 406.725 185.594 407.404 185.594 408.438C185.594 409.31 186.253 409.928 187.267 410.101V410.993C186.415 411.023 185.594 411.023 184.895 411.023L185.037 411.885C186.608 411.885 188.727 411.864 190.683 411.52L190.602 410.749C189.872 410.861 189.092 410.912 188.311 410.952V410.101ZM193.461 408.195H192.163V404.363H191.119V413.527H192.163V409.056H193.461V408.195ZM201.874 404.363H200.83V411.246H201.874V404.363ZM200.181 409.056C199.451 409.138 198.681 409.188 197.89 409.219V408.134H199.603V407.282H196.197V405.792H199.552V404.941H195.153V408.134H196.846V409.259C195.974 409.29 195.122 409.3 194.362 409.3L194.504 410.141C196.207 410.141 198.326 410.09 200.252 409.817L200.181 409.056ZM196.886 412.503V410.77H195.842V413.355H202.158V412.503H196.886ZM209.553 408.884V409.594H211.043V409.999H212.026V404.545H211.043V408.884H209.553ZM208.296 405.417C208.945 405.417 209.36 405.65 209.36 406.046C209.36 406.451 208.945 406.684 208.296 406.684C207.657 406.684 207.242 406.451 207.242 406.046C207.242 405.65 207.657 405.417 208.296 405.417ZM208.296 407.414C209.492 407.414 210.293 406.887 210.293 406.046C210.293 405.225 209.492 404.687 208.296 404.687C207.11 404.687 206.299 405.225 206.299 406.046C206.299 406.887 207.11 407.414 208.296 407.414ZM207.83 409.989H208.833V408.56C209.472 408.519 210.1 408.428 210.668 408.306L210.607 407.597C209.117 407.84 207.11 407.86 205.873 407.86L205.975 408.661C206.492 408.661 207.13 408.651 207.83 408.621V409.989ZM212.695 412.594H208.458V411.875H212.695V412.594ZM212.695 411.084H208.458V410.344H207.424V413.415H213.729V410.344H212.695V411.084ZM212.736 404.373V410.03H213.729V404.373H212.736ZM220.851 405.113H219.797V406.623C219.797 408.337 218.905 410.101 217.475 410.8L218.134 411.631C219.178 411.094 219.929 410.03 220.334 408.732C220.729 409.959 221.469 410.962 222.503 411.479L223.122 410.638C221.723 409.989 220.851 408.327 220.851 406.623V405.113ZM224.085 404.353V407.364H222.128V408.215H224.085V413.537H225.139V404.353H224.085ZM233.339 404.363V413.547H234.394V404.363H233.339ZM227.348 405.123V411.368H231.748V405.123H230.704V407.455H228.382V405.123H227.348ZM228.382 408.286H230.704V410.526H228.382V408.286ZM244.124 408.844C242.32 408.519 240.85 407.11 240.85 405.65V404.961H239.745V405.65C239.745 407.1 238.275 408.509 236.471 408.844L236.917 409.705C238.407 409.401 239.694 408.448 240.293 407.191C240.891 408.448 242.178 409.401 243.668 409.705L244.124 408.844ZM236.187 411.489V412.351H244.479V411.489H236.187ZM252.01 404.373V409.29H253.054V404.373H252.01ZM247.074 409.715V413.415H253.054V409.715H252.02V410.729H248.108V409.715H247.074ZM248.108 411.54H252.02V412.574H248.108V411.54ZM248.118 404.789C246.719 404.789 245.685 405.66 245.685 406.917C245.685 408.174 246.719 409.046 248.118 409.046C249.517 409.046 250.54 408.174 250.54 406.917C250.54 405.66 249.517 404.789 248.118 404.789ZM248.118 405.65C248.939 405.65 249.527 406.157 249.527 406.917C249.527 407.688 248.939 408.185 248.118 408.185C247.286 408.185 246.709 407.688 246.709 406.917C246.709 406.157 247.286 405.65 248.118 405.65ZM256.409 405.265H255.375V411.216H256.156C257.575 411.216 259.055 411.104 260.626 410.78L260.515 409.908C259.075 410.202 257.707 410.313 256.409 410.324V405.265ZM261.356 404.373V413.527H262.4V404.373H261.356ZM265.572 406.086H268.786V405.235H264.528V411.287H265.278C266.931 411.287 268.167 411.236 269.556 410.982L269.445 410.121C268.167 410.344 267.052 410.405 265.572 410.415V406.086ZM272.678 407.891H271.249V404.363H270.205V413.537H271.249V408.752H272.678V407.891ZM110.875 420.934H115.233V423.651H110.875V420.934ZM113.581 426.55V424.482H116.257V420.103H109.851V424.482H112.537V426.55H108.928V427.402H117.22V426.55H113.581ZM121.883 425.526H119.612V423.286H121.883V425.526ZM121.883 422.455H119.612V420.123H118.568V426.368H122.917V420.123H121.883V422.455ZM126.769 422.891H125.339V419.373H124.295V428.537H125.339V423.762H126.769V422.891ZM135.121 419.363H134.077V424.016H135.121V419.363ZM128.765 421.735C128.765 421.005 129.353 420.529 130.144 420.529C130.944 420.529 131.543 421.005 131.543 421.735C131.543 422.465 130.944 422.941 130.144 422.941C129.353 422.941 128.765 422.465 128.765 421.735ZM132.556 421.735C132.556 420.529 131.532 419.667 130.144 419.667C128.765 419.667 127.751 420.529 127.751 421.735C127.751 422.941 128.765 423.793 130.144 423.793C131.532 423.793 132.556 422.941 132.556 421.735ZM130.164 427.594V426.783H135.121V424.431H129.12V425.253H134.087V426.013H129.14V428.415H135.395V427.594H130.164ZM143.382 419.363V428.547H144.436V419.363H143.382ZM139.56 420.042C138.202 420.042 137.208 421.299 137.208 423.266C137.208 425.253 138.202 426.499 139.56 426.499C140.929 426.499 141.922 425.253 141.922 423.266C141.922 421.299 140.929 420.042 139.56 420.042ZM139.56 420.985C140.361 420.985 140.919 421.847 140.919 423.266C140.919 424.705 140.361 425.567 139.56 425.567C138.77 425.567 138.212 424.705 138.212 423.266C138.212 421.847 138.77 420.985 139.56 420.985ZM150.94 425.567C150.139 425.567 149.591 424.705 149.591 423.276C149.591 421.847 150.139 420.985 150.94 420.985C151.73 420.985 152.288 421.847 152.288 423.276C152.288 424.705 151.73 425.567 150.94 425.567ZM150.94 420.042C149.571 420.042 148.588 421.299 148.588 423.276C148.588 425.253 149.571 426.499 150.94 426.499C152.308 426.499 153.291 425.253 153.291 423.276C153.291 421.299 152.308 420.042 150.94 420.042ZM157.022 422.951H155.592V419.373H154.548V428.537H155.592V423.813H157.022V422.951ZM165.374 419.373H164.33V426.023H165.374V419.373ZM163.458 423.083C162.11 423.367 160.833 423.468 159.424 423.479V420.052H158.379V424.34H159.14C160.711 424.34 162.09 424.239 163.58 423.935L163.458 423.083ZM160.387 427.503V425.303H159.342V428.355H165.638V427.503H160.387ZM169.901 427.746H171.077V424.918H172.202C173.824 424.918 175.01 424.168 175.01 422.536C175.01 420.853 173.824 420.275 172.161 420.275H169.901V427.746ZM171.077 423.975V421.228H172.05C173.236 421.228 173.854 421.553 173.854 422.536C173.854 423.519 173.286 423.975 172.09 423.975H171.077ZM179.373 427.878C180.336 427.878 181.097 427.493 181.695 426.804L181.066 426.064C180.62 426.55 180.103 426.854 179.414 426.854C178.096 426.854 177.265 425.77 177.265 423.996C177.265 422.242 178.157 421.167 179.444 421.167C180.053 421.167 180.519 421.441 180.904 421.836L181.543 421.086C181.087 420.59 180.357 420.143 179.424 420.143C177.539 420.143 176.059 421.603 176.059 424.036C176.059 426.479 177.498 427.878 179.373 427.878ZM187.204 426.591V425.03H190.063V424.188H184.579V422.911H189.86V420.012H183.535V420.853H188.826V422.08H183.555V425.03H186.16V426.591H182.551V427.452H190.843V426.591H187.204ZM199.597 423.509C198.229 423.033 197.448 421.897 197.448 420.762V420.711H199.354V419.86H194.458V420.711H196.394V420.772C196.394 421.999 195.563 423.215 194.143 423.702L194.681 424.523C195.765 424.148 196.536 423.347 196.941 422.364C197.337 423.245 198.066 423.965 199.08 424.33L199.597 423.509ZM200.692 427.574H196.82V426.591H200.692V427.574ZM200.692 425.77H196.82V424.776H195.786V428.415H201.736V424.776H200.692V425.77ZM200.682 419.373V421.512H199.07V422.374H200.682V424.371H201.736V419.373H200.682ZM211.274 422.282C209.44 422.039 208.142 421.025 208.142 419.87V419.525H207.067V419.87C207.067 421.005 205.739 422.039 203.935 422.282L204.32 423.093C205.8 422.87 207.017 422.171 207.595 421.198C208.183 422.181 209.409 422.86 210.879 423.093L211.274 422.282ZM204.391 426.368H209.693V428.537H210.737V425.526H204.391V426.368ZM208.122 423.894V422.597H207.078V423.894H203.469V424.736H211.771V423.894H208.122ZM215.034 425.607C214.416 425.607 213.98 425.111 213.98 424.35C213.98 423.59 214.416 423.083 215.034 423.083C215.653 423.083 216.089 423.59 216.089 424.35C216.089 425.111 215.653 425.607 215.034 425.607ZM215.034 422.222C213.879 422.222 213.048 423.083 213.048 424.35C213.048 425.607 213.879 426.479 215.034 426.479C216.19 426.479 217.021 425.607 217.021 424.35C217.021 423.083 216.19 422.222 215.034 422.222ZM215.551 419.637H214.517V420.863H212.784V421.705H217.265V420.863H215.551V419.637ZM219.606 419.373V423.164H218.633V419.566H217.66V428.101H218.633V424.026H219.606V428.527H220.6V419.373H219.606ZM222.961 423.854C224.471 423.631 225.708 422.881 226.266 421.867C226.823 422.881 228.07 423.631 229.58 423.854L229.956 423.033C228.212 422.799 226.925 421.796 226.864 420.731H229.631V419.89H222.89V420.731H225.678C225.617 421.796 224.329 422.799 222.586 423.033L222.961 423.854ZM230.412 424.523H222.13V425.364H225.718V428.537H226.762V425.364H230.402L230.412 424.523ZM234.263 420.214H233.249V421.867C233.249 423.428 232.621 425.07 231.323 425.841L231.962 426.631C232.844 426.094 233.442 425.131 233.766 424.006C234.081 425.03 234.628 425.922 235.459 426.429L236.047 425.618C234.821 424.847 234.263 423.296 234.263 421.816V420.214ZM236.412 422.576H235.064V423.428H236.412V428.101H237.395V419.545H236.412V422.576ZM238.277 419.373V428.527H239.271V419.373H238.277ZM243.761 424.563C244.116 424.644 244.511 424.685 244.916 424.685C245.322 424.685 245.717 424.644 246.072 424.553V426.55H243.761V424.563ZM244.916 420.721C246.295 420.721 247.258 421.33 247.258 422.293C247.258 423.266 246.295 423.874 244.916 423.874C243.528 423.874 242.565 423.266 242.565 422.293C242.565 421.33 243.528 420.721 244.916 420.721ZM247.116 426.55V424.168C247.846 423.752 248.282 423.104 248.282 422.293C248.282 420.833 246.863 419.9 244.916 419.9C242.96 419.9 241.551 420.833 241.551 422.293C241.551 423.104 241.987 423.762 242.717 424.168V426.55H240.78V427.402H249.073V426.55H247.116Z" fill="#999999"/>
<path d="M73.7085 392.195H76.4872V387.257H78.3459C81.3311 387.257 83.7156 385.83 83.7156 382.657C83.7156 379.371 81.3499 378.282 78.2708 378.282H73.7085V392.195ZM76.4872 385.06V380.498H78.0643C79.9793 380.498 80.9932 381.042 80.9932 382.657C80.9932 384.253 80.0732 385.06 78.1582 385.06H76.4872ZM91.9013 392.457C93.7037 392.457 95.1869 391.744 96.3322 390.411L94.8677 388.684C94.1167 389.491 93.1967 390.054 91.9951 390.054C89.7985 390.054 88.3716 388.233 88.3716 385.21C88.3716 382.225 89.9487 380.423 92.0515 380.423C93.1029 380.423 93.9102 380.911 94.6236 381.587L96.0693 379.822C95.1681 378.883 93.76 378.038 91.9951 378.038C88.4842 378.038 85.5366 380.723 85.5366 385.304C85.5366 389.942 88.3904 392.457 91.9013 392.457ZM101.556 387.97C100.617 387.97 100.054 386.675 100.054 384.009C100.054 381.361 100.617 380.066 101.556 380.066C102.513 380.066 103.058 381.361 103.058 384.009C103.058 386.675 102.513 387.97 101.556 387.97ZM106.644 382.882H105.273C104.992 379.653 103.602 377.738 101.556 377.738C99.2653 377.738 97.8196 380.104 97.8196 384.009C97.8196 387.933 99.2653 390.298 101.556 390.298C103.659 390.298 105.067 388.271 105.292 384.891H106.644V393.039H108.953V376.799H106.644V382.882ZM110.155 376.499V393.79H112.502V376.499H110.155ZM121.437 377.851H118.94V380.348C118.94 383.633 117.626 386.994 114.697 388.346L116.236 390.336C118.17 389.36 119.466 387.557 120.217 385.342C120.93 387.426 122.188 389.115 124.084 390.035L125.549 388.064C122.695 386.787 121.437 383.614 121.437 380.348V377.851ZM126.976 376.499V381.925H123.652V383.915H126.976V393.847H129.454V376.499H126.976ZM143.169 377.851H140.69V380.366C140.69 383.727 139.264 387.069 136.241 388.364L137.724 390.411C139.789 389.435 141.197 387.576 141.967 385.267C142.737 387.388 144.07 389.097 146.06 389.998L147.468 387.989C144.539 386.731 143.169 383.577 143.169 380.366V377.851ZM148.313 376.499V393.847H150.791V376.499H148.313ZM168.87 384.403C164.927 383.765 162.806 381.174 162.806 378.714V377.475H160.159V378.714C160.159 381.117 158.018 383.765 154.113 384.403L155.127 386.449C158.15 385.905 160.346 384.272 161.473 382.15C162.599 384.29 164.815 385.905 167.856 386.449L168.87 384.403ZM162.731 389.773V385.905H160.252V389.773H153.738V391.763H169.396V389.773H162.731ZM182.311 379.334H172.962V383.464H185.053V381.793H175.402V380.892H184.752V376.818H172.924V378.489H182.311V379.334ZM175.252 391.049H184.809V386.938H172.774V388.609H182.349V389.491H172.793V393.659H185.278V391.988H175.252V391.049ZM171.009 384.29V386.074H186.667V384.29H171.009ZM198.842 384.328H195.463V379.897H198.842V384.328ZM201.283 377.944H193.041V386.28H201.283V377.944ZM197.472 387.895H194.994V393.509H206.766V391.537H197.472V387.895ZM206.146 381.512V376.518H203.668V389.134H206.146V383.539H208.436V381.512H206.146ZM212.81 378.151H210.331V389.566H211.833C214.349 389.566 217.128 389.416 220 388.815L219.756 386.787C217.334 387.257 214.987 387.445 212.81 387.501V378.151ZM225.764 383.032H223.342V376.499H220.864V393.772H223.342V385.079H225.764V383.032ZM231.189 382.225H238.586V384.647H231.189V382.225ZM236.127 389.791V386.618H241.027V377.588H238.586V380.273H231.189V377.588H228.729V386.618H233.648V389.791H227.077V391.8H242.735V389.791H236.127ZM249.868 378.02H247.484V380.93C247.484 383.877 246.564 386.975 244.029 388.515L245.513 390.373C247.071 389.435 248.085 387.782 248.686 385.867C249.23 387.613 250.15 389.078 251.614 389.979L252.966 388.064C250.619 386.506 249.868 383.633 249.868 380.836V378.02ZM253.323 382.357H251.145V384.365H253.323V393.039H255.632V376.799H253.323V382.357ZM256.834 376.518V393.809H259.181V376.518H256.834ZM267.534 386.487C268.135 386.6 268.754 386.656 269.43 386.656C270.106 386.656 270.745 386.6 271.345 386.487V389.791H267.534V386.487ZM269.43 379.315C271.834 379.315 273.448 380.291 273.448 382.019C273.448 383.727 271.834 384.722 269.43 384.722C267.027 384.722 265.431 383.727 265.431 382.019C265.431 380.291 267.027 379.315 269.43 379.315ZM273.805 389.791V385.567C275.1 384.76 275.889 383.521 275.889 382.019C275.889 379.184 273.167 377.362 269.43 377.362C265.713 377.362 262.991 379.184 262.991 382.019C262.972 383.521 263.76 384.76 265.075 385.567V389.791H261.62V391.8H277.278V389.791H273.805ZM280.656 387.463H282.459L282.853 380.535L282.947 377.926H280.168L280.262 380.535L280.656 387.463ZM281.557 392.457C282.534 392.457 283.285 391.669 283.285 390.655C283.285 389.622 282.534 388.853 281.557 388.853C280.581 388.853 279.849 389.622 279.849 390.655C279.849 391.669 280.581 392.457 281.557 392.457Z" fill="#8E41FF"/>
<path d="M205.881 643.979C205.881 643.979 206.005 643.891 206.076 643.837C214.13 637.078 215.177 625.085 208.418 617.048C207.743 616.232 206.998 615.522 206.218 614.848C206.253 614.777 206.306 614.724 206.342 614.653C211.593 605.552 208.471 593.931 199.387 588.68C198.465 588.148 197.525 587.722 196.566 587.367C196.566 587.296 196.602 587.207 196.62 587.136C198.447 576.793 191.528 566.929 181.185 565.102C180.138 564.924 179.109 564.853 178.08 564.836C178.08 564.765 178.08 564.676 178.045 564.605C176.217 554.262 166.353 547.361 156.01 549.17C154.963 549.348 153.97 549.631 153.012 549.986C152.976 549.915 152.941 549.844 152.905 549.773C147.654 540.672 136.016 537.567 126.932 542.819C126.01 543.351 125.176 543.954 124.395 544.611C124.342 544.557 124.289 544.504 124.218 544.451C116.163 537.692 104.17 538.756 97.4286 546.793C96.7544 547.609 96.169 548.461 95.6545 549.348C95.5835 549.312 95.5126 549.277 95.4416 549.259C85.5775 545.675 74.6489 550.749 71.0652 560.631C70.7104 561.624 70.462 562.636 70.2668 563.629C70.1958 563.629 70.1072 563.629 70.0362 563.629C59.5334 563.629 51.0176 572.145 51.0176 582.648C51.0176 583.712 51.124 584.741 51.2837 585.753C51.2127 585.77 51.1418 585.788 51.0531 585.824C41.189 589.407 36.0972 600.336 39.681 610.2C40.0358 611.193 40.497 612.116 40.9938 613.021C40.9406 613.074 40.8696 613.11 40.7986 613.163C32.7441 619.922 31.6974 631.915 38.4568 639.952C39.131 640.768 39.8761 641.478 40.6567 642.152C40.6212 642.223 40.568 642.276 40.5325 642.347C35.2811 651.448 38.4036 663.069 47.4871 668.32C48.4096 668.852 49.3499 669.278 50.3079 669.633C50.3079 669.704 50.2725 669.793 50.2547 669.864C48.4274 680.207 55.3464 690.071 65.6896 691.898C66.7363 692.076 67.7653 692.147 68.7943 692.164C68.7943 692.235 68.7943 692.324 68.8298 692.395C70.6571 702.738 80.5212 709.639 90.8643 707.83C91.9111 707.652 92.9046 707.369 93.8626 707.014C93.8981 707.085 93.9336 707.156 93.9691 707.227C99.2205 716.328 110.859 719.433 119.942 714.181C120.865 713.649 121.699 713.046 122.479 712.389C122.532 712.443 122.586 712.496 122.657 712.549C130.711 719.308 142.704 718.244 149.446 710.207C150.12 709.391 150.705 708.539 151.22 707.652C151.291 707.688 151.362 707.723 151.433 707.741C161.297 711.325 172.226 706.251 175.809 696.369C176.164 695.376 176.412 694.364 176.608 693.371C176.679 693.371 176.767 693.371 176.838 693.371C187.341 693.371 195.857 684.855 195.857 674.352C195.857 673.288 195.75 672.259 195.591 671.247C195.662 671.23 195.733 671.212 195.821 671.176C205.685 667.593 210.777 656.664 207.193 646.8C206.839 645.807 206.377 644.884 205.881 643.979Z" fill="white" stroke="#1D1D1B" stroke-width="2.10584" stroke-miterlimit="10"/>
<path d="M114.011 611.232C114.011 603.53 107.768 597.287 100.067 597.287C92.3653 597.287 86.1221 603.53 86.1221 611.232V638.252C86.1221 645.953 92.3653 652.196 100.067 652.196C107.768 652.196 114.011 645.953 114.011 638.252V611.232Z" fill="white" stroke="#1D1D1B" stroke-width="2.10584" stroke-miterlimit="10"/>
<path d="M146.122 611.232C146.122 603.53 139.878 597.287 132.177 597.287C124.476 597.287 118.232 603.53 118.232 611.232V638.252C118.232 645.953 124.476 652.196 132.177 652.196C139.878 652.196 146.122 645.953 146.122 638.252V611.232Z" fill="white" stroke="#1D1D1B" stroke-width="2.10584" stroke-miterlimit="10"/>
<path d="M113.111 610.165C113.111 604.652 108.318 600.182 102.406 600.182C96.4938 600.182 91.7012 604.652 91.7012 610.165V639.501C91.7012 645.014 96.4938 649.484 102.406 649.484C108.318 649.484 113.111 645.014 113.111 639.501V610.165Z" fill="#1D1D1B"/>
<path d="M147.38 610.165C147.38 604.652 142.587 600.182 136.675 600.182C130.763 600.182 125.971 604.652 125.971 610.165V639.501C125.971 645.014 130.763 649.484 136.675 649.484C142.587 649.484 147.38 645.014 147.38 639.501V610.165Z" fill="#1D1D1B"/>
<path d="M140.155 611.833C141.987 611.833 143.472 610.347 143.472 608.515C143.472 606.683 141.987 605.197 140.155 605.197C138.322 605.197 136.837 606.683 136.837 608.515C136.837 610.347 138.322 611.833 140.155 611.833Z" fill="white" stroke="#1D1D1B" stroke-width="2.10584" stroke-miterlimit="10"/>
<path d="M108.393 611.833C110.225 611.833 111.71 610.347 111.71 608.515C111.71 606.683 110.225 605.197 108.393 605.197C106.561 605.197 105.075 606.683 105.075 608.515C105.075 610.347 106.561 611.833 108.393 611.833Z" fill="white" stroke="#1D1D1B" stroke-width="2.10584" stroke-miterlimit="10"/>
<rect x="117.089" y="640.966" width="34.2268" height="16.2872" rx="1.29826" fill="url(#paint0_linear_1553_16196)" stroke="#222222" stroke-width="1.18024"/>
<rect x="80.5022" y="640.965" width="34.2268" height="16.2872" rx="1.29826" fill="url(#paint1_linear_1553_16196)" stroke="#222222" stroke-width="1.18024"/>
<rect x="115.318" y="644.86" width="1.65233" height="1.18024" fill="#222222"/>
<path d="M50.3437 579.329C50.3437 577.844 51.5479 576.64 53.0333 576.64H192.728C195.419 576.64 197.601 578.821 197.601 581.512V586.385H50.3437V579.329Z" fill="#FF4E4E" stroke="#222222" stroke-width="1.80462"/>
<rect x="50.345" y="583.139" width="147.469" height="3.253" fill="white" stroke="#222222" stroke-width="1.80722"/>
<path d="M51.3132 576.596C51.7231 574.576 53.5085 573.056 55.649 573.056H190.501C192.641 573.056 194.426 574.576 194.836 576.596H51.3132Z" fill="white" stroke="#222222" stroke-width="1.76971"/>
<path d="M335.431 669.658C335.431 669.658 335.548 669.575 335.615 669.525C343.18 663.176 344.163 651.912 337.814 644.364C337.181 643.598 336.481 642.931 335.748 642.298C335.781 642.231 335.831 642.181 335.865 642.115C340.797 633.567 337.864 622.653 329.333 617.72C328.466 617.221 327.583 616.821 326.683 616.487C326.683 616.421 326.717 616.337 326.733 616.271C328.45 606.556 321.951 597.292 312.237 595.576C311.254 595.409 310.287 595.342 309.321 595.326C309.321 595.259 309.321 595.176 309.288 595.109C307.571 585.395 298.307 578.913 288.593 580.613C287.61 580.779 286.676 581.046 285.777 581.379C285.743 581.313 285.71 581.246 285.677 581.179C280.745 572.631 269.814 569.715 261.283 574.647C260.416 575.147 259.633 575.714 258.9 576.33C258.85 576.28 258.8 576.23 258.733 576.18C251.168 569.832 239.904 570.832 233.573 578.38C232.939 579.146 232.389 579.946 231.906 580.779C231.84 580.746 231.773 580.713 231.706 580.696C222.442 577.33 212.178 582.096 208.812 591.377C208.479 592.31 208.245 593.26 208.062 594.193C207.995 594.193 207.912 594.193 207.845 594.193C197.981 594.193 189.983 602.191 189.983 612.055C189.983 613.055 190.083 614.021 190.233 614.971C190.166 614.988 190.1 615.004 190.016 615.038C180.752 618.404 175.97 628.668 179.336 637.932C179.669 638.865 180.102 639.732 180.569 640.582C180.519 640.632 180.452 640.665 180.385 640.715C172.82 647.063 171.837 658.327 178.186 665.875C178.819 666.642 179.519 667.308 180.252 667.942C180.219 668.008 180.169 668.058 180.135 668.125C175.203 676.673 178.136 687.587 186.667 692.519C187.534 693.019 188.417 693.419 189.317 693.752C189.317 693.819 189.283 693.902 189.267 693.969C187.55 703.683 194.049 712.947 203.763 714.664C204.746 714.83 205.713 714.897 206.679 714.914C206.679 714.98 206.679 715.064 206.712 715.13C208.429 724.845 217.693 731.326 227.407 729.627C228.39 729.46 229.324 729.194 230.223 728.86C230.257 728.927 230.29 728.994 230.323 729.06C235.255 737.608 246.186 740.524 254.717 735.592C255.584 735.092 256.367 734.526 257.1 733.909C257.15 733.959 257.2 734.009 257.267 734.059C264.832 740.408 276.096 739.408 282.427 731.86C283.061 731.093 283.611 730.293 284.094 729.46C284.16 729.493 284.227 729.527 284.294 729.543C293.558 732.909 303.822 728.144 307.188 718.863C307.521 717.93 307.755 716.98 307.938 716.047C308.005 716.047 308.088 716.047 308.155 716.047C318.019 716.047 326.017 708.049 326.017 698.184C326.017 697.185 325.917 696.218 325.767 695.268C325.834 695.252 325.9 695.235 325.984 695.202C335.248 691.836 340.03 681.572 336.664 672.307C336.331 671.374 335.898 670.508 335.431 669.658Z" fill="#FFC438" stroke="#1D1D1B" stroke-width="1.97782" stroke-miterlimit="10"/>
<path d="M243.752 638.049C243.752 630.816 237.889 624.952 230.655 624.952C223.422 624.952 217.559 630.816 217.559 638.049V663.426C217.559 670.659 223.422 676.523 230.655 676.523C237.889 676.523 243.752 670.659 243.752 663.426V638.049Z" fill="white" stroke="#1D1D1B" stroke-width="1.97782" stroke-miterlimit="10"/>
<path d="M275.097 638.049C275.097 630.816 269.233 624.952 262 624.952C254.767 624.952 248.903 630.816 248.903 638.049V663.426C248.903 670.659 254.767 676.523 262 676.523C269.233 676.523 275.097 670.659 275.097 663.426V638.049Z" fill="white" stroke="#1D1D1B" stroke-width="1.97782" stroke-miterlimit="10"/>
<path d="M240.364 634.629C240.364 629.089 235.876 624.598 230.341 624.598C224.806 624.598 220.318 629.089 220.318 634.629V660.873C220.318 666.413 224.806 670.904 230.341 670.904C235.876 670.904 240.364 666.413 240.364 660.873V634.629Z" fill="#1D1D1B"/>
<path d="M271.766 634.629C271.766 629.089 267.279 624.598 261.743 624.598C256.208 624.598 251.721 629.089 251.721 634.629V660.873C251.721 666.413 256.208 670.904 261.743 670.904C267.279 670.904 271.766 666.413 271.766 660.873V634.629Z" fill="#1D1D1B"/>
<path d="M265.043 633.97C266.764 633.97 268.159 632.575 268.159 630.854C268.159 629.133 266.764 627.738 265.043 627.738C263.322 627.738 261.927 629.133 261.927 630.854C261.927 632.575 263.322 633.97 265.043 633.97Z" fill="white" stroke="#1D1D1B" stroke-width="1.97782" stroke-miterlimit="10"/>
<path d="M233.638 633.97C235.359 633.97 236.754 632.575 236.754 630.854C236.754 629.133 235.359 627.738 233.638 627.738C231.918 627.738 230.522 629.133 230.522 630.854C230.522 632.575 231.918 633.97 233.638 633.97Z" fill="white" stroke="#1D1D1B" stroke-width="1.97782" stroke-miterlimit="10"/>
<path d="M133.323 758.382C133.323 758.382 133.438 758.3 133.504 758.251C140.97 751.985 141.94 740.869 135.675 733.419C135.05 732.662 134.359 732.005 133.636 731.38C133.668 731.314 133.718 731.265 133.751 731.199C138.618 722.763 135.724 711.991 127.304 707.123C126.449 706.63 125.577 706.235 124.689 705.906C124.689 705.841 124.722 705.758 124.739 705.693C126.433 696.105 120.019 686.962 110.432 685.268C109.461 685.103 108.508 685.038 107.554 685.021C107.554 684.955 107.554 684.873 107.521 684.807C105.827 675.22 96.6835 668.823 87.0961 670.5C86.1258 670.665 85.2049 670.928 84.3168 671.257C84.284 671.191 84.2511 671.125 84.2182 671.059C79.3504 662.623 68.5625 659.745 60.1426 664.613C59.2875 665.106 58.5146 665.665 57.791 666.274C57.7417 666.224 57.6923 666.175 57.6265 666.126C50.1605 659.86 39.0436 660.847 32.7945 668.297C32.1696 669.053 31.6269 669.842 31.15 670.665C31.0842 670.632 31.0185 670.599 30.9527 670.582C21.8092 667.261 11.6791 671.964 8.35719 681.124C8.02829 682.045 7.79806 682.982 7.61716 683.903C7.55138 683.903 7.46915 683.903 7.40338 683.903C-2.33209 683.903 -10.2257 691.797 -10.2257 701.532C-10.2257 702.519 -10.127 703.472 -9.97903 704.41C-10.0448 704.426 -10.1106 704.443 -10.1928 704.476C-19.3363 707.798 -24.056 717.928 -20.7341 727.071C-20.4052 727.992 -19.9776 728.847 -19.5172 729.686C-19.5665 729.735 -19.6323 729.768 -19.6981 729.817C-27.1641 736.083 -28.1344 747.2 -21.8688 754.649C-21.2439 755.406 -20.5532 756.064 -19.8296 756.689C-19.8625 756.754 -19.9118 756.804 -19.9447 756.87C-24.8125 765.306 -21.9181 776.077 -13.4983 780.945C-12.6431 781.438 -11.7715 781.833 -10.8835 782.162C-10.8835 782.228 -10.9164 782.31 -10.9328 782.376C-12.6267 791.963 -6.21312 801.107 3.37434 802.801C4.3446 802.965 5.29841 803.031 6.25222 803.047C6.25222 803.113 6.25222 803.195 6.28511 803.261C7.97895 812.848 17.1224 819.246 26.7099 817.568C27.6801 817.404 28.601 817.141 29.4891 816.812C29.522 816.878 29.5548 816.943 29.5877 817.009C34.4555 825.445 45.2434 828.323 53.6633 823.456C54.5184 822.962 55.2913 822.403 56.0149 821.795C56.0643 821.844 56.1136 821.893 56.1794 821.943C63.6454 828.208 74.7623 827.221 81.0114 819.772C81.6363 819.015 82.179 818.226 82.6559 817.404C82.7217 817.437 82.7875 817.47 82.8532 817.486C91.9967 820.808 102.127 816.105 105.449 806.945C105.778 806.024 106.008 805.086 106.189 804.165C106.255 804.165 106.337 804.165 106.403 804.165C116.138 804.165 124.032 796.272 124.032 786.536C124.032 785.55 123.933 784.596 123.785 783.659C123.851 783.642 123.917 783.626 123.999 783.593C133.142 780.271 137.862 770.141 134.54 760.997C134.211 760.076 133.784 759.221 133.323 758.382Z" fill="#FF4E6E" stroke="#1D1D1B" stroke-width="2.00526" stroke-miterlimit="10"/>
<path d="M42.8448 727.186C42.8448 720.048 37.0577 714.26 29.919 714.26C22.7802 714.26 16.9932 720.048 16.9932 727.186V752.232C16.9932 759.371 22.7802 765.158 29.919 765.158C37.0577 765.158 42.8448 759.371 42.8448 752.232V727.186Z" fill="white" stroke="#1D1D1B" stroke-width="1.95199" stroke-miterlimit="10"/>
<path d="M73.7764 727.186C73.7764 720.048 67.9893 714.26 60.8506 714.26C53.7119 714.26 47.9248 720.048 47.9248 727.186V752.232C47.9248 759.371 53.7119 765.158 60.8506 765.158C67.9893 765.158 73.7764 759.371 73.7764 752.232V727.186Z" fill="white" stroke="#1D1D1B" stroke-width="1.95199" stroke-miterlimit="10"/>
<path d="M42.843 725.164C42.843 719.696 38.4143 715.264 32.9513 715.264C27.4882 715.264 23.0596 719.696 23.0596 725.164V751.065C23.0596 756.533 27.4882 760.965 32.9513 760.965C38.4143 760.965 42.843 756.533 42.843 751.065V725.164Z" fill="#1D1D1B"/>
<path d="M73.7726 725.164C73.7726 719.696 69.344 715.264 63.8809 715.264C58.4179 715.264 53.9893 719.696 53.9893 725.164V751.065C53.9893 756.533 58.4179 760.965 63.8809 760.965C69.344 760.965 73.7726 756.533 73.7726 751.065V725.164Z" fill="#1D1D1B"/>
<path d="M66.8037 726.446C68.5021 726.446 69.879 725.069 69.879 723.371C69.879 721.673 68.5021 720.296 66.8037 720.296C65.1053 720.296 63.7285 721.673 63.7285 723.371C63.7285 725.069 65.1053 726.446 66.8037 726.446Z" fill="white" stroke="#1D1D1B" stroke-width="1.95199" stroke-miterlimit="10"/>
<path d="M35.2295 726.446C36.9279 726.446 38.3047 725.069 38.3047 723.371C38.3047 721.673 36.9279 720.296 35.2295 720.296C33.5311 720.296 32.1543 721.673 32.1543 723.371C32.1543 725.069 33.5311 726.446 35.2295 726.446Z" fill="white" stroke="#1D1D1B" stroke-width="1.95199" stroke-miterlimit="10"/>
<path d="M249.05 787.314C249.05 787.314 249.165 787.232 249.231 787.183C256.697 780.917 257.667 769.8 251.401 762.351C250.776 761.594 250.086 760.936 249.362 760.311C249.395 760.246 249.444 760.196 249.477 760.13C254.345 751.694 251.451 740.923 243.031 736.055C242.176 735.562 241.304 735.167 240.416 734.838C240.416 734.772 240.449 734.69 240.465 734.624C242.159 725.037 235.746 715.893 226.158 714.199C225.188 714.035 224.234 713.969 223.28 713.953C223.28 713.887 223.28 713.805 223.247 713.739C221.554 704.152 212.41 697.754 202.823 699.432C201.852 699.596 200.931 699.859 200.043 700.188C200.011 700.123 199.978 700.057 199.945 699.991C195.077 691.555 184.289 688.677 175.869 693.545C175.014 694.038 174.241 694.597 173.518 695.205C173.468 695.156 173.419 695.107 173.353 695.057C165.887 688.792 154.77 689.779 148.521 697.228C147.896 697.985 147.353 698.774 146.877 699.596C146.811 699.563 146.745 699.531 146.679 699.514C137.536 696.192 127.406 700.895 124.084 710.055C123.755 710.976 123.525 711.914 123.344 712.835C123.278 712.835 123.196 712.835 123.13 712.835C113.394 712.835 105.501 720.728 105.501 730.464C105.501 731.45 105.6 732.404 105.748 733.342C105.682 733.358 105.616 733.374 105.534 733.407C96.3903 736.729 91.6706 746.859 94.9925 756.003C95.3214 756.924 95.7489 757.779 96.2094 758.618C96.1601 758.667 96.0943 758.7 96.0285 758.749C88.5625 765.015 87.5922 776.132 93.8578 783.581C94.4827 784.338 95.1734 784.995 95.8969 785.62C95.8641 785.686 95.8147 785.735 95.7818 785.801C90.9141 794.238 93.8084 805.009 102.228 809.877C103.083 810.37 103.955 810.765 104.843 811.094C104.843 811.159 104.81 811.242 104.794 811.307C103.1 820.895 109.513 830.038 119.101 831.732C120.071 831.897 121.025 831.962 121.979 831.979C121.979 832.045 121.979 832.127 122.012 832.193C123.706 841.78 132.849 848.177 142.436 846.5C143.407 846.335 144.328 846.072 145.216 845.743C145.249 845.809 145.281 845.875 145.314 845.941C150.182 854.377 160.97 857.255 169.39 852.387C170.245 851.894 171.018 851.335 171.741 850.726C171.791 850.776 171.84 850.825 171.906 850.874C179.372 857.14 190.489 856.153 196.738 848.703C197.363 847.947 197.906 847.158 198.382 846.335C198.448 846.368 198.514 846.401 198.58 846.418C207.723 849.74 217.853 845.036 221.175 835.876C221.504 834.955 221.734 834.018 221.915 833.097C221.981 833.097 222.063 833.097 222.129 833.097C231.865 833.097 239.758 825.204 239.758 815.468C239.758 814.481 239.66 813.528 239.512 812.59C239.577 812.574 239.643 812.557 239.725 812.524C248.869 809.202 253.588 799.072 250.267 789.929C249.938 789.008 249.51 788.153 249.05 787.314Z" fill="#A9FF3D" stroke="#1D1D1B" stroke-width="1.95199" stroke-miterlimit="10"/>
<path d="M158.571 756.118C158.571 748.979 152.784 743.192 145.646 743.192C138.507 743.192 132.72 748.979 132.72 756.118V781.164C132.72 788.302 138.507 794.09 145.646 794.09C152.784 794.09 158.571 788.302 158.571 781.164V756.118Z" fill="white" stroke="#1D1D1B" stroke-width="1.95199" stroke-miterlimit="10"/>
<path d="M189.503 756.118C189.503 748.979 183.716 743.192 176.577 743.192C169.438 743.192 163.651 748.979 163.651 756.118V781.164C163.651 788.302 169.438 794.09 176.577 794.09C183.716 794.09 189.503 788.302 189.503 781.164V756.118Z" fill="white" stroke="#1D1D1B" stroke-width="1.95199" stroke-miterlimit="10"/>
<path d="M158.57 754.095C158.57 748.628 154.141 744.196 148.678 744.196C143.215 744.196 138.786 748.628 138.786 754.095V779.996C138.786 785.464 143.215 789.896 148.678 789.896C154.141 789.896 158.57 785.464 158.57 779.996V754.095Z" fill="#1D1D1B"/>
<path d="M189.503 754.095C189.503 748.628 185.074 744.196 179.611 744.196C174.148 744.196 169.72 748.628 169.72 754.095V779.996C169.72 785.464 174.148 789.896 179.611 789.896C185.074 789.896 189.503 785.464 189.503 779.996V754.095Z" fill="#1D1D1B"/>
<path d="M182.53 755.378C184.229 755.378 185.606 754.001 185.606 752.303C185.606 750.604 184.229 749.228 182.53 749.228C180.832 749.228 179.455 750.604 179.455 752.303C179.455 754.001 180.832 755.378 182.53 755.378Z" fill="white" stroke="#1D1D1B" stroke-width="1.95199" stroke-miterlimit="10"/>
<path d="M150.956 755.378C152.654 755.378 154.031 754.001 154.031 752.303C154.031 750.604 152.654 749.228 150.956 749.228C149.258 749.228 147.881 750.604 147.881 752.303C147.881 754.001 149.258 755.378 150.956 755.378Z" fill="white" stroke="#1D1D1B" stroke-width="1.95199" stroke-miterlimit="10"/>
<path d="M105.165 727.742C105.165 726.365 106.282 725.249 107.659 725.249H237.147C239.642 725.249 241.664 727.271 241.664 729.765V734.282H105.165V727.742Z" fill="#FF4E4E" stroke="#222222" stroke-width="1.67278"/>
<rect x="105.167" y="731.273" width="136.695" height="3.01534" fill="white" stroke="#222222" stroke-width="1.67519"/>
<path d="M106.062 725.208C106.442 723.337 108.097 721.928 110.081 721.928H235.081C237.065 721.928 238.72 723.337 239.1 725.208H106.062Z" fill="white" stroke="#222222" stroke-width="1.64041"/>
<path d="M370.347 769.898C370.347 769.898 370.458 769.819 370.522 769.771C377.76 763.697 378.7 752.92 372.627 745.699C372.021 744.965 371.351 744.328 370.65 743.722C370.682 743.658 370.729 743.61 370.761 743.547C375.48 735.369 372.674 724.927 364.512 720.208C363.683 719.73 362.838 719.347 361.977 719.028C361.977 718.965 362.009 718.885 362.025 718.821C363.667 709.527 357.45 700.663 348.156 699.021C347.215 698.862 346.291 698.798 345.366 698.782C345.366 698.719 345.366 698.639 345.334 698.575C343.692 689.281 334.829 683.08 325.535 684.706C324.594 684.865 323.701 685.12 322.841 685.439C322.809 685.375 322.777 685.312 322.745 685.248C318.026 677.07 307.568 674.28 299.406 678.999C298.577 679.477 297.828 680.019 297.127 680.609C297.079 680.561 297.031 680.513 296.967 680.465C289.73 674.392 278.953 675.348 272.895 682.57C272.29 683.303 271.763 684.068 271.301 684.865C271.237 684.833 271.174 684.801 271.11 684.786C262.246 681.565 252.426 686.125 249.206 695.004C248.887 695.897 248.664 696.806 248.489 697.698C248.425 697.698 248.345 697.698 248.281 697.698C238.844 697.698 231.192 705.35 231.192 714.788C231.192 715.744 231.288 716.669 231.431 717.578C231.367 717.594 231.303 717.609 231.224 717.641C222.36 720.862 217.785 730.682 221.005 739.545C221.324 740.438 221.738 741.267 222.185 742.08C222.137 742.128 222.073 742.16 222.009 742.208C214.772 748.281 213.831 759.058 219.905 766.279C220.511 767.013 221.18 767.65 221.882 768.256C221.85 768.32 221.802 768.368 221.77 768.432C217.052 776.61 219.857 787.051 228.019 791.77C228.848 792.248 229.693 792.631 230.554 792.95C230.554 793.014 230.522 793.093 230.506 793.157C228.864 802.451 235.082 811.315 244.376 812.957C245.316 813.116 246.241 813.18 247.165 813.196C247.165 813.26 247.165 813.339 247.197 813.403C248.839 822.697 257.703 828.898 266.997 827.272C267.937 827.113 268.83 826.858 269.691 826.539C269.723 826.603 269.755 826.667 269.787 826.73C274.505 834.908 284.963 837.698 293.125 832.98C293.954 832.501 294.704 831.959 295.405 831.369C295.453 831.417 295.501 831.465 295.564 831.513C302.802 837.587 313.579 836.63 319.636 829.409C320.242 828.675 320.768 827.91 321.231 827.113C321.294 827.145 321.358 827.177 321.422 827.193C330.285 830.413 340.105 825.854 343.326 816.974C343.645 816.081 343.868 815.173 344.043 814.28C344.107 814.28 344.187 814.28 344.25 814.28C353.688 814.28 361.34 806.628 361.34 797.19C361.34 796.234 361.244 795.309 361.101 794.401C361.164 794.385 361.228 794.369 361.308 794.337C370.172 791.117 374.747 781.297 371.527 772.433C371.208 771.54 370.793 770.711 370.347 769.898Z" fill="#47E4AC" stroke="#1D1D1B" stroke-width="1.89224" stroke-miterlimit="10"/>
<path d="M283.268 740.472C283.268 733.551 277.658 727.942 270.738 727.942C263.818 727.942 258.208 733.551 258.208 740.472V764.751C258.208 771.671 263.818 777.281 270.738 777.281C277.658 777.281 283.268 771.671 283.268 764.751V740.472Z" fill="white" stroke="#1D1D1B" stroke-width="1.89224" stroke-miterlimit="10"/>
<path d="M313.254 740.472C313.254 733.551 307.644 727.942 300.724 727.942C293.803 727.942 288.193 733.551 288.193 740.472V764.751C288.193 771.671 293.803 777.281 300.724 777.281C307.644 777.281 313.254 771.671 313.254 764.751V740.472Z" fill="white" stroke="#1D1D1B" stroke-width="1.89224" stroke-miterlimit="10"/>
<path d="M277.397 739.365C277.397 734.411 273.09 730.395 267.778 730.395C262.466 730.395 258.159 734.411 258.159 739.365V765.725C258.159 770.679 262.466 774.695 267.778 774.695C273.09 774.695 277.397 770.679 277.397 765.725V739.365Z" fill="#1D1D1B"/>
<path d="M307.357 739.365C307.357 734.411 303.05 730.395 297.738 730.395C292.426 730.395 288.119 734.411 288.119 739.365V765.725C288.119 770.679 292.426 774.695 297.738 774.695C303.05 774.695 307.357 770.679 307.357 765.725V739.365Z" fill="#1D1D1B"/>
<path d="M300.611 741.331C302.257 741.331 303.592 739.997 303.592 738.35C303.592 736.704 302.257 735.369 300.611 735.369C298.965 735.369 297.63 736.704 297.63 738.35C297.63 739.997 298.965 741.331 300.611 741.331Z" fill="white" stroke="#1D1D1B" stroke-width="1.89224" stroke-miterlimit="10"/>
<path d="M270.003 741.331C271.649 741.331 272.984 739.997 272.984 738.35C272.984 736.704 271.649 735.369 270.003 735.369C268.356 735.369 267.021 736.704 267.021 738.35C267.021 739.997 268.356 741.331 270.003 741.331Z" fill="white" stroke="#1D1D1B" stroke-width="1.89224" stroke-miterlimit="10"/>
<rect x="286.029" y="767.189" width="30.7551" height="14.6352" rx="1.16657" fill="url(#paint2_linear_1553_16196)" stroke="#222222" stroke-width="1.06052"/>
<rect x="253.154" y="767.189" width="30.7551" height="14.6352" rx="1.16657" fill="url(#paint3_linear_1553_16196)" stroke="#222222" stroke-width="1.06052"/>
<rect x="284.44" y="770.689" width="1.48473" height="1.06052" fill="#222222"/>
</g>
<defs>
<linearGradient id="paint0_linear_1553_16196" x1="134.203" y1="640.375" x2="134.203" y2="657.843" gradientUnits="userSpaceOnUse">
<stop stop-color="#222222"/>
<stop offset="1" stop-color="#222222" stop-opacity="0"/>
</linearGradient>
<linearGradient id="paint1_linear_1553_16196" x1="97.6156" y1="640.375" x2="97.6156" y2="657.843" gradientUnits="userSpaceOnUse">
<stop stop-color="#222222"/>
<stop offset="1" stop-color="#222222" stop-opacity="0"/>
</linearGradient>
<linearGradient id="paint2_linear_1553_16196" x1="301.407" y1="766.659" x2="301.407" y2="782.355" gradientUnits="userSpaceOnUse">
<stop stop-color="#222222"/>
<stop offset="1" stop-color="#222222" stop-opacity="0"/>
</linearGradient>
<linearGradient id="paint3_linear_1553_16196" x1="268.532" y1="766.659" x2="268.532" y2="782.355" gradientUnits="userSpaceOnUse">
<stop stop-color="#222222"/>
<stop offset="1" stop-color="#222222" stop-opacity="0"/>
</linearGradient>
<clipPath id="clip0_1553_16196">
<rect width="360" height="800" fill="white"/>
</clipPath>
</defs>
</svg>
