<svg width="73" height="29" viewBox="0 0 73 29" fill="none" xmlns="http://www.w3.org/2000/svg">
<path d="M11.456 21H13.568V16.056C13.568 14.936 13.392 13.288 13.264 12.168H13.328L14.288 14.952L16.112 19.944H17.472L19.296 14.952L20.272 12.168H20.352C20.224 13.288 20.032 14.936 20.032 16.056V21H22.192V9.16H19.568L17.6 14.712C17.36 15.448 17.152 16.216 16.88 16.984H16.816C16.56 16.216 16.352 15.448 16.08 14.712L14.064 9.16H11.456V21ZM24.3126 21H32.8086V19.016H27.2246L32.7446 10.584V9.16H24.8406V11.128H29.8326L24.3126 19.576V21ZM39.9331 12.584V14.312H42.3811V12.584H39.9331ZM36.7651 8.888V11.384C36.7651 13.896 35.9971 16.536 33.8211 17.88L35.1011 19.48C37.4691 18.024 38.3971 14.744 38.3971 11.384V8.888H36.7651ZM37.2291 8.888V11.288C37.2291 14.488 37.9651 17.688 40.3171 19.144L41.4691 17.48C39.4531 16.168 38.8291 13.704 38.8291 11.288V8.888H37.2291ZM44.7971 7.608V22.424H46.8291V7.608H44.7971ZM41.7891 7.832V21.752H43.7731V7.832H41.7891ZM59.5159 7.608V22.424H61.5319V7.608H59.5159ZM57.5319 13.304V15.016H59.9959V13.304H57.5319ZM56.2039 7.864V21.72H58.1719V7.864H56.2039ZM49.2279 17.336V19.08H50.2679C52.1719 19.08 53.7399 19.032 55.5319 18.68L55.3719 16.952C53.6119 17.272 52.0919 17.336 50.2679 17.336H49.2279ZM49.2279 9.32V18.168H51.3399V11.032H54.6999V9.32H49.2279Z" fill="white"/>
<rect x="0.7" y="0.7" width="71.6" height="27.6" rx="13.8" stroke="white" stroke-width="1.4"/>
</svg>
