<svg width="165" height="189" viewBox="0 0 165 189" fill="none" xmlns="http://www.w3.org/2000/svg">
<ellipse opacity="0.3" cx="72.158" cy="166.729" rx="64.3177" ry="21.4923" fill="#222222"/>
<path d="M63.1012 147.843C68.0981 142.846 68.0981 134.744 63.1012 129.747C58.1043 124.751 50.0027 124.751 45.0057 129.747L25.3852 149.368C20.3883 154.365 20.3883 162.466 25.3852 167.463C30.3822 172.46 38.4838 172.46 43.4807 167.463L63.1012 147.843Z" fill="white" stroke="#1D1D1B" stroke-width="1.91043" stroke-miterlimit="10"/>
<path d="M156.931 95.3302C156.931 95.3302 157.043 95.2497 157.108 95.2015C164.415 89.0693 165.364 78.1892 159.232 70.8982C158.621 70.1578 157.945 69.514 157.236 68.9024C157.269 68.8381 157.317 68.7898 157.349 68.7254C162.113 60.4687 159.28 49.9266 151.04 45.1625C150.203 44.6796 149.35 44.2934 148.481 43.9715C148.481 43.9071 148.513 43.8266 148.529 43.7622C150.187 34.3789 143.91 25.4302 134.527 23.7724C133.577 23.6114 132.643 23.5471 131.71 23.531C131.71 23.4666 131.71 23.3861 131.678 23.3217C130.02 13.9384 121.071 7.67752 111.688 9.3192C110.738 9.48015 109.837 9.73766 108.968 10.0596C108.936 9.99518 108.903 9.9308 108.871 9.86642C104.107 1.60975 93.549 -1.20685 85.3084 3.55723C84.4715 4.04008 83.715 4.5873 83.0068 5.18281C82.9585 5.13453 82.9102 5.08624 82.8459 5.03796C75.5388 -1.09419 64.6587 -0.128496 58.5426 7.16248C57.931 7.90285 57.3999 8.6754 56.9331 9.48015C56.8687 9.44796 56.8044 9.41577 56.74 9.39967C47.7912 6.14851 37.8768 10.7516 34.6256 19.7165C34.3037 20.6178 34.0784 21.5352 33.9014 22.4365C33.837 22.4365 33.7565 22.4365 33.6921 22.4365C24.1639 22.4365 16.4384 30.1621 16.4384 39.6902C16.4384 40.6559 16.535 41.5894 16.6798 42.5068C16.6155 42.5229 16.5511 42.539 16.4706 42.5712C7.52185 45.8224 2.90262 55.7368 6.15378 64.6856C6.47568 65.5869 6.89415 66.4238 7.3448 67.2447C7.29652 67.2929 7.23214 67.3251 7.16776 67.3734C-0.139315 73.5056 -1.08891 84.3857 5.04324 91.6767C5.65484 92.417 6.33083 93.0608 7.039 93.6724C7.00681 93.7368 6.95853 93.7851 6.92634 93.8495C2.16225 102.106 4.99495 112.648 13.2355 117.412C14.0725 117.895 14.9255 118.282 15.7946 118.603C15.7946 118.668 15.7624 118.748 15.7463 118.813C14.0886 128.196 20.3656 137.145 29.7489 138.802C30.6985 138.963 31.632 139.028 32.5655 139.044C32.5655 139.108 32.5655 139.189 32.5977 139.253C34.2554 148.636 43.2042 154.897 52.5875 153.256C53.5371 153.095 54.4384 152.837 55.3075 152.515C55.3397 152.58 55.3719 152.644 55.4041 152.708C60.1682 160.965 70.7264 163.782 78.967 159.018C79.8039 158.535 80.5604 157.988 81.2686 157.392C81.3169 157.44 81.3651 157.489 81.4295 157.537C88.7366 163.669 99.6167 162.703 105.733 155.412C106.344 154.672 106.876 153.899 107.342 153.095C107.407 153.127 107.471 153.159 107.535 153.175C116.484 156.426 126.399 151.823 129.65 142.858C129.972 141.957 130.197 141.04 130.374 140.138C130.438 140.138 130.519 140.138 130.583 140.138C140.111 140.138 147.837 132.413 147.837 122.885C147.837 121.919 147.74 120.985 147.596 120.068C147.66 120.052 147.724 120.036 147.805 120.004C156.754 116.752 161.373 106.838 158.122 97.8893C157.8 96.988 157.381 96.1511 156.931 95.3302Z" fill="#FFC438" stroke="#1D1D1B" stroke-width="1.91043" stroke-miterlimit="10"/>
<path d="M68.8488 64.798C68.8488 57.8113 63.1849 52.1475 56.1982 52.1475C49.2115 52.1475 43.5476 57.8113 43.5476 64.798V89.3105C43.5476 96.2972 49.2115 101.961 56.1982 101.961C63.1849 101.961 68.8488 96.2972 68.8488 89.3105V64.798Z" fill="white" stroke="#1D1D1B" stroke-width="1.91043" stroke-miterlimit="10"/>
<path d="M99.1234 64.798C99.1234 57.8113 93.4596 52.1475 86.4728 52.1475C79.4861 52.1475 73.8223 57.8113 73.8223 64.798V89.3105C73.8223 96.2972 79.4861 101.961 86.4728 101.961C93.4596 101.961 99.1234 96.2972 99.1234 89.3105V64.798Z" fill="white" stroke="#1D1D1B" stroke-width="1.91043" stroke-miterlimit="10"/>
<path d="M68.8492 62.8181C68.8492 57.467 64.5148 53.129 59.1681 53.129C53.8214 53.129 49.4871 57.467 49.4871 62.8181V88.1676C49.4871 93.5187 53.8214 97.8567 59.1681 97.8567C64.5148 97.8567 68.8492 93.5187 68.8492 88.1676V62.8181Z" fill="#1D1D1B"/>
<path d="M99.1234 62.8181C99.1234 57.467 94.789 53.129 89.4423 53.129C84.0956 53.129 79.7612 57.467 79.7612 62.8181V88.1676C79.7612 93.5187 84.0956 97.8567 89.4423 97.8567C94.789 97.8567 99.1234 93.5187 99.1234 88.1676V62.8181Z" fill="#1D1D1B"/>
<path d="M105.934 156.459C110.931 151.462 110.931 143.361 105.934 138.364C100.937 133.367 92.8352 133.367 87.8382 138.364L70.8922 155.31C65.8953 160.307 65.8953 168.408 70.8922 173.405C75.8892 178.402 83.9908 178.402 88.9877 173.405L105.934 156.459Z" fill="white" stroke="#1D1D1B" stroke-width="1.91043" stroke-miterlimit="10"/>
<path d="M81.5802 179.281H81.5962C89.1696 179.281 95.3091 173.141 95.3091 165.568V145.836C95.3091 138.262 89.1696 132.123 81.5962 132.123H81.5802C74.0068 132.123 67.8673 138.262 67.8673 145.836V165.568C67.8673 173.141 74.0068 179.281 81.5802 179.281Z" fill="white" stroke="#1D1D1B" stroke-width="1.91043" stroke-miterlimit="10"/>
<path d="M78.0552 180.053H78.0713C85.5025 180.053 91.5266 174.029 91.5266 166.598V146.351C91.5266 138.92 85.5025 132.895 78.0713 132.895H78.0552C70.624 132.895 64.5999 138.92 64.5999 146.351V166.598C64.5999 174.029 70.624 180.053 78.0552 180.053Z" fill="white" stroke="#1D1D1B" stroke-width="1.91043" stroke-miterlimit="10"/>
<path d="M32.7159 174.871H32.732C40.3054 174.871 46.4448 168.732 46.4448 161.158L46.4448 141.426C46.4448 133.852 40.3054 127.713 32.732 127.713H32.7159C25.1425 127.713 19.0031 133.852 19.0031 141.426L19.0031 161.158C19.0031 168.732 25.1425 174.871 32.7159 174.871Z" fill="white" stroke="#1D1D1B" stroke-width="1.91043" stroke-miterlimit="10"/>
<path d="M29.2075 175.643H29.2236C36.6548 175.643 42.679 169.619 42.679 162.188L42.679 141.941C42.679 134.51 36.6548 128.485 29.2236 128.485H29.2075C21.7764 128.485 15.7522 134.51 15.7522 141.941L15.7522 162.188C15.7522 169.619 21.7764 175.643 29.2075 175.643Z" fill="white" stroke="#1D1D1B" stroke-width="1.91043" stroke-miterlimit="10"/>
<path d="M29.2075 175.627C21.7717 175.627 15.7522 169.592 15.7522 162.172L15.7522 159.371H42.679V162.172C42.679 169.608 36.6434 175.627 29.2236 175.627H29.2075Z" fill="white" stroke="#1D1D1B" stroke-width="1.91043" stroke-miterlimit="10"/>
<path d="M78.0552 180.053C70.6194 180.053 64.5999 174.018 64.5999 166.598V163.798H91.5266V166.598C91.5266 174.034 85.491 180.053 78.0713 180.053H78.0552Z" fill="white" stroke="#1D1D1B" stroke-width="1.91043" stroke-miterlimit="10"/>
<path d="M92.2995 64.0738C93.9618 64.0738 95.3093 62.7263 95.3093 61.0641C95.3093 59.4018 93.9618 58.0543 92.2995 58.0543C90.6373 58.0543 89.2898 59.4018 89.2898 61.0641C89.2898 62.7263 90.6373 64.0738 92.2995 64.0738Z" fill="white" stroke="#1D1D1B" stroke-width="1.91043" stroke-miterlimit="10"/>
<path d="M61.3972 64.0738C63.0594 64.0738 64.4069 62.7263 64.4069 61.0641C64.4069 59.4018 63.0594 58.0543 61.3972 58.0543C59.735 58.0543 58.3875 59.4018 58.3875 61.0641C58.3875 62.7263 59.735 64.0738 61.3972 64.0738Z" fill="white" stroke="#1D1D1B" stroke-width="1.91043" stroke-miterlimit="10"/>
</svg>
