<svg width="71" height="28" viewBox="0 0 71 28" fill="none" xmlns="http://www.w3.org/2000/svg">
<path d="M9.32986 15.6335C9.35603 16.2746 9.49995 16.8307 9.76163 17.3017C10.0364 17.7597 10.3962 18.1325 10.8411 18.4204C11.2859 18.6952 11.7831 18.8914 12.3326 19.0092C12.8821 19.14 13.4709 19.2054 14.0989 19.2054C14.7139 19.2054 15.2896 19.14 15.826 19.0092C16.3755 18.8914 16.8662 18.6952 17.298 18.4204C17.7428 18.1456 18.0895 17.7793 18.3381 17.3213C18.5998 16.8634 18.7306 16.3139 18.7306 15.6728C18.7306 15.2279 18.6456 14.8419 18.4755 14.5148C18.3054 14.1877 18.0699 13.9195 17.769 13.7102C17.4681 13.5008 17.1344 13.3308 16.7681 13.1999C16.4017 13.056 15.983 12.9317 15.512 12.827C15.3681 12.7878 15.1129 12.7289 14.7466 12.6504C13.9354 12.4803 13.3335 12.3102 12.941 12.1401C12.5485 11.97 12.3522 11.6953 12.3522 11.3158C12.3522 10.9495 12.5027 10.7009 12.8036 10.57C13.1046 10.4392 13.4709 10.3738 13.9027 10.3738C14.4653 10.3738 14.9101 10.4785 15.2372 10.6878C15.5774 10.8841 15.7671 11.2373 15.8064 11.7476H18.4559C18.4036 11.1457 18.2465 10.6355 17.9849 10.2168C17.7363 9.79809 17.4026 9.46446 16.9839 9.21586C16.5783 8.96727 16.1204 8.79063 15.6101 8.68596C15.1129 8.56821 14.57 8.50933 13.9812 8.50933C13.3924 8.50933 12.8363 8.56167 12.313 8.66634C11.8027 8.77101 11.3382 8.94764 10.9196 9.19624C10.5009 9.43175 10.1672 9.76539 9.91864 10.1972C9.68313 10.6289 9.56537 11.1523 9.56537 11.7672C9.56537 12.199 9.65042 12.5719 9.82051 12.8859C10.0037 13.1868 10.2457 13.442 10.5467 13.6513C10.8476 13.8476 11.1747 14.0111 11.528 14.142C11.8943 14.2597 12.313 14.3709 12.784 14.4756C13.9485 14.7242 14.7662 14.9532 15.2372 15.1625C15.7083 15.3588 15.9438 15.6531 15.9438 16.0457C15.9438 16.4905 15.7606 16.8176 15.3943 17.027C15.0279 17.2363 14.6027 17.341 14.1186 17.341C13.5167 17.341 13.013 17.2036 12.6074 16.9288C12.2018 16.641 11.9924 16.2092 11.9794 15.6335H9.32986ZM29.3111 14.8092C29.3111 14.7602 29.3111 14.6804 29.3111 14.57C29.3234 14.4719 29.3295 14.3983 29.3295 14.3493C29.3295 13.6501 29.2253 12.9877 29.0167 12.3621C28.8205 11.7366 28.5261 11.1846 28.1336 10.7062C27.7533 10.2278 27.2688 9.8537 26.68 9.58385C26.1035 9.30172 25.4412 9.16066 24.6929 9.16066C23.9815 9.16066 23.3252 9.28946 22.7242 9.54705C22.1232 9.79237 21.608 10.142 21.1787 10.5958C20.7494 11.0497 20.4182 11.5832 20.1851 12.1965C19.9521 12.8098 19.8355 13.4722 19.8355 14.1837C19.8355 14.9074 19.9459 15.582 20.1667 16.2076C20.3998 16.8209 20.7248 17.3545 21.1419 17.8083C21.5712 18.2499 22.0864 18.5933 22.6874 18.8387C23.2884 19.0717 23.957 19.1883 24.6929 19.1883C25.7969 19.1883 26.723 18.9307 27.4712 18.4155C28.2317 17.888 28.7898 17.0785 29.1455 15.9868H26.8456C26.7598 16.3057 26.5206 16.594 26.1281 16.8515C25.7355 17.0969 25.2878 17.2195 24.7849 17.2195C24.049 17.2195 23.4847 17.0233 23.0922 16.6308C22.6997 16.2382 22.485 15.6311 22.4482 14.8092H29.3111ZM22.4482 13.1533C22.4605 12.9448 22.5034 12.7301 22.577 12.5093C22.6506 12.2763 22.7733 12.0555 22.945 11.847C23.1167 11.6384 23.3375 11.4667 23.6074 11.3318C23.8895 11.1968 24.2268 11.1294 24.6193 11.1294C25.2326 11.1294 25.6988 11.295 26.0177 11.6262C26.3489 11.9573 26.5758 12.4664 26.6984 13.1533H22.4482ZM39.8763 14.8092C39.8763 14.7602 39.8763 14.6804 39.8763 14.57C39.8886 14.4719 39.8947 14.3983 39.8947 14.3493C39.8947 13.6501 39.7905 12.9877 39.5819 12.3621C39.3857 11.7366 39.0913 11.1846 38.6988 10.7062C38.3185 10.2278 37.834 9.8537 37.2452 9.58385C36.6687 9.30172 36.0064 9.16066 35.2581 9.16066C34.5467 9.16066 33.8904 9.28946 33.2894 9.54705C32.6884 9.79237 32.1732 10.142 31.7439 10.5958C31.3145 11.0497 30.9834 11.5832 30.7503 12.1965C30.5172 12.8098 30.4007 13.4722 30.4007 14.1837C30.4007 14.9074 30.5111 15.582 30.7319 16.2076C30.965 16.8209 31.29 17.3545 31.7071 17.8083C32.1364 18.2499 32.6516 18.5933 33.2526 18.8387C33.8536 19.0717 34.5221 19.1883 35.2581 19.1883C36.3621 19.1883 37.2882 18.9307 38.0364 18.4155C38.7969 17.888 39.355 17.0785 39.7107 15.9868H37.4108C37.325 16.3057 37.0858 16.594 36.6933 16.8515C36.3007 17.0969 35.853 17.2195 35.3501 17.2195C34.6141 17.2195 34.0499 17.0233 33.6574 16.6308C33.2649 16.2382 33.0502 15.6311 33.0134 14.8092H39.8763ZM33.0134 13.1533C33.0257 12.9448 33.0686 12.7301 33.1422 12.5093C33.2158 12.2763 33.3385 12.0555 33.5102 11.847C33.6819 11.6384 33.9027 11.4667 34.1726 11.3318C34.4547 11.1968 34.792 11.1294 35.1845 11.1294C35.7978 11.1294 36.2639 11.295 36.5829 11.6262C36.9141 11.9573 37.141 12.4664 37.2636 13.1533H33.0134ZM40.9659 15.8396C40.9904 16.4406 41.1254 16.9619 41.3707 17.4035C41.6283 17.8328 41.9656 18.1824 42.3827 18.4523C42.7997 18.7099 43.2658 18.8939 43.781 19.0043C44.2962 19.1269 44.8482 19.1883 45.4369 19.1883C46.0134 19.1883 46.5531 19.1269 47.0561 19.0043C47.5712 18.8939 48.0312 18.7099 48.436 18.4523C48.8531 18.1947 49.1781 17.8512 49.4112 17.4219C49.6565 16.9926 49.7792 16.4774 49.7792 15.8764C49.7792 15.4593 49.6994 15.0975 49.54 14.7908C49.3805 14.4842 49.1597 14.2327 48.8776 14.0365C48.5955 13.8402 48.2827 13.6807 47.9392 13.5581C47.5958 13.4232 47.2033 13.3066 46.7617 13.2085C46.6267 13.1717 46.3876 13.1165 46.0441 13.0429C45.2836 12.8834 44.7194 12.724 44.3514 12.5645C43.9834 12.4051 43.7994 12.1475 43.7994 11.7918C43.7994 11.4483 43.9405 11.2152 44.2226 11.0926C44.5047 10.9699 44.8482 10.9086 45.2529 10.9086C45.7804 10.9086 46.1974 11.0067 46.5041 11.203C46.823 11.387 47.0009 11.7182 47.0377 12.1965H49.5216C49.4725 11.6323 49.3253 11.1539 49.08 10.7614C48.8469 10.3689 48.5341 10.0561 48.1416 9.82304C47.7614 9.58998 47.3321 9.42439 46.8537 9.32626C46.3876 9.21586 45.8785 9.16066 45.3265 9.16066C44.7746 9.16066 44.2532 9.20973 43.7626 9.30786C43.2842 9.40599 42.8488 9.57158 42.4563 9.80464C42.0637 10.0254 41.7509 10.3382 41.5179 10.743C41.2971 11.1478 41.1867 11.6384 41.1867 12.2149C41.1867 12.6197 41.2664 12.9693 41.4259 13.2637C41.5976 13.5458 41.8245 13.785 42.1067 13.9813C42.3888 14.1653 42.6954 14.3186 43.0266 14.4412C43.3701 14.5516 43.7626 14.6559 44.2042 14.754C45.2959 14.9871 46.0625 15.2017 46.5041 15.398C46.9457 15.582 47.1665 15.858 47.1665 16.226C47.1665 16.643 46.9947 16.9497 46.6513 17.1459C46.3078 17.3422 45.9092 17.4403 45.4553 17.4403C44.8911 17.4403 44.4188 17.3115 44.0386 17.0539C43.6583 16.7841 43.4621 16.3793 43.4498 15.8396H40.9659ZM51.0139 14.1837C51.0139 15.6924 51.4616 16.9067 52.3571 17.8267C53.2525 18.7344 54.4423 19.1883 55.9265 19.1883C57.423 19.1883 58.6189 18.7344 59.5144 17.8267C60.4098 16.9067 60.8575 15.6924 60.8575 14.1837C60.8575 12.6627 60.4098 11.4483 59.5144 10.5406C58.6189 9.62064 57.423 9.16066 55.9265 9.16066C54.4423 9.16066 53.2525 9.62064 52.3571 10.5406C51.4616 11.4483 51.0139 12.6627 51.0139 14.1837ZM53.6266 14.1837C53.6266 13.7789 53.6634 13.3986 53.737 13.0429C53.8229 12.6749 53.9517 12.3499 54.1234 12.0677C54.3074 11.7734 54.5466 11.5464 54.841 11.387C55.1476 11.2152 55.5095 11.1294 55.9265 11.1294C56.3558 11.1294 56.7177 11.2152 57.0121 11.387C57.3187 11.5464 57.5579 11.7734 57.7296 12.0677C57.9136 12.3499 58.0424 12.6749 58.116 13.0429C58.2019 13.3986 58.2448 13.7789 58.2448 14.1837C58.2448 14.5884 58.2019 14.9687 58.116 15.3244C58.0424 15.6801 57.9136 16.0052 57.7296 16.2996C57.5579 16.5817 57.3187 16.8086 57.0121 16.9803C56.7177 17.1398 56.3558 17.2195 55.9265 17.2195C55.5095 17.2195 55.1476 17.1398 54.841 16.9803C54.5466 16.8086 54.3074 16.5817 54.1234 16.2996C53.9517 16.0052 53.8229 15.6801 53.737 15.3244C53.6634 14.9687 53.6266 14.5884 53.6266 14.1837Z" fill="#FF4E4E"/>
<rect x="0.75" y="0.75" width="68.8237" height="26.2218" rx="13.1109" stroke="#FF4E4E" stroke-width="1.5"/>
</svg>
