<svg width="100%" height="770" viewBox="0 0 1440 720" fill="none" xmlns="http://www.w3.org/2000/svg">
<rect width="780" height="770" fill="#8E41FF"/>
<rect width="1440" height="770" fill="#8E41FF"/>
<ellipse opacity="0.3" cx="676.483" cy="504.398" rx="35.4478" ry="7.95768" fill="#222222"/>
<path d="M666.005 474.408C668.843 471.57 668.843 466.968 666.005 464.13C663.167 461.292 658.565 461.292 655.727 464.13L644.582 475.275C641.744 478.113 641.744 482.715 644.582 485.553C647.42 488.391 652.022 488.391 654.861 485.553L666.005 474.408Z" fill="white" stroke="#1D1D1B" stroke-width="1.08514" stroke-miterlimit="10"/>
<path d="M719.57 444.58C719.57 444.58 719.634 444.535 719.67 444.507C723.821 441.024 724.36 434.844 720.877 430.703C720.53 430.282 720.146 429.917 719.744 429.569C719.762 429.533 719.789 429.505 719.808 429.469C722.514 424.779 720.905 418.791 716.224 416.085C715.749 415.81 715.264 415.591 714.77 415.408C714.77 415.372 714.789 415.326 714.798 415.289C715.739 409.96 712.174 404.877 706.844 403.935C706.305 403.843 705.775 403.807 705.244 403.798C705.244 403.761 705.244 403.716 705.226 403.679C704.284 398.349 699.201 394.793 693.872 395.725C693.332 395.817 692.82 395.963 692.327 396.146C692.308 396.109 692.29 396.073 692.272 396.036C689.566 391.346 683.569 389.746 678.888 392.453C678.413 392.727 677.983 393.038 677.581 393.376C677.553 393.348 677.526 393.321 677.489 393.294C673.339 389.81 667.159 390.359 663.685 394.5C663.337 394.921 663.036 395.36 662.77 395.817C662.734 395.799 662.697 395.78 662.661 395.771C657.578 393.924 651.946 396.539 650.1 401.631C649.917 402.143 649.789 402.664 649.688 403.176C649.652 403.176 649.606 403.176 649.569 403.176C644.157 403.176 639.769 407.564 639.769 412.976C639.769 413.525 639.824 414.055 639.906 414.576C639.87 414.585 639.833 414.595 639.787 414.613C634.704 416.459 632.081 422.091 633.927 427.174C634.11 427.686 634.348 428.161 634.604 428.628C634.576 428.655 634.54 428.673 634.503 428.701C630.353 432.184 629.813 438.364 633.297 442.505C633.644 442.926 634.028 443.291 634.43 443.639C634.412 443.675 634.384 443.703 634.366 443.739C631.66 448.429 633.269 454.417 637.95 457.123C638.425 457.397 638.91 457.617 639.403 457.8C639.403 457.836 639.385 457.882 639.376 457.919C638.434 463.248 642 468.331 647.33 469.273C647.869 469.364 648.399 469.401 648.929 469.41C648.929 469.447 648.929 469.492 648.948 469.529C649.889 474.859 654.972 478.415 660.302 477.483C660.842 477.391 661.353 477.245 661.847 477.062C661.865 477.099 661.884 477.135 661.902 477.172C664.608 481.862 670.605 483.461 675.286 480.755C675.761 480.481 676.191 480.17 676.593 479.832C676.621 479.859 676.648 479.887 676.685 479.914C680.835 483.397 687.015 482.849 690.489 478.708C690.837 478.287 691.138 477.848 691.403 477.391C691.44 477.409 691.476 477.428 691.513 477.437C696.596 479.284 702.228 476.669 704.074 471.577C704.257 471.065 704.385 470.544 704.486 470.032C704.522 470.032 704.568 470.032 704.604 470.032C710.017 470.032 714.405 465.644 714.405 460.232C714.405 459.683 714.35 459.153 714.268 458.632C714.304 458.623 714.341 458.613 714.386 458.595C719.469 456.748 722.093 451.117 720.246 446.034C720.064 445.522 719.826 445.047 719.57 444.58V444.58Z" fill="#17A249" stroke="#1D1D1B" stroke-width="1.08514" stroke-miterlimit="10"/>
<path d="M669.271 427.238C669.271 423.27 666.054 420.053 662.085 420.053C658.117 420.053 654.899 423.27 654.899 427.238V441.162C654.899 445.13 658.117 448.347 662.085 448.347C666.054 448.347 669.271 445.13 669.271 441.162V427.238Z" fill="white" stroke="#1D1D1B" stroke-width="1.08514" stroke-miterlimit="10"/>
<path d="M686.467 427.238C686.467 423.27 683.25 420.053 679.281 420.053C675.313 420.053 672.096 423.27 672.096 427.238V441.162C672.096 445.13 675.313 448.347 679.281 448.347C683.25 448.347 686.467 445.13 686.467 441.162V427.238Z" fill="white" stroke="#1D1D1B" stroke-width="1.08514" stroke-miterlimit="10"/>
<path d="M669.271 426.114C669.271 423.074 666.809 420.61 663.772 420.61C660.735 420.61 658.273 423.074 658.273 426.114V440.513C658.273 443.552 660.735 446.016 663.772 446.016C666.809 446.016 669.271 443.552 669.271 440.513V426.114Z" fill="#1D1D1B"/>
<path d="M686.467 426.114C686.467 423.074 684.005 420.61 680.968 420.61C677.931 420.61 675.469 423.074 675.469 426.114V440.513C675.469 443.552 677.931 446.016 680.968 446.016C684.005 446.016 686.467 443.552 686.467 440.513V426.114Z" fill="#1D1D1B"/>
<path d="M690.335 479.302C693.174 476.464 693.174 471.862 690.335 469.024C687.497 466.186 682.895 466.186 680.057 469.024L670.432 478.65C667.593 481.488 667.593 486.09 670.432 488.928C673.27 491.766 677.872 491.766 680.71 488.928L690.335 479.302Z" fill="white" stroke="#1D1D1B" stroke-width="1.08514" stroke-miterlimit="10"/>
<path d="M676.502 492.266H676.511C680.813 492.266 684.3 488.778 684.3 484.477V473.268C684.3 468.967 680.813 465.479 676.511 465.479H676.502C672.2 465.479 668.713 468.967 668.713 473.268V484.477C668.713 488.778 672.2 492.266 676.502 492.266Z" fill="white" stroke="#1D1D1B" stroke-width="1.08514" stroke-miterlimit="10"/>
<path d="M674.499 492.704H674.509C678.73 492.704 682.151 489.283 682.151 485.062V473.561C682.151 469.34 678.73 465.918 674.509 465.918H674.499C670.279 465.918 666.857 469.34 666.857 473.561V485.062C666.857 489.283 670.279 492.704 674.499 492.704Z" fill="white" stroke="#1D1D1B" stroke-width="1.08514" stroke-miterlimit="10"/>
<path d="M648.746 489.761H648.755C653.057 489.761 656.544 486.273 656.544 481.972V470.764C656.544 466.462 653.057 462.975 648.755 462.975H648.746C644.444 462.975 640.957 466.462 640.957 470.764V481.972C640.957 486.273 644.444 489.761 648.746 489.761Z" fill="white" stroke="#1D1D1B" stroke-width="1.08514" stroke-miterlimit="10"/>
<path d="M646.754 490.2H646.763C650.984 490.2 654.406 486.778 654.406 482.557V471.056C654.406 466.835 650.984 463.414 646.763 463.414H646.754C642.533 463.414 639.111 466.835 639.111 471.056V482.557C639.111 486.778 642.533 490.2 646.754 490.2Z" fill="white" stroke="#1D1D1B" stroke-width="1.08514" stroke-miterlimit="10"/>
<path d="M646.754 490.19C642.53 490.19 639.111 486.762 639.111 482.548V480.957H654.406V482.548C654.406 486.771 650.977 490.19 646.763 490.19H646.754Z" fill="white" stroke="#1D1D1B" stroke-width="1.08514" stroke-miterlimit="10"/>
<path d="M674.499 492.704C670.276 492.704 666.857 489.276 666.857 485.062V483.471H682.151V485.062C682.151 489.285 678.723 492.704 674.509 492.704H674.499Z" fill="white" stroke="#1D1D1B" stroke-width="1.08514" stroke-miterlimit="10"/>
<path d="M682.591 426.827C683.535 426.827 684.3 426.061 684.3 425.117C684.3 424.173 683.535 423.408 682.591 423.408C681.646 423.408 680.881 424.173 680.881 425.117C680.881 426.061 681.646 426.827 682.591 426.827Z" fill="white" stroke="#1D1D1B" stroke-width="1.08514" stroke-miterlimit="10"/>
<path d="M665.039 426.827C665.983 426.827 666.748 426.061 666.748 425.117C666.748 424.173 665.983 423.408 665.039 423.408C664.094 423.408 663.329 424.173 663.329 425.117C663.329 426.061 664.094 426.827 665.039 426.827Z" fill="white" stroke="#1D1D1B" stroke-width="1.08514" stroke-miterlimit="10"/>
<ellipse opacity="0.3" cx="790.324" cy="485.136" rx="36.533" ry="12.2078" fill="#222222"/>
<path d="M785.179 474.408C788.018 471.57 788.018 466.968 785.179 464.13C782.341 461.291 777.739 461.291 774.901 464.13L763.756 475.274C760.918 478.113 760.918 482.714 763.756 485.553C766.595 488.391 771.196 488.391 774.035 485.553L785.179 474.408Z" fill="white" stroke="#1D1D1B" stroke-width="1.08514" stroke-miterlimit="10"/>
<path d="M766.663 475.456L766.663 475.456L750.923 426.986C750.923 426.986 750.923 426.985 750.923 426.985C750.361 425.251 750.972 423.369 752.444 422.3L752.444 422.3L793.65 392.343L793.65 392.343C794.371 391.818 795.22 391.543 796.112 391.543C797.005 391.543 797.854 391.818 798.575 392.343L798.575 392.343L839.779 422.3C839.779 422.3 839.779 422.3 839.779 422.3C841.251 423.371 841.862 425.254 841.299 426.985L841.299 426.985L825.562 475.456L825.562 475.456C824.999 477.19 823.398 478.354 821.579 478.354H770.646C768.824 478.354 767.226 477.191 766.663 475.456Z" fill="#17A249" stroke="black" stroke-width="1.08514"/>
<path d="M788.444 427.238C788.444 423.27 785.227 420.053 781.258 420.053C777.29 420.053 774.073 423.27 774.073 427.238V441.162C774.073 445.13 777.29 448.347 781.258 448.347C785.227 448.347 788.444 445.13 788.444 441.162V427.238Z" fill="white" stroke="#1D1D1B" stroke-width="1.08514" stroke-miterlimit="10"/>
<path d="M805.64 427.238C805.64 423.27 802.423 420.053 798.455 420.053C794.486 420.053 791.269 423.27 791.269 427.238V441.162C791.269 445.13 794.486 448.347 798.455 448.347C802.423 448.347 805.64 445.13 805.64 441.162V427.238Z" fill="white" stroke="#1D1D1B" stroke-width="1.08514" stroke-miterlimit="10"/>
<path d="M788.445 426.114C788.445 423.074 785.983 420.61 782.946 420.61C779.909 420.61 777.447 423.074 777.447 426.114V440.513C777.447 443.552 779.909 446.016 782.946 446.016C785.983 446.016 788.445 443.552 788.445 440.513V426.114Z" fill="#1D1D1B"/>
<path d="M805.641 426.114C805.641 423.074 803.179 420.61 800.142 420.61C797.105 420.61 794.643 423.074 794.643 426.114V440.513C794.643 443.552 797.105 446.016 800.142 446.016C803.179 446.016 805.641 443.552 805.641 440.513V426.114Z" fill="#1D1D1B"/>
<path d="M809.509 479.302C812.347 476.464 812.347 471.862 809.509 469.024C806.67 466.186 802.068 466.186 799.23 469.024L789.605 478.65C786.766 481.488 786.766 486.09 789.605 488.928C792.443 491.766 797.045 491.766 799.883 488.928L809.509 479.302Z" fill="white" stroke="#1D1D1B" stroke-width="1.08514" stroke-miterlimit="10"/>
<path d="M795.676 492.266H795.685C799.987 492.266 803.474 488.778 803.474 484.477V473.268C803.474 468.967 799.987 465.479 795.685 465.479H795.676C791.374 465.479 787.887 468.967 787.887 473.268V484.477C787.887 488.778 791.374 492.266 795.676 492.266Z" fill="white" stroke="#1D1D1B" stroke-width="1.08514" stroke-miterlimit="10"/>
<path d="M793.673 492.704H793.682C797.903 492.704 801.325 489.283 801.325 485.062V473.561C801.325 469.34 797.903 465.918 793.682 465.918H793.673C789.452 465.918 786.03 469.34 786.03 473.561V485.062C786.03 489.283 789.452 492.704 793.673 492.704Z" fill="white" stroke="#1D1D1B" stroke-width="1.08514" stroke-miterlimit="10"/>
<path d="M767.92 489.761H767.929C772.231 489.761 775.719 486.273 775.719 481.972V470.764C775.719 466.462 772.231 462.975 767.929 462.975H767.92C763.619 462.975 760.131 466.462 760.131 470.764V481.972C760.131 486.273 763.619 489.761 767.92 489.761Z" fill="white" stroke="#1D1D1B" stroke-width="1.08514" stroke-miterlimit="10"/>
<path d="M765.927 490.199H765.937C770.158 490.199 773.579 486.778 773.579 482.557V471.056C773.579 466.835 770.158 463.413 765.937 463.413H765.927C761.707 463.413 758.285 466.835 758.285 471.056V482.557C758.285 486.778 761.707 490.199 765.927 490.199Z" fill="white" stroke="#1D1D1B" stroke-width="1.08514" stroke-miterlimit="10"/>
<path d="M765.927 490.19C761.704 490.19 758.285 486.762 758.285 482.548V480.957H773.579V482.548C773.579 486.771 770.151 490.19 765.937 490.19H765.927Z" fill="white" stroke="#1D1D1B" stroke-width="1.08514" stroke-miterlimit="10"/>
<path d="M793.673 492.704C789.449 492.704 786.03 489.276 786.03 485.062V483.471H801.325V485.062C801.325 489.285 797.897 492.704 793.682 492.704H793.673Z" fill="white" stroke="#1D1D1B" stroke-width="1.08514" stroke-miterlimit="10"/>
<path d="M801.764 426.827C802.708 426.827 803.474 426.061 803.474 425.117C803.474 424.173 802.708 423.408 801.764 423.408C800.82 423.408 800.054 424.173 800.054 425.117C800.054 426.061 800.82 426.827 801.764 426.827Z" fill="white" stroke="#1D1D1B" stroke-width="1.08514" stroke-miterlimit="10"/>
<path d="M784.212 426.827C785.156 426.827 785.922 426.061 785.922 425.117C785.922 424.173 785.156 423.408 784.212 423.408C783.268 423.408 782.503 424.173 782.503 425.117C782.503 426.061 783.268 426.827 784.212 426.827Z" fill="white" stroke="#1D1D1B" stroke-width="1.08514" stroke-miterlimit="10"/>
<ellipse opacity="0.3" cx="1009.16" cy="189.424" rx="36.533" ry="12.2078" fill="#222222"/>
<path d="M1005.54 155.588C1002.43 154.117 998.794 155.278 997.414 158.185L989.414 175.024L985.291 173.068C982.183 171.596 978.544 172.757 977.164 175.664C975.784 178.572 977.182 182.128 980.291 183.6L991.618 188.984C993.848 190.045 996.463 189.213 997.459 187.119L999.818 182.146L1000.66 180.373L1008.66 163.533C1010.04 160.626 1008.64 157.069 1005.53 155.598L1005.54 155.588Z" fill="white" stroke="#1D1D1B" stroke-width="1.08514" stroke-miterlimit="10"/>
<path d="M994.456 188.962L976.809 180.579C976.28 180.327 975.648 180.552 975.397 181.081L975.334 181.214C975.082 181.743 975.308 182.375 975.837 182.626L993.483 191.009C994.012 191.261 994.645 191.036 994.896 190.507L994.959 190.374C995.21 189.845 994.985 189.213 994.456 188.962Z" fill="white" stroke="#1D1D1B" stroke-width="1.08514" stroke-miterlimit="10"/>
<path d="M1018.58 152.791C1015.65 154.592 1014.64 158.277 1016.33 161.019L1026.09 176.899L1022.21 179.285C1019.28 181.086 1018.27 184.77 1019.96 187.513C1021.64 190.255 1025.39 191.014 1028.31 189.213L1039 182.64C1041.1 181.342 1041.83 178.7 1040.62 176.725L1037.74 172.035L1036.71 170.362L1026.94 154.483C1025.26 151.74 1021.51 150.981 1018.59 152.782L1018.58 152.791Z" fill="white" stroke="#1D1D1B" stroke-width="1.08514" stroke-miterlimit="10"/>
<path d="M1040.53 180.259L1023.88 190.493C1023.38 190.799 1023.23 191.453 1023.54 191.952L1023.61 192.076C1023.92 192.575 1024.57 192.731 1025.07 192.424L1041.71 182.19C1042.21 181.883 1042.37 181.23 1042.06 180.731L1041.98 180.607C1041.68 180.108 1041.02 179.952 1040.53 180.259Z" fill="white" stroke="#1D1D1B" stroke-width="1.08514" stroke-miterlimit="10"/>
<path d="M1054.57 134.58C1054.57 134.58 1054.63 134.535 1054.67 134.507C1058.82 131.024 1059.36 124.844 1055.88 120.703C1055.53 120.282 1055.15 119.917 1054.74 119.569C1054.76 119.533 1054.79 119.505 1054.81 119.469C1057.51 114.779 1055.9 108.791 1051.22 106.085C1050.75 105.81 1050.26 105.591 1049.77 105.408C1049.77 105.372 1049.79 105.326 1049.8 105.289C1050.74 99.9595 1047.17 94.8765 1041.84 93.9349C1041.3 93.8435 1040.77 93.8069 1040.24 93.7978C1040.24 93.7612 1040.24 93.7155 1040.23 93.6789C1039.28 88.3491 1034.2 84.7929 1028.87 85.7254C1028.33 85.8168 1027.82 85.9631 1027.33 86.1459C1027.31 86.1093 1027.29 86.0728 1027.27 86.0362C1024.57 81.3463 1018.57 79.7465 1013.89 82.4525C1013.41 82.7268 1012.98 83.0376 1012.58 83.3759C1012.55 83.3484 1012.53 83.321 1012.49 83.2936C1008.34 79.8105 1002.16 80.359 998.685 84.5003C998.337 84.9209 998.036 85.3597 997.77 85.8168C997.734 85.7985 997.697 85.7802 997.661 85.7711C992.578 83.9244 986.946 86.539 985.1 91.6311C984.917 92.1431 984.789 92.6642 984.688 93.1761C984.652 93.1761 984.606 93.1761 984.569 93.1761C979.157 93.1761 974.769 97.5643 974.769 102.976C974.769 103.525 974.824 104.055 974.906 104.576C974.87 104.585 974.833 104.595 974.787 104.613C969.704 106.459 967.081 112.091 968.927 117.174C969.11 117.686 969.348 118.161 969.604 118.628C969.576 118.655 969.54 118.673 969.503 118.701C965.353 122.184 964.813 128.364 968.297 132.505C968.644 132.926 969.028 133.291 969.43 133.639C969.412 133.675 969.384 133.703 969.366 133.739C966.66 138.429 968.269 144.417 972.95 147.123C973.425 147.397 973.91 147.617 974.403 147.8C974.403 147.836 974.385 147.882 974.376 147.919C973.434 153.248 977 158.331 982.33 159.273C982.869 159.364 983.399 159.401 983.929 159.41C983.929 159.447 983.929 159.492 983.948 159.529C984.889 164.859 989.972 168.415 995.302 167.483C995.842 167.391 996.353 167.245 996.847 167.062C996.865 167.099 996.884 167.135 996.902 167.172C999.608 171.862 1005.61 173.461 1010.29 170.755C1010.76 170.481 1011.19 170.17 1011.59 169.832C1011.62 169.859 1011.65 169.887 1011.68 169.914C1015.84 173.397 1022.02 172.849 1025.49 168.708C1025.84 168.287 1026.14 167.848 1026.4 167.391C1026.44 167.409 1026.48 167.428 1026.51 167.437C1031.6 169.284 1037.23 166.669 1039.07 161.577C1039.26 161.065 1039.39 160.544 1039.49 160.032C1039.52 160.032 1039.57 160.032 1039.6 160.032C1045.02 160.032 1049.4 155.644 1049.4 150.232C1049.4 149.683 1049.35 149.153 1049.27 148.632C1049.3 148.623 1049.34 148.613 1049.39 148.595C1054.47 146.748 1057.09 141.117 1055.25 136.034C1055.06 135.522 1054.83 135.047 1054.57 134.58V134.58Z" fill="#FFC438" stroke="#1D1D1B" stroke-width="1.08514" stroke-miterlimit="10"/>
<path d="M1004.27 117.238C1004.27 113.27 1001.05 110.053 997.084 110.053C993.116 110.053 989.899 113.27 989.899 117.238V131.161C989.899 135.13 993.116 138.347 997.084 138.347C1001.05 138.347 1004.27 135.13 1004.27 131.161V117.238Z" fill="white" stroke="#1D1D1B" stroke-width="1.08514" stroke-miterlimit="10"/>
<path d="M1021.47 117.238C1021.47 113.27 1018.25 110.053 1014.28 110.053C1010.31 110.053 1007.09 113.27 1007.09 117.238V131.161C1007.09 135.13 1010.31 138.347 1014.28 138.347C1018.25 138.347 1021.47 135.13 1021.47 131.161V117.238Z" fill="white" stroke="#1D1D1B" stroke-width="1.08514" stroke-miterlimit="10"/>
<path d="M1000.84 116.709C1000.84 113.868 998.371 111.565 995.325 111.565C992.278 111.565 989.809 113.868 989.809 116.709V131.825C989.809 134.667 992.278 136.97 995.325 136.97C998.371 136.97 1000.84 134.667 1000.84 131.825V116.709Z" fill="#1D1D1B"/>
<path d="M1018.02 116.709C1018.02 113.868 1015.55 111.565 1012.51 111.565C1009.46 111.565 1006.99 113.868 1006.99 116.709V131.825C1006.99 134.667 1009.46 136.97 1012.51 136.97C1015.55 136.97 1018.02 134.667 1018.02 131.825V116.709Z" fill="#1D1D1B"/>
<path d="M1014.15 117.836C1015.1 117.836 1015.86 117.071 1015.86 116.127C1015.86 115.183 1015.1 114.417 1014.15 114.417C1013.21 114.417 1012.44 115.183 1012.44 116.127C1012.44 117.071 1013.21 117.836 1014.15 117.836Z" fill="white" stroke="#1D1D1B" stroke-width="1.08514" stroke-miterlimit="10"/>
<path d="M996.6 117.836C997.544 117.836 998.31 117.071 998.31 116.127C998.31 115.183 997.544 114.417 996.6 114.417C995.656 114.417 994.89 115.183 994.89 116.127C994.89 117.071 995.656 117.836 996.6 117.836Z" fill="white" stroke="#1D1D1B" stroke-width="1.08514" stroke-miterlimit="10"/>
<ellipse opacity="0.3" cx="1238.31" cy="662.248" rx="35.4478" ry="7.95768" fill="#222222"/>
<path d="M1233.54 613.056C1230.43 611.584 1226.79 612.745 1225.41 615.652L1217.41 632.492L1213.29 630.535C1210.18 629.063 1206.54 630.224 1205.16 633.132C1203.78 636.039 1205.18 639.595 1208.29 641.067L1219.62 646.452C1221.85 647.512 1224.46 646.68 1225.46 644.587L1227.82 639.613L1228.66 637.84L1236.66 621C1238.04 618.093 1236.64 614.537 1233.53 613.065L1233.54 613.056Z" fill="white" stroke="#1D1D1B" stroke-width="1.08514" stroke-miterlimit="10"/>
<path d="M1222.46 646.428L1204.81 638.045C1204.28 637.794 1203.65 638.019 1203.4 638.548L1203.33 638.68C1203.08 639.209 1203.31 639.842 1203.84 640.093L1221.48 648.476C1222.01 648.727 1222.65 648.502 1222.9 647.973L1222.96 647.841C1223.21 647.312 1222.99 646.679 1222.46 646.428Z" fill="white" stroke="#1D1D1B" stroke-width="1.08514" stroke-miterlimit="10"/>
<path d="M1246.58 610.258C1243.65 612.059 1242.64 615.743 1244.33 618.486L1254.09 634.366L1250.21 636.752C1247.28 638.553 1246.27 642.237 1247.96 644.98C1249.64 647.722 1253.39 648.481 1256.31 646.68L1267 640.107C1269.1 638.809 1269.83 636.167 1268.62 634.192L1265.74 629.502L1264.71 627.829L1254.94 611.95C1253.26 609.207 1249.51 608.448 1246.59 610.249L1246.58 610.258Z" fill="white" stroke="#1D1D1B" stroke-width="1.08514" stroke-miterlimit="10"/>
<path d="M1268.53 637.726L1251.88 647.96C1251.38 648.266 1251.23 648.92 1251.54 649.418L1251.61 649.543C1251.92 650.042 1252.57 650.198 1253.07 649.891L1269.71 639.657C1270.21 639.35 1270.37 638.697 1270.06 638.198L1269.98 638.073C1269.68 637.575 1269.02 637.419 1268.53 637.726Z" fill="white" stroke="#1D1D1B" stroke-width="1.08514" stroke-miterlimit="10"/>
<path d="M1210.49 622.456L1210.49 622.456L1194.75 573.986C1194.75 573.986 1194.75 573.985 1194.75 573.985C1194.19 572.251 1194.8 570.369 1196.27 569.3L1196.27 569.3L1237.48 539.343L1237.48 539.343C1238.2 538.818 1239.05 538.543 1239.94 538.543C1240.83 538.543 1241.68 538.818 1242.4 539.343L1242.4 539.343L1283.6 569.3C1283.6 569.3 1283.61 569.3 1283.61 569.3C1285.08 570.371 1285.69 572.254 1285.13 573.985L1285.13 573.985L1269.39 622.456L1269.39 622.456C1268.83 624.19 1267.22 625.354 1265.41 625.354H1214.47C1212.65 625.354 1211.05 624.191 1210.49 622.456Z" fill="#FFC438" stroke="black" stroke-width="1.08514"/>
<path d="M1232.27 574.705C1232.27 570.736 1229.05 567.519 1225.08 567.519C1221.12 567.519 1217.9 570.736 1217.9 574.705V588.628C1217.9 592.597 1221.12 595.814 1225.08 595.814C1229.05 595.814 1232.27 592.597 1232.27 588.628V574.705Z" fill="white" stroke="#1D1D1B" stroke-width="1.08514" stroke-miterlimit="10"/>
<path d="M1249.47 574.705C1249.47 570.736 1246.25 567.519 1242.28 567.519C1238.31 567.519 1235.09 570.736 1235.09 574.705V588.628C1235.09 592.597 1238.31 595.814 1242.28 595.814C1246.25 595.814 1249.47 592.597 1249.47 588.628V574.705Z" fill="white" stroke="#1D1D1B" stroke-width="1.08514" stroke-miterlimit="10"/>
<path d="M1228.9 574.07C1228.9 571.229 1226.44 568.926 1223.39 568.926C1220.34 568.926 1217.87 571.229 1217.87 574.07V589.187C1217.87 592.028 1220.34 594.331 1223.39 594.331C1226.44 594.331 1228.9 592.028 1228.9 589.187V574.07Z" fill="#1D1D1B"/>
<path d="M1246.09 574.07C1246.09 571.229 1243.62 568.926 1240.57 568.926C1237.52 568.926 1235.05 571.229 1235.05 574.07V589.187C1235.05 592.028 1237.52 594.331 1240.57 594.331C1243.62 594.331 1246.09 592.028 1246.09 589.187V574.07Z" fill="#1D1D1B"/>
<path d="M1242.22 575.198C1243.16 575.198 1243.93 574.432 1243.93 573.488C1243.93 572.544 1243.16 571.778 1242.22 571.778C1241.27 571.778 1240.51 572.544 1240.51 573.488C1240.51 574.432 1241.27 575.198 1242.22 575.198Z" fill="white" stroke="#1D1D1B" stroke-width="1.08514" stroke-miterlimit="10"/>
<path d="M1224.66 575.198C1225.61 575.198 1226.37 574.432 1226.37 573.488C1226.37 572.544 1225.61 571.778 1224.66 571.778C1223.72 571.778 1222.95 572.544 1222.95 573.488C1222.95 574.432 1223.72 575.198 1224.66 575.198Z" fill="white" stroke="#1D1D1B" stroke-width="1.08514" stroke-miterlimit="10"/>
</svg>
