<svg width="137" height="178" viewBox="0 0 137 178" fill="none" xmlns="http://www.w3.org/2000/svg">
<ellipse opacity="0.3" cx="63.9417" cy="159.676" rx="53.2761" ry="17.8027" fill="#222222"/>
<path d="M58.6629 110.335C54.1301 108.188 48.824 109.881 46.8109 114.121L35.1455 138.678L29.1329 135.825C24.6 133.679 19.294 135.372 17.2809 139.611C15.2678 143.851 17.3075 149.037 21.8404 151.183L38.3585 159.036C41.6115 160.582 45.4244 159.369 46.8776 156.316L50.3172 149.064L51.5437 146.477L63.2091 121.92C65.2222 117.681 63.1824 112.494 58.6496 110.348L58.6629 110.335Z" fill="white" stroke="#1D1D1B" stroke-width="1.58246" stroke-miterlimit="10"/>
<path d="M42.4979 159.002L16.7638 146.777C15.9924 146.411 15.0698 146.739 14.7034 147.51L14.6118 147.703C14.2453 148.475 14.5736 149.397 15.3451 149.764L41.0792 161.988C41.8506 162.355 42.7731 162.027 43.1396 161.255L43.2312 161.063C43.5976 160.291 43.2694 159.369 42.4979 159.002Z" fill="white" stroke="#1D1D1B" stroke-width="1.58246" stroke-miterlimit="10"/>
<path d="M77.6731 106.255C73.4069 108.882 71.927 114.254 74.3934 118.254L88.6318 141.411L82.9658 144.891C78.6996 147.517 77.2198 152.89 79.6862 156.89C82.1392 160.889 87.6053 161.996 91.8715 159.369L107.456 149.784C110.523 147.891 111.589 144.038 109.816 141.158L105.617 134.319L104.11 131.879L89.8717 108.722C87.4186 104.722 81.9526 103.616 77.6864 106.242L77.6731 106.255Z" fill="white" stroke="#1D1D1B" stroke-width="1.58246" stroke-miterlimit="10"/>
<path d="M109.681 146.311L85.4123 161.236C84.6848 161.683 84.4577 162.635 84.9051 163.363L85.0168 163.545C85.4642 164.272 86.4167 164.499 87.1443 164.052L111.413 149.128C112.14 148.68 112.367 147.728 111.92 147L111.808 146.819C111.361 146.091 110.408 145.864 109.681 146.311Z" fill="white" stroke="#1D1D1B" stroke-width="1.58246" stroke-miterlimit="10"/>
<path d="M130.162 79.6984C130.162 79.6984 130.255 79.6318 130.308 79.5918C136.361 74.5123 137.148 65.5 132.068 59.4607C131.562 58.8474 131.002 58.3141 130.415 57.8075C130.442 57.7542 130.482 57.7142 130.508 57.6609C134.455 50.8216 132.108 42.0893 125.282 38.1431C124.589 37.7431 123.882 37.4231 123.163 37.1565C123.163 37.1032 123.189 37.0365 123.203 36.9832C124.576 29.2107 119.376 21.7982 111.604 20.425C110.817 20.2917 110.044 20.2384 109.271 20.2251C109.271 20.1717 109.271 20.1051 109.244 20.0517C107.871 12.2793 100.458 7.09319 92.6859 8.45304C91.8993 8.58636 91.1528 8.79967 90.4328 9.0663C90.4062 9.01298 90.3795 8.95965 90.3529 8.90632C86.4066 2.06709 77.6609 -0.265987 70.835 3.68024C70.1418 4.08019 69.5152 4.53348 68.9286 5.02675C68.8886 4.98676 68.8486 4.94676 68.7953 4.90677C62.7426 -0.172664 53.7303 0.627246 48.6642 6.66657C48.1576 7.27984 47.7176 7.91976 47.331 8.58636C47.2777 8.55969 47.2243 8.53303 47.171 8.5197C39.7585 5.82666 31.5461 9.63957 28.8531 17.0654C28.5864 17.812 28.3998 18.5719 28.2531 19.3185C28.1998 19.3185 28.1331 19.3185 28.0798 19.3185C20.1874 19.3185 13.7881 25.7178 13.7881 33.6102C13.7881 34.4101 13.8681 35.1834 13.988 35.9433C13.9347 35.9566 13.8814 35.97 13.8147 35.9966C6.40222 38.6897 2.576 46.9021 5.26903 54.3146C5.53567 55.0612 5.88228 55.7544 6.25557 56.4343C6.21558 56.4743 6.16225 56.501 6.10892 56.541C0.0562664 61.6204 -0.730302 70.6328 4.34913 76.6721C4.85574 77.2853 5.41567 77.8186 6.00227 78.3252C5.9756 78.3786 5.93562 78.4185 5.90895 78.4719C1.96273 85.3111 4.30913 94.0435 11.135 97.9897C11.8283 98.3896 12.5349 98.7096 13.2548 98.9762C13.2548 99.0296 13.2281 99.0962 13.2148 99.1496C11.8416 106.922 17.041 114.335 24.8135 115.708C25.6001 115.841 26.3733 115.894 27.1466 115.908C27.1466 115.961 27.1466 116.028 27.1732 116.081C28.5464 123.853 35.9589 129.04 43.7314 127.68C44.518 127.546 45.2645 127.333 45.9845 127.066C46.0111 127.12 46.0378 127.173 46.0645 127.226C50.0107 134.066 58.7564 136.399 65.5823 132.452C66.2755 132.053 66.9021 131.599 67.4887 131.106C67.5287 131.146 67.5687 131.186 67.622 131.226C73.6747 136.305 82.687 135.505 87.7531 129.466C88.2598 128.853 88.6997 128.213 89.0863 127.546C89.1397 127.573 89.193 127.6 89.2463 127.613C96.6588 130.306 104.871 126.493 107.564 119.067C107.831 118.321 108.018 117.561 108.164 116.814C108.218 116.814 108.284 116.814 108.338 116.814C116.23 116.814 122.629 110.415 122.629 102.523C122.629 101.723 122.549 100.949 122.429 100.189C122.483 100.176 122.536 100.163 122.603 100.136C130.015 97.4431 133.841 89.2307 131.148 81.8182C130.882 81.0716 130.535 80.3783 130.162 79.6984Z" fill="#FFC438" stroke="#1D1D1B" stroke-width="1.58246" stroke-miterlimit="10"/>
<path d="M56.8094 54.408C56.8094 48.6207 52.1179 43.9292 46.3306 43.9292C40.5433 43.9292 35.8518 48.6207 35.8518 54.408V74.7124C35.8518 80.4997 40.5433 85.1912 46.3306 85.1912C52.1179 85.1912 56.8094 80.4997 56.8094 74.7124V54.408Z" fill="white" stroke="#1D1D1B" stroke-width="1.58246" stroke-miterlimit="10"/>
<path d="M81.8854 54.408C81.8854 48.6207 77.1939 43.9292 71.4066 43.9292C65.6193 43.9292 60.9277 48.6207 60.9277 54.408V74.7124C60.9277 80.4997 65.6193 85.1912 71.4066 85.1912C77.1939 85.1912 81.8854 80.4997 81.8854 74.7124V54.408Z" fill="white" stroke="#1D1D1B" stroke-width="1.58246" stroke-miterlimit="10"/>
<path d="M51.809 53.6363C51.809 49.4932 48.2075 46.1345 43.7649 46.1345C39.3222 46.1345 35.7207 49.4932 35.7207 53.6363V75.6807C35.7207 79.8239 39.3222 83.1825 43.7649 83.1825C48.2075 83.1825 51.809 79.8239 51.809 75.6807V53.6363Z" fill="#1D1D1B"/>
<path d="M76.8659 53.6363C76.8659 49.4932 73.2644 46.1345 68.8218 46.1345C64.3791 46.1345 60.7776 49.4932 60.7776 53.6363V75.6807C60.7776 79.8239 64.3791 83.1825 68.8218 83.1825C73.2644 83.1825 76.8659 79.8239 76.8659 75.6807V53.6363Z" fill="#1D1D1B"/>
<path d="M71.223 55.2805C72.5999 55.2805 73.7161 54.1644 73.7161 52.7875C73.7161 51.4106 72.5999 50.2944 71.223 50.2944C69.8462 50.2944 68.73 51.4106 68.73 52.7875C68.73 54.1644 69.8462 55.2805 71.223 55.2805Z" fill="white" stroke="#1D1D1B" stroke-width="1.58246" stroke-miterlimit="10"/>
<path d="M45.6247 55.2805C47.0015 55.2805 48.1177 54.1644 48.1177 52.7875C48.1177 51.4106 47.0015 50.2944 45.6247 50.2944C44.2478 50.2944 43.1316 51.4106 43.1316 52.7875C43.1316 54.1644 44.2478 55.2805 45.6247 55.2805Z" fill="white" stroke="#1D1D1B" stroke-width="1.58246" stroke-miterlimit="10"/>
</svg>
