<svg width="134" height="193" viewBox="0 0 134 193" fill="none" xmlns="http://www.w3.org/2000/svg">
<ellipse opacity="0.3" cx="64.6165" cy="181.192" rx="51.6937" ry="11.6047" fill="#222222"/>
<path d="M57.6627 109.454C53.1298 107.308 47.8238 109.001 45.8106 113.241L34.1453 137.798L28.1326 134.945C23.5998 132.798 18.2937 134.492 16.2806 138.731C14.2675 142.971 16.3073 148.157 20.8401 150.303L37.3583 158.156C40.6112 159.702 44.4241 158.489 45.8773 155.436L49.3169 148.183L50.5435 145.597L62.2088 121.04C64.2219 116.8 62.1822 111.614 57.6493 109.468L57.6627 109.454Z" fill="white" stroke="#1D1D1B" stroke-width="1.58246" stroke-miterlimit="10"/>
<path d="M41.4976 158.121L15.7636 145.897C14.9921 145.53 14.0696 145.858 13.7031 146.63L13.6116 146.822C13.2451 147.594 13.5734 148.516 14.3449 148.883L40.0789 161.108C40.8504 161.474 41.7729 161.146 42.1394 160.375L42.2309 160.182C42.5974 159.41 42.2691 158.488 41.4976 158.121Z" fill="white" stroke="#1D1D1B" stroke-width="1.58246" stroke-miterlimit="10"/>
<path d="M76.6731 105.375C72.4069 108.001 70.927 113.374 73.3934 117.373L87.6318 140.531L81.9658 144.01C77.6996 146.637 76.2198 152.009 78.6862 156.009C81.1392 160.009 86.6053 161.115 90.8715 158.489L106.456 148.903C109.523 147.01 110.589 143.157 108.816 140.277L104.617 133.438L103.11 130.998L88.8717 107.841C86.4186 103.841 80.9526 102.735 76.6864 105.361L76.6731 105.375Z" fill="white" stroke="#1D1D1B" stroke-width="1.58246" stroke-miterlimit="10"/>
<path d="M108.68 145.431L84.4121 160.355C83.6845 160.802 83.4574 161.755 83.9048 162.482L84.0166 162.664C84.464 163.392 85.4165 163.619 86.144 163.171L110.412 148.247C111.14 147.8 111.367 146.847 110.92 146.12L110.808 145.938C110.361 145.21 109.408 144.983 108.68 145.431Z" fill="white" stroke="#1D1D1B" stroke-width="1.58246" stroke-miterlimit="10"/>
<path d="M24.046 123.163L24.046 123.163L1.09298 52.4778C1.09296 52.4777 1.09294 52.4777 1.09293 52.4776C0.27225 49.9484 1.16364 47.2038 3.30988 45.6456L3.31028 45.6453L63.4015 1.95845L63.4016 1.95836C64.4533 1.19347 65.6915 0.79123 66.9925 0.79123C68.2934 0.79123 69.5316 1.19347 70.5833 1.95836L70.5834 1.95843L130.671 45.6451C132.818 47.2071 133.709 49.9522 132.889 52.4775L132.889 52.4777L109.939 123.163L109.939 123.163C109.118 125.692 106.784 127.388 104.131 127.388H29.8543C27.1982 127.388 24.8666 125.692 24.046 123.163Z" fill="#FFC438" stroke="black" stroke-width="1.58246"/>
<path d="M55.8092 53.5274C55.8092 47.7401 51.1177 43.0486 45.3304 43.0486C39.5431 43.0486 34.8516 47.7401 34.8516 53.5274V73.8318C34.8516 79.6191 39.5431 84.3106 45.3304 84.3106C51.1177 84.3106 55.8092 79.6191 55.8092 73.8318V53.5274Z" fill="white" stroke="#1D1D1B" stroke-width="1.58246" stroke-miterlimit="10"/>
<path d="M80.8854 53.5274C80.8854 47.7401 76.1939 43.0486 70.4066 43.0486C64.6193 43.0486 59.9277 47.7401 59.9277 53.5274V73.8318C59.9277 79.6191 64.6193 84.3106 70.4066 84.3106C76.1939 84.3106 80.8854 79.6191 80.8854 73.8318V53.5274Z" fill="white" stroke="#1D1D1B" stroke-width="1.58246" stroke-miterlimit="10"/>
<path d="M50.9018 52.6017C50.9018 48.4585 47.3003 45.0999 42.8576 45.0999C38.415 45.0999 34.8135 48.4585 34.8135 52.6017V74.6461C34.8135 78.7892 38.415 82.1479 42.8576 82.1479C47.3003 82.1479 50.9018 78.7892 50.9018 74.6461V52.6017Z" fill="#1D1D1B"/>
<path d="M75.9577 52.6017C75.9577 48.4585 72.3562 45.0999 67.9136 45.0999C63.4709 45.0999 59.8694 48.4585 59.8694 52.6017V74.6461C59.8694 78.7892 63.4709 82.1479 67.9136 82.1479C72.3562 82.1479 75.9577 78.7892 75.9577 74.6461V52.6017Z" fill="#1D1D1B"/>
<path d="M70.3148 54.2459C71.6917 54.2459 72.8079 53.1297 72.8079 51.7528C72.8079 50.3759 71.6917 49.2598 70.3148 49.2598C68.9379 49.2598 67.8218 50.3759 67.8218 51.7528C67.8218 53.1297 68.9379 54.2459 70.3148 54.2459Z" fill="white" stroke="#1D1D1B" stroke-width="1.58246" stroke-miterlimit="10"/>
<path d="M44.7165 54.2459C46.0933 54.2459 47.2095 53.1297 47.2095 51.7528C47.2095 50.3759 46.0933 49.2598 44.7165 49.2598C43.3396 49.2598 42.2234 50.3759 42.2234 51.7528C42.2234 53.1297 43.3396 54.2459 44.7165 54.2459Z" fill="white" stroke="#1D1D1B" stroke-width="1.58246" stroke-miterlimit="10"/>
</svg>
