<svg width="100%" height="310" viewBox="0 0 310 310" fill="none" xmlns="http://www.w3.org/2000/svg">
<g clip-path="url(#clip0_1531_15400)">
<path d="M241.259 176.089C301.631 176.533 279.708 218.183 226.854 254.411C174 290.639 101.785 277.16 65.5567 224.306C29.3289 171.452 27.3785 61.8199 90.2588 42.0896C153.139 22.3593 156.055 175.462 241.259 176.089Z" fill="#D3D8B4"/>
<ellipse opacity="0.3" cx="163.607" cy="242.369" rx="53.4561" ry="12.0003" fill="#222222"/>
<path d="M156.415 168.186C151.728 165.966 146.241 167.717 144.159 172.101L132.096 197.496L125.879 194.545C121.191 192.326 115.704 194.077 113.623 198.461C111.541 202.845 113.65 208.208 118.337 210.427L135.419 218.547C138.783 220.147 142.726 218.892 144.228 215.735L147.785 208.235L149.053 205.561L161.117 180.166C163.198 175.782 161.089 170.419 156.402 168.2L156.415 168.186Z" fill="white" stroke="#1D1D1B" stroke-width="1.63641" stroke-miterlimit="10"/>
<path d="M139.7 218.513L113.089 205.871C112.291 205.492 111.337 205.832 110.958 206.629L110.864 206.829C110.485 207.626 110.824 208.58 111.622 208.959L138.233 221.601C139.031 221.98 139.985 221.64 140.364 220.843L140.459 220.643C140.838 219.846 140.498 218.892 139.7 218.513Z" fill="white" stroke="#1D1D1B" stroke-width="1.63641" stroke-miterlimit="10"/>
<path d="M176.075 163.967C171.663 166.683 170.133 172.239 172.683 176.375L187.407 200.322L181.548 203.92C177.136 206.636 175.606 212.192 178.156 216.328C180.693 220.464 186.345 221.608 190.757 218.892L206.873 208.98C210.044 207.022 211.147 203.038 209.314 200.06L204.971 192.987L203.413 190.465L188.689 166.518C186.152 162.382 180.5 161.237 176.088 163.953L176.075 163.967Z" fill="white" stroke="#1D1D1B" stroke-width="1.63641" stroke-miterlimit="10"/>
<path d="M209.173 205.389L184.078 220.822C183.325 221.285 183.09 222.27 183.553 223.022L183.669 223.21C184.131 223.962 185.116 224.197 185.869 223.735L210.964 208.302C211.717 207.839 211.952 206.854 211.489 206.102L211.373 205.914C210.911 205.161 209.926 204.927 209.173 205.389Z" fill="white" stroke="#1D1D1B" stroke-width="1.63641" stroke-miterlimit="10"/>
<path d="M229.806 135.8C229.806 135.8 229.903 135.731 229.958 135.69C236.217 130.437 237.031 121.118 231.778 114.873C231.254 114.238 230.675 113.687 230.068 113.163C230.096 113.108 230.137 113.067 230.165 113.011C234.246 105.939 231.819 96.909 224.761 92.8282C224.044 92.4146 223.313 92.0837 222.569 91.808C222.569 91.7529 222.596 91.6839 222.61 91.6288C224.03 83.5913 218.653 75.9261 210.616 74.5061C209.802 74.3683 209.003 74.3131 208.203 74.2993C208.203 74.2442 208.203 74.1752 208.176 74.1201C206.756 66.0826 199.09 60.7198 191.053 62.126C190.24 62.2638 189.468 62.4844 188.723 62.7601C188.695 62.705 188.668 62.6498 188.64 62.5947C184.56 55.5223 175.516 53.1097 168.457 57.1904C167.74 57.604 167.092 58.0728 166.486 58.5829C166.444 58.5415 166.403 58.5001 166.348 58.4588C160.089 53.2062 150.769 54.0334 145.53 60.2786C145.007 60.9128 144.552 61.5745 144.152 62.2638C144.097 62.2363 144.041 62.2087 143.986 62.1949C136.321 59.41 127.829 63.3529 125.044 71.032C124.768 71.804 124.575 72.5898 124.423 73.3619C124.368 73.3619 124.299 73.3619 124.244 73.3619C116.083 73.3619 109.465 79.9793 109.465 88.1408C109.465 88.968 109.548 89.7676 109.672 90.5534C109.617 90.5672 109.562 90.581 109.493 90.6086C101.828 93.3934 97.8709 101.886 100.656 109.551C100.932 110.323 101.29 111.04 101.676 111.743C101.635 111.784 101.579 111.812 101.524 111.853C95.2653 117.106 94.4519 126.426 99.7045 132.671C100.228 133.305 100.807 133.856 101.414 134.38C101.386 134.435 101.345 134.477 101.318 134.532C97.2368 141.604 99.6632 150.634 106.722 154.715C107.439 155.129 108.169 155.46 108.914 155.735C108.914 155.791 108.886 155.859 108.872 155.915C107.452 163.952 112.829 171.617 120.867 173.037C121.68 173.175 122.48 173.23 123.279 173.244C123.279 173.299 123.279 173.368 123.307 173.423C124.727 181.461 132.392 186.824 140.429 185.417C141.243 185.28 142.015 185.059 142.759 184.783C142.787 184.838 142.814 184.894 142.842 184.949C146.923 192.021 155.967 194.434 163.025 190.353C163.742 189.939 164.39 189.471 164.997 188.961C165.038 189.002 165.079 189.043 165.135 189.085C171.394 194.337 180.713 193.51 185.952 187.265C186.476 186.631 186.931 185.969 187.331 185.28C187.386 185.307 187.441 185.335 187.496 185.348C195.161 188.133 203.654 184.19 206.439 176.511C206.714 175.739 206.907 174.954 207.059 174.182C207.114 174.182 207.183 174.182 207.238 174.182C215.4 174.182 222.017 167.564 222.017 159.403C222.017 158.575 221.934 157.776 221.81 156.99C221.865 156.976 221.921 156.962 221.99 156.935C229.655 154.15 233.611 145.658 230.827 137.992C230.551 137.22 230.192 136.503 229.806 135.8V135.8Z" fill="#47E4AC" stroke="#1D1D1B" stroke-width="1.63641" stroke-miterlimit="10"/>
<path d="M154.499 110.353C154.499 104.368 149.648 99.5166 143.663 99.5166C137.679 99.5166 132.827 104.368 132.827 110.353V131.349C132.827 137.334 137.679 142.185 143.663 142.185C149.648 142.185 154.499 137.334 154.499 131.349V110.353Z" fill="white" stroke="#1D1D1B" stroke-width="1.63641" stroke-miterlimit="10"/>
<path d="M180.431 110.353C180.431 104.368 175.579 99.5166 169.595 99.5166C163.61 99.5166 158.759 104.368 158.759 110.353V131.349C158.759 137.334 163.61 142.185 169.595 142.185C175.579 142.185 180.431 137.334 180.431 131.349V110.353Z" fill="white" stroke="#1D1D1B" stroke-width="1.63641" stroke-miterlimit="10"/>
<path d="M149.424 109.395C149.424 105.111 145.7 101.638 141.106 101.638C136.511 101.638 132.787 105.111 132.787 109.395V132.191C132.787 136.476 136.511 139.949 141.106 139.949C145.7 139.949 149.424 136.476 149.424 132.191V109.395Z" fill="#1D1D1B"/>
<path d="M175.334 109.395C175.334 105.111 171.61 101.638 167.016 101.638C162.422 101.638 158.697 105.111 158.697 109.395V132.191C158.697 136.476 162.422 139.949 167.016 139.949C171.61 139.949 175.334 136.476 175.334 132.191V109.395Z" fill="#1D1D1B"/>
<path d="M169.5 111.096C170.924 111.096 172.078 109.942 172.078 108.518C172.078 107.094 170.924 105.94 169.5 105.94C168.076 105.94 166.922 107.094 166.922 108.518C166.922 109.942 168.076 111.096 169.5 111.096Z" fill="white" stroke="#1D1D1B" stroke-width="1.63641" stroke-miterlimit="10"/>
<path d="M143.029 111.096C144.453 111.096 145.607 109.942 145.607 108.518C145.607 107.094 144.453 105.94 143.029 105.94C141.605 105.94 140.451 107.094 140.451 108.518C140.451 109.942 141.605 111.096 143.029 111.096Z" fill="white" stroke="#1D1D1B" stroke-width="1.63641" stroke-miterlimit="10"/>
<rect x="156.89" y="133.459" width="26.597" height="12.6565" rx="1.00885" fill="url(#paint0_linear_1531_15400)" stroke="#222222" stroke-width="0.917139"/>
<rect x="128.459" y="133.459" width="26.597" height="12.6565" rx="1.00885" fill="url(#paint1_linear_1531_15400)" stroke="#222222" stroke-width="0.917139"/>
<rect x="155.514" y="136.485" width="1.28399" height="0.917139" fill="#222222"/>
</g>
<defs>
<linearGradient id="paint0_linear_1531_15400" x1="170.189" y1="133" x2="170.189" y2="146.574" gradientUnits="userSpaceOnUse">
<stop stop-color="#222222"/>
<stop offset="1" stop-color="#222222" stop-opacity="0"/>
</linearGradient>
<linearGradient id="paint1_linear_1531_15400" x1="141.757" y1="133" x2="141.757" y2="146.574" gradientUnits="userSpaceOnUse">
<stop stop-color="#222222"/>
<stop offset="1" stop-color="#222222" stop-opacity="0"/>
</linearGradient>
<clipPath id="clip0_1531_15400">
<rect width="310" height="310" fill="white"/>
</clipPath>
</defs>
</svg>
