<svg width="100%" height="310" viewBox="0 0 310 310" fill="none" xmlns="http://www.w3.org/2000/svg">
<g clip-path="url(#clip0_1531_15425)">
<path d="M241.259 176.089C301.631 176.533 279.708 218.183 226.854 254.411C174 290.639 101.785 277.16 65.5567 224.306C29.3289 171.452 27.3785 61.8199 90.2588 42.0896C153.139 22.3593 156.055 175.462 241.259 176.089Z" fill="#CDD888"/>
<ellipse opacity="0.3" cx="180.124" cy="224.416" rx="52.899" ry="11.8753" fill="#222222"/>
<path d="M173.007 151.006C168.369 148.81 162.939 150.542 160.879 154.881L148.942 180.011L142.789 177.091C138.15 174.895 132.721 176.627 130.661 180.966C128.6 185.304 130.688 190.611 135.326 192.807L152.23 200.843C155.558 202.426 159.46 201.184 160.947 198.06L164.467 190.638L165.722 187.992L177.66 162.862C179.72 158.523 177.632 153.216 172.994 151.02L173.007 151.006Z" fill="white" stroke="#1D1D1B" stroke-width="1.61936" stroke-miterlimit="10"/>
<path d="M156.466 200.808L130.132 188.298C129.343 187.923 128.399 188.259 128.024 189.049L127.93 189.246C127.555 190.035 127.891 190.979 128.68 191.355L155.014 203.864C155.804 204.24 156.748 203.904 157.123 203.114L157.217 202.917C157.592 202.127 157.256 201.183 156.466 200.808Z" fill="white" stroke="#1D1D1B" stroke-width="1.61936" stroke-miterlimit="10"/>
<path d="M192.462 146.832C188.096 149.519 186.582 155.017 189.106 159.11L203.676 182.807L197.878 186.368C193.512 189.056 191.998 194.554 194.522 198.646C197.032 202.739 202.626 203.872 206.991 201.184L222.94 191.375C226.078 189.438 227.169 185.495 225.354 182.548L221.057 175.549L219.515 173.053L204.945 149.355C202.435 145.263 196.841 144.13 192.476 146.818L192.462 146.832Z" fill="white" stroke="#1D1D1B" stroke-width="1.61936" stroke-miterlimit="10"/>
<path d="M225.216 187.822L200.381 203.094C199.637 203.552 199.404 204.526 199.862 205.271L199.977 205.457C200.434 206.201 201.409 206.434 202.154 205.976L226.988 190.704C227.732 190.246 227.965 189.271 227.507 188.527L227.393 188.341C226.935 187.596 225.96 187.364 225.216 187.822Z" fill="white" stroke="#1D1D1B" stroke-width="1.61936" stroke-miterlimit="10"/>
<path d="M138.607 165.035L138.607 165.035L115.118 92.7013C114.279 90.1131 115.191 87.3044 117.387 85.7098L117.387 85.7095L178.88 41.0041L178.88 41.004C179.956 40.2213 181.223 39.8097 182.554 39.8097C183.886 39.8097 185.153 40.2213 186.229 41.004L186.229 41.0041L247.718 85.7094C247.718 85.7094 247.718 85.7095 247.718 85.7095C249.915 87.3079 250.827 90.1169 249.987 92.7011L249.987 92.7012L226.502 165.035L226.502 165.035C225.663 167.622 223.273 169.358 220.559 169.358H144.55C141.832 169.358 139.446 167.622 138.607 165.035Z" fill="#47E460" stroke="black" stroke-width="1.61936"/>
<path d="M171.111 93.7754C171.111 87.8532 166.31 83.0522 160.388 83.0522C154.466 83.0522 149.665 87.8532 149.665 93.7754V114.553C149.665 120.475 154.466 125.276 160.388 125.276C166.31 125.276 171.111 120.475 171.111 114.553V93.7754Z" fill="white" stroke="#1D1D1B" stroke-width="1.61936" stroke-miterlimit="10"/>
<path d="M196.773 93.7754C196.773 87.8532 191.972 83.0522 186.05 83.0522C180.128 83.0522 175.327 87.8532 175.327 93.7754V114.553C175.327 120.475 180.128 125.276 186.05 125.276C191.972 125.276 196.773 120.475 196.773 114.553V93.7754Z" fill="white" stroke="#1D1D1B" stroke-width="1.61936" stroke-miterlimit="10"/>
<path d="M166.089 92.8283C166.089 88.5886 162.404 85.1516 157.858 85.1516C153.311 85.1516 149.626 88.5886 149.626 92.8283V115.387C149.626 119.626 153.311 123.063 157.858 123.063C162.404 123.063 166.089 119.626 166.089 115.387V92.8283Z" fill="#1D1D1B"/>
<path d="M191.729 92.8283C191.729 88.5886 188.044 85.1516 183.497 85.1516C178.951 85.1516 175.266 88.5886 175.266 92.8283V115.387C175.266 119.626 178.951 123.063 183.497 123.063C188.044 123.063 191.729 119.626 191.729 115.387V92.8283Z" fill="#1D1D1B"/>
<path d="M185.955 94.5108C187.364 94.5108 188.506 93.3686 188.506 91.9596C188.506 90.5507 187.364 89.4084 185.955 89.4084C184.546 89.4084 183.404 90.5507 183.404 91.9596C183.404 93.3686 184.546 94.5108 185.955 94.5108Z" fill="white" stroke="#1D1D1B" stroke-width="1.61936" stroke-miterlimit="10"/>
<path d="M159.761 94.5108C161.17 94.5108 162.312 93.3686 162.312 91.9596C162.312 90.5507 161.17 89.4084 159.761 89.4084C158.352 89.4084 157.209 90.5507 157.209 91.9596C157.209 93.3686 158.352 94.5108 159.761 94.5108Z" fill="white" stroke="#1D1D1B" stroke-width="1.61936" stroke-miterlimit="10"/>
<path d="M131.019 69.3655H233.832C235.977 69.3655 237.716 71.1046 237.716 73.2498V77.134H128.875V71.5096C128.875 70.3255 129.835 69.3655 131.019 69.3655Z" fill="#FF4E4E" stroke="#222222" stroke-width="1.4386"/>
<rect x="128.876" y="74.5463" width="108.998" height="2.59322" fill="white" stroke="#222222" stroke-width="1.44068"/>
<path d="M133.005 66.7054H232.896C234.473 66.7054 235.792 67.814 236.115 69.2946H129.786C130.109 67.814 131.428 66.7054 133.005 66.7054Z" fill="white" stroke="#222222" stroke-width="1.41077"/>
</g>
<defs>
<clipPath id="clip0_1531_15425">
<rect width="310" height="310" fill="white"/>
</clipPath>
</defs>
</svg>
