<svg width="100%" height="310" viewBox="0 0 310 310" fill="none" xmlns="http://www.w3.org/2000/svg">
<g clip-path="url(#clip0_1531_15450)">
<path d="M241.259 176.089C301.631 176.533 279.708 218.183 226.854 254.411C174 290.639 101.785 277.16 65.5567 224.306C29.3289 171.452 27.3785 61.8199 90.2588 42.0896C153.139 22.3593 156.055 175.462 241.259 176.089Z" fill="#FFD9E0"/>
<ellipse opacity="0.3" cx="180.347" cy="228.594" rx="53.4561" ry="12.0003" fill="#222222"/>
<path d="M164.548 183.371C168.828 179.09 168.828 172.151 164.548 167.871C160.268 163.59 153.328 163.59 149.048 167.871L132.242 184.677C127.961 188.957 127.961 195.897 132.242 200.177C136.522 204.457 143.461 204.457 147.742 200.177L164.548 183.371Z" fill="white" stroke="#1D1D1B" stroke-width="1.63641" stroke-miterlimit="10"/>
<path d="M245.324 138.39C245.324 138.39 245.421 138.321 245.476 138.28C251.735 133.027 252.548 123.707 247.295 117.462C246.772 116.828 246.193 116.277 245.586 115.753C245.614 115.698 245.655 115.656 245.682 115.601C249.763 108.529 247.337 99.4986 240.278 95.4178C239.561 95.0042 238.831 94.6733 238.086 94.3976C238.086 94.3425 238.114 94.2735 238.128 94.2184C239.548 86.1809 234.171 78.5157 226.133 77.0957C225.32 76.9579 224.52 76.9027 223.721 76.8889C223.721 76.8338 223.721 76.7648 223.693 76.7097C222.273 68.6722 214.608 63.3094 206.571 64.7156C205.757 64.8534 204.985 65.074 204.241 65.3497C204.213 65.2946 204.186 65.2394 204.158 65.1843C200.077 58.1119 191.033 55.6993 183.975 59.78C183.258 60.1936 182.61 60.6624 182.003 61.1725C181.962 61.1311 181.921 61.0897 181.865 61.0484C175.606 55.7958 166.287 56.623 161.048 62.8682C160.524 63.5024 160.069 64.1641 159.669 64.8534C159.614 64.8259 159.559 64.7983 159.504 64.7845C151.839 61.9996 143.346 65.9425 140.561 73.6216C140.286 74.3936 140.093 75.1794 139.941 75.9514C139.886 75.9514 139.817 75.9514 139.762 75.9514C131.6 75.9514 124.983 82.5689 124.983 90.7304C124.983 91.5576 125.066 92.3572 125.19 93.143C125.134 93.1568 125.079 93.1706 125.01 93.1982C117.345 95.983 113.389 104.475 116.173 112.141C116.449 112.913 116.808 113.63 117.194 114.333C117.152 114.374 117.097 114.402 117.042 114.443C110.783 119.696 109.969 129.015 115.222 135.26C115.746 135.895 116.325 136.446 116.932 136.97C116.904 137.025 116.863 137.066 116.835 137.122C112.754 144.194 115.181 153.224 122.239 157.305C122.956 157.718 123.687 158.049 124.431 158.325C124.431 158.38 124.404 158.449 124.39 158.504C122.97 166.542 128.347 174.207 136.384 175.627C137.198 175.765 137.997 175.82 138.797 175.834C138.797 175.889 138.797 175.958 138.824 176.013C140.244 184.05 147.91 189.413 155.947 188.007C156.76 187.869 157.532 187.649 158.277 187.373C158.304 187.428 158.332 187.483 158.36 187.538C162.44 194.611 171.484 197.023 178.543 192.943C179.26 192.529 179.908 192.06 180.514 191.55C180.556 191.591 180.597 191.633 180.652 191.674C186.911 196.927 196.231 196.1 201.47 189.854C201.993 189.22 202.448 188.558 202.848 187.869C202.903 187.897 202.959 187.924 203.014 187.938C210.679 190.723 219.171 186.78 221.956 179.101C222.232 178.329 222.425 177.543 222.577 176.771C222.632 176.771 222.701 176.771 222.756 176.771C230.917 176.771 237.535 170.154 237.535 161.992C237.535 161.165 237.452 160.365 237.328 159.58C237.383 159.566 237.438 159.552 237.507 159.524C245.172 156.74 249.129 148.247 246.344 140.582C246.069 139.81 245.71 139.093 245.324 138.39V138.39Z" fill="#FF4E6E" stroke="#1D1D1B" stroke-width="1.68107" stroke-miterlimit="10"/>
<path d="M169.471 112.237C169.471 106.253 164.62 101.401 158.635 101.401C152.651 101.401 147.799 106.253 147.799 112.237V133.234C147.799 139.218 152.651 144.07 158.635 144.07C164.62 144.07 169.471 139.218 169.471 133.234V112.237Z" fill="white" stroke="#1D1D1B" stroke-width="1.63641" stroke-miterlimit="10"/>
<path d="M195.404 112.237C195.404 106.253 190.552 101.401 184.568 101.401C178.583 101.401 173.731 106.253 173.731 112.237V133.234C173.731 139.218 178.583 144.07 184.568 144.07C190.552 144.07 195.404 139.218 195.404 133.234V112.237Z" fill="white" stroke="#1D1D1B" stroke-width="1.63641" stroke-miterlimit="10"/>
<path d="M169.472 110.541C169.472 105.957 165.759 102.242 161.179 102.242C156.599 102.242 152.887 105.957 152.887 110.541V132.255C152.887 136.838 156.599 140.554 161.179 140.554C165.759 140.554 169.472 136.838 169.472 132.255V110.541Z" fill="#1D1D1B"/>
<path d="M195.404 110.541C195.404 105.957 191.691 102.242 187.111 102.242C182.532 102.242 178.819 105.957 178.819 110.541V132.255C178.819 136.838 182.532 140.554 187.111 140.554C191.691 140.554 195.404 136.838 195.404 132.255V110.541Z" fill="#1D1D1B"/>
<path d="M201.237 190.751C205.518 186.471 205.518 179.531 201.237 175.251C196.957 170.971 190.018 170.971 185.737 175.251L171.222 189.767C166.942 194.047 166.942 200.986 171.222 205.267C175.502 209.547 182.442 209.547 186.722 205.267L201.237 190.751Z" fill="white" stroke="#1D1D1B" stroke-width="1.63641" stroke-miterlimit="10"/>
<path d="M180.376 210.299H180.39C186.877 210.299 192.136 205.04 192.136 198.553V181.651C192.136 175.164 186.877 169.905 180.39 169.905H180.376C173.889 169.905 168.63 175.164 168.63 181.651V198.553C168.63 205.04 173.889 210.299 180.376 210.299Z" fill="white" stroke="#1D1D1B" stroke-width="1.63641" stroke-miterlimit="10"/>
<path d="M177.357 210.961H177.371C183.736 210.961 188.896 205.801 188.896 199.436V182.093C188.896 175.727 183.736 170.567 177.371 170.567H177.357C170.992 170.567 165.832 175.727 165.832 182.093V199.436C165.832 205.801 170.992 210.961 177.357 210.961Z" fill="white" stroke="#1D1D1B" stroke-width="1.63641" stroke-miterlimit="10"/>
<path d="M138.521 206.522H138.535C145.022 206.522 150.281 201.263 150.281 194.776V177.874C150.281 171.387 145.022 166.128 138.535 166.128H138.521C132.034 166.128 126.775 171.387 126.775 177.874V194.776C126.775 201.263 132.034 206.522 138.521 206.522Z" fill="white" stroke="#1D1D1B" stroke-width="1.63641" stroke-miterlimit="10"/>
<path d="M135.516 207.184H135.53C141.895 207.184 147.055 202.023 147.055 195.658V178.315C147.055 171.95 141.895 166.79 135.53 166.79H135.516C129.151 166.79 123.991 171.95 123.991 178.315V195.658C123.991 202.023 129.151 207.184 135.516 207.184Z" fill="white" stroke="#1D1D1B" stroke-width="1.63641" stroke-miterlimit="10"/>
<path d="M135.516 207.17C129.147 207.17 123.991 202 123.991 195.645V193.246H147.055V195.645C147.055 202.014 141.885 207.17 135.53 207.17H135.516Z" fill="white" stroke="#1D1D1B" stroke-width="1.63641" stroke-miterlimit="10"/>
<path d="M177.357 210.961C170.988 210.961 165.832 205.791 165.832 199.436V197.037H188.896V199.436C188.896 205.805 183.727 210.961 177.371 210.961H177.357Z" fill="white" stroke="#1D1D1B" stroke-width="1.63641" stroke-miterlimit="10"/>
<path d="M189.559 111.617C190.982 111.617 192.137 110.462 192.137 109.039C192.137 107.615 190.982 106.46 189.559 106.46C188.135 106.46 186.98 107.615 186.98 109.039C186.98 110.462 188.135 111.617 189.559 111.617Z" fill="white" stroke="#1D1D1B" stroke-width="1.63641" stroke-miterlimit="10"/>
<path d="M163.088 111.617C164.512 111.617 165.666 110.462 165.666 109.039C165.666 107.615 164.512 106.46 163.088 106.46C161.664 106.46 160.51 107.615 160.51 109.039C160.51 110.462 161.664 111.617 163.088 111.617Z" fill="white" stroke="#1D1D1B" stroke-width="1.63641" stroke-miterlimit="10"/>
<path d="M245.632 138L235.493 154.713" stroke="black" stroke-width="1.41528" stroke-linecap="round"/>
<line x1="115.981" y1="142.985" x2="195.913" y2="164.213" stroke="black" stroke-width="1.37361" stroke-linecap="round"/>
<rect x="194.13" y="158.11" width="42.4918" height="29.7443" rx="4.6741" transform="rotate(-10.8045 194.13 158.11)" fill="#DFDFDF" stroke="#222222" stroke-width="1.41639"/>
<rect x="194.13" y="158.11" width="42.4918" height="12.181" rx="4.6741" transform="rotate(-10.8045 194.13 158.11)" fill="white" stroke="black" stroke-width="1.41639"/>
<rect x="214.976" y="163.072" width="5.09902" height="12.181" rx="2.54951" transform="rotate(-10.8045 214.976 163.072)" fill="#FF4E4E" stroke="black" stroke-width="1.41639"/>
</g>
<defs>
<clipPath id="clip0_1531_15450">
<rect width="310" height="310" fill="white"/>
</clipPath>
</defs>
</svg>
