<svg width="100%" height="310" viewBox="0 0 310 310" fill="none" xmlns="http://www.w3.org/2000/svg">
<g clip-path="url(#clip0_1531_15228)">
<path d="M241.259 176.089C301.631 176.533 279.708 218.183 226.854 254.411C174 290.639 101.785 277.16 65.5567 224.306C29.3289 171.452 27.3785 61.8199 90.2588 42.0896C153.139 22.3593 156.055 175.462 241.259 176.089Z" fill="#FF758E"/>
<ellipse opacity="0.3" cx="177.366" cy="234.959" rx="53.4561" ry="12.0003" fill="#222222"/>
<path d="M170.174 160.775C165.487 158.556 160 160.307 157.918 164.691L145.855 190.085L139.637 187.135C134.95 184.915 129.463 186.666 127.381 191.05C125.3 195.434 127.409 200.797 132.096 203.017L149.178 211.137C152.541 212.736 156.484 211.482 157.987 208.324L161.544 200.825L162.812 198.15L174.875 172.756C176.957 168.372 174.848 163.009 170.16 160.789L170.174 160.775Z" fill="white" stroke="#1D1D1B" stroke-width="1.63641" stroke-miterlimit="10"/>
<path d="M153.459 211.102L126.848 198.461C126.05 198.082 125.096 198.421 124.717 199.219L124.622 199.418C124.243 200.216 124.583 201.17 125.381 201.549L151.992 214.191C152.79 214.57 153.744 214.23 154.123 213.432L154.218 213.233C154.596 212.435 154.257 211.481 153.459 211.102Z" fill="white" stroke="#1D1D1B" stroke-width="1.63641" stroke-miterlimit="10"/>
<path d="M189.833 156.557C185.422 159.273 183.891 164.829 186.442 168.964L201.166 192.911L195.307 196.51C190.895 199.226 189.365 204.781 191.915 208.917C194.452 213.053 200.104 214.198 204.516 211.482L220.632 201.569C223.803 199.612 224.906 195.627 223.072 192.649L218.73 185.577L217.172 183.054L202.448 159.107C199.911 154.971 194.259 153.827 189.847 156.543L189.833 156.557Z" fill="white" stroke="#1D1D1B" stroke-width="1.63641" stroke-miterlimit="10"/>
<path d="M222.933 197.979L197.837 213.412C197.085 213.874 196.85 214.859 197.312 215.612L197.428 215.8C197.891 216.552 198.876 216.787 199.628 216.324L224.724 200.891C225.476 200.428 225.711 199.444 225.248 198.691L225.133 198.503C224.67 197.751 223.685 197.516 222.933 197.979Z" fill="white" stroke="#1D1D1B" stroke-width="1.63641" stroke-miterlimit="10"/>
<path d="M243.565 128.39C243.565 128.39 243.662 128.321 243.717 128.28C249.976 123.027 250.789 113.707 245.537 107.462C245.013 106.828 244.434 106.277 243.827 105.753C243.855 105.698 243.896 105.656 243.924 105.601C248.004 98.5286 245.578 89.4986 238.519 85.4178C237.803 85.0042 237.072 84.6733 236.327 84.3976C236.327 84.3425 236.355 84.2735 236.369 84.2184C237.789 76.1809 232.412 68.5157 224.375 67.0957C223.561 66.9579 222.762 66.9027 221.962 66.8889C221.962 66.8338 221.962 66.7648 221.934 66.7097C220.514 58.6722 212.849 53.3094 204.812 54.7156C203.998 54.8534 203.226 55.074 202.482 55.3497C202.454 55.2946 202.427 55.2394 202.399 55.1843C198.318 48.1119 189.275 45.6993 182.216 49.78C181.499 50.1936 180.851 50.6624 180.244 51.1725C180.203 51.1311 180.162 51.0897 180.107 51.0484C173.848 45.7958 164.528 46.623 159.289 52.8682C158.765 53.5024 158.31 54.1641 157.911 54.8534C157.855 54.8259 157.8 54.7983 157.745 54.7845C150.08 51.9996 141.588 55.9425 138.803 63.6216C138.527 64.3936 138.334 65.1794 138.182 65.9515C138.127 65.9515 138.058 65.9515 138.003 65.9515C129.842 65.9515 123.224 72.5689 123.224 80.7304C123.224 81.5576 123.307 82.3572 123.431 83.143C123.376 83.1568 123.321 83.1706 123.252 83.1982C115.586 85.983 111.63 94.4754 114.415 102.141C114.69 102.913 115.049 103.63 115.435 104.333C115.393 104.374 115.338 104.402 115.283 104.443C109.024 109.696 108.211 119.015 113.463 125.26C113.987 125.895 114.566 126.446 115.173 126.97C115.145 127.025 115.104 127.066 115.076 127.122C110.996 134.194 113.422 143.224 120.481 147.305C121.197 147.718 121.928 148.049 122.673 148.325C122.673 148.38 122.645 148.449 122.631 148.504C121.211 156.542 126.588 164.207 134.625 165.627C135.439 165.765 136.238 165.82 137.038 165.834C137.038 165.889 137.038 165.958 137.066 166.013C138.486 174.05 146.151 179.413 154.188 178.007C155.002 177.869 155.774 177.649 156.518 177.373C156.546 177.428 156.573 177.483 156.601 177.538C160.682 184.611 169.725 187.023 176.784 182.943C177.501 182.529 178.149 182.06 178.756 181.55C178.797 181.591 178.838 181.633 178.893 181.674C185.152 186.927 194.472 186.1 199.711 179.854C200.235 179.22 200.69 178.558 201.089 177.869C201.145 177.897 201.2 177.924 201.255 177.938C208.92 180.723 217.413 176.78 220.197 169.101C220.473 168.329 220.666 167.543 220.818 166.771C220.873 166.771 220.942 166.771 220.997 166.771C229.158 166.771 235.776 160.154 235.776 151.992C235.776 151.165 235.693 150.365 235.569 149.58C235.624 149.566 235.679 149.552 235.748 149.524C243.414 146.74 247.37 138.247 244.585 130.582C244.31 129.81 243.951 129.093 243.565 128.39V128.39Z" fill="white" stroke="#1D1D1B" stroke-width="1.63641" stroke-miterlimit="10"/>
<path d="M168.258 102.942C168.258 96.9577 163.407 92.1062 157.422 92.1062C151.437 92.1062 146.586 96.9577 146.586 102.942V123.939C146.586 129.924 151.437 134.775 157.422 134.775C163.407 134.775 168.258 129.924 168.258 123.939V102.942Z" fill="white" stroke="#1D1D1B" stroke-width="1.63641" stroke-miterlimit="10"/>
<path d="M194.19 102.942C194.19 96.9577 189.338 92.1062 183.354 92.1062C177.369 92.1062 172.518 96.9577 172.518 102.942V123.939C172.518 129.924 177.369 134.775 183.354 134.775C189.338 134.775 194.19 129.924 194.19 123.939V102.942Z" fill="white" stroke="#1D1D1B" stroke-width="1.63641" stroke-miterlimit="10"/>
<path d="M163.183 101.985C163.183 97.7005 159.458 94.2273 154.864 94.2273C150.27 94.2273 146.546 97.7005 146.546 101.985V124.781C146.546 129.065 150.27 132.538 154.864 132.538C159.458 132.538 163.183 129.065 163.183 124.781V101.985Z" fill="#1D1D1B"/>
<path d="M189.093 101.985C189.093 97.7005 185.369 94.2273 180.774 94.2273C176.18 94.2273 172.456 97.7005 172.456 101.985V124.781C172.456 129.065 176.18 132.538 180.774 132.538C185.369 132.538 189.093 129.065 189.093 124.781V101.985Z" fill="#1D1D1B"/>
<path d="M183.259 103.685C184.683 103.685 185.837 102.531 185.837 101.107C185.837 99.6835 184.683 98.5293 183.259 98.5293C181.835 98.5293 180.681 99.6835 180.681 101.107C180.681 102.531 181.835 103.685 183.259 103.685Z" fill="white" stroke="#1D1D1B" stroke-width="1.63641" stroke-miterlimit="10"/>
<path d="M156.788 103.685C158.212 103.685 159.366 102.531 159.366 101.107C159.366 99.6835 158.212 98.5293 156.788 98.5293C155.364 98.5293 154.21 99.6835 154.21 101.107C154.21 102.531 155.364 103.685 156.788 103.685Z" fill="white" stroke="#1D1D1B" stroke-width="1.63641" stroke-miterlimit="10"/>
<rect x="170.649" y="126.048" width="26.597" height="12.6565" rx="1.00885" fill="url(#paint0_linear_1531_15228)" stroke="#222222" stroke-width="0.917139"/>
<rect x="142.217" y="126.048" width="26.597" height="12.6565" rx="1.00885" fill="url(#paint1_linear_1531_15228)" stroke="#222222" stroke-width="0.917139"/>
<rect x="169.272" y="129.075" width="1.28399" height="0.917139" fill="#222222"/>
<path d="M124.791 76.0618H233.346C235.437 76.0618 237.132 77.757 237.132 79.8481V83.6344H122.701V78.1518C122.701 76.9975 123.637 76.0618 124.791 76.0618Z" fill="#FF4E4E" stroke="#222222" stroke-width="1.40234"/>
<rect x="122.702" y="81.1123" width="114.596" height="2.52785" fill="white" stroke="#222222" stroke-width="1.40436"/>
<path d="M126.823 73.2772H231.614C233.277 73.2772 234.664 74.4583 234.983 76.0276H123.454C123.772 74.4583 125.16 73.2772 126.823 73.2772Z" fill="white" stroke="#222222" stroke-width="1.37521"/>
</g>
<defs>
<linearGradient id="paint0_linear_1531_15228" x1="183.948" y1="125.59" x2="183.948" y2="139.163" gradientUnits="userSpaceOnUse">
<stop stop-color="#222222"/>
<stop offset="1" stop-color="#222222" stop-opacity="0"/>
</linearGradient>
<linearGradient id="paint1_linear_1531_15228" x1="155.516" y1="125.59" x2="155.516" y2="139.163" gradientUnits="userSpaceOnUse">
<stop stop-color="#222222"/>
<stop offset="1" stop-color="#222222" stop-opacity="0"/>
</linearGradient>
<clipPath id="clip0_1531_15228">
<rect width="310" height="310" fill="white"/>
</clipPath>
</defs>
</svg>
